<?xml version="1.0" encoding="utf-8"?>
<!-- Generator: Adobe Illustrator 24.1.1, SVG Export Plug-In . SVG Version: 6.00 Build 0)  -->
<svg version="1.1" id="Capa_1" xmlns="http://www.w3.org/2000/svg" xmlns:xlink="http://www.w3.org/1999/xlink" x="0px" y="0px"
	 viewBox="0 0 1447 851" style="enable-background:new 0 0 1447 851;" xml:space="preserve">
<style type="text/css">
	.st0{fill:#22A331;}
	.st1{fill:#0E8C0E;}
	.st2{fill:#5ED15E;}
	.st3{fill:#36BF39;}
</style>
<path class="st0" d="M88.9,599V284c2.6-11.4,8.6-16.8,16-20l176,177l-177,177C98.2,618.2,93,613.4,88.9,599z"/>
<path class="st1" d="M104.9,264c3.1-1,6.5-0.8,9.5,0.5L336,386.4l-55.5,55.1L104.9,264z"/>
<path class="st2" d="M335.7,386.4l70.7,41.7c11,8.2,8.6,21.6,0.5,28.3l-72.4,40.2l-54.1-55.1L335.7,386.4z"/>
<path class="st3" d="M280.4,441.5l54,55L115.8,617c-3.6,1.7-7.5,1.8-11.9,1.5L280.4,441.5z"/>
<path class="st0" d="M1351.8,188c43.7,0,79.2,35.5,79.2,79.2v339.6c0,43.7-35.5,79.2-79.2,79.2H110.3c-43.7,0-79.2-35.5-79.2-79.2
	V267.2c0-43.7,35.5-79.2,79.2-79.2L1351.8,188 M1351.8,178H110.3c-49.3,0-89.2,39.9-89.2,89.2v339.6c0,49.3,39.9,89.2,89.2,89.2l0,0
	h1241.4c49.3,0,89.2-39.9,89.2-89.2V267.2C1441,217.9,1401,178,1351.8,178z"/>
<path class="st0" d="M566.4,457.3l-12.7,12.9c-35.1-16.9-54.9-15.9-73,3.3c-15.3,16.2-18.2,41.4-6.9,61.4
	c10.8,19.2,32.6,28.7,55.7,24.3c18.5-3.5,31.1-17,33.2-36.9h-45v-19.5c20.5,0,40.8-0.2,61.2,0.4c1.7,0,4.5,5.2,4.7,8.1
	c1.2,25-7.1,45.9-29.3,59c-23.8,14.1-48.8,13.6-72.6,0.2c-24.8-14-37.9-36.3-36.2-64.9c1.7-30.4,18-52.1,46.5-62.8
	C519,432.5,544,437.3,566.4,457.3z"/>
<path class="st0" d="M853.7,493.8l23.3-3.2c0.5,4.1,1,6.9,1,9.7c0.1,25.8,0.2,51.6,0,77.4c-0.2,22-12.5,38.3-31.4,42.2
	c-23.2,4.8-41.7-4.3-52-26.2l16.1-6.9c13,15,22.4,18.8,34.3,14.1c9.9-3.9,14.5-13.4,13.6-25.8c-10.9,1.3-22.7,5.8-32.7,3.2
	c-10.2-2.7-20.9-10.5-27.5-19c-13.2-17.1-9.7-41.9,5.3-57.6C818,486.9,837,484.7,853.7,493.8z M860.4,533.8
	c-0.2-15.1-10.9-27.3-24.1-27.4c-13.4,0-25.4,13-25.5,27.6c-0.1,15.3,12.1,28.1,26.4,27.6C850.7,561.1,860.7,549.1,860.4,533.8
	L860.4,533.8z"/>
<path class="st0" d="M1051.3,442.7c17.7,0,34.5-0.7,51.2,0.2c23.2,1.2,41.3,21.3,40.3,43c-1.1,22.6-19.4,39.7-43.1,40.2
	c-9.3,0.2-18.5,0-29.3,0v50.6h-19.1V442.7z M1071,507.5c10.8,0,20.1,0.5,29.3-0.1c11.7-0.9,20.9-10.1,21.9-21.8
	c0.7-10.9-7.8-22-19.9-23.4c-10.2-1.2-20.6-0.2-31.4-0.2L1071,507.5L1071,507.5z"/>
<path class="st0" d="M1263.3,578c-7.7-3.3-17.9,6.1-20.4-8.6c-10.9,10.1-23.3,13-37.3,8.5c-13-4.2-20.4-13.5-20.9-26.1
	c-0.5-13,5.3-24.1,18.4-27.6c12.4-3.3,25.9-2.9,39-4.2c-0.7-10.7-17.4-18.1-30.5-10.6c-11.4,6.5-11.4,6.5-23.8-1.1
	c7.7-15.9,23.6-22.8,44.3-19.1c18.3,3.3,30.1,14.4,31,31.7C1264,539,1263.3,557.4,1263.3,578z M1243.3,540.8
	c-9-5.4-19.1-6.3-28.3-2.2c-4.3,1.9-9.6,8.9-9,12.7s7.5,8.8,12.3,9.8C1229.8,563.5,1239.6,555,1243.3,540.8L1243.3,540.8z"/>
<path class="st0" d="M637,579.9c-26.4,0.2-46.4-19.4-46.5-45.5s19.9-46.2,46-46.2c25.6,0,45.6,19.6,46.1,45.1
	C683,559.3,663.1,579.7,637,579.9z M662,534.3c0.1-14.9-11.2-27.5-25.1-27.9c-13.7-0.4-25.8,12.1-26.1,26.9
	c-0.3,15.6,11.3,28.4,25.7,28.3C650.6,561.6,661.9,549.5,662,534.3z"/>
<path class="st0" d="M782.1,533.8c0.1,26.7-19,46.1-45.5,46.1c-25.9,0-45.4-19.2-45.7-45c-0.3-26.6,18.8-46.4,45.2-46.8
	S782,507.2,782.1,533.8z M711.2,533.8c-0.2,15.4,10.6,27.4,24.8,27.8c13.9,0.4,25.8-11.7,26.3-26.7c0.5-15.2-11.6-28.6-25.7-28.5
	S711.3,518.7,711.2,533.8L711.2,533.8z"/>
<path class="st0" d="M1005.6,523.1L946.2,548c10.7,17.6,25.6,18.2,44.1,1.6l14.3,9.2c-10.1,18.2-31.4,25.6-52.4,18.8
	s-32.7-27-29.7-51.5c2.5-20.5,18.7-35.9,39.6-37.7C982.2,486.6,999.2,500,1005.6,523.1z M982.3,515.6c-7.2-9.7-15.2-11.1-24.4-7.6
	c-10.2,3.9-15.4,12.6-13.9,23.5L982.3,515.6z"/>
<path class="st0" d="M1280.6,616.7c5.4-12.1,11.3-23.7,15.7-35.9c1.8-4.9,2-11.7,0.1-16.5c-9.7-23.8-20.3-47.2-30.7-70.8
	c17.7-5.2,20.3-4.1,26.7,11.5c5.8,14,11.5,28,18.2,44.3c6.2-15.7,11.6-29.1,16.9-42.5c7-17.7,7-17.7,28.2-14.1
	c-9.3,21.4-18.5,42.5-27.7,63.7c-6.7,15.4-13.3,30.8-20,46.3C1300.6,619.5,1300.6,619.5,1280.6,616.7z"/>
<path class="st0" d="M911.7,443.5v133.3h-18.9V443.5H911.7z"/>
<path class="st0" d="M1173.2,443.3v133.4h-19.3V443.3H1173.2z"/>
<path class="st0" d="M456.7,370.3v-63h23.4c5.6-0.1,11.1,1.2,16.1,3.7c4.6,2.4,8.5,6.2,11,10.8c2.7,4.7,4,10.4,4,17s-1.3,12.3-4,17
	c-2.6,4.6-6.4,8.3-11,10.8c-5,2.6-10.5,3.9-16.1,3.7H456.7z M466.5,361.5h13.6c4,0.1,7.9-0.8,11.3-2.8c3-1.9,5.4-4.6,6.9-7.9
	c3.1-7.7,3.1-16.2,0-23.9c-1.4-3.3-3.8-6-6.9-7.9c-3.4-2-7.3-2.9-11.3-2.8h-13.6V361.5z"/>
<path class="st0" d="M521.9,370.3v-63h39.2v9.2h-29.3v16.3h23.1v9.2h-23.1v19.1H562v9.2L521.9,370.3z"/>
<path class="st0" d="M590.4,371.6c-2.6,0-5.3-0.2-7.8-0.6s-4.9-1-7.4-1.6c-1.9-0.5-3.7-1.2-5.5-2L571,357c2,1,4.1,1.9,6.2,2.6
	c2.4,0.9,4.8,1.6,7.3,2.1c2.5,0.6,5.1,0.9,7.7,0.9c3,0.2,6-0.5,8.7-2c2.2-1.4,3.4-3.9,3.2-6.4c0.1-1.9-0.5-3.8-1.7-5.3
	c-1.4-1.6-3.2-2.8-5.2-3.5c-2.9-1.2-5.8-2.3-8.8-3.2c-3.2-1-6.3-2.3-9.3-3.8c-2.7-1.3-5-3.2-6.7-5.6c-1.8-2.7-2.7-5.9-2.5-9.1
	c-0.1-3.2,0.8-6.3,2.6-9c1.9-2.8,4.5-4.9,7.6-6.2c4-1.6,8.2-2.4,12.5-2.2c3.8,0,7.6,0.4,11.2,1.3c3,0.7,5.9,1.7,8.7,2.9l-1,10.3
	c-3.1-1.7-6.4-3.1-9.9-4c-3.1-0.8-6.3-1.3-9.6-1.3c-3-0.1-5.9,0.5-8.6,1.9c-2.1,1.2-3.4,3.5-3.3,6c-0.1,1.7,0.5,3.4,1.6,4.8
	c1.3,1.4,2.9,2.5,4.6,3.1c2,0.9,4.5,1.8,7.5,2.7c3.9,1.1,7.8,2.7,11.4,4.6c2.9,1.5,5.3,3.6,7.1,6.3c1.7,2.7,2.6,5.9,2.5,9.1
	c0,2.3-0.4,4.6-1.2,6.7c-0.9,2.2-2.3,4.2-4.1,5.7c-2.2,1.9-4.8,3.2-7.5,4C598.2,371.2,594.3,371.7,590.4,371.6z"/>
<path class="st0" d="M653,371.6c-5.8,0.1-11.5-1.3-16.6-4c-4.8-2.7-8.7-6.6-11.3-11.4c-2.8-5.3-4.2-11.3-4.1-17.3
	c-0.1-6,1.3-12,4.2-17.3c2.7-4.8,6.7-8.8,11.5-11.4c5.1-2.8,10.9-4.2,16.7-4c3.1,0,6.1,0.3,9.1,1c2.6,0.6,5.1,1.5,7.5,2.7l-1.1,9.3
	c-2.3-1.1-4.8-2-7.3-2.7c-2.7-0.7-5.5-1.1-8.4-1.1c-4.2-0.1-8.3,0.9-11.9,3.1c-3.2,2.1-5.7,5-7.2,8.5c-1.7,3.8-2.5,7.9-2.5,12
	c-0.1,4.1,0.8,8.2,2.4,12c1.5,3.4,4,6.4,7.2,8.5c3.5,2.2,7.6,3.3,11.7,3.2c2.8,0,5.7-0.3,8.4-1c2.5-0.7,5-1.6,7.4-2.7l1.1,9.2
	c-2.5,1.1-5.1,2-7.7,2.6C659.2,371.3,656.1,371.6,653,371.6z"/>
<path class="st0" d="M699.3,316.9h2.7l-18.8,53.4h-9.9l22.5-63h9.8l22.5,63h-9.9L699.3,316.9z M714.1,354.2h-26.7v-8.8h26.7V354.2z"
	/>
<path class="st0" d="M735.7,370.3v-63h21.5c3.9-0.1,7.8,0.6,11.5,2c3.1,1.3,5.8,3.4,7.6,6.3c1.9,3.3,2.9,7,2.7,10.8
	c0.2,3.8-0.8,7.6-2.9,10.9c-2,2.9-4.8,5.2-8,6.7l14.2,26.2h-11.5l-12.5-24.1h-12.5v24.1h-10.1V370.3z M745.7,337.7h10.1
	c4.5,0,7.7-1,9.8-3c2.1-2.1,3.2-5,3.1-8c0-3.4-1-6.1-3.1-8c-2-1.9-5.3-2.9-9.7-2.9h-10.3L745.7,337.7z"/>
<path class="st0" d="M818.4,371.6c-5.7,0.1-11.3-1.3-16.3-4c-4.7-2.7-8.5-6.6-11-11.4c-2.7-5.4-4.1-11.3-3.9-17.4
	c-0.1-6,1.3-12,4.2-17.3c2.7-4.8,6.7-8.8,11.6-11.4c5.2-2.7,11-4.1,16.9-4c3.2,0,6.5,0.3,9.6,1.1c2.7,0.6,5.4,1.5,8,2.6l-1,9
	c-2.5-1-5-1.9-7.7-2.5c-2.9-0.7-5.8-1-8.8-1c-5.1,0-9.2,1-12.5,3.1c-3.2,2-5.8,5-7.3,8.5c-1.6,3.8-2.4,7.8-2.4,11.9
	c-0.1,4.2,0.7,8.4,2.4,12.2c1.5,3.5,4.1,6.4,7.3,8.4c3.3,2.1,7.4,3.1,12.4,3.1c1.6,0,3.1-0.1,4.7-0.3c1.7-0.2,3.4-0.6,5.1-1.1v-13.8
	h-9.5v-8.5h19.2v28.1c-2.8,1.5-5.9,2.6-9,3.4C826.5,371.2,822.5,371.6,818.4,371.6z"/>
<path class="st0" d="M870.5,316.9h2.7l-18.8,53.4h-9.9l22.5-63h9.8l22.5,63h-9.9L870.5,316.9z M885.2,354.2h-26.7v-8.8h26.7V354.2z"
	/>
<path class="st0" d="M927,370.3v-63h39.2v9.2H937v16.3h23.1v9.2H937v19.1h30.2v9.2L927,370.3z"/>
<path class="st0" d="M977.4,370.3v-63h10.2l29.3,44.4v-44.4h9.9v63h-8.2l-31.3-47v47H977.4z"/>
</svg>
