<svg id="Capa_1" data-name="Capa 1" xmlns="http://www.w3.org/2000/svg" viewBox="0 0 1447 851"><defs><style>.cls-1{fill:#22a331;}.cls-2{fill:#0e8c0e;}.cls-3{fill:#5ed15e;}.cls-4{fill:#36bf39;}</style></defs><path class="cls-1" d="M88.92,599V284c2.55-11.38,8.6-16.83,16-20l176,177-177,177C98.17,618.22,93,613.42,88.92,599Z"/><path class="cls-2" d="M104.9,264a13.39,13.39,0,0,1,9.52.52L336,386.44l-55.54,55.1Z"/><path class="cls-3" d="M335.69,386.4l70.74,41.67c11,8.16,8.64,21.6.48,28.32l-72.4,40.21-54.08-55.08Z"/><path class="cls-4" d="M280.4,441.51l54,55L115.76,617c-3.6,1.73-7.51,1.84-11.94,1.5Z"/><path class="cls-1" d="M1351.76,188a79.29,79.29,0,0,1,79.2,79.2V606.8a79.29,79.29,0,0,1-79.2,79.2H110.32a79.29,79.29,0,0,1-79.2-79.2V267.2a79.29,79.29,0,0,1,79.2-79.2H1351.76m0-10H110.32a89.2,89.2,0,0,0-89.2,89.2V606.8a89.2,89.2,0,0,0,89.2,89.2H1351.76a89.2,89.2,0,0,0,89.2-89.2V267.2a89.2,89.2,0,0,0-89.2-89.2Z"/><path class="cls-1" d="M566.39,457.32l-12.74,12.9c-35.14-16.91-54.92-15.91-73,3.28-15.32,16.23-18.16,41.44-6.92,61.38,10.81,19.19,32.56,28.65,55.73,24.25,18.54-3.52,31.11-17,33.22-36.93H517.73V502.75c20.45,0,40.82-.2,61.17.37,1.71.05,4.55,5.23,4.69,8.13,1.2,25-7.12,45.9-29.25,59-23.81,14.06-48.76,13.63-72.58.15-24.83-14.05-37.85-36.35-36.23-64.9,1.72-30.37,18-52.07,46.5-62.81C519.05,432.47,544,437.29,566.39,457.32Z"/><path class="cls-1" d="M853.73,493.84l23.35-3.23c.45,4.06,1,6.87,1,9.68.07,25.81.21,51.61,0,77.41-.19,22-12.51,38.3-31.44,42.19-23.15,4.77-41.73-4.33-52-26.18l16.07-6.89c13,15,22.43,18.84,34.31,14.13,9.91-3.93,14.47-13.36,13.63-25.84-10.94,1.33-22.71,5.76-32.65,3.16-10.24-2.67-20.89-10.49-27.49-19-13.18-17.09-9.71-41.91,5.3-57.57C818,486.87,837.05,484.68,853.73,493.84Zm6.72,39.94c-.22-15.14-10.92-27.29-24.07-27.35-13.37-.05-25.43,13-25.53,27.61-.12,15.31,12.1,28.09,26.36,27.56C850.65,561.09,860.69,549.08,860.45,533.78Z"/><path class="cls-1" d="M1051.27,442.72c17.65,0,34.48-.71,51.22.17,23.15,1.23,41.34,21.29,40.27,43-1.12,22.57-19.45,39.72-43.08,40.15-9.26.17-18.53,0-29.32,0v50.59h-19.09ZM1071,507.45c10.75,0,20.08.51,29.33-.12a23.83,23.83,0,0,0,21.9-21.79c.69-10.93-7.84-22-19.87-23.36-10.19-1.18-20.62-.24-31.36-.24Z"/><path class="cls-1" d="M1263.3,578c-7.66-3.28-17.86,6.11-20.43-8.64-10.93,10.09-23.34,13-37.27,8.46-13-4.22-20.42-13.52-20.87-26.1-.46-13,5.33-24.08,18.4-27.56,12.44-3.31,25.88-2.92,39-4.17-.68-10.68-17.41-18.11-30.5-10.64-11.4,6.51-11.4,6.51-23.8-1.11,7.69-15.9,23.61-22.76,44.29-19.06,18.32,3.27,30.1,14.44,31,31.69C1264,539.05,1263.3,557.37,1263.3,578Zm-20-37.17c-9-5.4-19.07-6.27-28.35-2.17-4.32,1.9-9.6,8.9-9,12.73s7.47,8.78,12.31,9.79C1229.85,563.55,1239.61,555,1243.25,540.78Z"/><path class="cls-1" d="M637,579.94c-26.38.21-46.39-19.38-46.54-45.55s19.91-46.19,46-46.18c25.6,0,45.63,19.6,46.08,45.1C683,559.28,663.06,579.73,637,579.94Zm25-45.6c.1-14.89-11.2-27.46-25.09-27.9-13.66-.42-25.8,12.08-26.1,26.89-.31,15.58,11.29,28.36,25.67,28.3C650.63,561.57,661.93,549.47,662,534.34Z"/><path class="cls-1" d="M782.07,533.84c.1,26.68-19.05,46.07-45.54,46.1-25.88,0-45.44-19.19-45.73-45-.29-26.62,18.8-46.4,45.15-46.77S782,507.21,782.07,533.84Zm-70.9,0c-.17,15.36,10.6,27.44,24.78,27.8,13.9.36,25.8-11.7,26.31-26.65.52-15.17-11.57-28.63-25.66-28.55S711.33,518.65,711.17,533.83Z"/><path class="cls-1" d="M1005.62,523.11,946.24,548c10.73,17.64,25.64,18.15,44.11,1.61l14.3,9.16c-10.08,18.15-31.41,25.58-52.38,18.82s-32.66-27-29.73-51.54c2.45-20.47,18.65-35.91,39.58-37.73C982.24,486.58,999.24,500,1005.62,523.11Zm-23.27-7.46c-7.2-9.67-15.2-11.07-24.37-7.61-10.2,3.86-15.36,12.59-13.91,23.53Z"/><path class="cls-1" d="M1280.55,616.67c5.42-12.12,11.31-23.74,15.73-35.9,1.79-4.92,2-11.7.1-16.45-9.68-23.77-20.33-47.15-30.69-70.76,17.74-5.21,20.27-4.06,26.67,11.48,5.77,14,11.52,28,18.23,44.33,6.23-15.68,11.59-29.1,16.9-42.55,7-17.68,7-17.68,28.23-14.11-9.3,21.37-18.51,42.51-27.69,63.66q-10,23.11-20,46.25C1300.63,619.53,1300.62,619.53,1280.55,616.67Z"/><path class="cls-1" d="M911.73,443.53V576.82H892.82V443.53Z"/><path class="cls-1" d="M1173.16,443.25V576.66h-19.27V443.25Z"/><path class="cls-1" d="M456.71,370.32v-63h23.44a33.88,33.88,0,0,1,16.13,3.73,27.17,27.17,0,0,1,11.05,10.78q4,7.05,4,17t-4,17a27,27,0,0,1-11.05,10.77,33.77,33.77,0,0,1-16.13,3.74Zm9.8-8.82h13.64a21.12,21.12,0,0,0,11.29-2.81,17.73,17.73,0,0,0,6.87-7.92,31.94,31.94,0,0,0,0-23.9,17.73,17.73,0,0,0-6.87-7.92,21.12,21.12,0,0,0-11.29-2.81H466.51Z"/><path class="cls-1" d="M521.87,370.32v-63H561.1v9.18H531.81v16.33h23.08V342H531.81v19.13H562v9.18Z"/><path class="cls-1" d="M590.4,371.58a49,49,0,0,1-7.85-.65,62.29,62.29,0,0,1-7.36-1.65,40.58,40.58,0,0,1-5.54-2l1.26-10.44a61.77,61.77,0,0,0,6.19,2.61,58.12,58.12,0,0,0,7.27,2.12,35.37,35.37,0,0,0,7.74.85,16.14,16.14,0,0,0,8.68-2A7,7,0,0,0,604,354a8,8,0,0,0-1.71-5.29,13.73,13.73,0,0,0-5.15-3.55,88.5,88.5,0,0,0-8.75-3.18,59.39,59.39,0,0,1-9.29-3.78,18.6,18.6,0,0,1-6.73-5.64,15.22,15.22,0,0,1-2.52-9.12,16,16,0,0,1,2.59-9,17,17,0,0,1,7.62-6.16,30.77,30.77,0,0,1,12.47-2.23,45.08,45.08,0,0,1,11.23,1.33,58.84,58.84,0,0,1,8.7,2.85l-1,10.26a48,48,0,0,0-9.87-4.05,37,37,0,0,0-9.57-1.26,17,17,0,0,0-8.57,1.89,6.43,6.43,0,0,0-3.26,6,7.05,7.05,0,0,0,1.57,4.79,12.45,12.45,0,0,0,4.64,3.13q3.06,1.31,7.47,2.7a59.71,59.71,0,0,1,11.38,4.59,19.84,19.84,0,0,1,7.14,6.25,16.23,16.23,0,0,1,2.45,9.14,18.33,18.33,0,0,1-1.24,6.71,14.81,14.81,0,0,1-4.07,5.73,20,20,0,0,1-7.54,4A39.81,39.81,0,0,1,590.4,371.58Z"/><path class="cls-1" d="M653,371.58a33.33,33.33,0,0,1-16.58-4.05,29,29,0,0,1-11.32-11.41,35,35,0,0,1-4.09-17.3,34.59,34.59,0,0,1,4.16-17.3,29.21,29.21,0,0,1,11.5-11.41,33.94,33.94,0,0,1,16.69-4.05,39.31,39.31,0,0,1,9.14,1,35,35,0,0,1,7.47,2.66L668.88,319a45.09,45.09,0,0,0-7.25-2.7,31,31,0,0,0-8.37-1.08,21.27,21.27,0,0,0-11.88,3.13,19.79,19.79,0,0,0-7.22,8.46,28.59,28.59,0,0,0-2.45,12,28.89,28.89,0,0,0,2.41,12,19.57,19.57,0,0,0,7.15,8.46A21,21,0,0,0,653,362.44a32.61,32.61,0,0,0,8.44-1,42.72,42.72,0,0,0,7.4-2.72l1.08,9.23a43.38,43.38,0,0,1-7.72,2.6A39,39,0,0,1,653,371.58Z"/><path class="cls-1" d="M699.34,316.9H702l-18.85,53.42h-9.9l22.5-63h9.81l22.5,63h-9.9Zm14.72,37.31H687.33v-8.77h26.73Z"/><path class="cls-1" d="M735.66,370.32v-63h21.55a29.34,29.34,0,0,1,11.45,2.05,16.12,16.12,0,0,1,7.59,6.28,19.68,19.68,0,0,1,2.7,10.79,19.24,19.24,0,0,1-2.86,10.92,19.64,19.64,0,0,1-8,6.72l14.18,26.24H770.8l-12.51-24.08H745.74v24.08Zm10.08-32.58h10.12q6.71,0,9.79-3a10.7,10.7,0,0,0,3.08-8q0-5.16-3.06-8T756,315.82h-10.3Z"/><path class="cls-1" d="M818.37,371.58a32.18,32.18,0,0,1-16.32-4.05,28.26,28.26,0,0,1-11-11.43,36.44,36.44,0,0,1-3.93-17.37,34.24,34.24,0,0,1,4.2-17.26,29.29,29.29,0,0,1,11.59-11.38,34.69,34.69,0,0,1,16.92-4,42.49,42.49,0,0,1,9.63,1.06,42.92,42.92,0,0,1,8,2.58l-1,9a50.78,50.78,0,0,0-7.65-2.47,37.21,37.21,0,0,0-8.77-1q-7.61,0-12.51,3.13a18.93,18.93,0,0,0-7.27,8.46,29,29,0,0,0-2.36,11.91,29.63,29.63,0,0,0,2.4,12.23,18.86,18.86,0,0,0,7.32,8.44q4.9,3.09,12.37,3.08a38.48,38.48,0,0,0,4.68-.33,28.75,28.75,0,0,0,5.09-1.11V347.23H820.3v-8.5h19.22v28.08a38,38,0,0,1-9,3.38A49.47,49.47,0,0,1,818.37,371.58Z"/><path class="cls-1" d="M870.47,316.9h2.7l-18.85,53.42h-9.9l22.5-63h9.81l22.5,63h-9.9Zm14.72,37.31H858.46v-8.77h26.73Z"/><path class="cls-1" d="M927,370.32v-63h39.24v9.18H937v16.33h23.09V342H937v19.13h30.15v9.18Z"/><path class="cls-1" d="M977.44,370.32v-63h10.17l29.29,44.41V307.32h9.86v63h-8.19l-31.32-47v47Z"/></svg>