<?xml version="1.0" encoding="utf-8"?>
<!-- Generator: Adobe Illustrator 24.1.1, SVG Export Plug-In . SVG Version: 6.00 Build 0)  -->
<svg version="1.1" id="Capa_1" xmlns="http://www.w3.org/2000/svg" xmlns:xlink="http://www.w3.org/1999/xlink" x="0px" y="0px"
	 viewBox="0 0 1447 851" style="enable-background:new 0 0 1447 851;" xml:space="preserve">
<style type="text/css">
	.st0{display:none;}
	.st1{display:inline;fill:#22A331;}
	.st2{display:inline;fill:#0E8C0E;}
	.st3{display:inline;fill:#5ED15E;}
	.st4{display:inline;fill:#36BF39;}
	.st5{fill:#22A331;}
	.st6{fill:#C4C6C4;}
</style>
<g class="st0">
	<path class="st1" d="M88.9,599V284c2.6-11.4,8.6-16.8,16-20l176,177l-177,177C98.2,618.2,93,613.4,88.9,599z"/>
	<path class="st2" d="M104.9,264c3.1-1,6.5-0.8,9.5,0.5L336,386.4l-55.5,55.1L104.9,264z"/>
	<path class="st3" d="M335.7,386.4l70.7,41.7c11,8.2,8.6,21.6,0.5,28.3l-72.4,40.2l-54.1-55.1L335.7,386.4z"/>
	<path class="st4" d="M280.4,441.5l54,55L115.8,617c-3.6,1.7-7.5,1.8-11.9,1.5L280.4,441.5z"/>
	<path class="st1" d="M1351.8,188c43.7,0,79.2,35.5,79.2,79.2v339.6c0,43.7-35.5,79.2-79.2,79.2H110.3c-43.7,0-79.2-35.5-79.2-79.2
		V267.2c0-43.7,35.5-79.2,79.2-79.2L1351.8,188 M1351.8,178H110.3c-49.3,0-89.2,39.9-89.2,89.2v339.6c0,49.3,39.9,89.2,89.2,89.2
		l0,0h1241.4c49.3,0,89.2-39.9,89.2-89.2V267.2C1441,217.9,1401,178,1351.8,178z"/>
	<path class="st1" d="M566.4,457.3l-12.7,12.9c-35.1-16.9-54.9-15.9-73,3.3c-15.3,16.2-18.2,41.4-6.9,61.4
		c10.8,19.2,32.6,28.7,55.7,24.3c18.5-3.5,31.1-17,33.2-36.9h-45v-19.5c20.5,0,40.8-0.2,61.2,0.4c1.7,0,4.5,5.2,4.7,8.1
		c1.2,25-7.1,45.9-29.3,59c-23.8,14.1-48.8,13.6-72.6,0.2c-24.8-14-37.9-36.3-36.2-64.9c1.7-30.4,18-52.1,46.5-62.8
		C519,432.5,544,437.3,566.4,457.3z"/>
	<path class="st1" d="M853.7,493.8l23.3-3.2c0.5,4.1,1,6.9,1,9.7c0.1,25.8,0.2,51.6,0,77.4c-0.2,22-12.5,38.3-31.4,42.2
		c-23.2,4.8-41.7-4.3-52-26.2l16.1-6.9c13,15,22.4,18.8,34.3,14.1c9.9-3.9,14.5-13.4,13.6-25.8c-10.9,1.3-22.7,5.8-32.7,3.2
		c-10.2-2.7-20.9-10.5-27.5-19c-13.2-17.1-9.7-41.9,5.3-57.6C818,486.9,837,484.7,853.7,493.8z M860.4,533.8
		c-0.2-15.1-10.9-27.3-24.1-27.4c-13.4,0-25.4,13-25.5,27.6c-0.1,15.3,12.1,28.1,26.4,27.6C850.7,561.1,860.7,549.1,860.4,533.8
		L860.4,533.8z"/>
	<path class="st1" d="M1051.3,442.7c17.7,0,34.5-0.7,51.2,0.2c23.2,1.2,41.3,21.3,40.3,43c-1.1,22.6-19.4,39.7-43.1,40.2
		c-9.3,0.2-18.5,0-29.3,0v50.6h-19.1V442.7z M1071,507.5c10.8,0,20.1,0.5,29.3-0.1c11.7-0.9,20.9-10.1,21.9-21.8
		c0.7-10.9-7.8-22-19.9-23.4c-10.2-1.2-20.6-0.2-31.4-0.2L1071,507.5L1071,507.5z"/>
	<path class="st1" d="M1263.3,578c-7.7-3.3-17.9,6.1-20.4-8.6c-10.9,10.1-23.3,13-37.3,8.5c-13-4.2-20.4-13.5-20.9-26.1
		c-0.5-13,5.3-24.1,18.4-27.6c12.4-3.3,25.9-2.9,39-4.2c-0.7-10.7-17.4-18.1-30.5-10.6c-11.4,6.5-11.4,6.5-23.8-1.1
		c7.7-15.9,23.6-22.8,44.3-19.1c18.3,3.3,30.1,14.4,31,31.7C1264,539,1263.3,557.4,1263.3,578z M1243.3,540.8
		c-9-5.4-19.1-6.3-28.3-2.2c-4.3,1.9-9.6,8.9-9,12.7s7.5,8.8,12.3,9.8C1229.8,563.5,1239.6,555,1243.3,540.8L1243.3,540.8z"/>
	<path class="st1" d="M637,579.9c-26.4,0.2-46.4-19.4-46.5-45.5s19.9-46.2,46-46.2c25.6,0,45.6,19.6,46.1,45.1
		C683,559.3,663.1,579.7,637,579.9z M662,534.3c0.1-14.9-11.2-27.5-25.1-27.9c-13.7-0.4-25.8,12.1-26.1,26.9
		c-0.3,15.6,11.3,28.4,25.7,28.3C650.6,561.6,661.9,549.5,662,534.3z"/>
	<path class="st1" d="M782.1,533.8c0.1,26.7-19,46.1-45.5,46.1c-25.9,0-45.4-19.2-45.7-45c-0.3-26.6,18.8-46.4,45.2-46.8
		S782,507.2,782.1,533.8z M711.2,533.8c-0.2,15.4,10.6,27.4,24.8,27.8c13.9,0.4,25.8-11.7,26.3-26.7c0.5-15.2-11.6-28.6-25.7-28.5
		S711.3,518.7,711.2,533.8L711.2,533.8z"/>
	<path class="st1" d="M1005.6,523.1L946.2,548c10.7,17.6,25.6,18.2,44.1,1.6l14.3,9.2c-10.1,18.2-31.4,25.6-52.4,18.8
		s-32.7-27-29.7-51.5c2.5-20.5,18.7-35.9,39.6-37.7C982.2,486.6,999.2,500,1005.6,523.1z M982.3,515.6c-7.2-9.7-15.2-11.1-24.4-7.6
		c-10.2,3.9-15.4,12.6-13.9,23.5L982.3,515.6z"/>
	<path class="st1" d="M911.7,443.5v133.3h-18.9V443.5H911.7z"/>
	<path class="st1" d="M1173.2,443.3v133.4h-19.3V443.3H1173.2z"/>
	<path class="st1" d="M456.7,370.3v-63h23.4c5.6-0.1,11.1,1.2,16.1,3.7c4.6,2.4,8.5,6.2,11,10.8c2.7,4.7,4,10.4,4,17s-1.3,12.3-4,17
		c-2.6,4.6-6.4,8.3-11,10.8c-5,2.6-10.5,3.9-16.1,3.7H456.7z M466.5,361.5h13.6c4,0.1,7.9-0.8,11.3-2.8c3-1.9,5.4-4.6,6.9-7.9
		c3.1-7.7,3.1-16.2,0-23.9c-1.4-3.3-3.8-6-6.9-7.9c-3.4-2-7.3-2.9-11.3-2.8h-13.6V361.5z"/>
	<path class="st1" d="M521.9,370.3v-63h39.2v9.2h-29.3v16.3h23.1v9.2h-23.1v19.1H562v9.2L521.9,370.3z"/>
	<path class="st1" d="M590.4,371.6c-2.6,0-5.3-0.2-7.8-0.6s-4.9-1-7.4-1.6c-1.9-0.5-3.7-1.2-5.5-2L571,357c2,1,4.1,1.9,6.2,2.6
		c2.4,0.9,4.8,1.6,7.3,2.1c2.5,0.6,5.1,0.9,7.7,0.9c3,0.2,6-0.5,8.7-2c2.2-1.4,3.4-3.9,3.2-6.4c0.1-1.9-0.5-3.8-1.7-5.3
		c-1.4-1.6-3.2-2.8-5.2-3.5c-2.9-1.2-5.8-2.3-8.8-3.2c-3.2-1-6.3-2.3-9.3-3.8c-2.7-1.3-5-3.2-6.7-5.6c-1.8-2.7-2.7-5.9-2.5-9.1
		c-0.1-3.2,0.8-6.3,2.6-9c1.9-2.8,4.5-4.9,7.6-6.2c4-1.6,8.2-2.4,12.5-2.2c3.8,0,7.6,0.4,11.2,1.3c3,0.7,5.9,1.7,8.7,2.9l-1,10.3
		c-3.1-1.7-6.4-3.1-9.9-4c-3.1-0.8-6.3-1.3-9.6-1.3c-3-0.1-5.9,0.5-8.6,1.9c-2.1,1.2-3.4,3.5-3.3,6c-0.1,1.7,0.5,3.4,1.6,4.8
		c1.3,1.4,2.9,2.5,4.6,3.1c2,0.9,4.5,1.8,7.5,2.7c3.9,1.1,7.8,2.7,11.4,4.6c2.9,1.5,5.3,3.6,7.1,6.3c1.7,2.7,2.6,5.9,2.5,9.1
		c0,2.3-0.4,4.6-1.2,6.7c-0.9,2.2-2.3,4.2-4.1,5.7c-2.2,1.9-4.8,3.2-7.5,4C598.2,371.2,594.3,371.7,590.4,371.6z"/>
	<path class="st1" d="M653,371.6c-5.8,0.1-11.5-1.3-16.6-4c-4.8-2.7-8.7-6.6-11.3-11.4c-2.8-5.3-4.2-11.3-4.1-17.3
		c-0.1-6,1.3-12,4.2-17.3c2.7-4.8,6.7-8.8,11.5-11.4c5.1-2.8,10.9-4.2,16.7-4c3.1,0,6.1,0.3,9.1,1c2.6,0.6,5.1,1.5,7.5,2.7l-1.1,9.3
		c-2.3-1.1-4.8-2-7.3-2.7c-2.7-0.7-5.5-1.1-8.4-1.1c-4.2-0.1-8.3,0.9-11.9,3.1c-3.2,2.1-5.7,5-7.2,8.5c-1.7,3.8-2.5,7.9-2.5,12
		c-0.1,4.1,0.8,8.2,2.4,12c1.5,3.4,4,6.4,7.2,8.5c3.5,2.2,7.6,3.3,11.7,3.2c2.8,0,5.7-0.3,8.4-1c2.5-0.7,5-1.6,7.4-2.7l1.1,9.2
		c-2.5,1.1-5.1,2-7.7,2.6C659.2,371.3,656.1,371.6,653,371.6z"/>
	<path class="st1" d="M699.3,316.9h2.7l-18.8,53.4h-9.9l22.5-63h9.8l22.5,63h-9.9L699.3,316.9z M714.1,354.2h-26.7v-8.8h26.7V354.2z
		"/>
	<path class="st1" d="M735.7,370.3v-63h21.5c3.9-0.1,7.8,0.6,11.5,2c3.1,1.3,5.8,3.4,7.6,6.3c1.9,3.3,2.9,7,2.7,10.8
		c0.2,3.8-0.8,7.6-2.9,10.9c-2,2.9-4.8,5.2-8,6.7l14.2,26.2h-11.5l-12.5-24.1h-12.5v24.1h-10.1V370.3z M745.7,337.7h10.1
		c4.5,0,7.7-1,9.8-3c2.1-2.1,3.2-5,3.1-8c0-3.4-1-6.1-3.1-8c-2-1.9-5.3-2.9-9.7-2.9h-10.3L745.7,337.7z"/>
	<path class="st1" d="M818.4,371.6c-5.7,0.1-11.3-1.3-16.3-4c-4.7-2.7-8.5-6.6-11-11.4c-2.7-5.4-4.1-11.3-3.9-17.4
		c-0.1-6,1.3-12,4.2-17.3c2.7-4.8,6.7-8.8,11.6-11.4c5.2-2.7,11-4.1,16.9-4c3.2,0,6.5,0.3,9.6,1.1c2.7,0.6,5.4,1.5,8,2.6l-1,9
		c-2.5-1-5-1.9-7.7-2.5c-2.9-0.7-5.8-1-8.8-1c-5.1,0-9.2,1-12.5,3.1c-3.2,2-5.8,5-7.3,8.5c-1.6,3.8-2.4,7.8-2.4,11.9
		c-0.1,4.2,0.7,8.4,2.4,12.2c1.5,3.5,4.1,6.4,7.3,8.4c3.3,2.1,7.4,3.1,12.4,3.1c1.6,0,3.1-0.1,4.7-0.3c1.7-0.2,3.4-0.6,5.1-1.1
		v-13.8h-9.5v-8.5h19.2v28.1c-2.8,1.5-5.9,2.6-9,3.4C826.5,371.2,822.5,371.6,818.4,371.6z"/>
	<path class="st1" d="M870.5,316.9h2.7l-18.8,53.4h-9.9l22.5-63h9.8l22.5,63h-9.9L870.5,316.9z M885.2,354.2h-26.7v-8.8h26.7V354.2z
		"/>
	<path class="st1" d="M927,370.3v-63h39.2v9.2H937v16.3h23.1v9.2H937v19.1h30.2v9.2L927,370.3z"/>
	<path class="st1" d="M977.4,370.3v-63h10.2l29.3,44.4v-44.4h9.9v63h-8.2l-31.3-47v47H977.4z"/>
</g>
<g>
	<path class="st5" d="M1351.8,188c43.7,0,79.2,35.5,79.2,79.2v339.6c0,43.7-35.5,79.2-79.2,79.2H110.3c-43.7,0-79.2-35.5-79.2-79.2
		V267.2c0-43.7,35.5-79.2,79.2-79.2L1351.8,188 M1351.8,178H110.3c-49.3,0-89.2,39.9-89.2,89.2v339.6c0,49.3,39.9,89.2,89.2,89.2
		l0,0h1241.4c49.3,0,89.2-39.9,89.2-89.2V267.2C1441,217.9,1401,178,1351.8,178z"/>
	<path class="st5" d="M482.5,370.3v-63h23.4c5.6-0.1,11.1,1.2,16.1,3.7c4.6,2.4,8.5,6.2,11,10.8c2.7,4.7,4,10.4,4,17s-1.3,12.3-4,17
		c-2.6,4.6-6.4,8.3-11,10.8c-5,2.6-10.5,3.9-16.1,3.7H482.5z M492.3,361.5h13.6c4,0.1,7.9-0.8,11.3-2.8c3-1.9,5.4-4.6,6.9-7.9
		c3.1-7.7,3.1-16.2,0-23.9c-1.4-3.3-3.8-6-6.9-7.9c-3.4-2-7.3-2.9-11.3-2.8h-13.6V361.5z"/>
	<path class="st5" d="M547.7,370.3v-63h39.2v9.2h-29.3v16.3h23.1v9.2h-23.1v19.1h30.2v9.2L547.7,370.3z"/>
	<path class="st5" d="M616.2,371.6c-2.6,0-5.3-0.2-7.8-0.6s-4.9-1-7.4-1.6c-1.9-0.5-3.7-1.2-5.5-2l1.3-10.4c2,1,4.1,1.9,6.2,2.6
		c2.4,0.9,4.8,1.6,7.3,2.1c2.5,0.6,5.1,0.9,7.7,0.9c3,0.2,6-0.5,8.7-2c2.2-1.4,3.4-3.9,3.2-6.4c0.1-1.9-0.5-3.8-1.7-5.3
		c-1.4-1.6-3.2-2.8-5.2-3.5c-2.9-1.2-5.8-2.3-8.8-3.2c-3.2-1-6.3-2.3-9.3-3.8c-2.7-1.3-5-3.2-6.7-5.6c-1.8-2.7-2.7-5.9-2.5-9.1
		c-0.1-3.2,0.8-6.3,2.6-9c1.9-2.8,4.5-4.9,7.6-6.2c4-1.6,8.2-2.4,12.5-2.2c3.8,0,7.6,0.4,11.2,1.3c3,0.7,5.9,1.7,8.7,2.9l-1,10.3
		c-3.1-1.7-6.4-3.1-9.9-4c-3.1-0.8-6.3-1.3-9.6-1.3c-3-0.1-5.9,0.5-8.6,1.9c-2.1,1.2-3.4,3.5-3.3,6c-0.1,1.7,0.5,3.4,1.6,4.8
		c1.3,1.4,2.9,2.5,4.6,3.1c2,0.9,4.5,1.8,7.5,2.7c3.9,1.1,7.8,2.7,11.4,4.6c2.9,1.5,5.3,3.6,7.1,6.3c1.7,2.7,2.6,5.9,2.5,9.1
		c0,2.3-0.4,4.6-1.2,6.7c-0.9,2.2-2.3,4.2-4.1,5.7c-2.2,1.9-4.8,3.2-7.5,4C624,371.2,620.1,371.7,616.2,371.6z"/>
	<path class="st5" d="M678.8,371.6c-5.8,0.1-11.5-1.3-16.6-4c-4.8-2.7-8.7-6.6-11.3-11.4c-2.8-5.3-4.2-11.3-4.1-17.3
		c-0.1-6,1.3-12,4.2-17.3c2.7-4.8,6.7-8.8,11.5-11.4c5.1-2.8,10.9-4.2,16.7-4c3.1,0,6.1,0.3,9.1,1c2.6,0.6,5.1,1.5,7.5,2.7l-1.1,9.3
		c-2.3-1.1-4.8-2-7.3-2.7c-2.7-0.7-5.5-1.1-8.4-1.1c-4.2-0.1-8.3,0.9-11.9,3.1c-3.2,2.1-5.7,5-7.2,8.5c-1.7,3.8-2.5,7.9-2.5,12
		c-0.1,4.1,0.8,8.2,2.4,12c1.5,3.4,4,6.4,7.2,8.5c3.5,2.2,7.6,3.3,11.7,3.2c2.8,0,5.7-0.3,8.4-1c2.5-0.7,5-1.6,7.4-2.7l1.1,9.2
		c-2.5,1.1-5.1,2-7.7,2.6C685,371.3,681.9,371.6,678.8,371.6z"/>
	<path class="st5" d="M725.1,316.9h2.7L709,370.3h-9.9l22.5-63h9.8l22.5,63H744L725.1,316.9z M739.9,354.2h-26.7v-8.8h26.7V354.2z"
		/>
	<path class="st5" d="M761.5,370.3v-63H783c3.9-0.1,7.8,0.6,11.5,2c3.1,1.3,5.8,3.4,7.6,6.3c1.9,3.3,2.9,7,2.7,10.8
		c0.2,3.8-0.8,7.6-2.9,10.9c-2,2.9-4.8,5.2-8,6.7l14.2,26.2h-11.5l-12.5-24.1h-12.5v24.1h-10.1V370.3z M771.5,337.7h10.1
		c4.5,0,7.7-1,9.8-3c2.1-2.1,3.2-5,3.1-8c0-3.4-1-6.1-3.1-8c-2-1.9-5.3-2.9-9.7-2.9h-10.3L771.5,337.7z"/>
	<path class="st5" d="M844.2,371.6c-5.7,0.1-11.3-1.3-16.3-4c-4.7-2.7-8.5-6.6-11-11.4c-2.7-5.4-4.1-11.3-3.9-17.4
		c-0.1-6,1.3-12,4.2-17.3c2.7-4.8,6.7-8.8,11.6-11.4c5.2-2.7,11-4.1,16.9-4c3.2,0,6.5,0.3,9.6,1.1c2.7,0.6,5.4,1.5,8,2.6l-1,9
		c-2.5-1-5-1.9-7.7-2.5c-2.9-0.7-5.8-1-8.8-1c-5.1,0-9.2,1-12.5,3.1c-3.2,2-5.8,5-7.3,8.5c-1.6,3.8-2.4,7.8-2.4,11.9
		c-0.1,4.2,0.7,8.4,2.4,12.2c1.5,3.5,4.1,6.4,7.3,8.4c3.3,2.1,7.4,3.1,12.4,3.1c1.6,0,3.1-0.1,4.7-0.3c1.7-0.2,3.4-0.6,5.1-1.1
		v-13.8H846v-8.5h19.2v28.1c-2.8,1.5-5.9,2.6-9,3.4C852.3,371.2,848.3,371.6,844.2,371.6z"/>
	<path class="st5" d="M896.3,316.9h2.7l-18.8,53.4h-9.9l22.5-63h9.8l22.5,63h-9.9L896.3,316.9z M911,354.2h-26.7v-8.8H911V354.2z"/>
	<path class="st5" d="M952.8,370.3v-63H992v9.2h-29.2v16.3h23.1v9.2h-23.1v19.1H993v9.2L952.8,370.3z"/>
	<path class="st5" d="M1003.2,370.3v-63h10.2l29.3,44.4v-44.4h9.9v63h-8.2l-31.3-47v47H1003.2z"/>
	<g>
		<g>
			<path class="st5" d="M521.7,461.7h6.6l-40.4,115h-24.8l49.8-140h24.2l49.8,140h-24.8L521.7,461.7z M554.3,543.5h-58.6v-22.4h58.6
				V543.5z"/>
			<path class="st5" d="M599.1,625.1V476.7h20l4.8,16.6l-7.4-2.6c4.6-4.7,9.6-8.5,15-11.3c5.4-2.8,12-4.3,19.8-4.3
				c9.8,0,18,2.4,24.7,7.1c6.7,4.7,11.7,11,15.2,18.9c3.4,7.9,5.1,16.5,5.1,25.8c0,9.3-1.7,17.9-5.1,25.8
				c-3.4,7.9-8.5,14.2-15.2,18.9c-6.7,4.7-14.9,7.1-24.7,7.1c-7.8,0-14.1-1.1-19-3.2c-4.9-2.1-9.8-5.5-14.8-10.2l6.4-5v64.8H599.1z
				 M647.5,558.3c7.4,0,13.2-2.9,17.3-8.8c4.1-5.8,6.2-13.4,6.2-22.7c0-9.3-2.1-16.9-6.2-22.7s-9.8-8.7-17.3-8.7
				c-5.7,0-10.4,1.3-14.1,4c-3.7,2.7-6.4,6.4-8.1,11.1c-1.7,4.7-2.6,10.1-2.6,16.3s0.9,11.7,2.6,16.3c1.7,4.7,4.4,8.4,8.1,11.1
				C637,557,641.7,558.3,647.5,558.3z"/>
			<path class="st5" d="M713.5,625.1V476.7h20l4.8,16.6l-7.4-2.6c4.6-4.7,9.6-8.5,15-11.3c5.4-2.8,12-4.3,19.8-4.3
				c9.8,0,18,2.4,24.7,7.1c6.7,4.7,11.7,11,15.2,18.9c3.4,7.9,5.1,16.5,5.1,25.8c0,9.3-1.7,17.9-5.1,25.8
				c-3.4,7.9-8.5,14.2-15.2,18.9c-6.7,4.7-14.9,7.1-24.7,7.1c-7.8,0-14.1-1.1-19-3.2c-4.9-2.1-9.8-5.5-14.8-10.2l6.4-5v64.8H713.5z
				 M761.9,558.3c7.4,0,13.2-2.9,17.3-8.8c4.1-5.8,6.2-13.4,6.2-22.7c0-9.3-2.1-16.9-6.2-22.7s-9.8-8.7-17.3-8.7
				c-5.7,0-10.4,1.3-14.1,4c-3.7,2.7-6.4,6.4-8.1,11.1c-1.7,4.7-2.6,10.1-2.6,16.3s0.9,11.7,2.6,16.3c1.7,4.7,4.4,8.4,8.1,11.1
				C751.4,557,756.1,558.3,761.9,558.3z"/>
			<path class="st5" d="M917.3,579.5c-5.7,0-11.5-0.5-17.5-1.6c-6-1.1-11.6-2.4-16.7-4c-5.1-1.6-9.2-3.1-12.2-4.5l3-27.2
				c4.7,2.3,9.5,4.4,14.6,6.3c5.1,1.9,10.3,3.5,15.6,4.7c5.3,1.2,10.7,1.8,16.2,1.8c6.8,0,12.3-1.3,16.4-4c4.1-2.7,6.2-6.7,6.2-12.2
				c0-4.2-1.2-7.6-3.5-10.1c-2.3-2.6-5.9-4.9-10.7-6.9c-4.8-2-10.9-4.3-18.4-7c-7.5-2.6-14.2-5.5-20.1-8.8
				c-5.9-3.3-10.6-7.5-14.1-12.5c-3.5-5.1-5.2-11.5-5.2-19.4c0-7.7,1.9-14.6,5.7-20.7c3.8-6,9.5-10.8,17-14.2s17-5.2,28.3-5.2
				c8.5,0,16.7,1,24.4,2.8c7.7,1.9,14.3,4,19.8,6.2l-2.6,26.2c-7.9-3.5-15.3-6.2-22.2-8c-6.9-1.8-13.9-2.8-21-2.8
				c-7.5,0-13.2,1.2-17.3,3.7c-4.1,2.5-6.1,6.2-6.1,11.1c0,3.9,1.1,7.1,3.4,9.5c2.3,2.4,5.5,4.5,9.7,6.1c4.2,1.7,9.2,3.5,15.1,5.4
				c10.1,3.2,18.7,6.7,25.5,10.5c6.9,3.8,12.1,8.5,15.6,13.9s5.3,12.1,5.3,20.1c0,4-0.6,8.4-1.9,13c-1.3,4.7-3.8,9.2-7.5,13.4
				c-3.7,4.2-9.2,7.6-16.3,10.3C938.5,578.1,929.1,579.5,917.3,579.5z"/>
			<path class="st5" d="M1021.5,578.7c-6.3,0-11.4-1.3-15.3-3.8c-3.9-2.6-6.8-5.9-8.7-9.9c-1.9-4-2.8-8.2-2.8-12.5v-55.4h-14.2
				l2.2-20.4h12v-22l24.8-2.6v24.6h22v20.4h-22v45.2c0,5.1,0.3,8.7,0.9,10.9c0.6,2.2,2,3.6,4.1,4.2c2.1,0.6,5.5,0.9,10.2,0.9h6.8
				l-2.2,20.4H1021.5z"/>
			<path class="st5" d="M1103.1,578.7c-10.9,0-20.1-2.4-27.8-7.1c-7.7-4.7-13.5-11-17.5-18.9c-4-7.9-6.1-16.5-6.1-25.8
				c0-9.4,2-18.1,6.1-26c4-7.9,9.9-14.3,17.5-19c7.7-4.8,16.9-7.2,27.8-7.2c10.9,0,20.1,2.4,27.8,7.2c7.7,4.8,13.5,11.1,17.5,19
				c4,7.9,6.1,16.6,6.1,26c0,9.3-2,17.9-6.1,25.8c-4,7.9-9.9,14.2-17.5,18.9C1123.2,576.3,1113.9,578.7,1103.1,578.7z M1103.1,558.3
				c8.3,0,14.8-2.9,19.3-8.8c4.5-5.8,6.8-13.4,6.8-22.7c0-9.4-2.3-17-6.8-23c-4.5-5.9-10.9-8.8-19.3-8.8c-8.3,0-14.7,3-19.2,8.8
				c-4.5,5.9-6.8,13.5-6.8,23c0,9.3,2.3,16.8,6.8,22.7C1088.4,555.4,1094.8,558.3,1103.1,558.3z"/>
			<path class="st5" d="M1171.7,576.7v-100h23.2l0.6,10.6c2.5-2.8,6.1-5.6,10.7-8.4c4.6-2.8,9.6-4.2,15.1-4.2c1.6,0,3.1,0.1,4.4,0.4
				l-1.8,24.4c-1.5-0.4-2.9-0.7-4.3-0.8c-1.4-0.1-2.9-0.2-4.3-0.2c-4.2,0-8,1-11.5,2.9c-3.5,1.9-5.9,4.3-7.3,7.1v68.2H1171.7z"/>
			<path class="st5" d="M1285.9,578.7c-12.1,0-22.1-2.4-30.1-7.3c-8-4.8-14.1-11.2-18.1-19.2c-4-8-6-16.7-6-26.1
				c0-9.1,1.9-17.6,5.7-25.3c3.8-7.7,9.3-14,16.5-18.7c7.3-4.7,16.1-7,26.6-7c9.6,0,17.6,2,24,5.9c6.4,3.9,11.2,9.2,14.4,15.8
				c3.2,6.6,4.8,13.8,4.8,21.8c0,2.2-0.1,4.4-0.4,6.7c-0.3,2.2-0.7,4.5-1.2,7h-64.6c0.9,6.2,2.9,11.2,5.8,15c3,3.8,6.6,6.7,10.9,8.5
				c4.3,1.8,8.9,2.7,13.8,2.7c5.8,0,11.2-0.8,16.2-2.3s9.6-3.5,13.8-6l1.2,21c-3.8,2-8.5,3.8-14.2,5.3
				C1299.4,577.9,1293,578.7,1285.9,578.7z M1258.1,515.3h40.4c0-3-0.6-6-1.7-9.1c-1.1-3-3-5.6-5.7-7.6c-2.6-2.1-6.2-3.1-10.6-3.1
				c-6.4,0-11.4,1.9-15.1,5.6C1261.7,504.8,1259.3,509.6,1258.1,515.3z"/>
		</g>
	</g>
	<g>
		<path class="st6" d="M350.7,228.9c-0.8-0.9-31,0.4-57.2,28.8c-26.2,28.4-22.2,61-21.6,61.9c0.6,0.8,37.4,2.1,60.9-30.9
			S351.6,229.9,350.7,228.9z M432.2,517.5c-1.2-2.4-57.2-30.4-52-84.2c5.2-53.8,41.2-68.6,41.8-70.2c0.6-1.6-14.7-19.4-30.8-28.5
			c-11.9-6.4-25-10-38.4-10.7c-2.7-0.1-11.9-2.3-30.8,2.9c-12.5,3.4-40.7,14.5-48.4,14.9c-7.8,0.4-30.9-12.8-55.8-16.4
			c-15.9-3.1-32.8,3.2-44.9,8.1c-12.1,4.8-35,18.5-51,55c-16,36.5-7.6,94.2-1.6,112.2c6,17.9,15.4,47.3,31.3,68.8
			c14.2,24.2,33,41,40.8,46.7c7.8,5.7,30,9.5,45.3,1.6c12.3-7.6,34.6-11.9,43.4-11.6c8.8,0.3,26.1,3.8,43.8,13.3
			c14,4.8,27.3,2.8,40.6-2.6c13.3-5.4,32.6-26,55-67.8C429.1,529.6,433,519.1,432.2,517.5z"/>
		<path class="st6" d="M350.7,228.9c-0.8-0.9-31,0.4-57.2,28.8c-26.2,28.4-22.2,61-21.6,61.9c0.6,0.8,37.4,2.1,60.9-30.9
			S351.6,229.9,350.7,228.9z M432.2,517.5c-1.2-2.4-57.2-30.4-52-84.2c5.2-53.8,41.2-68.6,41.8-70.2c0.6-1.6-14.7-19.4-30.8-28.5
			c-11.9-6.4-25-10-38.4-10.7c-2.7-0.1-11.9-2.3-30.8,2.9c-12.5,3.4-40.7,14.5-48.4,14.9c-7.8,0.4-30.9-12.8-55.8-16.4
			c-15.9-3.1-32.8,3.2-44.9,8.1c-12.1,4.8-35,18.5-51,55c-16,36.5-7.6,94.2-1.6,112.2c6,17.9,15.4,47.3,31.3,68.8
			c14.2,24.2,33,41,40.8,46.7c7.8,5.7,30,9.5,45.3,1.6c12.3-7.6,34.6-11.9,43.4-11.6c8.8,0.3,26.1,3.8,43.8,13.3
			c14,4.8,27.3,2.8,40.6-2.6c13.3-5.4,32.6-26,55-67.8C429.1,529.6,433,519.1,432.2,517.5z"/>
	</g>
</g>
</svg>
