<?xml version="1.0" encoding="utf-8"?>
<!-- Generator: Adobe Illustrator 24.1.1, SVG Export Plug-In . SVG Version: 6.00 Build 0)  -->
<svg version="1.1" id="Capa_1" xmlns="http://www.w3.org/2000/svg" xmlns:xlink="http://www.w3.org/1999/xlink" x="0px" y="0px"
	 viewBox="0 0 80 80" style="enable-background:new 0 0 80 80;" xml:space="preserve">
<style type="text/css">
	.st0{fill:#00A338;}
	.st1{fill:#FFFFFF;}
</style>
<circle class="st0" cx="40" cy="40" r="40"/>
<g>
	<g>
		<path class="st1" d="M26.77,62l11.04-16.98c1.46-2.24,2.63-4.13,3.53-5.67c0.89-1.54,1.53-2.89,1.93-4.05
			c0.4-1.16,0.6-2.3,0.6-3.42c0-1.72-0.49-3.07-1.46-4.05c-0.97-0.98-2.33-1.47-4.07-1.47c-2.1,0-3.99,0.52-5.66,1.56
			c-1.67,1.04-3.17,2.22-4.48,3.54l-0.96-7.74c1.8-1.44,3.71-2.56,5.75-3.36c2.03-0.8,4.33-1.2,6.91-1.2c2.54,0,4.65,0.52,6.35,1.56
			c1.69,1.04,2.96,2.42,3.79,4.14c0.84,1.72,1.26,3.6,1.26,5.64c0,1.58-0.22,3.17-0.66,4.75c-0.44,1.59-1.17,3.35-2.17,5.28
			c-1.01,1.93-2.37,4.19-4.07,6.76l-4.92,7.5h13.32V62H26.77z"/>
	</g>
</g>
</svg>
