<?xml version="1.0" encoding="utf-8"?>
<!-- Generator: Adobe Illustrator 24.1.1, SVG Export Plug-In . SVG Version: 6.00 Build 0)  -->
<svg version="1.1" id="Capa_1" xmlns="http://www.w3.org/2000/svg" xmlns:xlink="http://www.w3.org/1999/xlink" x="0px" y="0px"
	 viewBox="0 0 80 80" style="enable-background:new 0 0 80 80;" xml:space="preserve">
<style type="text/css">
	.st0{fill:#00A338;}
	.st1{fill:#FFFFFF;}
</style>
<circle class="st0" cx="40" cy="40" r="40"/>
<g>
	<g>
		<path class="st1" d="M37.69,62.84c-2.52,0-4.81-0.29-6.87-0.88c-2.06-0.59-3.71-1.2-4.95-1.82l1.86-6.48
			c1.32,0.66,2.84,1.25,4.56,1.79c1.72,0.53,3.52,0.79,5.4,0.79c2.2,0,3.96-0.5,5.28-1.52c1.32-1.01,1.98-2.56,1.98-4.67
			c0-2.1-0.65-3.68-1.94-4.75c-1.29-1.07-3.23-1.6-5.81-1.6h-4.26v-7.2h4.2c2.16,0,3.81-0.5,4.95-1.5c1.14-1,1.71-2.38,1.71-4.14
			c0-1.54-0.53-2.77-1.58-3.71c-1.05-0.93-2.56-1.4-4.54-1.4c-1.7,0-3.31,0.26-4.81,0.78c-1.51,0.52-3,1.2-4.48,2.04l-1.14-6.78
			c1.38-0.72,3.02-1.34,4.94-1.86c1.91-0.52,4-0.78,6.29-0.78c2.74,0,5.05,0.46,6.93,1.4c1.88,0.93,3.3,2.2,4.28,3.82
			c0.97,1.62,1.46,3.46,1.46,5.52c0,2.7-0.72,4.99-2.16,6.87c-1.44,1.88-3.48,3.15-6.12,3.81l-0.06-1.38
			c2.92,0.48,5.29,1.65,7.11,3.51c1.82,1.86,2.73,4.31,2.73,7.35c0,2.74-0.63,5.06-1.88,6.96c-1.25,1.9-3,3.35-5.24,4.34
			C43.28,62.34,40.67,62.84,37.69,62.84z"/>
	</g>
</g>
</svg>
