<?xml version="1.0" encoding="utf-8"?>
<!-- Generator: Adobe Illustrator 24.1.1, SVG Export Plug-In . SVG Version: 6.00 Build 0)  -->
<svg version="1.1" id="Capa_1" xmlns="http://www.w3.org/2000/svg" xmlns:xlink="http://www.w3.org/1999/xlink" x="0px" y="0px"
	 viewBox="0 0 128 128" style="enable-background:new 0 0 128 128;" xml:space="preserve">
<style type="text/css">
	.st0{fill:#FFFFFF;stroke:#000000;stroke-miterlimit:10;}
	.st1{fill:#1D9433;}
	.st2{fill:#FFFFFF;}
</style>
<circle class="st0" cx="64" cy="63.7" r="62"/>
<polygon class="st1" points="33.4,70.7 24.4,89 10.7,89 27.4,57.6 39,35.5 53,35.5 62.2,89 48.9,89 46.3,70.6 "/>
<polygon class="st2" points="38.8,59.9 44.9,59.9 43.6,51.3 "/>
<polygon class="st1" points="77.4,35.5 67.9,89 109,89 110.9,78.1 82.2,78.2 87.8,46 115.1,46 117.3,35.5 "/>
<polygon class="st1" points="35.8,59.4 100.6,59.5 101.4,53.2 108.3,64 98.9,76 99.4,70.7 31.7,70.6 26.7,70.8 33,58.8 "/>
</svg>
