<svg id="Diseño_1" data-name="Diseño 1" xmlns="http://www.w3.org/2000/svg" xmlns:xlink="http://www.w3.org/1999/xlink" viewBox="0 0 1080 1080"><defs><style>.cls-1{fill:#f79e61;}.cls-2{fill:#fff;}.cls-3{fill:#e27933;}.cls-4{fill:#c68836;}.cls-5{fill:#f4dcc6;}.cls-6{fill:#964d05;}.cls-7{fill:#002060;}.cls-8{fill:#01a63a;}</style></defs><path class="cls-1" d="M228.52,959.27Q291,876.32,329,762.85c-20.31-35-28.85-81.93-31.49-134.94C296.75,568.36,273.34,514.65,242,463c-11.25-23.24,6.74-38.23,16.49-67.47,17.24-41.23,11.24-68.22,28.49-94.46,15.88-1,30.34,5.78,44.23,15.74-.75,49.68.63,65.72,1.5,90l127.44,485.8c22.56,28.49,49.16,39.66,81,28.49l114-28.49-28.49,18-81,143.94C451.18,1095,284.75,1057.48,228.52,959.27Z"/><rect x="355.3" y="42.96" width="428.54" height="854.44" rx="30.61" transform="translate(-100.55 159.66) rotate(-14.68)"/><rect class="cls-2" x="376.3" y="77.31" width="385.61" height="780.42" rx="30.61" transform="translate(-99.89 159.45) rotate(-14.68)"/><rect x="427.66" y="456.65" width="306.05" height="19.43" rx="3.24" transform="translate(-96.6 156.56) rotate(-14.19)"/><rect x="437.98" y="496.35" width="306.05" height="19.43" rx="3.24" transform="translate(-106.02 160.3) rotate(-14.19)"/><rect x="448.03" y="536.12" width="306.05" height="19.43" rx="3.24" transform="translate(-115.46 163.98) rotate(-14.19)"/><path class="cls-1" d="M850,655.65l-72-1.5c-33-12-34.49-49.48,0-60,23.05-7.15,54.88-10.42,93-13.49,31.49,12,30,37.48,18,54a219.6,219.6,0,0,1-36,39l-9,1.5-4.5-18Z"/><path class="cls-1" d="M713.57,498.22c-6.78,36.93,6.11,55.46,42,52.47,36.49-19.28,65.74-43.51,89.21-74.22,16.49-42-11.49-57.19-47.23-51.72C769.19,444.66,741.28,470.19,713.57,498.22Z"/><path class="cls-1" d="M718.06,369.27c-6.72,33.46,5.06,51,39,49.48,32.08-12.64,57.6-29.62,72-54,4.79-36-7.57-57.09-48-54C753.87,324.36,732.34,343.33,718.06,369.27Z"/><path class="cls-1" d="M712.07,169.85l24,93c12.27-12.34,22-26,27-42,6.44-32.76-3.7-50.19-27-55.47A67.17,67.17,0,0,0,712.07,169.85Z"/><path class="cls-3" d="M713.57,172.85c12.33,1.08,24.2,3.4,30,22.49,2.76,20.95,4.21,39,1.5,49.48-2.87,5-6.34,8.55-10.49,10.5l-21-81"/><path class="cls-3" d="M721.06,360.27c4.75,14.93,4.5,16.5,13.5,27s32.12,9.68,49.48,3a143.76,143.76,0,0,0,45-45l1.5,18c-10.17,18.47-25.33,30.45-42,40.49l-33,15c-15.47,1.44-24.11-2-30-7.5C711.67,395.54,715,378,721.06,360.27Z"/><path class="cls-3" d="M722.56,489.22c.82,14.49,7.5,24,21,28.49s36,.09,52.48-7.5c22.47-12.42,39.9-30.18,53-50.39.68,6.07-1.72,10.95-4.3,16.65-8.25,14.25-22.61,27.31-39.73,42.74-19.31,16.42-36.11,29.28-54.73,33.73-23.93-.23-42.82-11.47-40.48-42C711.32,502,714.91,494.92,722.56,489.22Z"/><path class="cls-3" d="M767.54,598.67c-3.56,9.19-4.45,17.75,4.5,24a81.34,81.34,0,0,0,37.48,15c18.3,3.15,46.48-1.5,55.48-4.5s24-10.32,32.06-19.28c-1.08,15.29-13.5,28.24-18.56,34.27-7,8.91-25.49,25.49-25.49,25.49l-8.85,1.59-4.65-18.08,9-1.5-70.11-1.47c-10-3-24.89-14.45-25.85-27S757.6,604.73,767.54,598.67Z"/><path class="cls-3" d="M315.9,348.49c.14,34.68.07,68.12-6.47,92.3-5.94,27.53-1.72,37.2,8.63,46.42,15.66,14.57,29.69,21.59,46.42,45.88L332.73,406.75Z"/><path class="cls-3" d="M519,925.68c27.58,20.52,40.84,52.45,45.7,93.2L626.6,910.54l28.49-18L530.91,924.24A38.69,38.69,0,0,1,519,925.68Z"/><rect class="cls-4" x="380.01" y="176.93" width="297.85" height="226.34" transform="translate(-55.02 138.68) rotate(-14.21)"/><rect class="cls-5" x="393.12" y="312.5" width="297.84" height="58.73" transform="translate(-67.32 143.48) rotate(-14.21)"/><image width="1655" height="311" transform="matrix(0.16, -0.04, 0.04, 0.14, 408.12, 353.4)" xlink:href="TRAPAPE2.png"/><rect class="cls-6" x="417.76" y="179.79" width="175.75" height="35.09" transform="translate(-32.97 130.13) rotate(-14.21)"/><rect class="cls-7" x="585.26" y="218.71" width="69.51" height="36.5" transform="translate(-39.19 159.41) rotate(-14.21)"/><path class="cls-8" d="M637.27,228.94l-33.89,8.58c-6.51,1.65-11.48,3.51-12.79-1s4.28-5.29,10.79-6.94L635.27,221c6.51-1.65,11.56-3.65,12.79,1S643.78,227.3,637.27,228.94Z"/><path class="cls-8" d="M640.51,243.55l-33.89,8.58c-6.51,1.65-11.48,3.5-12.79-1s4.27-5.29,10.79-6.94l33.89-8.58c6.51-1.64,11.56-3.64,12.79,1S647,241.9,640.51,243.55Z"/><rect class="cls-8" x="519.4" y="617.29" width="213.75" height="84.2" rx="11.52" transform="translate(-142.02 172.83) rotate(-14.13)"/><path class="cls-2" d="M549.79,692.44,543.38,667l8.82-2.22a12.37,12.37,0,0,1,5-.35,6.48,6.48,0,0,1,3.72,1.9,11.45,11.45,0,0,1,2.38,9.44,6.52,6.52,0,0,1-2.34,3.5,11.86,11.86,0,0,1-4.51,2.08l-4.6,1.16,2.22,8.85Zm1.15-13.53,4.07-1a5.68,5.68,0,0,0,3.5-2.1,5.83,5.83,0,0,0-1.78-7.12,5.79,5.79,0,0,0-4.16-.16l-4,1Z"/><path class="cls-2" d="M581.52,685a11.54,11.54,0,0,1-6.27.09,8.82,8.82,0,0,1-4.47-3.07,15.12,15.12,0,0,1-2.67-5.74l-3.67-14.58,4.22-1.06,3.39,13.47a21,21,0,0,0,1.1,3.28,8.35,8.35,0,0,0,1.6,2.48,4.68,4.68,0,0,0,2.37,1.32,8.73,8.73,0,0,0,6.48-1.63,4.73,4.73,0,0,0,1.46-2.29,8.29,8.29,0,0,0,.24-3,22.24,22.24,0,0,0-.6-3.39l-3.39-13.47,4.22-1.06L589.2,671a15.23,15.23,0,0,1,.37,6.32,8.87,8.87,0,0,1-2.49,4.83A11.7,11.7,0,0,1,581.52,685Z"/><path class="cls-2" d="M597.31,680.48,590.91,655l9-2.27a8.51,8.51,0,0,1,5.83.19,5.87,5.87,0,0,1,3,4.13,7,7,0,0,1,0,4,5.31,5.31,0,0,1-2.4,2.9v-.81a7.7,7.7,0,0,1,5,1.18,7,7,0,0,1,2.65,4.23,6.91,6.91,0,0,1-.85,5.87,9.05,9.05,0,0,1-5.54,3.45Zm.39-16.3,4.21-1.06a4.53,4.53,0,0,0,2.53-1.4,3.87,3.87,0,0,0-1.27-5,4.64,4.64,0,0,0-2.88,0l-4.22,1.06Zm2.88,11.46,5.49-1.39a5.34,5.34,0,0,0,2.94-1.67,3.55,3.55,0,0,0,.43-3.25,3.48,3.48,0,0,0-2-2.71,5.56,5.56,0,0,0-3.32,0L598.64,668Z"/><path class="cls-2" d="M619.69,674.85l-6.41-25.45,4.22-1.06L623,670l10.91-2.74.95,3.78Z"/><path class="cls-2" d="M637.88,670.27l-6.41-25.45,4.22-1.06,6.4,25.44Z"/><path class="cls-2" d="M659.36,665.4a14,14,0,0,1-7.15.06,12,12,0,0,1-5.74-3.45,14.72,14.72,0,0,1-3.42-6.58A14.33,14.33,0,0,1,643,648a12.2,12.2,0,0,1,3.49-5.78,14.17,14.17,0,0,1,6.37-3.34,15.62,15.62,0,0,1,3.79-.5,14.3,14.3,0,0,1,3.23.32l.55,4.09a20.64,20.64,0,0,0-3.17-.33,12.76,12.76,0,0,0-3.44.41,8.77,8.77,0,0,0-4.37,2.39,7.77,7.77,0,0,0-2,4,12.72,12.72,0,0,0,2.37,9.47,7.69,7.69,0,0,0,3.63,2.6,8.56,8.56,0,0,0,4.93,0,13.5,13.5,0,0,0,3.27-1.25,17.17,17.17,0,0,0,2.7-1.84l1.46,3.89a17.82,17.82,0,0,1-2.86,1.85A16.21,16.21,0,0,1,659.36,665.4Z"/><path class="cls-2" d="M672.53,638.87l1.13-.28L671.5,661.8l-4.18,1.05L670,635.13l4.12-1,15.49,23.16-4.19,1Zm9.7,13.49-10.74,2.7-.94-3.72,10.74-2.71Z"/><path class="cls-2" d="M692.58,656.5l-6.4-25.45,8.92-2.25a12.33,12.33,0,0,1,4.83-.33,6.72,6.72,0,0,1,3.71,1.76,8.31,8.31,0,0,1,2.19,4.09,8,8,0,0,1-.06,4.71,8.37,8.37,0,0,1-2.52,3.47l8.4,9.2-4.83,1.21-7.44-8.35-.09,0-.09,0-4.75,1.19,2.42,9.62Zm1-14.3,3.83-1a5.62,5.62,0,0,0,3.67-2.21,4.44,4.44,0,0,0,.4-3.44,4.28,4.28,0,0,0-2-2.86,5.62,5.62,0,0,0-4.15-.15l-4,1Z"/></svg>