<svg xmlns="http://www.w3.org/2000/svg" viewBox="0 0 1080 1080"><defs><style>.cls-1{fill:#3d3d3d;}.cls-2{fill:#fff;}.cls-3{fill:#e0e0e0;}.cls-4{fill:#00a338;}.cls-5{fill:#002060;}.cls-6{fill:none;}.cls-7,.cls-8{fill:#231f20;}.cls-7{fill-rule:evenodd;}.cls-9{fill:#01a63a;}</style></defs><g id="Diseño_2" data-name="Diseño 2"><path class="cls-1" d="M120.68,470.88C89,489.6,83.24,506.16,103.4,519.48L665,845.64c32.88,19.83,62.5,21.84,88.56,4.32L1016,696.6c29.16-17.46,29.16-30.06-3.24-46.44l-554-320.76c-28.08-18.36-51.84-22.68-83.16-4.32Z"/><path d="M92.24,507.12l-2,30.12a43.78,43.78,0,0,0,14.28,17.88L681.2,886.68c20.94,9.49,41.29,12.64,60.48,3.24l281.88-162c9-3.92,16.88-10,16.56-18.54l-2.7-36.72c0,8.1-5.22,13.14-17.1,21.78L746,854.28c-19.47,10.17-43.8,11.52-68-1.2L112,524.88C102.68,520.49,95.79,514.05,92.24,507.12Z"/><path class="cls-2" d="M152.6,480.08c-33.77,16.59-31.68,27.6-8.64,40.56l489.36,284c41.76,23,66.88,44,94.24,28.2L982.32,690c27.36-17.28,13.08-25.2-35.88-49.68L458.2,355.4c-41.76-23-40.8-22.6-73.92-2.44Z"/><path class="cls-3" d="M441.94,599.75c1.33-12.19-5.19-12.68-13.26-24.6-9.28-13.73-21.1-13.52-21.52-22.61-.29-6.36,5.45-7.19,6.83-15.67,2-12.3-7.32-27.59-17.49-29.54-5-1-7.41,1.81-10.88-.56-4.13-2.81-2.47-7.95-6.56-16.06-4-7.87-9.71-11.32-9.14-12.14,1-1.43,16.3,12.8,21.62,8.63,4.13-3.23.41-16.07-.9-20.6a52.75,52.75,0,0,0-10-19.8c-7-8.47-11.88-8.15-13.7-15-.95-3.54.15-4.43.1-14,0,0,0-5.87-.87-14.13A123.49,123.49,0,0,0,357.44,369l45,5.66-4,6.94s32.87,20,59.4,35.82c20.62,2,31.34,3.62,45,5.66,1.94-3.11-.1-6.71,2.39-9.33,6.51,3.13,22.27,4.27,25,5.9,5.88,7.35,16.66,21.88,27.09,32.06,1.28,8.27-1.83,10,.4,17.29,8,13.05,13.54,16,24.1,18.69,6.2-2.7,4.09-12.57,11.45-16.59,8.62,2.37,18.21,2.7,20.31,4.12,5.56,9.45,11.74,14.36,13.23,18.13,3.57,9.09.88,10.53,4.45,16.83,5,8.75,12,9.21,12.57,15.88.36,4.24-2.4,5-2.55,10.38-.23,8,5.75,14,6.71,15,6,6.09,14.46,7.46,21.63,8.63,5.06,6.14,10.15.37,11.54,2.8,2.49,4.35-2.27,14.38-7.24,15.07-3.65.5-6.07-4.21-7.48-3.27-1.94,1.28,3.5,9.47,2.84,20.88-.47,8.26-3.57,8.34-3.5,16.71.07,7.65,2.69,10.2.72,15.18-1.83,4.62-5.12,5.08-5.32,8.9-.19,3.62,2.72,4.4,3.61,9.15.83,4.45-1.31,5.94-1.58,10.53-.32,5.51,2.58,6.51,7.38,17.26,4.92,11,3.28,13.12,7.38,17.26,2.8,2.84,5.34,3.66,6.85,7.49,1.28,3.26.58,5.57.68,8.72.23,6.77,4,11.64,7.54,16.2,7.39,9.54,17.28,12.67,21.81,14,14.65,4.42,26.88.8,41.38-3.49,18.94-5.61,29.95-8.86,35.79-19.4,6.67-12-.12-21.43,7.34-29.06,2.25-2.3,11.1-3.36,28.71-5.39,6.64-4.39,13-6.67,24-.7,8.36.75,13.27,1.26,14.3,4.29,1.62,4.72-8.34,9-14.5,23.67-1.85,4.4-2.78,8.81-4.64,17.62-2.87,13.63-3,21.48-5.26,21.82-2.69.41-4.2-10.81-8.32-10.94-4.59-.14-4.62,13.69-12.75,18.55-11.74,7-28.26-4.23-36.22-4.35-3.34,3.44-.32,9.94-3.84,12.35-4.94,3.39-15.89-6-16.09-5.64s17.44,16.61,23.81,27.26c.08,1.44.34,6-2.24,8.28-5.53,4.85-16.6-7.72-24.36-3.65-8.78,4.59-4.4,25.79-10.11,27.56-5.05,1.56-9.67-14.7-27.4-29.95-7.81-6.73-13.28-11.44-21.15-11.79-16.38,2.93-16.09,12.35-30,13.82-14.65-8.66-17.38-3.69-37.25-17.43-20.38-11.2-8.16-12-22.12-11.93-26.68-17-26.37-16.88-41-32-9.43-3-17.32-2.3-25.37-10.26-3.56-3.52-4.92-6.52-7.35-10.79-19.2-11.5-29.75-29-28.74-40.92,14.61,2.19,10.06-9.25,12.08-20.81.64-3.65.33-7.2-9.54-29.43-4.74-10.66-8.3-18.64-14.41-30.16-10.09-5.81-10.84-20.41-14.39-23.69-10.38-9.59-20-8.65-21.49-16.14-1.35-6.79,5.86-11.16,3.65-17.76-1.58-4.75-5.77-3.86-10.59-9.13-6.67-7.3-3-13.85-8.38-23.87-5.48-10.25-10.85-6.27-17.44-16.61-4-6.24-1.19-6.39-8.25-31.39a82,82,0,0,1-3.48-16.67c-.66-7.49,2-10.24.11-14-1.66-3.23-4.06-2.9-13.83-7.45-8.83-4.12-11.62-6.6-13.17-5.21-1.89,1.69,1.39,6.06.87,14.13-.55,8.51-4.52,8.91-4.16,14.45.63,9.65,12.8,10.75,14.54,22.64.55,3.76-.49,4.84.69,8.72,1.91,6.31,5.53,6.4,7.19,11.85,1.81,5.93-1.87,7.84-.1,14,1.31,4.53,3.55,4.33,7.35,10.8,3.09,5.25,1.83,5.77,5.09,12.6,4.51,9.48,8.31,11.44,7.53,16.21-.57,3.53-2.86,3.68-3.05,7.08-.26,4.53,3.73,5.38,6.22,11.7,1.27,3.23,1.41,7.26,1.69,15.33.25,7.31-.3,9.34,1.34,11,2.56,2.54,6.08-.23,9.59,2.51.89.7,1.57,1.59,3.77,8.11,2.6,7.73,3.88,11.63,3,13.37C452.14,600,446.32,601.4,441.94,599.75Z"/><path class="cls-4" d="M454.81,424.62s51.36-50,38.73-84.51c-12.83-35.12-61.62-35.22-77.47-1.77C400.47,371.28,454.81,424.62,454.81,424.62Z"/><circle class="cls-4" cx="455.69" cy="439.59" r="7.92"/><circle class="cls-2" cx="453.93" cy="356.83" r="23.77"/><path class="cls-5" d="M452.89,344.46h1.68l-10.23,25.19h-6.28L450.67,339h6.12l12.61,30.66h-6.28Zm8.26,17.92H446.31v-4.91h14.84Z"/><path class="cls-4" d="M809.73,685.64s94.76-92.2,71.47-155.93c-23.67-64.78-113.7-65-142.94-3.25C709.48,587.23,809.73,685.64,809.73,685.64Z"/><circle class="cls-4" cx="811.36" cy="713.25" r="14.62"/><circle class="cls-2" cx="808.11" cy="560.57" r="43.85"/><path class="cls-5" d="M786.81,588.46V529.1h43.91v10.52H799.65v12.63h24.11v10.51H799.65v15.18H831.7v10.52Z"/><path class="cls-6" d="M474.35,464.49h-.07c-.6-.22.18,0,1.3,1a39.4,39.4,0,0,1,4.13,4.32l1.16,1.43,1.51,1.89,3,3.8,35.25-28-3-3.79-1.5-1.9c-.63-.77-1.24-1.55-1.9-2.33a82.16,82.16,0,0,0-9.33-9.59,49.89,49.89,0,0,0-15.09-9.13,38.49,38.49,0,0,0-19.15-1.89Z"/><path class="cls-7" d="M498,454.09l-3.44,2.9c1.47,1.75,2.95,3.67,4.45,5.54l3.52-2.79C501,457.86,499.53,456,498,454.09Z"/><path class="cls-7" d="M488.32,444.94l-2.57,3.7a37.27,37.27,0,0,1,5.08,4.32l3.18-3.18A42.13,42.13,0,0,0,488.32,444.94Z"/><path class="cls-7" d="M475.5,440.85l-.21,4.44a13.09,13.09,0,0,1,6.1.95l1.65-4.19A16.52,16.52,0,0,0,475.5,440.85Z"/><rect class="cls-6" x="492.56" y="458.78" width="45" height="38.75" transform="translate(-185.61 423.53) rotate(-38.41)"/><rect class="cls-8" x="520.32" y="485.09" width="4.5" height="7.19" transform="translate(-190.52 430.47) rotate(-38.41)"/><rect class="cls-8" x="512.3" y="474.98" width="4.5" height="7.19" transform="translate(-185.98 423.3) rotate(-38.41)"/><rect class="cls-8" x="504.31" y="464.9" width="4.5" height="7.19" transform="translate(-181.45 416.16) rotate(-38.41)"/><path class="cls-6" d="M527.69,532.15a60.73,60.73,0,0,1,26.17,19l34.95-28.34A105.76,105.76,0,0,0,543,489.83Z"/><path class="cls-7" d="M564.49,527.25l-3.08,3.28c1,.92,1.89,1.9,2.85,2.85.46.48,1,1,1.4,1.44l1.32,1.53,3.38-3-1.39-1.6c-.47-.53-1-1-1.48-1.52C566.49,529.26,565.53,528.22,564.49,527.25Z"/><polygon class="cls-7" points="552.53 517.86 550.07 521.63 553.4 523.88 556.58 526.36 559.4 522.85 556.05 520.24 552.53 517.86"/><path class="cls-7" d="M539.11,510.79,537.39,515l1.86.75c.61.28,1.2.59,1.81.88,1.19.6,2.42,1.14,3.59,1.79l2.14-4c-1.24-.69-2.53-1.27-3.8-1.9-.64-.31-1.27-.64-1.91-.93Z"/><path class="cls-6" d="M553.86,551.11A60.77,60.77,0,0,1,567,580.63l44.56-6.24a105.6,105.6,0,0,0-22.76-51.62Z"/><path class="cls-7" d="M588.33,565.69,584,567c.39,1.29.67,2.6,1,3.89.16.65.35,1.29.48,1.95l.35,2,4.43-.81-.38-2.1c-.14-.69-.33-1.37-.5-2.06C589,568.43,588.73,567,588.33,565.69Z"/><polygon class="cls-7" points="582.67 551.56 578.66 553.6 580.42 557.21 581.93 560.94 586.13 559.31 584.53 555.38 582.67 551.56"/><path class="cls-7" d="M574.67,538.7l-3.61,2.69,1.22,1.6c.39.56.75,1.12,1.12,1.68.73,1.13,1.51,2.22,2.2,3.38l3.84-2.34c-.72-1.22-1.54-2.37-2.31-3.56-.4-.59-.78-1.18-1.18-1.76Z"/><path class="cls-6" d="M586,624.86a119.87,119.87,0,0,1,20,21.71l36.58-26.19A164.21,164.21,0,0,0,615,590.5Z"/><path class="cls-7" d="M620,625.22l-3.49,2.85c1.32,1.67,2.68,3.32,3.92,5l3.61-2.69C622.72,628.65,621.32,627,620,625.22Z"/><polygon class="cls-7" points="612.09 616.38 608.85 619.5 611.05 621.82 613.18 624.21 616.56 621.23 614.37 618.77 612.09 616.38"/><path class="cls-7" d="M603.56,608.24l-3,3.38c1.62,1.38,3.15,2.86,4.71,4.32l3.12-3.24C606.82,611.2,605.24,609.66,603.56,608.24Z"/><path class="cls-6" d="M606,646.57a120,120,0,0,1,14.1,25.92L662,656.07a164.26,164.26,0,0,0-19.41-35.69Z"/><path class="cls-7" d="M638.86,655.23l-4.08,1.91c.87,1.94,1.79,3.87,2.57,5.85l4.16-1.72C640.7,659.23,639.76,657.24,638.86,655.23Z"/><polygon class="cls-7" points="633.38 644.74 629.48 646.98 631.05 649.76 632.54 652.59 636.54 650.53 635.01 647.61 633.38 644.74"/><path class="cls-7" d="M627.1,634.76l-3.71,2.55c1.24,1.74,2.36,3.55,3.51,5.34l3.82-2.38C629.53,638.43,628.37,636.55,627.1,634.76Z"/><circle class="cls-9" cx="529.88" cy="503.16" r="6.96"/><circle class="cls-9" cx="591.95" cy="593.73" r="7.11"/><circle class="cls-9" cx="642.32" cy="673.92" r="7.08"/></g></svg>