<svg xmlns="http://www.w3.org/2000/svg" xmlns:xlink="http://www.w3.org/1999/xlink" viewBox="0 0 1080 1080"><defs><style>.cls-1{fill:none;}.cls-2{fill:#00a338;}.cls-3{fill:#002060;}.cls-4{fill:#fff;}.cls-5{fill:#e7ea99;}.cls-6{fill:#7ec346;}.cls-7{clip-path:url(#clip-path);}.cls-8{clip-path:url(#clip-path-2);}.cls-9{clip-path:url(#clip-path-3);}.cls-10{fill:#f9c295;}</style><clipPath id="clip-path"><path class="cls-1" d="M527,499.92c9.51,14.76,12.47,16.13,27.23,10.61l23.65,39.73c-11.23,9.42-15.46,18.62-6.33,27.36l-176,99c-8.23-11.21-17.39-15.53-28.3-7l-24.86-42.14c10.93-7.28,16.49-15.75,7.14-27.49Z"/></clipPath><clipPath id="clip-path-2"><path class="cls-1" d="M451.28,412.29c15.4,8.42,18.65,8.21,29-3.7L520,432.17c-5.35,13.65-4.68,23.75,7.53,27.06L420.27,630.35c-12.59-5.92-22.7-5.33-28.2,7.38l-42-25.13c6.12-11.62,6.95-21.71-6.88-27.55Z"/></clipPath><clipPath id="clip-path-3"><path class="cls-1" d="M323.73,441.9c17.45-1.89,20-3.92,21.68-19.59L391.52,419c3.4,14.26,9.72,22.17,21.63,17.92l9.64,201.74c-13.71,2.33-21.68,8.58-18.93,22.16L355,664.13c-1.61-13-6.7-21.79-21.38-18.69Z"/></clipPath></defs><g id="Dise単o_5" data-name="Dise単o 5"><path class="cls-2" d="M65.7,113.9,90.07,92.57c1.14-11.38,6.28-19,18.33-19.65l236.82,4.29c19.34.83,23,2.65,23.76,24.89l-1.56,118.17c1.18,16.2-3.28,21-17.33,20.84l-236.87-.78c-22.58-.88-23-3.23-24.74-27.24l2-71.36Z"/><path class="cls-3" d="M1048.64,238l-24.37-21.33c-1.14-11.38-6.28-19-18.33-19.65l-236.82,4.29c-19.34.83-23,2.65-23.76,24.89l1.56,91.18c-1.18,16.19,3.29,21,17.34,20.83l236.86-.78c22.58-.88,23.05-3.23,24.74-27.24l-1.95-44.36Z"/><path class="cls-2" d="M1043.6,711.35,1019.23,690c-1.14-11.38-6.28-19-18.33-19.65l-236.82,4.29c-19.34.83-23.05,2.65-23.76,24.89l1.56,118.18c-1.18,16.19,3.29,21,17.34,20.83l236.86-.78c22.58-.88,23-3.23,24.74-27.24l-2-71.36Z"/><path class="cls-4" d="M165.05,160.12a20.77,20.77,0,0,1-9.46-2.08,16,16,0,0,1-6.52-5.84,17.66,17.66,0,0,1,0-17.64,16,16,0,0,1,6.52-5.84,22.58,22.58,0,0,1,18.93,0,16,16,0,0,1,6.51,5.84,17.66,17.66,0,0,1,0,17.64,16,16,0,0,1-6.51,5.84A20.81,20.81,0,0,1,165.05,160.12Zm0-5.7a12.39,12.39,0,0,0,6.22-1.43,9.09,9.09,0,0,0,3.75-3.92,13.58,13.58,0,0,0,0-11.38,9.09,9.09,0,0,0-3.75-3.92,14.24,14.24,0,0,0-12.44,0,9.14,9.14,0,0,0-3.75,3.92,13.58,13.58,0,0,0,0,11.38,9.14,9.14,0,0,0,3.75,3.92A12.41,12.41,0,0,0,165.05,154.42Z"/><path class="cls-4" d="M189.67,159.48V141.17h-3.78l.59-4.69h3.19V131.6a6,6,0,0,1,2.09-4.83,9,9,0,0,1,6-1.79,21.18,21.18,0,0,1,2.35.12,19.08,19.08,0,0,1,2,.29l-.59,4.6a6.39,6.39,0,0,0-.87-.17,10,10,0,0,0-1.2-.06,3.65,3.65,0,0,0-2.29.67,2.64,2.64,0,0,0-.85,2.19v3.86h5.85v4.69h-5.85v18.31Z"/><path class="cls-4" d="M218.43,159.94a17.25,17.25,0,0,1-8-1.67,11.46,11.46,0,0,1-4.8-4.41,11.84,11.84,0,0,1-1.6-6,11.69,11.69,0,0,1,1.51-5.82,11.15,11.15,0,0,1,4.4-4.29,14.3,14.3,0,0,1,7.07-1.62,13.42,13.42,0,0,1,6.38,1.36,9.2,9.2,0,0,1,3.83,3.62,10,10,0,0,1,1.27,5,11.23,11.23,0,0,1-.1,1.53,14.15,14.15,0,0,1-.32,1.6H210.88a6.8,6.8,0,0,0,1.56,3.46,7,7,0,0,0,2.9,1.95,10.81,10.81,0,0,0,3.68.62,16.91,16.91,0,0,0,4.31-.52,17.45,17.45,0,0,0,3.66-1.37l.32,4.83a20.39,20.39,0,0,1-3.77,1.22A22.67,22.67,0,0,1,218.43,159.94ZM211,145.36h10.74a5.2,5.2,0,0,0-.45-2.08,4,4,0,0,0-1.5-1.76,4.92,4.92,0,0,0-2.83-.72,5.88,5.88,0,0,0-4,1.29A6.22,6.22,0,0,0,211,145.36Z"/><path class="cls-4" d="M233,159.48v-23h6.17l.16,2.44a12.32,12.32,0,0,1,2.84-1.93,8.47,8.47,0,0,1,4-1,7.13,7.13,0,0,1,1.17.09l-.48,5.61a8,8,0,0,0-1.16-.18c-.38,0-.75,0-1.13,0a7,7,0,0,0-3.05.67,4.35,4.35,0,0,0-1.94,1.63v15.69Z"/><path class="cls-4" d="M259.22,159.94a8.21,8.21,0,0,1-4.07-.89,5.75,5.75,0,0,1-2.32-2.26,6.05,6.05,0,0,1-.74-2.88V141.17h-3.77l.58-4.69h3.19v-5.06l6.59-.6v5.66h5.85v4.69h-5.85v10.4a9.43,9.43,0,0,0,.24,2.52,1.38,1.38,0,0,0,1.09,1,13.34,13.34,0,0,0,2.71.2h1.81l-.58,4.69Z"/><path class="cls-4" d="M274.58,159.94a9,9,0,0,1-3.88-.82,6.68,6.68,0,0,1-2.79-2.35,6.54,6.54,0,0,1-1-3.73,5.42,5.42,0,0,1,1.05-3.35,8.48,8.48,0,0,1,2.77-2.32,17,17,0,0,1,3.72-1.47,30.54,30.54,0,0,1,4-.8c1.3-.16,2.45-.26,3.44-.29a3.85,3.85,0,0,0-1.17-2.88A5.63,5.63,0,0,0,277,141a14.28,14.28,0,0,0-3.47.43,26.12,26.12,0,0,0-3.82,1.32l-.58-4.64a25.65,25.65,0,0,1,4.8-1.52,23.41,23.41,0,0,1,4.87-.51A13.11,13.11,0,0,1,284,137a6.88,6.88,0,0,1,3.32,3,10.69,10.69,0,0,1,1.17,5.37v6.21a12.11,12.11,0,0,0,.18,2.49,1.29,1.29,0,0,0,.7,1,3.92,3.92,0,0,0,1.46.21h.85l-.59,4.69h-2.39a9.63,9.63,0,0,1-2.64-.33,6.44,6.44,0,0,1-2-.94,4.87,4.87,0,0,1-1.32-1.4,8.74,8.74,0,0,1-3.53,2A15.1,15.1,0,0,1,274.58,159.94Zm2.77-4.37a7.62,7.62,0,0,0,2.18-.4,7,7,0,0,0,2.34-1.26v-5.24a18.43,18.43,0,0,0-3.73.53,9.07,9.07,0,0,0-3.11,1.36,2.68,2.68,0,0,0-1.25,2.25,2.51,2.51,0,0,0,.85,2.08A4.4,4.4,0,0,0,277.35,155.57Z"/><path class="cls-4" d="M799.48,268.44a20.81,20.81,0,0,1-9.47-2.08,16,16,0,0,1-6.51-5.84,17.6,17.6,0,0,1,0-17.64A16,16,0,0,1,790,237a22.48,22.48,0,0,1,18.93,0,15.83,15.83,0,0,1,6.51,5.84,17.6,17.6,0,0,1,0,17.64,15.9,15.9,0,0,1-6.51,5.84A20.77,20.77,0,0,1,799.48,268.44Zm0-5.7a12.41,12.41,0,0,0,6.22-1.43,9.26,9.26,0,0,0,3.75-3.92,13.58,13.58,0,0,0,0-11.38,9.23,9.23,0,0,0-3.75-3.93,14.35,14.35,0,0,0-12.45,0,9.14,9.14,0,0,0-3.74,3.93,13.58,13.58,0,0,0,0,11.38,9.18,9.18,0,0,0,3.74,3.92A12.43,12.43,0,0,0,799.48,262.74Z"/><path class="cls-4" d="M824.09,267.8V249.49h-3.77l.58-4.69h3.19v-4.88a6.06,6.06,0,0,1,2.09-4.83,9,9,0,0,1,6-1.79c.85,0,1.63,0,2.35.11s1.37.18,2,.3l-.58,4.6a6.87,6.87,0,0,0-.88-.17,10,10,0,0,0-1.2-.06,3.56,3.56,0,0,0-2.28.67,2.59,2.59,0,0,0-.85,2.18v3.87h5.85v4.69h-5.85V267.8Z"/><path class="cls-4" d="M852.86,268.26a17.29,17.29,0,0,1-8-1.67,11.53,11.53,0,0,1-4.8-4.42,12.1,12.1,0,0,1-.09-11.83,11.15,11.15,0,0,1,4.4-4.29,14.3,14.3,0,0,1,7.07-1.62,13.39,13.39,0,0,1,6.38,1.36,9.2,9.2,0,0,1,3.83,3.62,10,10,0,0,1,1.28,5,11.25,11.25,0,0,1-.11,1.53,14.15,14.15,0,0,1-.32,1.6H845.31a6.87,6.87,0,0,0,1.55,3.46,7,7,0,0,0,2.9,1.94,10.58,10.58,0,0,0,3.68.63,17.32,17.32,0,0,0,4.31-.52,18.34,18.34,0,0,0,3.67-1.37l.32,4.83a20.27,20.27,0,0,1-3.78,1.22A22.57,22.57,0,0,1,852.86,268.26Zm-7.39-14.58h10.74a5.28,5.28,0,0,0-.45-2.09,4.15,4.15,0,0,0-1.51-1.76,5,5,0,0,0-2.83-.71,5.84,5.84,0,0,0-4,1.29A6.16,6.16,0,0,0,845.47,253.68Z"/><path class="cls-4" d="M867.43,267.8v-23h6.17l.15,2.44a13,13,0,0,1,2.85-1.94,8.51,8.51,0,0,1,4-1,7,7,0,0,1,1.17.09L881.3,250a7.63,7.63,0,0,0-1.15-.18c-.38,0-.76-.05-1.13-.05a6.87,6.87,0,0,0-3.06.67,4.29,4.29,0,0,0-1.94,1.63V267.8Z"/><path class="cls-4" d="M893.64,268.26a8.24,8.24,0,0,1-4.07-.89,5.78,5.78,0,0,1-2.31-2.26,5.94,5.94,0,0,1-.74-2.88V249.49h-3.78l.59-4.69h3.19v-5.06l6.59-.6v5.66H899v4.69h-5.85v10.4a9.29,9.29,0,0,0,.24,2.51,1.36,1.36,0,0,0,1.09,1,13.27,13.27,0,0,0,2.71.2H899l-.59,4.69Z"/><path class="cls-4" d="M909,268.26a9,9,0,0,1-3.89-.82,6.7,6.7,0,0,1-2.79-2.36,6.5,6.5,0,0,1-1-3.72,5.4,5.4,0,0,1,1.05-3.35,8.42,8.42,0,0,1,2.76-2.32,17.17,17.17,0,0,1,3.72-1.47,30.54,30.54,0,0,1,4-.8c1.31-.17,2.45-.27,3.45-.3a3.85,3.85,0,0,0-1.17-2.87,5.66,5.66,0,0,0-3.62-.9,13.86,13.86,0,0,0-3.47.43,26,26,0,0,0-3.81,1.32l-.59-4.65a26.08,26.08,0,0,1,4.8-1.51,23.51,23.51,0,0,1,4.88-.51,13.06,13.06,0,0,1,5.13.92,6.79,6.79,0,0,1,3.32,3,10.69,10.69,0,0,1,1.17,5.37v6.21a11.94,11.94,0,0,0,.19,2.49,1.26,1.26,0,0,0,.69,1,4,4,0,0,0,1.46.21h.85l-.58,4.69H923.1a9.26,9.26,0,0,1-2.65-.34,6.26,6.26,0,0,1-2-.93,5,5,0,0,1-1.33-1.4,8.82,8.82,0,0,1-3.52,2A15.47,15.47,0,0,1,909,268.26Zm2.76-4.37a7.92,7.92,0,0,0,2.18-.4,6.8,6.8,0,0,0,2.34-1.26V257a17.66,17.66,0,0,0-3.72.53,9,9,0,0,0-3.11,1.35,2.7,2.7,0,0,0-1.25,2.26,2.49,2.49,0,0,0,.85,2.08A4.37,4.37,0,0,0,911.77,263.89Z"/><path class="cls-4" d="M790.84,742.2a20.81,20.81,0,0,1-9.47-2.08,16,16,0,0,1-6.51-5.84,17.6,17.6,0,0,1,0-17.64,16,16,0,0,1,6.51-5.84,22.48,22.48,0,0,1,18.93,0,15.92,15.92,0,0,1,6.52,5.84,17.66,17.66,0,0,1,0,17.64,16,16,0,0,1-6.52,5.84A20.77,20.77,0,0,1,790.84,742.2Zm0-5.7a12.41,12.41,0,0,0,6.22-1.43,9.26,9.26,0,0,0,3.75-3.92,13.58,13.58,0,0,0,0-11.38,9.23,9.23,0,0,0-3.75-3.93,14.33,14.33,0,0,0-12.44,0,9.11,9.11,0,0,0-3.75,3.93,13.58,13.58,0,0,0,0,11.38,9.14,9.14,0,0,0,3.75,3.92A12.39,12.39,0,0,0,790.84,736.5Z"/><path class="cls-4" d="M815.46,741.56V723.25h-3.78l.58-4.69h3.2v-4.88a6.05,6.05,0,0,1,2.08-4.83,9,9,0,0,1,6-1.79c.85,0,1.63,0,2.35.11s1.37.18,2,.3l-.58,4.6a6.87,6.87,0,0,0-.88-.17,9.89,9.89,0,0,0-1.19-.06,3.59,3.59,0,0,0-2.29.67,2.59,2.59,0,0,0-.85,2.18v3.87h5.85v4.69h-5.85v18.31Z"/><path class="cls-4" d="M844.22,742a17.22,17.22,0,0,1-8-1.67,11.41,11.41,0,0,1-4.8-4.42,12.06,12.06,0,0,1-.1-11.83,11.15,11.15,0,0,1,4.4-4.29,14.3,14.3,0,0,1,7.07-1.62,13.46,13.46,0,0,1,6.39,1.36,9.17,9.17,0,0,1,3.82,3.62,10,10,0,0,1,1.28,5,11.25,11.25,0,0,1-.11,1.53,12.24,12.24,0,0,1-.32,1.6H836.67a6.8,6.8,0,0,0,1.56,3.46,7.06,7.06,0,0,0,2.89,2,10.85,10.85,0,0,0,3.68.62,17.32,17.32,0,0,0,4.31-.52,18.34,18.34,0,0,0,3.67-1.37l.32,4.83a20.27,20.27,0,0,1-3.78,1.22A22.51,22.51,0,0,1,844.22,742Zm-7.39-14.58h10.74a5.28,5.28,0,0,0-.45-2.09,4,4,0,0,0-1.5-1.75,5,5,0,0,0-2.84-.72,5.86,5.86,0,0,0-4,1.29A6.16,6.16,0,0,0,836.83,727.44Z"/><path class="cls-4" d="M858.79,741.56v-23H865l.16,2.44a12.64,12.64,0,0,1,2.84-1.94,8.52,8.52,0,0,1,4-1,6.92,6.92,0,0,1,1.16.09l-.47,5.61a8,8,0,0,0-1.16-.18c-.38,0-.76,0-1.13,0a6.87,6.87,0,0,0-3.06.67,4.29,4.29,0,0,0-1.94,1.63v15.69Z"/><path class="cls-4" d="M885,742a8.24,8.24,0,0,1-4.07-.89,5.78,5.78,0,0,1-2.31-2.26,6.05,6.05,0,0,1-.74-2.88V723.25H874.1l.59-4.69h3.19V713.5l6.59-.6v5.66h5.85v4.69h-5.85v10.4a9.29,9.29,0,0,0,.24,2.51,1.36,1.36,0,0,0,1.09,1,13.34,13.34,0,0,0,2.71.2h1.81l-.59,4.69Z"/><path class="cls-4" d="M900.37,742a9,9,0,0,1-3.88-.82,6.72,6.72,0,0,1-2.8-2.36,6.48,6.48,0,0,1-1-3.72,5.4,5.4,0,0,1,1.05-3.35,8.42,8.42,0,0,1,2.76-2.32,17.37,17.37,0,0,1,3.72-1.47,30.35,30.35,0,0,1,4-.8c1.3-.17,2.45-.26,3.44-.3a3.85,3.85,0,0,0-1.17-2.87,5.66,5.66,0,0,0-3.62-.9,13.92,13.92,0,0,0-3.47.43,26.45,26.45,0,0,0-3.81,1.32l-.59-4.65a26.08,26.08,0,0,1,4.8-1.51,23.51,23.51,0,0,1,4.88-.51,13,13,0,0,1,5.13.92,6.85,6.85,0,0,1,3.33,3,10.8,10.8,0,0,1,1.16,5.37v6.21a11.94,11.94,0,0,0,.19,2.49,1.28,1.28,0,0,0,.69,1,4,4,0,0,0,1.46.21h.85l-.58,4.69h-2.39a9.26,9.26,0,0,1-2.65-.34,6.26,6.26,0,0,1-2-.93,5,5,0,0,1-1.33-1.4,8.82,8.82,0,0,1-3.52,2A15.47,15.47,0,0,1,900.37,742Zm2.76-4.37a7.92,7.92,0,0,0,2.18-.4,6.8,6.8,0,0,0,2.34-1.26v-5.24a17.66,17.66,0,0,0-3.72.53,9,9,0,0,0-3.11,1.35,2.7,2.7,0,0,0-1.25,2.26,2.49,2.49,0,0,0,.85,2.08A4.37,4.37,0,0,0,903.13,737.65Z"/><rect class="cls-3" x="906.2" y="780.7" width="55.98" height="11.17"/><polygon class="cls-3" points="959.04 771 959.04 803.36 994.1 785.79 959.04 771"/><rect class="cls-3" x="938.04" y="805.08" width="55.98" height="11.17" transform="translate(1932.06 1621.33) rotate(180)"/><polygon class="cls-3" points="941.18 795.38 941.18 827.75 906.12 810.18 941.18 795.38"/><rect class="cls-3" x="266.29" y="594.77" width="55.98" height="11.17"/><polygon class="cls-3" points="319.13 585.07 319.13 617.43 354.19 599.86 319.13 585.07"/><rect class="cls-3" x="298.13" y="619.15" width="55.98" height="11.17" transform="translate(652.24 1249.47) rotate(180)"/><polygon class="cls-3" points="301.27 609.45 301.27 641.81 266.21 624.24 301.27 609.45"/><rect class="cls-3" x="265.64" y="185.96" width="49.61" height="9.9"/><polygon class="cls-3" points="312.47 177.36 312.47 206.04 343.54 190.47 312.47 177.36"/><rect class="cls-3" x="293.86" y="207.57" width="49.61" height="9.9" transform="translate(637.34 425.03) rotate(180)"/><polygon class="cls-3" points="296.64 198.97 296.64 227.65 265.57 212.08 296.64 198.97"/><rect class="cls-2" x="923.6" y="286.09" width="49.61" height="9.9"/><polygon class="cls-2" points="970.43 277.49 970.43 306.18 1001.51 290.61 970.43 277.49"/><rect class="cls-2" x="951.82" y="307.7" width="49.61" height="9.9" transform="translate(1953.26 625.3) rotate(180)"/><polygon class="cls-2" points="954.61 299.11 954.61 327.79 923.53 312.22 954.61 299.11"/></g><g id="Dise単o_3" data-name="Dise単o 3"><polygon class="cls-3" points="12.6 623.41 132.58 621.91 134.08 917.04 9.6 915.54 12.6 623.41"/><rect class="cls-5" x="389.93" y="441.86" width="139.89" height="294.78" transform="translate(757.36 -96.46) rotate(61.42)"/><rect class="cls-6" x="403.36" y="454.73" width="114.99" height="267.01" transform="translate(756.98 -97.86) rotate(61.42)"/><path class="cls-5" d="M527.56,499.63c9.51,14.75,12.47,16.12,27.23,10.6L578.44,550c-11.23,9.43-15.46,18.62-6.33,27.36l-176,99c-8.23-11.22-17.39-15.54-28.3-7L342.9,627.16c10.93-7.28,16.49-15.75,7.14-27.49Z"/><g class="cls-7"><ellipse class="cls-6" cx="461.28" cy="587.23" rx="48.88" ry="48.59" transform="translate(-284.89 616.39) rotate(-54.09)"/></g><path class="cls-4" d="M467.79,563.21c2.55-3.91,1.19-7.26-3.27-8.23a5.91,5.91,0,0,0-3.59.4l-4.22,1.82a6.13,6.13,0,0,1-7-1.56l-5.35-6.06c-4.68-4.81-11,2.89-6.79,6.44l2.38,2.74a6.21,6.21,0,0,1-.16,8.21,17.47,17.47,0,0,0-4.34,9.22,6.26,6.26,0,0,0,0,1.56,19.12,19.12,0,0,0,11.94,16,5.81,5.81,0,0,0,2.16.49c8.55.33,15.53-3.41,23.75-7.44,6.29-1.83,10,3.55,7.83,7.81-4.21,6.9-12.45,9.42-21,12.33-.45.15-4.27.71-4.73.81-4,.93-6.16,8.17,1.33,10.21l14.87-2.37a6.07,6.07,0,0,1,4.94,1.39l5.53,5.32c4.14,4.33,9.16-.38,6.74-3.91l-3.66-4.68a6.1,6.1,0,0,1,0-8.4,25.5,25.5,0,0,0,6.34-10.8c.06-.2.12-.41.17-.62,1.71-7.42,1.22-15.93-12.46-18.65a8.73,8.73,0,0,0-2.74-.16c-9.14,1.59-13.1,4.54-20.55,6.78-6.87,1.66-9.61-1.28-7.23-6.87a6.16,6.16,0,0,1,2-2.57,43.71,43.71,0,0,1,13.84-6.92A6,6,0,0,0,467.79,563.21Z"/><rect class="cls-5" x="365.1" y="375.45" width="139.89" height="294.78" transform="translate(353.25 -152.39) rotate(32.86)"/><rect class="cls-6" x="377.93" y="387.98" width="114.99" height="267.01" transform="translate(352.58 -152.81) rotate(32.86)"/><path class="cls-5" d="M451.64,411.76c15.4,8.42,18.65,8.2,29-3.7l39.77,23.58c-5.35,13.65-4.68,23.75,7.52,27.06L420.63,629.82c-12.59-5.92-22.7-5.33-28.21,7.38l-42-25.13c6.12-11.62,6.95-21.71-6.88-27.56Z"/><g class="cls-8"><ellipse class="cls-6" cx="435.31" cy="520.39" rx="48.88" ry="48.59" transform="translate(-136.47 885.59) rotate(-82.65)"/></g><path class="cls-4" d="M429.55,496.19c.37-4.65-2.44-6.95-6.81-5.67a5.91,5.91,0,0,0-3,2.07l-2.83,3.62a6.12,6.12,0,0,1-6.9,2l-7.6-2.76c-6.41-2-8.25,7.78-2.89,8.9l3.41,1.26a6.22,6.22,0,0,1,3.78,7.29,17.42,17.42,0,0,0,.6,10.17,5.88,5.88,0,0,0,.73,1.38,19.1,19.1,0,0,0,18.16,8.39,5.85,5.85,0,0,0,2.13-.6c7.67-3.8,12-10.42,17.3-17.89,4.65-4.61,10.51-1.68,10.62,3.11-.4,8.08-6.44,14.23-12.53,20.85-.31.35-3.4,2.67-3.75,3-3.09,2.74-1.51,10.12,6,8.34L458,540.4a6.14,6.14,0,0,1,5-1.14l7.41,2c5.7,1.82,7.85-4.71,4-6.65L469,532.28a6.08,6.08,0,0,1-4-7.37,25.5,25.5,0,0,0,.4-12.51q-.06-.31-.15-.63c-2.05-7.34-6.54-14.58-19.86-10.43a8.82,8.82,0,0,0-2.48,1.17c-7.27,5.77-9.34,10.26-14.8,15.79-5.24,4.74-9.06,3.47-9.64-2.58a6.25,6.25,0,0,1,.52-3.22,43.74,43.74,0,0,1,8.85-12.69A5.94,5.94,0,0,0,429.55,496.19Z"/><rect class="cls-5" x="303.58" y="394.53" width="139.89" height="294.78" transform="translate(-18.38 13.14) rotate(-1.97)"/><rect class="cls-6" x="315.57" y="407.08" width="114.99" height="267.01" transform="translate(-18.34 13.12) rotate(-1.97)"/><path class="cls-5" d="M323.72,441.26c17.45-1.89,20-3.92,21.68-19.59l46.11-3.35c3.4,14.26,9.72,22.17,21.63,17.91L422.78,638c-13.71,2.34-21.68,8.59-18.93,22.17L355,663.49c-1.61-13-6.7-21.79-21.38-18.7Z"/><g class="cls-9"><ellipse class="cls-6" cx="372.35" cy="539.76" rx="48.59" ry="48.88" transform="translate(-207.04 232.69) rotate(-27.48)"/></g><path class="cls-4" d="M353.79,523.18c-2.35-4-6-4.31-8.82-.76a6,6,0,0,0-1.25,3.39l-.26,4.58a6.11,6.11,0,0,1-4.54,5.57L331.11,538c-6.4,2-2.33,11.09,2.72,9l3.51-.91a6.21,6.21,0,0,1,7.27,3.82,17.49,17.49,0,0,0,6.3,8,6.47,6.47,0,0,0,1.38.72A19.15,19.15,0,0,0,372,555.15a5.94,5.94,0,0,0,1.4-1.71c4.12-7.5,3.91-15.41,4-24.56,1.18-6.45,7.66-7.39,10.49-3.51,4.28,6.86,2.84,15.35,1.62,24.26-.06.47-1.27,4.14-1.38,4.59-1,4,4.54,9.17,9.72,3.39l4.54-14.36a6.09,6.09,0,0,1,3.45-3.79l7.24-2.57c5.73-1.76,3.76-8.35-.48-7.77l-5.81,1.17a6.09,6.09,0,0,1-7.53-3.74,25.43,25.43,0,0,0-6.81-10.5l-.48-.43c-5.87-4.86-13.69-8.23-22.26,2.78a8.81,8.81,0,0,0-1.37,2.37c-2.68,8.9-1.81,13.76-3.14,21.42-1.59,6.89-5.45,8-9.38,3.39a6.25,6.25,0,0,1-1.41-2.94,43.67,43.67,0,0,1,0-15.48A6,6,0,0,0,353.79,523.18Z"/><path class="cls-10" d="M133.83,655.24c18.87,1,36.79-8.87,54-27l48-54c16.74-14.59,32.9-24.82,48-27l19.5-4.5,4.5,57c39.08-6.34,76.49-8.33,110.32-6,49.16,3.5,66.16,52,18.66,78,38.5,8.16,37.16,64.32-3.87,73,34.12,14.75,27.37,66.74-17.62,73.49,32.24,14.25,26.24,63.24-9,71.74l-79,3.75c-59.63-4-115.09-9.77-150-24l-16.5-5.16-25.5-.84Z"/><circle class="cls-4" cx="71.09" cy="851.88" r="25"/></g></svg>