<svg xmlns="http://www.w3.org/2000/svg" xmlns:xlink="http://www.w3.org/1999/xlink" viewBox="0 0 1080 1080"><defs><style>.cls-1{fill:none;}.cls-2{fill:#badce8;}.cls-3{fill:#002060;}.cls-4{fill:#4c214c;}.cls-5{fill:#00a338;}.cls-6{fill:#fff;}.cls-7{fill:#e28f8a;}.cls-8{fill:#e2988f;}.cls-9{fill:#f26674;}.cls-10{fill:#c4455e;}.cls-11{fill:#b3b3b3;}.cls-12{fill:#898989;}.cls-13{clip-path:url(#clip-path);}.cls-14{clip-path:url(#clip-path-2);}.cls-15{fill:#ccc;}.cls-16{fill:#1a1a1a;}.cls-17{fill:#afafaf;}</style><clipPath id="clip-path"><path class="cls-1" d="M672.84,721.12H606.47l-10.79,10.22-22,98.48c-2,8.3-.15,23.15,7.94,23.15h83.61Z"/></clipPath><clipPath id="clip-path-2"><path id="SVGID" class="cls-2" d="M573.33,783.28h69.34c5.78,0,10.46-4,10.46-9v-28c0-5-4.68-9-10.46-9H591.92a8.37,8.37,0,0,0-7.28,3.87l-18.59,32C563.34,777.81,567.28,783.28,573.33,783.28Z"/></clipPath></defs><g id="Diseño_4" data-name="Diseño 4"><circle class="cls-3" cx="285.06" cy="299.1" r="196.18"/><path class="cls-4" d="M199.86,218.91c-1.17-36,4.39-67.27,22.33-89.62,46-40.17,87.18-37.77,124.41-1.47,22,19,26.93,51.56,24.88,89.62l-10.85,40.4L211.34,260Z"/><path class="cls-5" d="M118,401.89c44.5-15.6,86-28.36,115.05-30.2l103.36-.64c41.59,6.56,81.51,14.37,114.94,32.22-21.58,41.35-58.77,66.37-102.82,84.54-44.36,9-80.39,9.36-127-1.28C183,474,146.9,445.7,118,401.89Z"/><path class="cls-6" d="M222.61,372.81l10.69-1.76,103.83-.16,10.53,1.92.8,115c-39.51,7.87-80.55,12.12-126.27-1.28Z"/><path class="cls-7" d="M233.67,324.52,233,371.05c34.53,27.84,69.18,30.27,104-.63V323.2Z"/><path class="cls-8" d="M211.34,240.26c.72-17.24-3.22-28.24-10.21-35.09-15.09.24-17.78,7-18.5,15.32,1.25,19.74,4.8,34.7,12.12,48.48,4.76,7.76,10.16,10.45,16.59,5.11l6.38,35.09c13.78,18.68,29.1,36.05,47.21,51,13.78,5.63,26.74,6.57,38.28-.64,20.69-15.17,38-31.84,51-50.4l5.11-34.45c7.79,1.89,15.38,2.34,21.69-6.38,4.49-9.07,6.43-28.93,8.29-49.13-2.1-13.59-8.09-17.08-18.5-15.31-7.66,6.79-9,20.52-8.93,35.73-4,2.88-7-1.92-7.66-10.21l-3.83-53.59c-.32-7.41-7.11-11.13-19.77-11.49l-87.41-.64c-12.32-.73-19,3.84-21.05,12.76-1.09,20.06-4.45,39.8-3.19,51.68C218.36,237.71,215.13,242.16,211.34,240.26Z"/><path class="cls-4" d="M243.24,283.65h86.13s-5.74-25.84-44-25.84S243.24,283.65,243.24,283.65Z"/><rect class="cls-3" x="545.6" y="188.44" width="475.2" height="34.56" rx="7.2"/><rect class="cls-3" x="545.32" y="238.92" width="475.2" height="34.56" rx="7.2"/><rect class="cls-3" x="545.32" y="288.32" width="475.2" height="34.56" rx="7.2"/><g id="camion2"><rect class="cls-9" x="688.35" y="619.53" width="335.05" height="178.84" transform="translate(1711.75 1417.91) rotate(180)"/><g id="camion2-2" data-name="camion2"><rect class="cls-10" x="958.16" y="646.77" width="20.63" height="110.17" transform="translate(1936.94 1403.71) rotate(180)"/><rect class="cls-10" x="913.38" y="646.77" width="20.63" height="110.17" transform="translate(1847.39 1403.71) rotate(-180)"/><rect class="cls-10" x="868.61" y="646.26" width="20.63" height="110.17" transform="translate(1757.85 1402.7) rotate(-180)"/><rect class="cls-10" x="824.34" y="646.26" width="20.63" height="110.17" transform="translate(1669.31 1402.7) rotate(-180)"/><rect class="cls-10" x="779.06" y="646.26" width="20.63" height="110.17" transform="translate(1578.75 1402.7) rotate(-180)"/><rect class="cls-10" x="734.29" y="645.76" width="20.63" height="110.17" transform="translate(1489.21 1401.69) rotate(-180)"/></g></g><rect class="cls-11" x="666.31" y="734.38" width="18.12" height="71.6" rx="3" transform="translate(1350.74 1540.35) rotate(180)"/><path class="cls-11" d="M687,855.4c8.84,1.56,289,.23,330.82,0,2.88,0,5.2-3,5.2-6.77V837.72c0-2.67-1.67-4.84-3.73-4.84H675.13S674.67,855.4,687,855.4Z"/><path class="cls-12" d="M687.28,855.79c9.54.44,335.25,0,335.25,0V850H675.47S675,855.79,687.28,855.79Z"/><g class="cls-13"><path class="cls-3" d="M672.84,721.46H606.47l-10.79,10.2-22,98.27c-2,8.28-.15,23.1,7.94,23.1h83.61Z"/><path id="SVGID-2" data-name="SVGID" class="cls-2" d="M573.33,783.28h69.34c5.78,0,10.46-4,10.46-9v-28c0-5-4.68-9-10.46-9H591.92a8.37,8.37,0,0,0-7.28,3.87l-18.59,32C563.34,777.81,567.28,783.28,573.33,783.28Z"/><g class="cls-14"><path class="cls-2" d="M573.91,783.78h69.34c5.78,0,10.46-4,10.46-9v-28c0-5-4.68-9-10.46-9H592.5a8.37,8.37,0,0,0-7.28,3.87l-18.59,32C563.93,778.31,567.86,783.78,573.91,783.78Z"/></g></g><rect class="cls-15" x="687.96" y="798.93" width="335.42" height="33.95" transform="translate(1711.34 1631.82) rotate(180)"/><path class="cls-3" d="M613.55,778.76H736.94a0,0,0,0,1,0,0v16.8a0,0,0,0,1,0,0H605.55a0,0,0,0,1,0,0v-8.8A8,8,0,0,1,613.55,778.76Z" transform="translate(1458.4 115.91) rotate(90)"/><circle class="cls-16" cx="953.78" cy="852.37" r="37.81"/><ellipse class="cls-17" cx="953.78" cy="852.37" rx="16.93" ry="16.78" transform="translate(-127.17 1536.31) rotate(-74.11)"/><rect class="cls-3" x="577.94" y="721.46" width="84.9" height="10.74" rx="4" transform="translate(1240.79 1453.66) rotate(180)"/><circle class="cls-16" cx="629.99" cy="852.61" r="37.81"/><ellipse class="cls-17" cx="629.99" cy="852.61" rx="16.93" ry="16.78" transform="translate(-362.53 1225.07) rotate(-74.11)"/><circle class="cls-16" cx="872.18" cy="852.76" r="37.81"/><ellipse class="cls-17" cx="872.18" cy="852.76" rx="16.93" ry="16.78" transform="translate(-186.8 1458.12) rotate(-74.11)"/><rect class="cls-5" x="65.94" y="727.46" width="475.2" height="34.56" rx="7.2"/><rect class="cls-5" x="65.66" y="777.94" width="475.2" height="34.56" rx="7.2"/><rect class="cls-5" x="65.66" y="827.34" width="475.2" height="34.56" rx="7.2"/></g></svg>