<svg xmlns="http://www.w3.org/2000/svg" viewBox="0 0 1080 1080"><defs><style>.cls-1{fill:#f79e61;}.cls-2{fill:#fff;}.cls-3{fill:#00a338;}.cls-4{fill:#002060;}.cls-5{fill:#e27933;}</style></defs><g id="Diseño_5" data-name="Diseño 5"><path class="cls-1" d="M918.79,957.91Q856.3,875,818.34,761.49c20.3-35,28.85-81.93,31.48-134.94C850.57,567,874,513.29,905.3,461.62c11.25-23.24-6.75-38.23-16.49-67.47-17.25-41.23-11.25-68.22-28.49-94.46-15.88-1-30.34,5.78-44.23,15.74.74,49.68-.64,65.72-1.5,90L687.14,891.19c-22.55,28.49-49.15,39.66-81,28.49L492.23,891.19l28.48,18,81,143.94C696.14,1093.6,862.57,1056.12,918.79,957.91Z"/><rect x="363.47" y="41.6" width="428.54" height="854.44" rx="30.61" transform="translate(1017.84 1068.72) rotate(-165.32)"/><rect class="cls-2" x="385.41" y="75.94" width="385.61" height="780.42" rx="30.61" transform="translate(1019.44 1063.6) rotate(-165.32)"/><path class="cls-3" d="M463.22,235l25.45-13.13c3.4-9.54,9.43-15,19.91-13l202.41,54c16.43,4.82,19.23,7.17,15.12,26.42L699.69,390.39c-2.43,14.16-7.29,17.35-19.31,14.21l-203.2-51C458,348.1,458.08,346,461.73,325l16.82-60.86Z"/><path class="cls-4" d="M751.66,491.68l-16.37-25.13c2-7.91-.85-14.31-9.26-19l-211.65-53.7c-8.11-1.84-13.62,1.45-17.31,8.31L485,446.61c-.73,9.85,2.53,16.14,10.94,17.83l210.79,53.47c9.54,3.36,15-.38,17.57-9.31Z"/><path class="cls-3" d="M390.7,503.79l27-13.8c4.71-8.92,10.53-14.77,19.05-13.21l210.31,57.1c8.91,4.56,13.9,4.7,10.54,19.33l-65,250.43c-4,15.52-8,17-16.3,15L361.19,762.42c-10-3.7-11.76-7.25-8.6-21.5l55.8-210Z"/><rect class="cls-2" x="500.49" y="258.05" width="211.25" height="8.28" transform="translate(85.97 -144.72) rotate(14.64)"/><rect class="cls-2" x="492.67" y="286.23" width="211.25" height="8.28" transform="translate(92.84 -141.83) rotate(14.64)"/><rect class="cls-2" x="485.52" y="315.37" width="211.25" height="8.28" transform="translate(99.98 -139.07) rotate(14.64)"/><rect class="cls-2" x="478.47" y="333.83" width="133.29" height="8.28" transform="translate(103.15 -126.83) rotate(14.64)"/><rect class="cls-2" x="509.49" y="439.56" width="211.25" height="8.28" transform="translate(132.16 -141.09) rotate(14.64)"/><rect class="cls-2" x="504.09" y="450.53" width="60.36" height="8.28" transform="matrix(0.97, 0.25, -0.25, 0.97, 132.3, -120.3)"/><rect class="cls-2" x="427.5" y="525.1" width="211.25" height="8.28" transform="translate(151.12 -117.59) rotate(14.64)"/><rect class="cls-2" x="421.3" y="552.36" width="211.25" height="8.28" transform="translate(157.81 -115.14) rotate(14.64)"/><rect class="cls-2" x="412.59" y="582.18" width="211.25" height="8.28" transform="translate(165.06 -111.97) rotate(14.64)"/><rect class="cls-2" x="406.12" y="610.43" width="211.25" height="8.28" transform="translate(172 -109.41) rotate(14.64)"/><rect class="cls-2" x="382.38" y="642.57" width="211.25" height="125.74" transform="translate(194.2 -100.46) rotate(14.64)"/><path class="cls-1" d="M297.31,654.29l72-1.5c33-12,34.48-49.48,0-60-23-7.15-54.88-10.42-93-13.49-31.49,12-30,37.48-18,54a219.31,219.31,0,0,0,36,39l9,1.5,4.49-18Z"/><path class="cls-1" d="M433.75,496.86c6.77,36.93-6.11,55.46-42,52.47C355.28,530,326,505.82,302.56,475.11c-16.5-42,11.48-57.19,47.23-51.72C378.13,443.3,406,468.83,433.75,496.86Z"/><path class="cls-1" d="M429.25,367.91c6.73,33.46-5.05,51-39,49.48-32.08-12.64-57.6-29.62-72-54-4.79-36,7.56-57.09,48-54C393.44,323,415,342,429.25,367.91Z"/><path class="cls-1" d="M435.25,168.49l-24,93c-12.27-12.33-22-25.95-27-42-6.44-32.76,3.71-50.19,27-55.47A67.21,67.21,0,0,1,435.25,168.49Z"/><path class="cls-5" d="M433.75,171.49c-12.33,1.08-24.21,3.4-30,22.49-2.76,21-4.21,39-1.5,49.48,2.88,5,6.35,8.55,10.5,10.5l21-81"/><path class="cls-5" d="M426.25,358.91c-4.74,14.93-4.49,16.5-13.49,27s-32.12,9.68-49.48,3a143.66,143.66,0,0,1-45-45l-1.5,18c10.16,18.47,25.32,30.45,42,40.49l33,15c15.46,1.44,24.1-2,30-7.5C435.65,394.18,432.29,376.68,426.25,358.91Z"/><path class="cls-5" d="M424.75,487.86c-.82,14.49-7.49,24-21,28.49s-36,.09-52.47-7.5c-22.48-12.42-39.9-30.18-53-50.39-.67,6.07,1.72,11,4.31,16.65,8.24,14.25,22.61,27.31,39.73,42.74,19.3,16.42,36.11,29.28,54.73,33.73,23.93-.23,42.81-11.47,40.48-42C436,500.6,432.41,493.56,424.75,487.86Z"/><path class="cls-5" d="M379.77,597.31c3.57,9.19,4.45,17.75-4.5,24a81.25,81.25,0,0,1-37.48,15c-18.29,3.15-46.48-1.5-55.48-4.5s-24-10.32-32.05-19.28c1.08,15.29,13.49,28.24,18.56,34.27,7,8.91,25.49,25.49,25.49,25.49l8.85,1.59,4.64-18.08-9-1.5,70.11-1.47c10-3,24.89-14.45,25.85-27S389.71,603.37,379.77,597.31Z"/><path class="cls-5" d="M831.41,347.13c-.13,34.68-.06,68.12,6.48,92.3,5.94,27.53,1.71,37.2-8.64,46.42-15.65,14.57-29.69,21.59-46.42,45.88l31.76-126.34Z"/><path class="cls-5" d="M628.28,924.32c-27.59,20.52-40.85,52.45-45.7,93.2L520.71,909.18l-28.48-18L616.4,922.88A38.78,38.78,0,0,0,628.28,924.32Z"/><path class="cls-4" d="M502.35,86.8H830a31.2,31.2,0,0,1,31.2,31.2v66.55a0,0,0,0,1,0,0h-390a0,0,0,0,1,0,0V118A31.2,31.2,0,0,1,502.35,86.8Z" transform="matrix(0.97, 0.25, -0.25, 0.97, 56.49, -165.11)"/><circle class="cls-3" cx="536.84" cy="103.48" r="17.28"/><path class="cls-2" d="M568,135.3l8.8-32.08,23.74,6.51L599,115.41l-16.8-4.6-1.87,6.82,13,3.58-1.56,5.68-13-3.57-2.25,8.2,17.32,4.75L592.25,142Z"/><path class="cls-2" d="M596.81,143.21l6.29-22.92,6.14,1.69-.9,4.33-1.06-2.16a18.7,18.7,0,0,1,4.15-1,12.64,12.64,0,0,1,5.12.44c3.39.93,5.63,2.6,6.74,5a11.76,11.76,0,0,1,.39,8.25l-3.51,12.79-6.57-1.8L617,135.49a7.78,7.78,0,0,0,.07-5.08,5,5,0,0,0-3.59-2.64,6.8,6.8,0,0,0-3.94-.06,9.67,9.67,0,0,0-3.21,1.84l2-2.46L603.38,145Z"/><path class="cls-2" d="M644.62,156.82A8.29,8.29,0,0,1,641,155a5.33,5.33,0,0,1-1.61-2.78,6.49,6.49,0,0,1,.11-3.21l7.91-28.83,6.57,1.81-7.27,26.48a10,10,0,0,0-.47,2.67,1.31,1.31,0,0,0,.69,1.18,10.91,10.91,0,0,0,2,.69L647,157.48Z"/><path class="cls-2" d="M651.9,158.33l6.28-22.92,6.57,1.81-6.29,22.91Zm7.24-26.4,1.56-5.68,6.57,1.8-1.56,5.68Z"/><path class="cls-2" d="M664.61,161.82l6.29-22.92,6.14,1.69-.9,4.33-1.06-2.16a19.26,19.26,0,0,1,4.15-1,12.84,12.84,0,0,1,5.12.45q5.08,1.4,6.74,5a11.76,11.76,0,0,1,.39,8.25L688,168.23l-6.57-1.8,3.39-12.33a7.91,7.91,0,0,0,.07-5.08,5.05,5.05,0,0,0-3.6-2.64,6.8,6.8,0,0,0-3.94-.06,9.67,9.67,0,0,0-3.21,1.84l2-2.46-4.91,17.92Z"/><path class="cls-2" d="M706.49,173.8A17.71,17.71,0,0,1,699,170a11.74,11.74,0,0,1-3.57-5.71,12.46,12.46,0,0,1,3.14-11.82,11.61,11.61,0,0,1,5.56-3.07,14.73,14.73,0,0,1,7.48.32,13.91,13.91,0,0,1,6,3.1,9.46,9.46,0,0,1,2.82,4.65,10.3,10.3,0,0,1-.09,5.34,12,12,0,0,1-.53,1.49,15.1,15.1,0,0,1-.75,1.51l-17.11-4.7a7.14,7.14,0,0,0,.6,3.88,7.26,7.26,0,0,0,2.36,2.72,11,11,0,0,0,3.49,1.63,17.82,17.82,0,0,0,4.44.66,18.72,18.72,0,0,0,4-.36l-1,4.9a21.35,21.35,0,0,1-4.09.18A23.08,23.08,0,0,1,706.49,173.8Zm-3.38-16.55,10.7,2.94a5.37,5.37,0,0,0,.12-2.2,4.29,4.29,0,0,0-1-2.16,5.17,5.17,0,0,0-2.63-1.48,6,6,0,0,0-4.35.18A6.41,6.41,0,0,0,703.11,157.25Z"/><path class="cls-2" d="M726.72,179.36a9.48,9.48,0,0,1-3.64-1.88,6.81,6.81,0,0,1-2.13-3.11,6.68,6.68,0,0,1,0-4,5.59,5.59,0,0,1,2-3,8.82,8.82,0,0,1,3.39-1.56,17.26,17.26,0,0,1,4.11-.45,33.28,33.28,0,0,1,4.17.29c1.34.19,2.51.41,3.51.65a4,4,0,0,0-.38-3.19,5.85,5.85,0,0,0-3.36-1.88,14.53,14.53,0,0,0-3.57-.52,26.79,26.79,0,0,0-4.16.27l.68-4.79a27.72,27.72,0,0,1,5.2-.2,24.29,24.29,0,0,1,5,.83,13.41,13.41,0,0,1,4.86,2.32,7,7,0,0,1,2.5,3.85,11,11,0,0,1-.3,5.67l-1.7,6.19a12.82,12.82,0,0,0-.5,2.54,1.37,1.37,0,0,0,.42,1.16,4.33,4.33,0,0,0,1.4.61l.85.23-1.86,4.51-2.39-.65a9.56,9.56,0,0,1-2.54-1.06,6.6,6.6,0,0,1-1.72-1.46,5.23,5.23,0,0,1-.94-1.77,9,9,0,0,1-4,1A16,16,0,0,1,726.72,179.36Zm3.95-3.6a8.34,8.34,0,0,0,2.29.2,7.38,7.38,0,0,0,2.67-.61l1.43-5.23a19.5,19.5,0,0,0-3.85-.49,9.3,9.3,0,0,0-3.47.5,2.78,2.78,0,0,0-1.86,1.91,2.59,2.59,0,0,0,.28,2.3A4.47,4.47,0,0,0,730.67,175.76Z"/></g></svg>