<svg xmlns="http://www.w3.org/2000/svg" viewBox="0 0 1080 1080"><defs><style>.cls-1{fill:#002060;}.cls-2{fill:#00a338;}.cls-3{fill:#fff;}</style></defs><g id="Dise単o_5" data-name="Dise単o 5"><path class="cls-1" d="M218.47,392.33V346.5h18.84a29.46,29.46,0,0,1,10.29,1.57,12.72,12.72,0,0,1,6.38,4.85,14.84,14.84,0,0,1,2.17,8.38,15.54,15.54,0,0,1-2.15,8.52,12.76,12.76,0,0,1-6.32,5,28.07,28.07,0,0,1-10.14,1.62h-9.39v15.91Zm9.68-22.92h8.25c3.31,0,5.78-.64,7.44-1.93s2.48-3.3,2.48-6.05-.84-4.76-2.52-6-4.22-1.9-7.63-1.9h-8Z"/><path class="cls-1" d="M279.39,393A24.57,24.57,0,0,1,268,390.61a16.38,16.38,0,0,1-6.83-6.28,17.2,17.2,0,0,1-.13-16.85,15.85,15.85,0,0,1,6.26-6.1,20.31,20.31,0,0,1,10.06-2.31,19.16,19.16,0,0,1,9.08,1.93,13.15,13.15,0,0,1,5.45,5.16,14.26,14.26,0,0,1,1.82,7.12,15.94,15.94,0,0,1-.15,2.17,20.47,20.47,0,0,1-.46,2.28H268.64a9.73,9.73,0,0,0,2.21,4.93,10.11,10.11,0,0,0,4.13,2.76,15.21,15.21,0,0,0,5.24.89,24.4,24.4,0,0,0,6.13-.74,25.63,25.63,0,0,0,5.22-1.95l.45,6.88a29.29,29.29,0,0,1-5.37,1.73A32.08,32.08,0,0,1,279.39,393Zm-10.52-20.75h15.28a7.38,7.38,0,0,0-.64-3,5.77,5.77,0,0,0-2.14-2.51,7.11,7.11,0,0,0-4-1,8.35,8.35,0,0,0-5.71,1.83A8.72,8.72,0,0,0,268.87,372.23Z"/><path class="cls-1" d="M315.41,393a18.64,18.64,0,0,1-9.67-2.32,15.13,15.13,0,0,1-5.9-6.19,18.91,18.91,0,0,1,0-16.89,15.19,15.19,0,0,1,5.9-6.19,18.64,18.64,0,0,1,9.67-2.32,18.44,18.44,0,0,1,7,1.19,18.9,18.9,0,0,1,5.07,3.07l-2.26,1.7v-21.8h9.38v49.1h-8.86l-.45-5.57,2.72,1.71a23.92,23.92,0,0,1-5.48,3.3A18.27,18.27,0,0,1,315.41,393Zm1.36-6.67a9,9,0,0,0,5.07-1.31,7.8,7.8,0,0,0,2.91-3.62,15.57,15.57,0,0,0,0-10.71,7.77,7.77,0,0,0-2.91-3.61,8.92,8.92,0,0,0-5.07-1.31,9.17,9.17,0,0,0-5,1.31,8.46,8.46,0,0,0-3.18,3.61,13.58,13.58,0,0,0,0,10.71,8.48,8.48,0,0,0,3.18,3.62A9.25,9.25,0,0,0,316.77,386.31Z"/><path class="cls-1" d="M343.33,354.62V346.5h9.38v8.12Zm0,37.71V359.59h9.38v32.74Z"/><path class="cls-1" d="M376.78,393a18.64,18.64,0,0,1-9.67-2.32,15.13,15.13,0,0,1-5.9-6.19,18.91,18.91,0,0,1,0-16.89,15.19,15.19,0,0,1,5.9-6.19,21.36,21.36,0,0,1,16.71-1.13,19.22,19.22,0,0,1,5.07,3.07l-2.27,1.7v-21.8H396v49.1h-8.85l-.46-5.57,2.73,1.71a24.19,24.19,0,0,1-5.49,3.3A18.27,18.27,0,0,1,376.78,393Zm1.36-6.67a9,9,0,0,0,5.07-1.31,7.88,7.88,0,0,0,2.92-3.62,15.72,15.72,0,0,0,0-10.71,7.85,7.85,0,0,0-2.92-3.61,8.92,8.92,0,0,0-5.07-1.31,9.19,9.19,0,0,0-5,1.31,8.46,8.46,0,0,0-3.18,3.61,13.58,13.58,0,0,0,0,10.71,8.48,8.48,0,0,0,3.18,3.62A9.28,9.28,0,0,0,378.14,386.31Z"/><path class="cls-1" d="M421.88,393a22.06,22.06,0,0,1-10.52-2.32,16.58,16.58,0,0,1-6.64-6.19,16.3,16.3,0,0,1-2.29-8.44,16.4,16.4,0,0,1,8.93-14.75,24.82,24.82,0,0,1,21,0,16.63,16.63,0,0,1,6.64,6.24,16.43,16.43,0,0,1,2.29,8.51,16.21,16.21,0,0,1-2.29,8.44,16.58,16.58,0,0,1-6.64,6.19A22.06,22.06,0,0,1,421.88,393Zm0-6.67a9.28,9.28,0,0,0,7.29-2.87,10.73,10.73,0,0,0,2.55-7.41,11,11,0,0,0-2.55-7.52,10.6,10.6,0,0,0-14.55,0A10.9,10.9,0,0,0,412,376a10.65,10.65,0,0,0,2.58,7.41A9.24,9.24,0,0,0,421.88,386.31Z"/><path class="cls-1" d="M482.42,393a23.47,23.47,0,0,1-10.92-2.3,16.26,16.26,0,0,1-6.66-6.16,16.49,16.49,0,0,1-2.25-8.49,16.83,16.83,0,0,1,2.24-8.56,16,16,0,0,1,6.69-6.21,24.11,24.11,0,0,1,11.2-2.32,25.32,25.32,0,0,1,5.75.6,22,22,0,0,1,4.39,1.49l-.75,6.55a22.5,22.5,0,0,0-3.92-1.31,19.37,19.37,0,0,0-4.56-.52q-5.44,0-8.44,2.85a10.48,10.48,0,0,0,.08,14.74,11.39,11.39,0,0,0,8.29,3,16.88,16.88,0,0,0,4.4-.58,22.38,22.38,0,0,0,4.22-1.58L493,391a21.72,21.72,0,0,1-4.74,1.42A30.74,30.74,0,0,1,482.42,393Z"/><path class="cls-1" d="M516.17,393a22.06,22.06,0,0,1-10.52-2.32,16.58,16.58,0,0,1-6.64-6.19,16.21,16.21,0,0,1-2.29-8.44,16.43,16.43,0,0,1,2.29-8.51,16.63,16.63,0,0,1,6.64-6.24,24.82,24.82,0,0,1,21,0,16.63,16.63,0,0,1,6.64,6.24,16.43,16.43,0,0,1,2.29,8.51,16.21,16.21,0,0,1-2.29,8.44,16.58,16.58,0,0,1-6.64,6.19A22.06,22.06,0,0,1,516.17,393Zm0-6.67a9.24,9.24,0,0,0,7.28-2.87A10.69,10.69,0,0,0,526,376a10.94,10.94,0,0,0-2.56-7.52,10.59,10.59,0,0,0-14.54,0,10.9,10.9,0,0,0-2.58,7.52,10.65,10.65,0,0,0,2.58,7.41A9.24,9.24,0,0,0,516.17,386.31Z"/><path class="cls-1" d="M542.13,392.33V359.59h8.77l.38,6.09-2.19-2.49a26.61,26.61,0,0,1,5.14-2.84,17.69,17.69,0,0,1,7-1.28q7.26,0,10.78,4.17t3.52,10.82v18.27h-9.38V374.72q0-4.59-1.76-6.78t-5.74-2.19a9.32,9.32,0,0,0-5.26,1.36,13.26,13.26,0,0,0-3.59,3.61l1.74-4v25.6Z"/><path class="cls-1" d="M585.79,392.33V366.27h-5.37l.83-6.68h4.54v-6.94a8.59,8.59,0,0,1,3-6.87q3-2.55,8.53-2.55a31.49,31.49,0,0,1,3.35.16,26.81,26.81,0,0,1,2.78.43l-.83,6.54a7.3,7.3,0,0,0-1.25-.24,13.52,13.52,0,0,0-1.7-.08,5.18,5.18,0,0,0-3.26.94,3.74,3.74,0,0,0-1.21,3.11v5.5h8.33v6.68h-8.33v26.06Z"/><path class="cls-1" d="M609.25,354.62V346.5h9.38v8.12Zm0,37.71V359.59h9.38v32.74Z"/><path class="cls-1" d="M627.41,392.33V359.59h8.78l.23,3.47a18.15,18.15,0,0,1,4-2.75,12.2,12.2,0,0,1,5.72-1.37,9.48,9.48,0,0,1,1.66.13l-.68,8a10.54,10.54,0,0,0-1.64-.26c-.55-.05-1.08-.07-1.61-.07a9.91,9.91,0,0,0-4.35.95,6.12,6.12,0,0,0-2.77,2.32v22.33Z"/><path class="cls-1" d="M652.38,392.33V359.59h8l.61,4.78-1.36-1.44a26.67,26.67,0,0,1,5.16-2.67,19.12,19.12,0,0,1,7-1.19,17.09,17.09,0,0,1,5.35.77,11.62,11.62,0,0,1,4,2.19,11.21,11.21,0,0,1,2.68,3.39l-2.27-.46a11.76,11.76,0,0,1,5.32-4.35,19.41,19.41,0,0,1,7.93-1.54,17.06,17.06,0,0,1,8.51,1.87,11.3,11.3,0,0,1,4.84,5.25,18.84,18.84,0,0,1,1.55,7.94v18.2h-9.38V374.72q0-4.59-1.65-6.78c-1.09-1.46-2.92-2.19-5.46-2.19a8.82,8.82,0,0,0-3.31.57,5.9,5.9,0,0,0-2.35,1.67,7.12,7.12,0,0,0-1.38,2.65,12.55,12.55,0,0,0-.46,3.49v18.2h-9.38V374.72a14.5,14.5,0,0,0-.74-5,5.6,5.6,0,0,0-2.34-3,8.11,8.11,0,0,0-4.18-1,10,10,0,0,0-5.4,1.32,12.92,12.92,0,0,0-3.68,3.59l1.74-4.39v26.06Z"/><path class="cls-1" d="M726.32,393a12.89,12.89,0,0,1-5.53-1.16,9.49,9.49,0,0,1-4-3.35,9.26,9.26,0,0,1-1.48-5.31,7.66,7.66,0,0,1,1.5-4.76,12.1,12.1,0,0,1,3.93-3.31,24.49,24.49,0,0,1,5.3-2.09,43,43,0,0,1,5.64-1.13c1.85-.24,3.48-.38,4.9-.43a5.48,5.48,0,0,0-1.67-4.09q-1.52-1.28-5.14-1.27a20.31,20.31,0,0,0-4.94.6,38.1,38.1,0,0,0-5.43,1.88L718.6,362a37,37,0,0,1,6.83-2.16,33.57,33.57,0,0,1,6.94-.72,18.56,18.56,0,0,1,7.3,1.31,9.65,9.65,0,0,1,4.73,4.21,15.26,15.26,0,0,1,1.67,7.64v8.84a17.31,17.31,0,0,0,.26,3.55,1.84,1.84,0,0,0,1,1.39,5.58,5.58,0,0,0,2.08.3h1.21l-.83,6.67h-3.41a13.43,13.43,0,0,1-3.76-.47,9,9,0,0,1-2.82-1.33,7,7,0,0,1-1.9-2,12.42,12.42,0,0,1-5,2.8A21.81,21.81,0,0,1,726.32,393Zm3.93-6.22a10.91,10.91,0,0,0,3.1-.57,9.73,9.73,0,0,0,3.33-1.78v-7.47a26.06,26.06,0,0,0-5.29.76,12.61,12.61,0,0,0-4.43,1.93,3.81,3.81,0,0,0-1.78,3.21,3.54,3.54,0,0,0,1.21,3A6.24,6.24,0,0,0,730.25,386.76Z"/><path class="cls-1" d="M771.12,393a18.64,18.64,0,0,1-9.67-2.32,15.22,15.22,0,0,1-5.91-6.19,19,19,0,0,1,0-16.89,15.28,15.28,0,0,1,5.91-6.19,18.64,18.64,0,0,1,9.67-2.32,18.44,18.44,0,0,1,7,1.19,18.9,18.9,0,0,1,5.07,3.07L781,365v-21.8h9.39v49.1h-8.86l-.45-5.57,2.72,1.71a23.92,23.92,0,0,1-5.48,3.3A18.3,18.3,0,0,1,771.12,393Zm1.36-6.67a9,9,0,0,0,5.07-1.31,7.8,7.8,0,0,0,2.91-3.62,15.57,15.57,0,0,0,0-10.71,7.77,7.77,0,0,0-2.91-3.61,8.94,8.94,0,0,0-5.07-1.31,9.23,9.23,0,0,0-5,1.31,8.5,8.5,0,0,0-3.17,3.61,13.58,13.58,0,0,0,0,10.71,8.53,8.53,0,0,0,3.17,3.62A9.31,9.31,0,0,0,772.48,386.31Z"/><path class="cls-1" d="M816.22,393a22.06,22.06,0,0,1-10.52-2.32,16.52,16.52,0,0,1-6.64-6.19,16.21,16.21,0,0,1-2.29-8.44,16.4,16.4,0,0,1,8.93-14.75,24.82,24.82,0,0,1,21,0A16.4,16.4,0,0,1,835.67,376a16.3,16.3,0,0,1-2.29,8.44,16.58,16.58,0,0,1-6.64,6.19A22.06,22.06,0,0,1,816.22,393Zm0-6.67a9.24,9.24,0,0,0,7.28-2.87,10.73,10.73,0,0,0,2.56-7.41,11,11,0,0,0-2.56-7.52,10.6,10.6,0,0,0-14.55,0,10.94,10.94,0,0,0-2.57,7.52,10.69,10.69,0,0,0,2.57,7.41A9.28,9.28,0,0,0,816.22,386.31Z"/><path class="cls-1" d="M841.27,392.33v-8.91h9.83v8.91Z"/><path class="cls-1" d="M247,576.87a32.27,32.27,0,0,1-14.19-3,22.13,22.13,0,0,1-13-20.87,22.26,22.26,0,0,1,3.54-12.56,23.55,23.55,0,0,1,9.74-8.31,32.64,32.64,0,0,1,14.19-3A35.18,35.18,0,0,1,255,530a31,31,0,0,1,6,1.91l-1.06,8A44.44,44.44,0,0,0,254,538a28.94,28.94,0,0,0-6.79-.74,19.29,19.29,0,0,0-9.29,2,13.54,13.54,0,0,0-5.62,5.6,17.13,17.13,0,0,0-1.89,8.15,17.39,17.39,0,0,0,1.86,8.15,13.29,13.29,0,0,0,5.54,5.6,18.89,18.89,0,0,0,9.18,2,29.61,29.61,0,0,0,6.84-.72,49.07,49.07,0,0,0,6.1-1.9l1.06,8a38.67,38.67,0,0,1-6.57,1.94A36.78,36.78,0,0,1,247,576.87Z"/><path class="cls-1" d="M275.83,576.61a13,13,0,0,1-5.53-1.16,9.59,9.59,0,0,1-4-3.36,9.3,9.3,0,0,1-1.48-5.3,7.67,7.67,0,0,1,1.5-4.77,12.06,12.06,0,0,1,3.93-3.3,24.51,24.51,0,0,1,5.3-2.1,43.64,43.64,0,0,1,5.64-1.13c1.85-.24,3.49-.38,4.9-.42a5.49,5.49,0,0,0-1.66-4.09q-1.51-1.28-5.15-1.28a20.31,20.31,0,0,0-4.94.6,39.56,39.56,0,0,0-5.43,1.89l-.83-6.61a37.25,37.25,0,0,1,6.83-2.17,33.64,33.64,0,0,1,6.94-.72,18.53,18.53,0,0,1,7.3,1.31,9.75,9.75,0,0,1,4.73,4.21,15.26,15.26,0,0,1,1.67,7.64v8.84a17.31,17.31,0,0,0,.26,3.55,1.81,1.81,0,0,0,1,1.39,5.61,5.61,0,0,0,2.08.3h1.21l-.83,6.68h-3.41a13.41,13.41,0,0,1-3.76-.48,8.76,8.76,0,0,1-2.82-1.32,7,7,0,0,1-1.89-2,12.54,12.54,0,0,1-5,2.8A21.77,21.77,0,0,1,275.83,576.61Zm3.93-6.22a11,11,0,0,0,3.11-.57A9.94,9.94,0,0,0,286.2,568v-7.46a25.36,25.36,0,0,0-5.3.75,12.88,12.88,0,0,0-4.43,1.93,3.83,3.83,0,0,0-1.78,3.21,3.57,3.57,0,0,0,1.21,3A6.17,6.17,0,0,0,279.76,570.39Z"/><path class="cls-1" d="M305.34,576V543.22h8.78l.22,3.47a17.81,17.81,0,0,1,4.05-2.75,12.06,12.06,0,0,1,5.72-1.38,10.55,10.55,0,0,1,1.66.13l-.68,8a10.48,10.48,0,0,0-1.65-.26c-.54,0-1.07-.07-1.6-.07a9.91,9.91,0,0,0-4.35.95,6.13,6.13,0,0,0-2.77,2.33V576Z"/><path class="cls-1" d="M344.84,592.45a33.6,33.6,0,0,1-9.25-1.13,14.39,14.39,0,0,1-6.13-3.22,6.87,6.87,0,0,1-.6-9.38,13,13,0,0,1,4.56-3.36,7.12,7.12,0,0,1-2.43-2,4.32,4.32,0,0,1-.91-2.68,4,4,0,0,1,1.05-2.74,7.24,7.24,0,0,1,2.74-1.85,11.79,11.79,0,0,1-4.35-4.53,12.53,12.53,0,0,1-1.48-6,12.39,12.39,0,0,1,1.78-6.5,12.83,12.83,0,0,1,5.2-4.74,18,18,0,0,1,8.38-1.79,19.16,19.16,0,0,1,4.75.56,15,15,0,0,1,3.88,1.54,14.15,14.15,0,0,1,3.29-1,24.4,24.4,0,0,1,4.81-.44h2.42l-.61,5.1h-4.31c-.38,0-.78,0-1.21.07a10.7,10.7,0,0,1,1.7,3.37,13.06,13.06,0,0,1,.57,3.83,12.39,12.39,0,0,1-6.92,11.25,17.86,17.86,0,0,1-8.37,1.78,15.1,15.1,0,0,1-2-.13c-.66-.09-1.31-.2-2-.33a1.08,1.08,0,0,0-.83,1.05c0,.59.42,1,1.25,1.34a19.68,19.68,0,0,0,3.9.82l6.5.72a21.7,21.7,0,0,1,9.56,3,7.36,7.36,0,0,1,3.46,6.51,8.33,8.33,0,0,1-2.18,5.72,14.16,14.16,0,0,1-6.3,3.79A31.72,31.72,0,0,1,344.84,592.45Zm.38-6.15a19.74,19.74,0,0,0,7.23-1c1.64-.67,2.46-1.71,2.46-3.11a2.91,2.91,0,0,0-1.73-2.75,17.8,17.8,0,0,0-5.46-1.37l-8.29-1a9,9,0,0,0-3.1,1.72,3.64,3.64,0,0,0-1.25,2.86c0,1.6.89,2.78,2.69,3.56A19.33,19.33,0,0,0,345.22,586.3Zm-1.82-23.7a6.48,6.48,0,0,0,5.09-1.92,8.41,8.41,0,0,0,0-10.19,6.51,6.51,0,0,0-5.09-1.9,6.61,6.61,0,0,0-5.14,1.9,8.33,8.33,0,0,0,0,10.19A6.58,6.58,0,0,0,343.4,562.6Z"/><path class="cls-1" d="M375.94,576.61a13,13,0,0,1-5.52-1.16,9.53,9.53,0,0,1-4-3.36,9.22,9.22,0,0,1-1.48-5.3,7.73,7.73,0,0,1,1.49-4.77,12,12,0,0,1,3.94-3.3,24.31,24.31,0,0,1,5.3-2.1,43.16,43.16,0,0,1,5.63-1.13c1.86-.24,3.49-.38,4.9-.42a5.46,5.46,0,0,0-1.66-4.09c-1-.85-2.72-1.28-5.15-1.28a20.23,20.23,0,0,0-4.93.6,38.66,38.66,0,0,0-5.43,1.89l-.84-6.61a37.25,37.25,0,0,1,6.83-2.17,33.74,33.74,0,0,1,6.95-.72,18.56,18.56,0,0,1,7.3,1.31,9.79,9.79,0,0,1,4.73,4.21,15.27,15.27,0,0,1,1.66,7.64v8.84a16.45,16.45,0,0,0,.27,3.55,1.78,1.78,0,0,0,1,1.39,5.65,5.65,0,0,0,2.08.3h1.21l-.83,6.68H396a13.48,13.48,0,0,1-3.77-.48,8.76,8.76,0,0,1-2.82-1.32,7.17,7.17,0,0,1-1.89-2,12.49,12.49,0,0,1-5,2.8A21.89,21.89,0,0,1,375.94,576.61Zm3.94-6.22a11,11,0,0,0,3.1-.57,9.76,9.76,0,0,0,3.33-1.79v-7.46a25.45,25.45,0,0,0-5.3.75,12.83,12.83,0,0,0-4.42,1.93,3.81,3.81,0,0,0-1.78,3.21,3.54,3.54,0,0,0,1.21,3A6.15,6.15,0,0,0,379.88,570.39Z"/><path class="cls-1" d="M405.46,576V543.22h8.77l.38,6.09-2.19-2.49a26.09,26.09,0,0,1,5.14-2.85,17.69,17.69,0,0,1,7-1.28q7.26,0,10.78,4.18t3.52,10.82V576h-9.39V558.34q0-4.58-1.75-6.77t-5.74-2.2a9.4,9.4,0,0,0-5.26,1.36,13.3,13.3,0,0,0-3.59,3.62l1.74-4V576Z"/><path class="cls-1" d="M462.51,576.61a18.63,18.63,0,0,1-9.66-2.33,15.26,15.26,0,0,1-5.91-6.18,19,19,0,0,1,0-16.89,15.22,15.22,0,0,1,5.91-6.19,18.63,18.63,0,0,1,9.66-2.33,18.29,18.29,0,0,1,7,1.2,19.13,19.13,0,0,1,5.07,3.06l-2.27,1.7v-21.8h9.39V576h-8.86l-.45-5.56,2.72,1.7a24.19,24.19,0,0,1-5.48,3.31A18.51,18.51,0,0,1,462.51,576.61Zm1.37-6.68a9,9,0,0,0,5.07-1.31,7.75,7.75,0,0,0,2.91-3.62,15.54,15.54,0,0,0,0-10.7,7.75,7.75,0,0,0-2.91-3.62,9,9,0,0,0-5.07-1.31,9.31,9.31,0,0,0-5,1.31,8.47,8.47,0,0,0-3.17,3.62,13.56,13.56,0,0,0,0,10.7,8.47,8.47,0,0,0,3.17,3.62A9.31,9.31,0,0,0,463.88,569.93Z"/><path class="cls-1" d="M507.62,576.61a22,22,0,0,1-10.52-2.33,16.57,16.57,0,0,1-6.64-6.18,16.25,16.25,0,0,1-2.29-8.45,16.4,16.4,0,0,1,8.93-14.75,24.8,24.8,0,0,1,21,0,16.35,16.35,0,0,1,8.93,14.75,16.33,16.33,0,0,1-2.28,8.45,16.59,16.59,0,0,1-6.65,6.18A22,22,0,0,1,507.62,576.61Zm0-6.68q4.73,0,7.28-2.86a10.75,10.75,0,0,0,2.55-7.42,10.94,10.94,0,0,0-2.55-7.51,10.58,10.58,0,0,0-14.55,0,10.9,10.9,0,0,0-2.57,7.51,10.72,10.72,0,0,0,2.57,7.42A9.27,9.27,0,0,0,507.62,569.93Z"/><path class="cls-1" d="M550.6,591.8V543.22h7.57l1.81,5.43-2.8-.85a22.14,22.14,0,0,1,5.68-3.71,18,18,0,0,1,7.49-1.4A17.57,17.57,0,0,1,579.7,545a15.17,15.17,0,0,1,5.73,6.19,19.26,19.26,0,0,1,0,16.89,15.2,15.2,0,0,1-5.73,6.18,17.57,17.57,0,0,1-9.35,2.33,17.66,17.66,0,0,1-12.79-4.39l2.42-1.64V591.8Zm18.31-21.87a7.94,7.94,0,0,0,6.53-2.86,13,13,0,0,0,0-14.85,8,8,0,0,0-6.53-2.85,9.86,9.86,0,0,0-5.33,1.31,7.77,7.77,0,0,0-3.07,3.62,15.09,15.09,0,0,0,0,10.7,7.77,7.77,0,0,0,3.07,3.62A9.86,9.86,0,0,0,568.91,569.93Z"/><path class="cls-1" d="M612.12,576.61a24.45,24.45,0,0,1-11.41-2.38,16.38,16.38,0,0,1-6.83-6.28,17.18,17.18,0,0,1-.13-16.84A15.94,15.94,0,0,1,600,545a20.35,20.35,0,0,1,10.07-2.31,19.16,19.16,0,0,1,9.08,1.94,13.07,13.07,0,0,1,5.45,5.15,14.25,14.25,0,0,1,1.81,7.12,16.08,16.08,0,0,1-.15,2.18,20.21,20.21,0,0,1-.45,2.27H601.38a9.69,9.69,0,0,0,2.21,4.93,10,10,0,0,0,4.12,2.77,15.53,15.53,0,0,0,5.24.88,24.35,24.35,0,0,0,6.13-.74,26,26,0,0,0,5.22-1.94l.46,6.87a29.55,29.55,0,0,1-5.37,1.73A31.58,31.58,0,0,1,612.12,576.61ZM601.6,555.85h15.29a7.56,7.56,0,0,0-.64-3,5.81,5.81,0,0,0-2.14-2.5,7.05,7.05,0,0,0-4-1,8.33,8.33,0,0,0-5.72,1.84A8.86,8.86,0,0,0,601.6,555.85Z"/><path class="cls-1" d="M648.14,576.61a18.69,18.69,0,0,1-9.67-2.33,15.23,15.23,0,0,1-5.9-6.18,19,19,0,0,1,0-16.89,15.19,15.19,0,0,1,5.9-6.19,18.69,18.69,0,0,1,9.67-2.33,18.29,18.29,0,0,1,7,1.2,19.13,19.13,0,0,1,5.07,3.06l-2.27,1.7v-21.8h9.38V576h-8.85l-.45-5.56,2.72,1.7a24,24,0,0,1-5.49,3.31A18.42,18.42,0,0,1,648.14,576.61Zm1.36-6.68a9.06,9.06,0,0,0,5.08-1.31,7.75,7.75,0,0,0,2.91-3.62,15.69,15.69,0,0,0,0-10.7,7.75,7.75,0,0,0-2.91-3.62,9.06,9.06,0,0,0-5.08-1.31,9.3,9.3,0,0,0-5,1.31,8.49,8.49,0,0,0-3.18,3.62,13.67,13.67,0,0,0,0,10.7,8.49,8.49,0,0,0,3.18,3.62A9.3,9.3,0,0,0,649.5,569.93Z"/><path class="cls-1" d="M676.07,538.24v-8.12h9.38v8.12Zm0,37.71V543.22h9.38V576Z"/><path class="cls-1" d="M709.51,576.61a18.63,18.63,0,0,1-9.66-2.33,15.26,15.26,0,0,1-5.91-6.18,19,19,0,0,1,0-16.89,15.22,15.22,0,0,1,5.91-6.19,18.63,18.63,0,0,1,9.66-2.33,18.29,18.29,0,0,1,7,1.2,19.13,19.13,0,0,1,5.07,3.06l-2.27,1.7v-21.8h9.39V576h-8.86l-.45-5.56,2.72,1.7a24,24,0,0,1-5.48,3.31A18.51,18.51,0,0,1,709.51,576.61Zm1.37-6.68a9,9,0,0,0,5.07-1.31,7.75,7.75,0,0,0,2.91-3.62,15.54,15.54,0,0,0,0-10.7,7.75,7.75,0,0,0-2.91-3.62,9,9,0,0,0-5.07-1.31,9.31,9.31,0,0,0-5,1.31,8.47,8.47,0,0,0-3.17,3.62,13.56,13.56,0,0,0,0,10.7,8.47,8.47,0,0,0,3.17,3.62A9.31,9.31,0,0,0,710.88,569.93Z"/><path class="cls-1" d="M754.62,576.61a22,22,0,0,1-10.52-2.33,16.57,16.57,0,0,1-6.64-6.18,16.25,16.25,0,0,1-2.29-8.45,16.4,16.4,0,0,1,8.93-14.75,24.8,24.8,0,0,1,21,0,16.35,16.35,0,0,1,8.93,14.75,16.33,16.33,0,0,1-2.28,8.45,16.59,16.59,0,0,1-6.65,6.18A22,22,0,0,1,754.62,576.61Zm0-6.68q4.73,0,7.28-2.86a10.75,10.75,0,0,0,2.55-7.42,10.94,10.94,0,0,0-2.55-7.51,10.58,10.58,0,0,0-14.55,0,10.9,10.9,0,0,0-2.57,7.51,10.72,10.72,0,0,0,2.57,7.42A9.27,9.27,0,0,0,754.62,569.93Z"/><path class="cls-1" d="M779.67,576v-8.9h9.83V576Z"/><path class="cls-1" d="M226.84,766.71V720.88h18.84A29.45,29.45,0,0,1,256,722.46a12.71,12.71,0,0,1,6.38,4.84,14.86,14.86,0,0,1,2.17,8.38,15.58,15.58,0,0,1-2.15,8.53,12.8,12.8,0,0,1-6.32,5,28.07,28.07,0,0,1-10.14,1.62h-9.39v15.91Zm9.68-22.91h8.25c3.31,0,5.78-.64,7.44-1.93s2.47-3.31,2.47-6.06-.83-4.76-2.51-6-4.22-1.9-7.63-1.9h-8Z"/><path class="cls-1" d="M287.75,767.37a24.43,24.43,0,0,1-11.4-2.38,16.32,16.32,0,0,1-6.83-6.28,17.22,17.22,0,0,1-.14-16.84,16,16,0,0,1,6.27-6.11,20.31,20.31,0,0,1,10.06-2.31,19.16,19.16,0,0,1,9.08,1.94,13.07,13.07,0,0,1,5.45,5.15,14.26,14.26,0,0,1,1.82,7.12,16.08,16.08,0,0,1-.15,2.18,22.85,22.85,0,0,1-.46,2.27H277a9.69,9.69,0,0,0,2.21,4.93,10.06,10.06,0,0,0,4.13,2.77,15.45,15.45,0,0,0,5.24.88,24.4,24.4,0,0,0,6.13-.74,25.63,25.63,0,0,0,5.22-2l.45,6.88a29.29,29.29,0,0,1-5.37,1.73A31.52,31.52,0,0,1,287.75,767.37Zm-10.51-20.76h15.28a7.38,7.38,0,0,0-.64-3,5.75,5.75,0,0,0-2.14-2.5,7.05,7.05,0,0,0-4-1A8.33,8.33,0,0,0,280,742,8.8,8.8,0,0,0,277.24,746.61Z"/><path class="cls-1" d="M323.78,767.37a18.64,18.64,0,0,1-9.67-2.33,15.17,15.17,0,0,1-5.9-6.18,18.94,18.94,0,0,1,0-16.9,15.17,15.17,0,0,1,5.9-6.18,18.64,18.64,0,0,1,9.67-2.33,18.24,18.24,0,0,1,7,1.2,19.13,19.13,0,0,1,5.07,3.06l-2.27,1.7v-21.8H343v49.1h-8.86l-.45-5.56,2.72,1.7a24,24,0,0,1-5.48,3.31A18.45,18.45,0,0,1,323.78,767.37Zm1.36-6.68a9,9,0,0,0,5.07-1.31,7.75,7.75,0,0,0,2.91-3.62,15.54,15.54,0,0,0,0-10.7,7.75,7.75,0,0,0-2.91-3.62,9,9,0,0,0-5.07-1.31,9.25,9.25,0,0,0-5,1.31,8.43,8.43,0,0,0-3.18,3.62,13.56,13.56,0,0,0,0,10.7,8.43,8.43,0,0,0,3.18,3.62A9.25,9.25,0,0,0,325.14,760.69Z"/><path class="cls-1" d="M351.7,729v-8.12h9.38V729Zm0,37.71V734h9.38v32.73Z"/><path class="cls-1" d="M385.15,767.37a18.64,18.64,0,0,1-9.67-2.33,15.17,15.17,0,0,1-5.9-6.18,18.94,18.94,0,0,1,0-16.9,15.17,15.17,0,0,1,5.9-6.18,18.64,18.64,0,0,1,9.67-2.33,18.33,18.33,0,0,1,7,1.2,19.46,19.46,0,0,1,5.07,3.06l-2.27,1.7v-21.8h9.38v49.1h-8.85l-.46-5.56,2.73,1.7a24.24,24.24,0,0,1-5.49,3.31A18.45,18.45,0,0,1,385.15,767.37Zm1.36-6.68a9,9,0,0,0,5.07-1.31,7.75,7.75,0,0,0,2.91-3.62,15.54,15.54,0,0,0,0-10.7,7.75,7.75,0,0,0-2.91-3.62,9,9,0,0,0-5.07-1.31,9.28,9.28,0,0,0-5,1.31,8.43,8.43,0,0,0-3.18,3.62,13.56,13.56,0,0,0,0,10.7,8.43,8.43,0,0,0,3.18,3.62A9.28,9.28,0,0,0,386.51,760.69Z"/><path class="cls-1" d="M430.25,767.37A22.06,22.06,0,0,1,419.73,765a16.63,16.63,0,0,1-6.64-6.18,16.25,16.25,0,0,1-2.29-8.45,16.46,16.46,0,0,1,2.29-8.51,16.63,16.63,0,0,1,6.64-6.24,24.82,24.82,0,0,1,21,0,16.63,16.63,0,0,1,6.64,6.24,16.46,16.46,0,0,1,2.29,8.51,16.25,16.25,0,0,1-2.29,8.45,16.63,16.63,0,0,1-6.64,6.18A22.06,22.06,0,0,1,430.25,767.37Zm0-6.68q4.72,0,7.28-2.86a10.71,10.71,0,0,0,2.56-7.42,10.89,10.89,0,0,0-2.56-7.51,10.56,10.56,0,0,0-14.54,0,10.86,10.86,0,0,0-2.58,7.51,10.68,10.68,0,0,0,2.58,7.42A9.24,9.24,0,0,0,430.25,760.69Z"/><path class="cls-1" d="M491.47,767.37A24.45,24.45,0,0,1,480.06,765a16.38,16.38,0,0,1-6.83-6.28,16.79,16.79,0,0,1-2.27-8.56,16.54,16.54,0,0,1,2.14-8.28,15.94,15.94,0,0,1,6.26-6.11,20.35,20.35,0,0,1,10.07-2.31,19.16,19.16,0,0,1,9.08,1.94,13.07,13.07,0,0,1,5.45,5.15,14.25,14.25,0,0,1,1.81,7.12,16.08,16.08,0,0,1-.15,2.18,20.21,20.21,0,0,1-.45,2.27H480.72a9.78,9.78,0,0,0,2.22,4.93,10.09,10.09,0,0,0,4.12,2.77,15.53,15.53,0,0,0,5.24.88,24.35,24.35,0,0,0,6.13-.74,25.41,25.41,0,0,0,5.22-2l.46,6.88a29.55,29.55,0,0,1-5.37,1.73A31.58,31.58,0,0,1,491.47,767.37ZM481,746.61h15.29a7.4,7.4,0,0,0-.65-3,5.72,5.72,0,0,0-2.13-2.5,7.05,7.05,0,0,0-4-1,8.38,8.38,0,0,0-5.72,1.83A8.93,8.93,0,0,0,481,746.61Z"/><path class="cls-1" d="M512.21,766.71V734H521l.38,6.09-2.19-2.49a26.09,26.09,0,0,1,5.14-2.85,17.69,17.69,0,0,1,7-1.28q7.26,0,10.78,4.18t3.52,10.82v18.26h-9.39V749.1q0-4.58-1.75-6.77t-5.74-2.2a9.32,9.32,0,0,0-5.26,1.36,13.3,13.3,0,0,0-3.59,3.62l1.74-4v25.6Z"/><path class="cls-1" d="M588.56,767.37a23.34,23.34,0,0,1-10.92-2.31,16.3,16.3,0,0,1-6.66-6.15,16.55,16.55,0,0,1-2.25-8.5,16.86,16.86,0,0,1,2.24-8.56,15.94,15.94,0,0,1,6.69-6.2,24.11,24.11,0,0,1,11.2-2.33,25.3,25.3,0,0,1,5.75.61,20.8,20.8,0,0,1,4.39,1.49l-.75,6.54a21.7,21.7,0,0,0-3.92-1.3,19.37,19.37,0,0,0-4.56-.53q-5.44,0-8.44,2.85a10.49,10.49,0,0,0,.08,14.75,11.43,11.43,0,0,0,8.29,3,17.31,17.31,0,0,0,4.4-.57,21.75,21.75,0,0,0,4.22-1.59l.83,6.87a21.69,21.69,0,0,1-4.74,1.43A30.74,30.74,0,0,1,588.56,767.37Z"/><path class="cls-1" d="M613.61,767.37a13,13,0,0,1-5.53-1.16,9.59,9.59,0,0,1-4-3.36,9.3,9.3,0,0,1-1.48-5.3,7.67,7.67,0,0,1,1.5-4.77,12.06,12.06,0,0,1,3.93-3.3,24.51,24.51,0,0,1,5.3-2.1,43.3,43.3,0,0,1,5.64-1.13c1.85-.24,3.49-.38,4.9-.42a5.46,5.46,0,0,0-1.67-4.09c-1-.86-2.72-1.28-5.14-1.28a20.31,20.31,0,0,0-4.94.6,39.56,39.56,0,0,0-5.43,1.89l-.83-6.62a37.74,37.74,0,0,1,6.83-2.16,33.64,33.64,0,0,1,6.94-.72,18.53,18.53,0,0,1,7.3,1.31,9.75,9.75,0,0,1,4.73,4.21,15.26,15.26,0,0,1,1.67,7.64v8.84a17.31,17.31,0,0,0,.26,3.55,1.81,1.81,0,0,0,1,1.39,5.61,5.61,0,0,0,2.08.3h1.21l-.83,6.68h-3.41a13.41,13.41,0,0,1-3.76-.48,9,9,0,0,1-2.82-1.32,7,7,0,0,1-1.89-2,12.54,12.54,0,0,1-5,2.8A21.77,21.77,0,0,1,613.61,767.37Zm3.93-6.22a10.85,10.85,0,0,0,3.1-.57,9.76,9.76,0,0,0,3.33-1.79v-7.46a25.36,25.36,0,0,0-5.29.75,12.88,12.88,0,0,0-4.43,1.93,3.81,3.81,0,0,0-1.78,3.21,3.57,3.57,0,0,0,1.21,3A6.17,6.17,0,0,0,617.54,761.15Z"/><path class="cls-1" d="M643.12,766.71V734h8l.61,4.78-1.37-1.44a26.23,26.23,0,0,1,5.17-2.67,18.83,18.83,0,0,1,7-1.2,17.09,17.09,0,0,1,5.35.77,11.85,11.85,0,0,1,4,2.2,11.32,11.32,0,0,1,2.69,3.38l-2.27-.45a11.72,11.72,0,0,1,5.32-4.36,19.56,19.56,0,0,1,7.92-1.54,17.23,17.23,0,0,1,8.52,1.87,11.34,11.34,0,0,1,4.84,5.25,19,19,0,0,1,1.55,7.94v18.2H691.1V749.1q0-4.58-1.65-6.77t-5.47-2.2a8.66,8.66,0,0,0-3.31.58,5.92,5.92,0,0,0-2.34,1.66A7.16,7.16,0,0,0,677,745a12.07,12.07,0,0,0-.46,3.48v18.2h-9.38V749.1a14.74,14.74,0,0,0-.74-5,5.5,5.5,0,0,0-2.35-3,8,8,0,0,0-4.18-1,9.9,9.9,0,0,0-5.39,1.33,13,13,0,0,0-3.69,3.58l1.74-4.38v26.05Z"/><path class="cls-1" d="M708.88,729v-8.12h9.38V729Zm0,37.71V734h9.38v32.73Z"/><path class="cls-1" d="M727,766.71V734h8.78l.38,6.09-2.2-2.49a26.19,26.19,0,0,1,5.15-2.85,17.61,17.61,0,0,1,7-1.28q7.27,0,10.79,4.18t3.51,10.82v18.26H751V749.1q0-4.58-1.76-6.77t-5.73-2.2a9.27,9.27,0,0,0-5.26,1.36,13.48,13.48,0,0,0-3.6,3.62l1.74-4v25.6Z"/><path class="cls-1" d="M786,767.37A22.06,22.06,0,0,1,775.47,765a16.63,16.63,0,0,1-6.64-6.18,16.34,16.34,0,0,1-2.29-8.45,16.4,16.4,0,0,1,8.93-14.75,24.82,24.82,0,0,1,21,0,16.63,16.63,0,0,1,6.64,6.24,16.46,16.46,0,0,1,2.29,8.51,16.25,16.25,0,0,1-2.29,8.45,16.63,16.63,0,0,1-6.64,6.18A22.06,22.06,0,0,1,786,767.37Zm0-6.68a9.27,9.27,0,0,0,7.29-2.86,10.75,10.75,0,0,0,2.55-7.42,10.94,10.94,0,0,0-2.55-7.51,10.58,10.58,0,0,0-14.55,0,10.86,10.86,0,0,0-2.58,7.51,10.68,10.68,0,0,0,2.58,7.42A9.24,9.24,0,0,0,786,760.69Z"/><path class="cls-1" d="M811,766.71v-8.9h9.84v8.9Z"/><path class="cls-1" d="M221.84,941.27V895.44h18.84A29.45,29.45,0,0,1,251,897a12.71,12.71,0,0,1,6.38,4.84,14.86,14.86,0,0,1,2.17,8.38,15.58,15.58,0,0,1-2.15,8.53,12.8,12.8,0,0,1-6.32,5,28.07,28.07,0,0,1-10.14,1.62h-9.39v15.91Zm9.68-22.91h8.25c3.31,0,5.78-.64,7.44-1.93s2.48-3.31,2.48-6.06-.84-4.76-2.52-6-4.22-1.9-7.63-1.9h-8Z"/><path class="cls-1" d="M282.76,941.93a24.45,24.45,0,0,1-11.41-2.38,16.32,16.32,0,0,1-6.83-6.28,17.18,17.18,0,0,1-.13-16.84,15.88,15.88,0,0,1,6.26-6.11A20.31,20.31,0,0,1,280.71,908a19.16,19.16,0,0,1,9.08,1.94,13.07,13.07,0,0,1,5.45,5.15,14.29,14.29,0,0,1,1.82,7.12,16.08,16.08,0,0,1-.15,2.18,20.31,20.31,0,0,1-.46,2.27H272a9.69,9.69,0,0,0,2.21,4.93,10,10,0,0,0,4.13,2.77,15.21,15.21,0,0,0,5.24.88,24.4,24.4,0,0,0,6.13-.74,26.22,26.22,0,0,0,5.22-1.94l.45,6.87a29.29,29.29,0,0,1-5.37,1.73A31.43,31.43,0,0,1,282.76,941.93Zm-10.52-20.76h15.28a7.42,7.42,0,0,0-.64-3,5.75,5.75,0,0,0-2.14-2.5,7,7,0,0,0-4-1,8.31,8.31,0,0,0-5.71,1.84A8.73,8.73,0,0,0,272.24,921.17Z"/><path class="cls-1" d="M318.78,941.93a18.64,18.64,0,0,1-9.67-2.33,15.17,15.17,0,0,1-5.9-6.18,18.91,18.91,0,0,1,0-16.89,15.13,15.13,0,0,1,5.9-6.19,18.64,18.64,0,0,1,9.67-2.33,18.24,18.24,0,0,1,7,1.2,19.13,19.13,0,0,1,5.07,3.06l-2.26,1.7v-21.8H338v49.1h-8.86l-.45-5.56,2.73,1.7a24.24,24.24,0,0,1-5.49,3.31A18.45,18.45,0,0,1,318.78,941.93Zm1.36-6.68a9,9,0,0,0,5.07-1.31,7.75,7.75,0,0,0,2.91-3.62,15.54,15.54,0,0,0,0-10.7,7.8,7.8,0,0,0-2.91-3.62,9,9,0,0,0-5.07-1.31,9.25,9.25,0,0,0-5,1.31,8.48,8.48,0,0,0-3.18,3.62,13.56,13.56,0,0,0,0,10.7,8.43,8.43,0,0,0,3.18,3.62A9.25,9.25,0,0,0,320.14,935.25Z"/><path class="cls-1" d="M346.7,903.56v-8.12h9.38v8.12Zm0,37.71V908.54h9.38v32.73Z"/><path class="cls-1" d="M380.15,941.93a18.64,18.64,0,0,1-9.67-2.33,15.17,15.17,0,0,1-5.9-6.18,18.91,18.91,0,0,1,0-16.89,15.13,15.13,0,0,1,5.9-6.19,18.64,18.64,0,0,1,9.67-2.33,18.33,18.33,0,0,1,7,1.2,19.46,19.46,0,0,1,5.07,3.06L390,914v-21.8h9.38v49.1h-8.85l-.46-5.56,2.73,1.7a24.24,24.24,0,0,1-5.49,3.31A18.45,18.45,0,0,1,380.15,941.93Zm1.36-6.68a9,9,0,0,0,5.07-1.31,7.83,7.83,0,0,0,2.92-3.62,15.69,15.69,0,0,0,0-10.7,7.88,7.88,0,0,0-2.92-3.62,9,9,0,0,0-5.07-1.31,9.28,9.28,0,0,0-5,1.31,8.48,8.48,0,0,0-3.18,3.62,13.56,13.56,0,0,0,0,10.7,8.43,8.43,0,0,0,3.18,3.62A9.28,9.28,0,0,0,381.51,935.25Z"/><path class="cls-1" d="M425.25,941.93a22.06,22.06,0,0,1-10.52-2.33,16.63,16.63,0,0,1-6.64-6.18A16.34,16.34,0,0,1,405.8,925a16.4,16.4,0,0,1,8.93-14.75,24.82,24.82,0,0,1,21,0,16.7,16.7,0,0,1,6.64,6.24A16.46,16.46,0,0,1,444.7,925a16.25,16.25,0,0,1-2.29,8.45,16.63,16.63,0,0,1-6.64,6.18A22.06,22.06,0,0,1,425.25,941.93Zm0-6.68a9.27,9.27,0,0,0,7.29-2.86,10.75,10.75,0,0,0,2.55-7.42,10.94,10.94,0,0,0-2.55-7.51,10.58,10.58,0,0,0-14.55,0,10.86,10.86,0,0,0-2.58,7.51,10.68,10.68,0,0,0,2.58,7.42A9.24,9.24,0,0,0,425.25,935.25Z"/><path class="cls-1" d="M486.47,941.93a24.47,24.47,0,0,1-11.41-2.38,16.38,16.38,0,0,1-6.83-6.28,17.18,17.18,0,0,1-.13-16.84,15.94,15.94,0,0,1,6.26-6.11A20.35,20.35,0,0,1,484.43,908a19.16,19.16,0,0,1,9.08,1.94A13.07,13.07,0,0,1,499,915.1a14.28,14.28,0,0,1,1.81,7.12,16.08,16.08,0,0,1-.15,2.18,20.21,20.21,0,0,1-.45,2.27H475.73a9.69,9.69,0,0,0,2.21,4.93,10,10,0,0,0,4.12,2.77,15.29,15.29,0,0,0,5.24.88,24.35,24.35,0,0,0,6.13-.74,26.09,26.09,0,0,0,5.23-1.94l.45,6.87a29.55,29.55,0,0,1-5.37,1.73A31.58,31.58,0,0,1,486.47,941.93ZM476,921.17h15.29a7.6,7.6,0,0,0-.64-3,5.81,5.81,0,0,0-2.14-2.5,7.05,7.05,0,0,0-4-1,8.33,8.33,0,0,0-5.72,1.84A8.86,8.86,0,0,0,476,921.17Z"/><path class="cls-1" d="M507.21,941.27V908.54H516l.38,6.09-2.19-2.49a26.09,26.09,0,0,1,5.14-2.85,17.69,17.69,0,0,1,7-1.28q7.26,0,10.78,4.18T540.58,923v18.26H531.2V923.66q0-4.57-1.76-6.77t-5.74-2.2a9.4,9.4,0,0,0-5.26,1.36,13.3,13.3,0,0,0-3.59,3.62l1.74-4v25.6Z"/><path class="cls-1" d="M560.71,941.93a11.72,11.72,0,0,1-5.79-1.26,8.13,8.13,0,0,1-3.29-3.23,8.46,8.46,0,0,1-1.06-4.09V915.22h-5.38l.84-6.68h4.54v-7.2l9.38-.85v8h8.33v6.68H560V930a13.27,13.27,0,0,0,.34,3.59,2,2,0,0,0,1.55,1.37,18.75,18.75,0,0,0,3.86.28h2.58l-.84,6.68Z"/><path class="cls-1" d="M574.4,941.27V908.54h8.78l.23,3.47a17.81,17.81,0,0,1,4.05-2.75,12,12,0,0,1,5.71-1.38,10.68,10.68,0,0,1,1.67.13l-.68,8a10.85,10.85,0,0,0-1.65-.26c-.54,0-1.08-.07-1.61-.07a9.91,9.91,0,0,0-4.35,1,6.16,6.16,0,0,0-2.76,2.33v22.32Z"/><path class="cls-1" d="M616.63,941.93a24.47,24.47,0,0,1-11.41-2.38,16.38,16.38,0,0,1-6.83-6.28,17.18,17.18,0,0,1-.13-16.84,15.94,15.94,0,0,1,6.26-6.11A20.35,20.35,0,0,1,614.59,908a19.16,19.16,0,0,1,9.08,1.94,13.07,13.07,0,0,1,5.45,5.15,14.28,14.28,0,0,1,1.81,7.12,16.08,16.08,0,0,1-.15,2.18,20.21,20.21,0,0,1-.45,2.27H605.89a9.69,9.69,0,0,0,2.21,4.93,10,10,0,0,0,4.12,2.77,15.29,15.29,0,0,0,5.24.88,24.35,24.35,0,0,0,6.13-.74,26.09,26.09,0,0,0,5.23-1.94l.45,6.87a29.55,29.55,0,0,1-5.37,1.73A31.58,31.58,0,0,1,616.63,941.93Zm-10.52-20.76H621.4a7.6,7.6,0,0,0-.64-3,5.81,5.81,0,0,0-2.14-2.5,7.05,7.05,0,0,0-4-1,8.29,8.29,0,0,0-5.71,1.84A8.81,8.81,0,0,0,606.11,921.17Z"/><path class="cls-1" d="M652.35,957.77a33.55,33.55,0,0,1-9.25-1.13,14.39,14.39,0,0,1-6.13-3.22,6.86,6.86,0,0,1-.61-9.38,13.2,13.2,0,0,1,4.56-3.36,7.08,7.08,0,0,1-2.42-2,4.32,4.32,0,0,1-.91-2.68,4,4,0,0,1,1-2.74,7.36,7.36,0,0,1,2.75-1.85,11.79,11.79,0,0,1-4.35-4.53,12.85,12.85,0,0,1,.3-12.51,12.76,12.76,0,0,1,5.2-4.74,18,18,0,0,1,8.38-1.79,19.16,19.16,0,0,1,4.75.56,15.19,15.19,0,0,1,3.88,1.54,14.15,14.15,0,0,1,3.29-1,24.4,24.4,0,0,1,4.81-.44h2.42l-.61,5.1h-4.31c-.38,0-.78,0-1.21.07a10.7,10.7,0,0,1,1.7,3.37,13.06,13.06,0,0,1,.57,3.83,12.37,12.37,0,0,1-6.93,11.25,17.82,17.82,0,0,1-8.36,1.78,15.1,15.1,0,0,1-2-.13c-.66-.09-1.31-.2-2-.33a1.08,1.08,0,0,0-.83,1c0,.59.42,1,1.25,1.34a19.71,19.71,0,0,0,3.89.82l6.51.72a21.74,21.74,0,0,1,9.56,3,7.38,7.38,0,0,1,3.46,6.51,8.33,8.33,0,0,1-2.18,5.72,14.16,14.16,0,0,1-6.3,3.79A31.72,31.72,0,0,1,652.35,957.77Zm.38-6.15a19.74,19.74,0,0,0,7.23-1c1.63-.67,2.46-1.71,2.46-3.11a2.91,2.91,0,0,0-1.73-2.75,17.8,17.8,0,0,0-5.46-1.37l-8.29-1a9,9,0,0,0-3.1,1.72,3.61,3.61,0,0,0-1.25,2.86c0,1.6.89,2.78,2.68,3.56A19.42,19.42,0,0,0,652.73,951.62Zm-1.82-23.7A6.48,6.48,0,0,0,656,926a8.41,8.41,0,0,0,0-10.19,6.51,6.51,0,0,0-5.09-1.9,6.61,6.61,0,0,0-5.14,1.9,8.33,8.33,0,0,0,0,10.19A6.58,6.58,0,0,0,650.91,927.92Z"/><path class="cls-1" d="M683.45,941.93a13,13,0,0,1-5.52-1.16,9.62,9.62,0,0,1-4-3.36,9.3,9.3,0,0,1-1.47-5.3,7.75,7.75,0,0,1,1.49-4.77,12,12,0,0,1,3.94-3.3,24.31,24.31,0,0,1,5.3-2.1,43.16,43.16,0,0,1,5.63-1.13c1.86-.24,3.49-.38,4.9-.42a5.46,5.46,0,0,0-1.66-4.09q-1.51-1.27-5.15-1.28a19.76,19.76,0,0,0-4.93.61,37.27,37.27,0,0,0-5.43,1.88l-.84-6.61a37.25,37.25,0,0,1,6.83-2.17,33.67,33.67,0,0,1,7-.72,18.56,18.56,0,0,1,7.3,1.31,9.79,9.79,0,0,1,4.73,4.21,15.27,15.27,0,0,1,1.66,7.64V930a16.45,16.45,0,0,0,.27,3.55,1.81,1.81,0,0,0,1,1.4,5.9,5.9,0,0,0,2.08.29h1.21l-.83,6.68h-3.4a13.48,13.48,0,0,1-3.77-.48,8.76,8.76,0,0,1-2.82-1.32,7.17,7.17,0,0,1-1.89-2,12.56,12.56,0,0,1-5,2.8A21.89,21.89,0,0,1,683.45,941.93Zm3.94-6.22a11,11,0,0,0,3.1-.57,9.85,9.85,0,0,0,3.33-1.79v-7.46a25.45,25.45,0,0,0-5.3.75,13,13,0,0,0-4.43,1.93,3.82,3.82,0,0,0-1.77,3.21,3.54,3.54,0,0,0,1.21,3A6.13,6.13,0,0,0,687.39,935.71Z"/><path class="cls-1" d="M728.25,941.93a18.66,18.66,0,0,1-9.67-2.33,15.17,15.17,0,0,1-5.9-6.18,18.91,18.91,0,0,1,0-16.89,15.13,15.13,0,0,1,5.9-6.19,18.66,18.66,0,0,1,9.67-2.33,18.29,18.29,0,0,1,7,1.2,19.13,19.13,0,0,1,5.07,3.06l-2.27,1.7v-21.8h9.38v49.1h-8.85l-.46-5.56,2.73,1.7a24.24,24.24,0,0,1-5.49,3.31A18.42,18.42,0,0,1,728.25,941.93Zm1.36-6.68a9,9,0,0,0,5.07-1.31,7.77,7.77,0,0,0,2.92-3.62,15.69,15.69,0,0,0,0-10.7,7.82,7.82,0,0,0-2.92-3.62,9,9,0,0,0-5.07-1.31,9.3,9.3,0,0,0-5,1.31,8.48,8.48,0,0,0-3.18,3.62,13.56,13.56,0,0,0,0,10.7,8.43,8.43,0,0,0,3.18,3.62A9.3,9.3,0,0,0,729.61,935.25Z"/><path class="cls-1" d="M773.35,941.93a22.06,22.06,0,0,1-10.52-2.33,16.63,16.63,0,0,1-6.64-6.18A16.34,16.34,0,0,1,753.9,925a16.4,16.4,0,0,1,8.93-14.75,24.82,24.82,0,0,1,21,0,16.63,16.63,0,0,1,6.64,6.24A16.46,16.46,0,0,1,792.8,925a16.25,16.25,0,0,1-2.29,8.45,16.57,16.57,0,0,1-6.64,6.18A22.06,22.06,0,0,1,773.35,941.93Zm0-6.68c3.16,0,5.58-1,7.29-2.86a10.75,10.75,0,0,0,2.55-7.42,10.94,10.94,0,0,0-2.55-7.51,10.58,10.58,0,0,0-14.55,0,10.86,10.86,0,0,0-2.58,7.51,10.68,10.68,0,0,0,2.58,7.42A9.24,9.24,0,0,0,773.35,935.25Z"/><path class="cls-1" d="M798.4,941.27v-8.9h9.84v8.9Z"/></g><g id="Dise単o_6" data-name="Dise単o 6"><rect class="cls-2" x="-0.84" y="-10.28" width="1082.16" height="235.44"/><path class="cls-3" d="M71.14,142.88V88.28h40.39V98H83v11.63h22.18v9.67H83v14h29.48v9.67Z"/><path class="cls-3" d="M133.44,143.66a40.27,40.27,0,0,1-8-.74,44.2,44.2,0,0,1-7.19-2.15l1-8.26a45.72,45.72,0,0,0,6.83,2.82,22.85,22.85,0,0,0,7.05,1.08,11.12,11.12,0,0,0,5.09-.94,3.11,3.11,0,0,0,1.76-3A3.5,3.5,0,0,0,139,130a8.21,8.21,0,0,0-2.77-1.75q-1.86-.78-4.6-1.68a41.83,41.83,0,0,1-7.06-2.89,12.09,12.09,0,0,1-4.41-3.76,10.09,10.09,0,0,1,.51-11.37,13.27,13.27,0,0,1,5.77-4,24.75,24.75,0,0,1,8.88-1.44,32.74,32.74,0,0,1,7.69.82,31.53,31.53,0,0,1,6.29,2.22l-1,8.27a39.14,39.14,0,0,0-6.09-3,18.46,18.46,0,0,0-6.72-1.19,8.3,8.3,0,0,0-4.46,1,3.25,3.25,0,0,0-1.58,2.89,3.62,3.62,0,0,0,2.21,3.39,54.79,54.79,0,0,0,7.08,2.77,44.56,44.56,0,0,1,5.48,2.19,16.84,16.84,0,0,1,3.85,2.49,8.81,8.81,0,0,1,2.28,3.1,10.19,10.19,0,0,1,.74,4,9.83,9.83,0,0,1-2.05,6.3,12.73,12.73,0,0,1-6,4A29.71,29.71,0,0,1,133.44,143.66Z"/><path class="cls-3" d="M173.47,143.66a14,14,0,0,1-6.9-1.5,9.74,9.74,0,0,1-3.92-3.84,10.17,10.17,0,0,1-1.26-4.88v-21.6H155l1-8h5.41V95.3l11.18-1v9.59h9.92v8h-9.92v17.62a16.09,16.09,0,0,0,.4,4.28,2.32,2.32,0,0,0,1.85,1.63,22.66,22.66,0,0,0,4.6.34h3.07l-1,7.95Z"/><path class="cls-3" d="M199.52,143.66a15.48,15.48,0,0,1-6.58-1.38,11.42,11.42,0,0,1-4.73-4,11.07,11.07,0,0,1-1.76-6.32,9.11,9.11,0,0,1,1.78-5.67,14.24,14.24,0,0,1,4.69-3.94,28.53,28.53,0,0,1,6.31-2.5,50.23,50.23,0,0,1,6.72-1.34c2.21-.29,4.15-.46,5.84-.51a6.55,6.55,0,0,0-2-4.88q-1.8-1.52-6.13-1.52a24,24,0,0,0-5.88.72,45.89,45.89,0,0,0-6.47,2.25l-1-7.88a43.54,43.54,0,0,1,8.14-2.57,39.42,39.42,0,0,1,8.27-.86,22.1,22.1,0,0,1,8.7,1.56,11.59,11.59,0,0,1,5.63,5,18.21,18.21,0,0,1,2,9.1v10.53a20.16,20.16,0,0,0,.31,4.24,2.15,2.15,0,0,0,1.17,1.65,6.66,6.66,0,0,0,2.48.36h1.45l-1,7.95h-4.05a16.51,16.51,0,0,1-4.49-.56,10.89,10.89,0,0,1-3.36-1.58,8.6,8.6,0,0,1-2.25-2.38,14.82,14.82,0,0,1-6,3.33A25.93,25.93,0,0,1,199.52,143.66Zm4.69-7.41a13.1,13.1,0,0,0,3.7-.68,11.65,11.65,0,0,0,4-2.13v-8.89a31.07,31.07,0,0,0-6.31.9,15.07,15.07,0,0,0-5.28,2.3,4.56,4.56,0,0,0-2.12,3.82,4.22,4.22,0,0,0,1.45,3.53A7.33,7.33,0,0,0,204.21,136.25Z"/><path class="cls-3" d="M248.48,143.66a14,14,0,0,1-6.9-1.5,9.74,9.74,0,0,1-3.92-3.84,10.17,10.17,0,0,1-1.26-4.88v-21.6H230l1-8h5.41V95.3l11.18-1v9.59h9.92v8h-9.92v17.62a16.09,16.09,0,0,0,.4,4.28,2.32,2.32,0,0,0,1.85,1.63,22.66,22.66,0,0,0,4.6.34h3.07l-1,7.95Z"/><path class="cls-3" d="M283.46,143.66q-7,0-11.22-2.42a13.94,13.94,0,0,1-6-6.65,24,24,0,0,1-1.85-9.73v-21h11.18v21c0,3.62.69,6.3,2.09,8.06s3.68,2.63,6.83,2.63a11.69,11.69,0,0,0,6.29-1.56,12.61,12.61,0,0,0,4.17-4.37l-2,4.92V103.88h11.18v39H293.65l-.54-6.79,2.43,2.74a14.89,14.89,0,0,1-5.12,3.31A17.36,17.36,0,0,1,283.46,143.66Z"/><path class="cls-3" d="M327.37,143.66a40.19,40.19,0,0,1-8.05-.74,43.91,43.91,0,0,1-7.19-2.15l1-8.26a46.16,46.16,0,0,0,6.83,2.82,22.91,22.91,0,0,0,7.06,1.08,11.12,11.12,0,0,0,5.09-.94,3.13,3.13,0,0,0,1.76-3,3.47,3.47,0,0,0-.93-2.5,8.11,8.11,0,0,0-2.77-1.75q-1.85-.78-4.6-1.68a42,42,0,0,1-7.05-2.89,12.21,12.21,0,0,1-4.42-3.76,10.07,10.07,0,0,1,.52-11.37,13.15,13.15,0,0,1,5.77-4,24.67,24.67,0,0,1,8.88-1.44,32.8,32.8,0,0,1,7.69.82,31.43,31.43,0,0,1,6.28,2.22l-1,8.27a38.62,38.62,0,0,0-6.08-3,18.54,18.54,0,0,0-6.72-1.19,8.3,8.3,0,0,0-4.46,1,3.23,3.23,0,0,0-1.58,2.89,3.62,3.62,0,0,0,2.21,3.39,54.79,54.79,0,0,0,7.08,2.77,43.73,43.73,0,0,1,5.47,2.19,16.7,16.7,0,0,1,3.86,2.49,8.66,8.66,0,0,1,2.27,3.1,10,10,0,0,1,.75,4,9.89,9.89,0,0,1-2.05,6.3,12.71,12.71,0,0,1-6,4A29.65,29.65,0,0,1,327.37,143.66Z"/><path class="cls-3" d="M391.2,143.66a22.18,22.18,0,0,1-11.52-2.77,18,18,0,0,1-7-7.37,22.54,22.54,0,0,1,0-20.12,18,18,0,0,1,7-7.37,22.18,22.18,0,0,1,11.52-2.77,21.84,21.84,0,0,1,8.38,1.42,22.52,22.52,0,0,1,6,3.65l-2.7,2v-26H414.1v58.5H403.55l-.54-6.63,3.24,2a28.76,28.76,0,0,1-6.53,3.94A21.89,21.89,0,0,1,391.2,143.66Zm1.62-7.95a10.63,10.63,0,0,0,6-1.57,9.17,9.17,0,0,0,3.47-4.31,18.55,18.55,0,0,0,0-12.75,9.27,9.27,0,0,0-3.47-4.31,10.71,10.71,0,0,0-6-1.56,11.05,11.05,0,0,0-6,1.56,10.1,10.1,0,0,0-3.78,4.31,16.17,16.17,0,0,0,0,12.75,10,10,0,0,0,3.78,4.31A11,11,0,0,0,392.82,135.71Z"/><path class="cls-3" d="M446.19,143.66q-8.16,0-13.59-2.83a19.56,19.56,0,0,1-8.14-7.48,20,20,0,0,1-2.7-10.2,19.76,19.76,0,0,1,2.55-9.87,18.79,18.79,0,0,1,7.46-7.27,24.13,24.13,0,0,1,12-2.75,22.81,22.81,0,0,1,10.82,2.3,15.62,15.62,0,0,1,6.49,6.14,17,17,0,0,1,2.16,8.48,19,19,0,0,1-.18,2.6,24.48,24.48,0,0,1-.54,2.71H433.39a11.55,11.55,0,0,0,2.64,5.87,11.88,11.88,0,0,0,4.91,3.29,18.25,18.25,0,0,0,6.24,1.06,29.29,29.29,0,0,0,7.31-.88,31.4,31.4,0,0,0,6.22-2.32l.54,8.19a34.23,34.23,0,0,1-6.4,2.06A38,38,0,0,1,446.19,143.66Zm-12.53-24.73h18.21a8.8,8.8,0,0,0-.76-3.52,6.94,6.94,0,0,0-2.55-3,8.48,8.48,0,0,0-4.8-1.21A9.92,9.92,0,0,0,437,113.4,10.45,10.45,0,0,0,433.66,118.93Z"/><path class="cls-3" d="M505.88,143.66a14,14,0,0,1-6.9-1.5,9.74,9.74,0,0,1-3.92-3.84,10.18,10.18,0,0,1-1.27-4.88v-21.6h-6.4l1-8h5.4V95.3l11.18-1v9.59h9.92v8H505v17.62a16,16,0,0,0,.41,4.28,2.32,2.32,0,0,0,1.85,1.63,22.59,22.59,0,0,0,4.6.34h3.06l-1,7.95Z"/><path class="cls-3" d="M540.86,143.66q-7,0-11.23-2.42a14,14,0,0,1-6-6.65,24.12,24.12,0,0,1-1.85-9.73v-21h11.18v21c0,3.62.7,6.3,2.1,8.06s3.67,2.63,6.83,2.63a11.71,11.71,0,0,0,6.29-1.56,12.79,12.79,0,0,0,4.17-4.37l-2,4.92V103.88H561.5v39H551l-.54-6.79,2.44,2.74a14.89,14.89,0,0,1-5.12,3.31A17.39,17.39,0,0,1,540.86,143.66Z"/><path class="cls-3" d="M592.25,142.88v-39h9.55l.72,5.7-1.62-1.72a31.47,31.47,0,0,1,6.15-3.18,22.58,22.58,0,0,1,8.37-1.42,20.27,20.27,0,0,1,6.37.91,14,14,0,0,1,4.76,2.62,13.36,13.36,0,0,1,3.2,4l-2.7-.54a13.92,13.92,0,0,1,6.33-5.19,23.28,23.28,0,0,1,9.44-1.83A20.49,20.49,0,0,1,653,105.48a13.56,13.56,0,0,1,5.77,6.26,22.55,22.55,0,0,1,1.84,9.46v21.68H649.41v-21q0-5.46-2-8.07c-1.3-1.75-3.48-2.62-6.51-2.62a10.35,10.35,0,0,0-3.94.69,7,7,0,0,0-2.8,2,8.73,8.73,0,0,0-1.65,3.16,14.87,14.87,0,0,0-.54,4.16v21.68H620.83v-21a17.7,17.7,0,0,0-.88-6,6.67,6.67,0,0,0-2.8-3.53,9.66,9.66,0,0,0-5-1.15,11.83,11.83,0,0,0-6.42,1.58,15.62,15.62,0,0,0-4.4,4.27l2.07-5.22v31Z"/><path class="cls-3" d="M692.32,143.66q-8.16,0-13.59-2.83a19.5,19.5,0,0,1-8.14-7.48,20,20,0,0,1-2.7-10.2,19.75,19.75,0,0,1,2.54-9.87,18.92,18.92,0,0,1,7.46-7.27,24.18,24.18,0,0,1,12-2.75,22.78,22.78,0,0,1,10.82,2.3,15.56,15.56,0,0,1,6.49,6.14,16.91,16.91,0,0,1,2.17,8.48,19,19,0,0,1-.18,2.6,24.48,24.48,0,0,1-.54,2.71H679.52a11.62,11.62,0,0,0,2.63,5.87,12,12,0,0,0,4.92,3.29,18.21,18.21,0,0,0,6.24,1.06,29.21,29.21,0,0,0,7.3-.88,30.93,30.93,0,0,0,6.22-2.32l.55,8.19a34.35,34.35,0,0,1-6.41,2.06A37.93,37.93,0,0,1,692.32,143.66Zm-12.53-24.73H698a8.81,8.81,0,0,0-.77-3.52,6.92,6.92,0,0,0-2.54-3,8.5,8.5,0,0,0-4.81-1.21,9.91,9.91,0,0,0-6.8,2.19A10.39,10.39,0,0,0,679.79,118.93Z"/><path class="cls-3" d="M717,142.88v-39h10.46l.27,4.13a21.55,21.55,0,0,1,4.82-3.27,14.45,14.45,0,0,1,6.81-1.64,11.22,11.22,0,0,1,2,.16l-.82,9.51a13.52,13.52,0,0,0-2-.31c-.64,0-1.28-.08-1.91-.08a11.82,11.82,0,0,0-5.19,1.13,7.35,7.35,0,0,0-3.29,2.77v26.6Z"/><path class="cls-3" d="M766.52,143.66a27.86,27.86,0,0,1-13-2.75,19.27,19.27,0,0,1-7.93-7.33,19.67,19.67,0,0,1-2.68-10.12,20,20,0,0,1,2.66-10.2,19,19,0,0,1,8-7.39q5.31-2.78,13.34-2.77a30,30,0,0,1,6.85.72A24.72,24.72,0,0,1,779,105.6l-.9,7.8a25.31,25.31,0,0,0-4.67-1.56,22.88,22.88,0,0,0-5.43-.63q-6.5,0-10.05,3.4a12.51,12.51,0,0,0,.09,17.57q3.64,3.52,9.87,3.53a20.35,20.35,0,0,0,5.25-.69,25.69,25.69,0,0,0,5-1.89l1,8.19a26.09,26.09,0,0,1-5.66,1.7A36.39,36.39,0,0,1,766.52,143.66Z"/><path class="cls-3" d="M796.36,143.66a15.45,15.45,0,0,1-6.58-1.38,11.45,11.45,0,0,1-4.74-4,11.07,11.07,0,0,1-1.75-6.32,9.11,9.11,0,0,1,1.78-5.67,14.13,14.13,0,0,1,4.69-3.94,28.34,28.34,0,0,1,6.31-2.5,50.09,50.09,0,0,1,6.71-1.34q3.32-.44,5.84-.51a6.55,6.55,0,0,0-2-4.88c-1.2-1-3.25-1.52-6.13-1.52a24.05,24.05,0,0,0-5.89.72,46.25,46.25,0,0,0-6.46,2.25l-1-7.88a43.77,43.77,0,0,1,8.14-2.57,39.56,39.56,0,0,1,8.27-.86,22,22,0,0,1,8.7,1.56,11.61,11.61,0,0,1,5.64,5,18.22,18.22,0,0,1,2,9.1v10.53a20,20,0,0,0,.32,4.24,2.15,2.15,0,0,0,1.17,1.65,6.66,6.66,0,0,0,2.48.36h1.44l-1,7.95h-4.06a16.43,16.43,0,0,1-4.48-.56,10.89,10.89,0,0,1-3.36-1.58,8.64,8.64,0,0,1-2.26-2.38,14.76,14.76,0,0,1-6,3.33A25.91,25.91,0,0,1,796.36,143.66Zm4.69-7.41a13.11,13.11,0,0,0,3.69-.68,11.46,11.46,0,0,0,4-2.13v-8.89a31.17,31.17,0,0,0-6.31.9,15.1,15.1,0,0,0-5.27,2.3,4.53,4.53,0,0,0-2.12,3.82,4.24,4.24,0,0,0,1.44,3.53A7.35,7.35,0,0,0,801.05,136.25Z"/><path class="cls-3" d="M831.52,142.88v-39H842l.45,7.25-2.62-3a31,31,0,0,1,6.14-3.39,20.82,20.82,0,0,1,8.29-1.52q8.65,0,12.85,5t4.19,12.89v21.76H860.1v-21q0-5.46-2.1-8.07t-6.83-2.62a11.08,11.08,0,0,0-6.26,1.62,16,16,0,0,0-4.28,4.31l2.07-4.76v30.5Z"/><path class="cls-3" d="M902.2,143.66a27.82,27.82,0,0,1-13-2.75,19.3,19.3,0,0,1-7.94-7.33,19.67,19.67,0,0,1-2.68-10.12,20.11,20.11,0,0,1,2.66-10.2,19,19,0,0,1,8-7.39q5.32-2.78,13.34-2.77a30.1,30.1,0,0,1,6.86.72,24.62,24.62,0,0,1,5.22,1.78l-.9,7.8a25.45,25.45,0,0,0-4.66-1.56,23,23,0,0,0-5.44-.63q-6.48,0-10,3.4a12.51,12.51,0,0,0,.09,17.57q3.66,3.52,9.87,3.53a20.37,20.37,0,0,0,5.26-.69,25.84,25.84,0,0,0,5-1.89l1,8.19a26,26,0,0,1-5.65,1.7A36.42,36.42,0,0,1,902.2,143.66Z"/><path class="cls-3" d="M922.31,98V88.28h11.18V98Zm0,44.93v-39h11.18v39Z"/><path class="cls-3" d="M953.68,143.66a15.45,15.45,0,0,1-6.58-1.38,11.42,11.42,0,0,1-4.73-4,11,11,0,0,1-1.76-6.32,9.11,9.11,0,0,1,1.78-5.67,14.24,14.24,0,0,1,4.69-3.94,28.53,28.53,0,0,1,6.31-2.5,50.41,50.41,0,0,1,6.71-1.34q3.31-.44,5.84-.51a6.55,6.55,0,0,0-2-4.88c-1.2-1-3.25-1.52-6.13-1.52a23.91,23.91,0,0,0-5.88.72,45.89,45.89,0,0,0-6.47,2.25l-1-7.88a43.44,43.44,0,0,1,8.13-2.57,39.56,39.56,0,0,1,8.27-.86,22,22,0,0,1,8.7,1.56,11.57,11.57,0,0,1,5.64,5,18.22,18.22,0,0,1,2,9.1v10.53a20,20,0,0,0,.32,4.24,2.15,2.15,0,0,0,1.17,1.65,6.66,6.66,0,0,0,2.48.36h1.44l-1,7.95h-4.06a16.43,16.43,0,0,1-4.48-.56,10.89,10.89,0,0,1-3.36-1.58,8.6,8.6,0,0,1-2.25-2.38,14.87,14.87,0,0,1-6,3.33A25.86,25.86,0,0,1,953.68,143.66Zm4.69-7.41a13.23,13.23,0,0,0,3.7-.68,11.51,11.51,0,0,0,4-2.13v-8.89a31.27,31.27,0,0,0-6.31.9,15.1,15.1,0,0,0-5.27,2.3,4.53,4.53,0,0,0-2.12,3.82,4.24,4.24,0,0,0,1.44,3.53A7.37,7.37,0,0,0,958.37,136.25Z"/><rect class="cls-1" x="151.36" y="360.44" width="10.08" height="580.04"/><circle class="cls-2" cx="157.28" cy="362.6" r="30.96"/><circle class="cls-2" cx="157.2" cy="545.88" r="30.96"/><circle class="cls-2" cx="158.2" cy="736.96" r="30.96"/><circle class="cls-2" cx="157.2" cy="912.76" r="30.96"/></g></svg>