<?xml version="1.0" encoding="UTF-8" standalone="no"?>
<!-- Created with Inkscape (http://www.inkscape.org/) -->

<svg
   width="174.21913mm"
   height="175.03801mm"
   viewBox="0 0 174.21913 175.03801"
   version="1.1"
   id="svg5"
   xmlns:inkscape="http://www.inkscape.org/namespaces/inkscape"
   xmlns:sodipodi="http://sodipodi.sourceforge.net/DTD/sodipodi-0.dtd"
   xmlns="http://www.w3.org/2000/svg"
   xmlns:svg="http://www.w3.org/2000/svg">
  <sodipodi:namedview
     id="namedview7"
     pagecolor="#ffffff"
     bordercolor="#000000"
     borderopacity="0.25"
     inkscape:showpageshadow="2"
     inkscape:pageopacity="0.0"
     inkscape:pagecheckerboard="0"
     inkscape:deskcolor="#d1d1d1"
     inkscape:document-units="mm"
     showgrid="false"
     inkscape:zoom="0.71624579"
     inkscape:cx="396.51193"
     inkscape:cy="316.23222"
     inkscape:window-width="1920"
     inkscape:window-height="991"
     inkscape:window-x="-9"
     inkscape:window-y="-9"
     inkscape:window-maximized="1"
     inkscape:current-layer="g34" />
  <defs
     id="defs2">
    <clipPath
       id="clip0">
      <rect
         x="267"
         y="75"
         width="258"
         height="236"
         id="rect9" />
    </clipPath>
  </defs>
  <g
     inkscape:label="Capa 1"
     inkscape:groupmode="layer"
     id="layer1"
     transform="translate(-10.30759,-6.4940527)">
    <g
       clip-path="url(#clip0)"
       transform="matrix(0.86822277,0,0,0.7388592,-246.31795,-54.866617)"
       id="g34">
      <path
         d="m 452.57337,214.12539 c 10.22721,4.084 19.9028,8.738 27.91517,16.033 3.83645,3.33 6.11869,8.41 6.21021,13.825 l 4.1676,38.021 c 0.33696,2.873 -0.79875,5.715 -2.94037,7.362 -4.08356,2.937 -8.47414,5.308 -13.07439,7.059 v 5.57 c 5.54043,-1.98 10.82544,-4.752 15.72438,-8.246 3.62096,-2.751 5.55375,-7.526 5.00461,-12.367 l -4.13847,-37.645 c -0.15143,-6.933 -3.08098,-13.426 -7.98742,-17.702 -8.61059,-7.84 -18.83364,-12.723 -29.58669,-16.999 l -11.68326,-5.336 c -1.78468,-0.809 -2.95035,-2.743 -2.94452,-4.888 v -7.786 c 8.95755,-7.458 14.23589,-19.176 14.24588,-31.626 v -7.657 c 1.22889,0.564 2.54099,0.87 3.87056,0.901 1.31127,0 2.37376,-1.182 2.37376,-2.641 0,-0.284 -0.0416,-0.566 -0.12147,-0.835 l -2.40371,-8.03 c -1.04918,-3.665 -1.88869,-7.401 -2.51354,-11.184 -2.34048,-12.772 -9.88942,-23.6033 -20.42198,-29.3041 -1.68901,-0.979702 -3.73079,-0.812302 -5.27336,0.4322 l -0.71637,-1.182602 c -0.9718,-1.6723 -2.51021,-2.8362 -4.26494,-3.2271 -18.37188,-3.8445 -36.08895,9.135602 -42.1261,29.697602 -1.03421,3.585 -1.56254,7.328 -1.5667,11.094 l -0.0216,3.947 c -0.0175,3.694 -0.7014,7.346 -2.01266,10.74 l -4.4197,11.485 c -0.51669,1.341 0.0416,2.894 1.24636,3.468 0.29537,0.141 0.6132,0.214 0.93437,0.214 0.18554,0 0.36941,-0.024 0.54913,-0.072 0.39687,-0.106 2.65498,-0.713 6.11619,-1.807 1.42609,10.199 6.37495,19.374 13.79077,25.572 v 7.801 c 0.004,2.145 -1.16067,4.078 -2.94536,4.887 l -11.76146,5.373 c -10.71977,4.268 -20.90539,9.14 -29.4594,16.928 -4.92557,4.277 -7.87176,10.785 -8.02735,17.737 l -4.13681,37.665 c -0.54165,4.836 1.39197,9.603 5.01043,12.348 4.90311,3.496 10.19227,6.269 15.73686,8.249 v -5.569 c -4.60524,-1.753 -9.00081,-4.125 -13.08853,-7.064 -2.1383,-1.642 -3.27484,-4.475 -2.94453,-7.343 l 4.14763,-37.774 0.0175,-0.264 c 0.0957,-5.433 2.3929,-10.527 6.25015,-13.86 7.97743,-7.264 17.64303,-11.91 27.86525,-15.993 l 4.93722,-1.926 c 6.42154,4.928 17.64302,7.951 29.77224,7.951 12.12339,0 23.34487,-3.022 29.76641,-7.951 z m -69.92146,-59.892 c 1.56171,-4.041 2.37709,-8.39 2.39706,-12.789 l 0.0216,-3.946 c 0,-3.22 0.44929,-6.421 1.33207,-9.488 4.69177,-15.988 17.232,-26.7293 31.20082,-26.7293 1.8579,0.004 3.71165,0.1992 5.5371,0.5843 0.50171,0.1392 0.93353,0.4928 1.20228,0.9843 l 2.11749,3.4978 c 0.73218,1.21 2.20736,1.5305 3.29398,0.7156 0.0366,-0.0273 0.0724,-0.0558 0.10733,-0.0851 l 1.91115,-1.6081 c 0.0757,-0.0722 0.18138,-0.0925 0.27457,-0.0528 9.29535,4.9163 15.96151,14.4253 17.98582,25.6553 h 8.3e-4 c 0.66312,4.004 1.55338,7.958 2.66663,11.836 l 0.9718,3.246 c -5.02208,-3.166 -10.9336,-11.396 -14.09944,-17.012 -0.41102,-0.73 -1.11658,-1.191 -1.88953,-1.235 -0.77544,-0.05 -1.52176,0.33 -1.99435,1.016 -11.87379,16.989 -43.58048,28.181 -55.53996,31.911 z m 4.67596,9.686 c 13.958,-4.777 37.91524,-14.612 50.00286,-29.104 3.17167,5.228 7.01561,9.909 11.40868,13.895 v 10.689 c 0.01,18.955 -13.7891,34.33 -30.82059,34.341 -15.47644,0.011 -28.56248,-12.747 -30.59095,-29.822 z m 30.55268,50.952 c -8.42256,0.231 -16.78687,-1.606 -24.49888,-5.381 l 1.97938,-0.904 c 3.56854,-1.618 5.8982,-5.485 5.88988,-9.773 v -4.433 c 10.3828,6.176 22.84732,6.191 33.24177,0.04 v 4.393 c -0.008,4.288 2.32134,8.154 5.88905,9.773 l 1.98604,0.908 c -7.70868,3.772 -16.06967,5.608 -24.48724,5.377 z"
         stroke="#000000"
         stroke-width="1.14019"
         stroke-miterlimit="8"
         fill-rule="evenodd"
         id="path14"
         inkscape:export-filename="ben1.svg"
         inkscape:export-xdpi="74.581306"
         inkscape:export-ydpi="74.581306"
         style="fill:#00a338;fill-opacity:1;stroke:#00a338;stroke-width:1.12884;stroke-dasharray:none;stroke-dashoffset:0;stroke-opacity:1" />
      <path
         d="m 470.26798,244.79239 c -0.0133,-5.147 -3.809,-9.307 -8.47747,-9.293 -0.008,0 -0.0158,0 -0.0241,0 h -87.84654 c -4.6535,0.005 -8.42422,4.163 -8.42921,9.293 v 59.456 H 348.8211 v 5.969 c 0.0316,5.116 3.78819,9.253 8.42921,9.282 h 121.26553 c 4.64185,-0.034 8.3951,-4.176 8.4209,-9.292 v -5.959 h -16.66873 z m 11.90623,64.706 v 0.699 c -0.0125,2.228 -1.64574,4.033 -3.66755,4.052 H 357.26027 c -2.02182,-0.014 -3.65924,-1.814 -3.67671,-4.042 v -0.709 h 16.66873 v -64.706 c 0.002,-2.232 1.64324,-4.04 3.66755,-4.043 h 87.91809 c 2.02431,0.003 3.66423,1.811 3.66672,4.043 v 64.706 z"
         fill-rule="evenodd"
         id="path16"
         style="fill:#002060;fill-opacity:1;stroke:#002060;stroke-width:0.903071;stroke-dasharray:none;stroke-dashoffset:0;stroke-opacity:1" />
      <path
         d="m 402.05633,261.49939 -13.29821,15 13.29821,15 3.34223,-3.77 -9.93185,-11.23 9.93185,-11.23 z"
         fill-rule="evenodd"
         id="path18"
         style="fill:#002060;fill-opacity:1;stroke:#002060;stroke-width:0.903071;stroke-dasharray:none;stroke-dashoffset:0;stroke-opacity:1" />
      <path
         d="m 429.52719,265.26939 9.93185,11.23 -9.93185,11.23 3.34224,3.77 13.2982,-15 -13.2982,-15 z"
         fill-rule="evenodd"
         id="path20"
         style="fill:#002060;fill-opacity:1;stroke:#002060;stroke-width:0.903071;stroke-dasharray:none;stroke-dashoffset:0;stroke-opacity:1" />
      <path
         d="m 409.55867,291.46139 4.47877,2.038 11.32964,-29.962 -4.45464,-2.038 z"
         fill-rule="evenodd"
         id="path22"
         style="fill:#002060;fill-opacity:1;stroke:#002060;stroke-width:0.903071;stroke-dasharray:none;stroke-dashoffset:0;stroke-opacity:1" />
      <path
         d="m 385.47663,110.86739 c 1.26217,0 2.31385,-0.526 2.94452,-1.579 v 0 c 7.78273,-9.473202 18.29949,-15.262702 29.86709,-15.262702 23.13687,0 42.06703,23.684702 42.06703,52.631702 v 12.105 l -24.18854,10 c -1.05168,-0.526 -2.10335,-1.052 -3.15503,-1.052 -3.5752,0 -6.31005,3.421 -6.31005,7.894 0,4.474 2.73485,7.895 6.31005,7.895 2.52436,0 4.83738,-1.842 5.88905,-4.737 l 33.44312,-13.947 c 1.68235,-0.79 2.94453,-2.632 2.94453,-5 v -23.684 c 0,-2.895 -1.89285,-5.264 -4.2067,-5.264 h -3.7857 c -5.67938,-27.1047 -25.45072,-47.368002 -49.00776,-47.368002 -13.67095,0 -26.08139,6.8421 -35.33597,17.894702 -1.05084,1.0527 -1.68235,2.3686 -1.68235,4.2106 0,2.8947 1.89285,5.2627 4.20671,5.2627 z"
         fill-rule="evenodd"
         id="path24"
         style="fill:#002060;fill-opacity:1;stroke:#002060;stroke-width:0.903071;stroke-dasharray:none;stroke-dashoffset:0;stroke-opacity:1" />
      <g
         id="g32"
         transform="matrix(0.83202192,0,0,1,59.277437,8.4993876)"
         style="fill:#00a338;fill-opacity:1;stroke:#00a338;stroke-width:0.990045;stroke-dasharray:none;stroke-dashoffset:0;stroke-opacity:1">
        <g
           id="g30"
           style="fill:#00a338;fill-opacity:1;stroke:#00a338;stroke-width:0.990045;stroke-dasharray:none;stroke-dashoffset:0;stroke-opacity:1">
          <g
             id="g28"
             style="fill:#00a338;fill-opacity:1;stroke:#00a338;stroke-width:0.990045;stroke-dasharray:none;stroke-dashoffset:0;stroke-opacity:1">
            <path
               d="m 365.25,96.2562 h -76.5 c -2.337,0.0244 -4.226,1.9131 -4.25,4.2498 v 51.64 c -0.019,2.328 1.852,4.231 4.18,4.25 0.023,0 0.047,0 0.07,0 h 46.75 l 17,17.375 v -17.25 h 12.75 c 2.337,-0.024 4.226,-1.913 4.25,-4.25 v -51.639 c 0.03,-2.3796 -1.87,-4.336 -4.25,-4.3758 z m -47.355,39.3998 c -0.003,0.976 -0.794,1.766 -1.77,1.768 H 309.5 v -18.563 h 6.625 c 0.974,0.002 1.765,0.789 1.77,1.764 z m 26.071,-8.397 c -0.009,1.234 -0.872,2.298 -2.077,2.564 0.487,0.494 0.757,1.162 0.75,1.856 -0.004,1.462 -1.189,2.647 -2.652,2.651 h -0.264 c 0.462,0.471 0.717,1.108 0.707,1.769 -0.005,1.462 -1.188,2.646 -2.65,2.651 h -7.954 c -5.921,0 -6.142,-3.536 -9.28,-3.536 v -14.143 c 0.133,-0.089 7.954,-3.89 7.954,-10.607 0,-1.465 1.187,-2.652 2.651,-2.652 1.465,0 2.651,1.187 2.651,2.652 0.097,2.872 -0.353,5.737 -1.324,8.441 0.035,0.709 0.614,1.27 1.324,1.283 h 8.397 c 1.462,0.004 2.647,1.188 2.651,2.651 0.013,1.108 -0.679,2.103 -1.724,2.475 0.539,0.502 0.844,1.208 0.84,1.945 z"
               id="path26"
               style="fill:#002060;fill-opacity:1;stroke:#002060;stroke-width:0.990045;stroke-dasharray:none;stroke-dashoffset:0;stroke-opacity:1" />
          </g>
        </g>
      </g>
    </g>
  </g>
</svg>
