<?xml version="1.0" encoding="UTF-8" standalone="no"?>
<!-- Created with Inkscape (http://www.inkscape.org/) -->

<svg
   width="183.73515mm"
   height="184.52287mm"
   viewBox="0 0 183.73515 184.52287"
   version="1.1"
   id="svg5"
   xmlns:inkscape="http://www.inkscape.org/namespaces/inkscape"
   xmlns:sodipodi="http://sodipodi.sourceforge.net/DTD/sodipodi-0.dtd"
   xmlns="http://www.w3.org/2000/svg"
   xmlns:svg="http://www.w3.org/2000/svg">
  <sodipodi:namedview
     id="namedview7"
     pagecolor="#ffffff"
     bordercolor="#000000"
     borderopacity="0.25"
     inkscape:showpageshadow="2"
     inkscape:pageopacity="0.0"
     inkscape:pagecheckerboard="0"
     inkscape:deskcolor="#d1d1d1"
     inkscape:document-units="mm"
     showgrid="false"
     inkscape:zoom="0.71624579"
     inkscape:cx="396.51193"
     inkscape:cy="316.23222"
     inkscape:window-width="1920"
     inkscape:window-height="991"
     inkscape:window-x="-9"
     inkscape:window-y="-9"
     inkscape:window-maximized="1"
     inkscape:current-layer="g34" />
  <defs
     id="defs2">
    <clipPath
       id="clip0-8">
      <rect
         x="315"
         y="-2"
         width="488"
         height="471"
         id="rect4524" />
    </clipPath>
  </defs>
  <g
     inkscape:label="Capa 1"
     inkscape:groupmode="layer"
     id="layer1"
     transform="translate(-17.102009,-97.686963)">
    <g
       inkscape:groupmode="layer"
       id="layer2"
       inkscape:label="Layer 1">
      <g
         clip-path="url(#clip0-8)"
         transform="matrix(0.37663187,0,0,0.40257841,-101.53194,93.405465)"
         id="g4575">
        <path
           d="M 547.73845,409.891 C 454.43892,395.02963 386.06789,316.8838 386.33904,225.41725 c 0.14067,-11.32834 1.33532,-22.62157 3.5703,-33.74264 h 0.59562 l 13.61065,22.80688 c 4.10805,6.89392 13.21474,9.26136 20.34171,5.2886 7.12696,-3.97386 9.57523,-12.78453 5.46717,-19.67847 l -31.61074,-52.88051 c -1.96722,-3.2929 -5.20285,-5.69978 -8.9989,-6.69107 -3.81647,-0.99236 -7.88482,-0.47479 -11.30535,1.43866 l -55.03946,30.72169 c -7.28011,3.68326 -10.09368,12.37772 -6.28629,19.41969 3.80855,7.04195 12.79724,9.76355 20.07623,6.08029 0.36985,-0.18751 0.7329,-0.38928 1.08574,-0.60639 l 22.75933,-12.73518 c -2.64795,13.37556 -3.99234,26.96165 -4.01731,40.57845 -0.33694,105.44302 78.408,195.57071 185.94447,212.82033 h 2.52881 c 8.21496,0.63599 15.40773,-5.29078 16.06574,-13.2374 0.65688,-7.94771 -5.47059,-14.90523 -13.68557,-15.54123 z"
           fill-rule="evenodd"
           id="path4529"
           style="fill:#00a338;fill-opacity:1;stroke-width:1.11536"
           inkscape:export-filename="ben2.svg"
           inkscape:export-xdpi="70.504379"
           inkscape:export-ydpi="70.504379" />
        <path
           d="m 802.82197,225.69139 c 0.0308,-25.67105 -4.67304,-51.1414 -13.89202,-75.21478 -2.87144,-7.43892 -11.43696,-11.21868 -19.13006,-8.44114 -7.69194,2.77642 -11.60032,11.05967 -8.72889,18.49749 37.19932,96.68058 -13.6935,204.2169 -113.67412,240.1888 -0.71248,0.25767 -1.42722,0.50879 -2.14309,0.7577 v 0 l 13.51991,-22.84415 c 4.10351,-6.90381 1.64162,-15.71669 -5.49667,-19.68395 -7.13944,-3.96726 -16.25294,-1.58778 -20.35645,5.316 l -31.2012,52.94521 c -4.08195,6.88297 -1.62121,15.66294 5.49668,19.61048 0,9.9e-4 9.7e-4,9.9e-4 9.7e-4,9.9e-4 l 54.75126,30.24361 c 7.13945,3.96837 16.25294,1.58777 20.35533,-5.31603 4.10349,-6.90379 1.64162,-15.71556 -5.49783,-19.68392 l -23.17796,-12.71534 c 89.63633,-30.06816 149.58703,-111.917 149.17409,-203.66097 z"
           fill-rule="evenodd"
           id="path4531"
           style="fill:#00a338;fill-opacity:1;stroke-width:1.11536" />
        <path
           d="m 676.21561,82.666739 c -8.2036,0 -14.85297,6.452017 -14.85297,14.411783 0,7.959768 6.64937,14.411798 14.85297,14.411798 h 61.04212 c 0.56839,0.0351 1.13903,0.0351 1.70743,0 2.85895,0.001 5.6521,-0.82789 8.02094,-2.37839 l 1.03923,-0.64806 0.44585,-0.36077 v 0 l 0.96546,-0.72041 c 2.90662,-2.68872 4.56865,-6.40706 4.60382,-10.304168 V 35.973106 c 0,-7.959545 -6.64931,-14.411571 -14.85181,-14.411571 -8.20362,0 -14.85295,6.452026 -14.85295,14.411571 v 26.301319 0 C 630.6856,-15.160181 490.07488,-4.2663029 410.27258,86.606593 c -0.34376,0.390364 -0.68524,0.782934 -1.02559,1.176589 -5.29019,6.08907 -4.49264,15.187048 1.78232,20.319918 6.27495,5.134 15.65052,4.35985 20.94183,-1.72922 68.19973,-78.823717 189.15965,-89.504866 270.90308,-23.923159 z"
           fill-rule="evenodd"
           id="path4533"
           style="fill:#00a338;fill-opacity:1;stroke-width:1.11536" />
        <g
           id="g4551"
           style="fill:#002060;fill-opacity:1;stroke:#ffffff;stroke-opacity:1"
           transform="matrix(1.1345062,0,0,1.0965372,-43.431178,15.085374)">
          <g
             id="g4549"
             style="fill:#002060;fill-opacity:1;stroke:#ffffff;stroke-opacity:1">
            <g
               id="g4547"
               style="fill:#002060;fill-opacity:1;stroke:#ffffff;stroke-width:2.49267;stroke-dasharray:none;stroke-opacity:1">
              <path
                 d="m 56.8818,109.621 c 0,5.787 -5.7758,10.479 -12.9005,10.479 -7.1247,0 -12.9004,-4.692 -12.9004,-10.479 0,-5.787 5.7757,-10.4786 12.9004,-10.4786 7.1247,0 12.9005,4.6916 12.9005,10.4786 z"
                 transform="matrix(0.740737,-0.671795,0.667596,0.745396,394.096,55.835)"
                 id="path4537"
                 style="fill:#002060;fill-opacity:1;stroke:#ffffff;stroke-width:2.49188;stroke-dasharray:none;stroke-opacity:1" />
              <path
                 d="m 139.124,109.621 c 0,5.787 -5.776,10.479 -12.9,10.479 -7.125,0 -12.901,-4.692 -12.901,-10.479 0,-5.787 5.776,-10.4786 12.901,-10.4786 7.124,0 12.9,4.6916 12.9,10.4786 z"
                 transform="matrix(0.740737,-0.671795,0.667596,0.745396,415.187,111.085)"
                 id="path4539"
                 style="fill:#002060;fill-opacity:1;stroke:#ffffff;stroke-width:2.49188;stroke-dasharray:none;stroke-opacity:1" />
              <path
                 d="M 33.5043,39.75 31.0895,51.3438 H 12.6571 l -1.0352,4.9687 h 18.4324 l -1.3796,6.625 H 15.9696 l -1.0352,4.9687 h 12.7051 l -1.3797,6.625 H 6.03206 L 4.99691,79.5 H 25.2247 39.1571 102.267 l 8.281,-39.75 z"
                 transform="matrix(1,0,0,1.00629,456,-2)"
                 id="path4541"
                 style="fill:#002060;fill-opacity:1;stroke:#ffffff;stroke-width:2.48486;stroke-dasharray:none;stroke-opacity:1" />
              <path
                 d="M 152.34,80.825 144.943,74.2 c -0.988,-0.8899 -1.565,-2.1485 -1.595,-3.4781 l -0.932,-11.4282 c -0.423,-5.5664 -5.165,-9.8063 -10.744,-9.6062 h -16.563 l -4.838,23.1875 -2.07,9.9375 -5.513,26.4995 h 6.624 c 1.899,-9.109 10.904,-16.562 20.013,-16.562 9.109,0 15.004,7.453 13.113,16.562 3.849,-0.168 7.119,-2.874 8.004,-6.624 l 3.452,-16.563 c 0.475,-1.9176 -0.118,-3.9427 -1.554,-5.3 z m -35.444,-7.95 3.45,-16.5625 h 9.938 c 2.738,-0.1843 5.107,1.886 5.291,4.6239 0.004,0.0596 0.007,0.1194 0.009,0.1792 l 0.932,11.4281 c -0.034,0.1657 0.131,0.1657 0.096,0.3313 z"
                 transform="matrix(1,0,0,1.00629,456,-2)"
                 id="path4543"
                 style="fill:#002060;fill-opacity:1;stroke:#ffffff;stroke-width:2.48486;stroke-dasharray:none;stroke-opacity:1" />
              <path
                 d="m 19.0138,109.312 h 8.2812 c 1.8981,-9.109 10.9031,-16.562 20.0125,-16.562 9.1093,0 15.0106,7.453 13.1125,16.562 H 96.0625 L 100.894,86.125 H 23.85 Z"
                 transform="matrix(1,0,0,1.00629,456,-2)"
                 id="path4545"
                 style="fill:#002060;fill-opacity:1;stroke:#ffffff;stroke-width:2.48486;stroke-dasharray:none;stroke-opacity:1" />
            </g>
          </g>
        </g>
        <g
           id="g4563"
           transform="matrix(1.1345062,0,0,1.0965372,11.077673,-89.562155)"
           style="stroke:#ffffff;stroke-width:2.49267;stroke-dasharray:none;stroke-opacity:1">
          <g
             id="g4561"
             style="fill:#002060;fill-opacity:1;stroke:#ffffff;stroke-width:2.49267;stroke-dasharray:none;stroke-opacity:1">
            <g
               id="g4559"
               style="fill:#002060;fill-opacity:1;stroke:#ffffff;stroke-width:2.49267;stroke-dasharray:none;stroke-opacity:1">
              <path
                 d="m 431.5,384 h -45 v -80 h 45 z M 404,294 h 10 c 1.375,0 2.5,1.125 2.5,2.5 0,1.375 -1.125,2.5 -2.5,2.5 h -10 c -1.375,0 -2.5,-1.125 -2.5,-2.5 0,-1.375 1.125,-2.5 2.5,-2.5 z m 32.5,-5 h -55 c -1.375,0 -2.5,1.125 -2.5,2.5 v 105 c 0,1.375 1.125,2.5 2.5,2.5 h 55 c 1.375,0 2.5,-1.125 2.5,-2.5 v -105 c 0,-1.375 -1.125,-2.5 -2.5,-2.5 z"
                 id="path4557"
                 style="fill:#002060;fill-opacity:1;stroke:#ffffff;stroke-width:2.49267;stroke-dasharray:none;stroke-opacity:1" />
            </g>
          </g>
        </g>
        <g
           id="g4573"
           style="fill:#002060;fill-opacity:1;stroke:#ffffff;stroke-width:2.49267;stroke-dasharray:none;stroke-opacity:1"
           transform="matrix(1.1345062,0,0,1.0965372,-137.5711,-71.36145)">
          <g
             id="g4571"
             style="fill:#002060;fill-opacity:1;stroke:#ffffff;stroke-width:2.49267;stroke-dasharray:none;stroke-opacity:1">
            <g
               id="g4569"
               style="fill:#002060;fill-opacity:1;stroke:#ffffff;stroke-width:2.49267;stroke-dasharray:none;stroke-opacity:1">
              <path
                 d="m 74.0077,38.5417 c -19.583,0 -35.4583,15.8753 -35.4583,35.4583 0,19.583 15.8753,35.458 35.4583,35.458 C 93.5909,109.458 109.466,93.583 109.466,74 109.444,54.4261 93.5816,38.5637 74.0077,38.5417 Z M 68.9665,88.4362 53.5143,72.9825 58.7652,67.7316 68.9665,77.9328 89.8591,57.0417 95.11,62.2926 Z"
                 transform="matrix(1,0,0,1.00676,654,245)"
                 id="path4565"
                 style="fill:#002060;fill-opacity:1;stroke:#ffffff;stroke-width:2.48428;stroke-dasharray:none;stroke-opacity:1" />
              <path
                 d="m 126.609,75.9502 c -0.926,-1.135 -0.926,-2.7654 0,-3.9004 l 3.799,-4.6543 c 1.078,-1.3187 0.882,-3.2611 -0.437,-4.3386 -0.09,-0.0735 -0.184,-0.1418 -0.281,-0.2047 l -5.052,-3.2529 c -1.232,-0.7927 -1.736,-2.3424 -1.206,-3.7077 l 2.175,-5.6024 c 0.617,-1.5873 -0.17,-3.374 -1.757,-3.9906 -0.108,-0.0418 -0.218,-0.0777 -0.33,-0.1072 l -5.811,-1.5324 c -1.416,-0.3734 -2.374,-1.6918 -2.292,-3.1543 l 0.337,-6.0001 c 0.096,-1.7002 -1.205,-3.156 -2.905,-3.2514 -0.115,-0.0065 -0.231,-0.0065 -0.346,0 l -6,0.3376 c -1.462,0.082 -2.781,-0.8761 -3.154,-2.2924 l -1.533,-5.8106 c -0.434,-1.6465 -2.1212,-2.629 -3.7677,-2.1945 -0.1118,0.0294 -0.222,0.0652 -0.3298,0.1071 l -5.6024,2.1753 c -1.3654,0.5297 -2.915,0.0258 -3.7077,-1.2056 l -3.2529,-5.052 c -0.9219,-1.4318 -2.8299,-1.8451 -4.2616,-0.9232 -0.0978,0.0629 -0.1918,0.1312 -0.2817,0.2048 l -4.6543,3.7986 c -1.135,0.9269 -2.7654,0.9269 -3.9004,0 l -4.6543,-3.7986 c -1.3187,-1.0775 -3.2611,-0.8819 -4.3386,0.4367 -0.0735,0.0901 -0.1418,0.1841 -0.2047,0.2817 l -3.2529,5.052 c -0.7927,1.2314 -2.3424,1.7353 -3.7077,1.2056 l -5.6024,-2.1753 c -1.5873,-0.6166 -3.374,0.1704 -3.9906,1.7577 -0.0418,0.1077 -0.0777,0.2178 -0.1072,0.3297 l -1.5324,5.8106 c -0.3734,1.4163 -1.6918,2.3744 -3.1542,2.2924 l -6.0002,-0.3376 c -1.7002,-0.0954 -3.156,1.2054 -3.2514,2.9056 -0.0065,0.1151 -0.0065,0.2306 0,0.3458 l 0.3376,6.0001 c 0.0821,1.4625 -0.8761,2.7809 -2.2924,3.1543 l -5.8106,1.5324 c -1.6465,0.4345 -2.629,2.1215 -2.1945,3.768 0.0294,0.1118 0.0652,0.222 0.1071,0.3298 l 2.1753,5.6024 c 0.5297,1.3654 0.0258,2.915 -1.2056,3.7077 l -5.052,3.2529 c -1.4321,0.9213 -1.8462,2.8293 -0.9249,4.2613 0.0629,0.0978 0.1314,0.192 0.2049,0.282 l 3.8002,4.6543 c 0.9269,1.135 0.9269,2.7654 0,3.9004 l -3.8002,4.6543 c -1.0771,1.3189 -0.881,3.2614 0.438,4.3384 0.0901,0.0735 0.1842,0.142 0.282,0.2049 l 5.052,3.2529 c 1.2314,0.7927 1.7353,2.3424 1.2056,3.7077 l -2.1753,5.6024 c -0.6166,1.5873 0.1704,3.3742 1.7577,3.9902 0.1077,0.042 0.2178,0.078 0.3297,0.108 l 5.8106,1.532 c 1.4163,0.373 2.3745,1.692 2.2924,3.154 l -0.3376,6 c -0.0954,1.701 1.2054,3.156 2.9056,3.252 0.1152,0.006 0.2306,0.006 0.3458,0 l 6.0002,-0.338 c 1.4624,-0.082 2.7808,0.876 3.1542,2.293 l 1.5324,5.81 c 0.4345,1.647 2.1215,2.629 3.768,2.195 0.1118,-0.03 0.222,-0.065 0.3298,-0.107 l 5.6024,-2.176 c 1.3653,-0.529 2.915,-0.025 3.7077,1.206 l 3.2529,5.052 c 0.9219,1.432 2.8299,1.845 4.2616,0.923 0.0978,-0.063 0.1918,-0.131 0.2817,-0.205 l 4.6543,-3.798 c 1.135,-0.927 2.7654,-0.927 3.9004,0 l 4.6543,3.798 c 1.3188,1.078 3.2611,0.882 4.3386,-0.436 0.0735,-0.09 0.1418,-0.185 0.2047,-0.282 l 3.2529,-5.052 c 0.7927,-1.231 2.3424,-1.735 3.7077,-1.206 l 5.6024,2.176 c 1.5873,0.616 3.3735,-0.171 3.9905,-1.758 0.042,-0.108 0.078,-0.218 0.107,-0.33 l 1.533,-5.81 c 0.373,-1.417 1.692,-2.375 3.154,-2.293 l 6,0.338 c 1.7,0.095 3.156,-1.206 3.251,-2.906 0.007,-0.115 0.007,-0.23 0,-0.346 l -0.337,-6 c -0.082,-1.462 0.876,-2.781 2.292,-3.154 l 5.811,-1.532 c 1.646,-0.435 2.629,-2.1219 2.194,-3.7684 -0.029,-0.1118 -0.065,-0.222 -0.107,-0.3298 l -2.175,-5.6024 c -0.53,-1.3654 -0.026,-2.915 1.206,-3.7077 l 5.052,-3.2529 c 1.431,-0.9219 1.845,-2.8299 0.923,-4.2616 -0.063,-0.0978 -0.131,-0.1918 -0.205,-0.2817 z M 74.0077,114.083 C 51.8703,114.083 33.9244,96.1374 33.9244,74 c 0,-22.1374 17.9459,-40.0833 40.0833,-40.0833 22.1374,0 40.0833,17.9459 40.0833,40.0833 -0.025,22.1272 -17.9561,40.059 -40.0833,40.083 z"
                 transform="matrix(1,0,0,1.00676,654,245)"
                 id="path4567"
                 style="fill:#002060;fill-opacity:1;stroke:#ffffff;stroke-width:2.48428;stroke-dasharray:none;stroke-opacity:1" />
            </g>
          </g>
        </g>
      </g>
    </g>
  </g>
</svg>
