<?xml version="1.0" encoding="UTF-8" standalone="no"?>
<!-- Created with Inkscape (http://www.inkscape.org/) -->

<svg
   width="86.044456mm"
   height="88.629333mm"
   viewBox="0 0 86.044456 88.629333"
   version="1.1"
   id="svg5"
   inkscape:export-filename="ben3.svg"
   inkscape:export-xdpi="68.52832"
   inkscape:export-ydpi="68.52832"
   xmlns:inkscape="http://www.inkscape.org/namespaces/inkscape"
   xmlns:sodipodi="http://sodipodi.sourceforge.net/DTD/sodipodi-0.dtd"
   xmlns="http://www.w3.org/2000/svg"
   xmlns:svg="http://www.w3.org/2000/svg">
  <sodipodi:namedview
     id="namedview7"
     pagecolor="#ffffff"
     bordercolor="#000000"
     borderopacity="0.25"
     inkscape:showpageshadow="2"
     inkscape:pageopacity="0.0"
     inkscape:pagecheckerboard="0"
     inkscape:deskcolor="#d1d1d1"
     inkscape:document-units="mm"
     showgrid="false"
     inkscape:zoom="0.71624579"
     inkscape:cx="396.51193"
     inkscape:cy="316.23222"
     inkscape:window-width="1920"
     inkscape:window-height="991"
     inkscape:window-x="-9"
     inkscape:window-y="-9"
     inkscape:window-maximized="1"
     inkscape:current-layer="g34" />
  <defs
     id="defs2">
    <clipPath
       id="clip0-08">
      <rect
         x="550"
         y="57"
         width="200"
         height="206"
         id="rect8127" />
    </clipPath>
    <clipPath
       id="clip0-7">
      <path
         d="M 281.677,124.805 401.028,112.344 413.49,231.695 294.138,244.156 Z"
         fill-rule="evenodd"
         clip-rule="evenodd"
         id="path10494" />
    </clipPath>
    <clipPath
       id="clip1">
      <path
         d="M 281.677,124.805 401.028,112.344 413.49,231.695 294.138,244.156 Z"
         fill-rule="evenodd"
         clip-rule="evenodd"
         id="path10497" />
    </clipPath>
    <clipPath
       id="clip2">
      <path
         d="M 281.677,124.805 401.028,112.344 413.49,231.695 294.138,244.156 Z"
         fill-rule="evenodd"
         clip-rule="evenodd"
         id="path10500" />
    </clipPath>
  </defs>
  <g
     inkscape:label="Capa 1"
     inkscape:groupmode="layer"
     id="layer1"
     transform="translate(-61.703504,-161.81219)">
    <g
       clip-path="url(#clip0-08)"
       transform="matrix(0.56564678,0,0,0.46004413,-252.60136,134.18211)"
       id="g8160"
       style="fill:#002060;fill-opacity:1">
      <path
         d="m 337.51975,130.51676 c 7.456,0 13.5,-5.82 13.5,-13 0,-7.18 -6.044,-13 -13.5,-13 -7.456,0 -13.5,5.82 -13.5,13 0,7.18 6.044,13 13.5,13 z"
         fill-rule="evenodd"
         id="path8132"
         style="fill:#00a338;fill-opacity:1"
         inkscape:export-filename="ben3.svg"
         inkscape:export-xdpi="68.52832"
         inkscape:export-ydpi="68.52832" />
      <path
         d="m 480.01975,130.51676 c 7.18,0 13,-5.82 13,-13 0,-7.18 -5.82,-13 -13,-13 -7.18,0 -13,5.82 -13,13 0,7.18 5.82,13 13,13 z"
         fill-rule="evenodd"
         id="path8134"
         style="fill:#00a338;fill-opacity:1" />
      <path
         d="m 355.13875,160.04276 c 1.134,0.821 2.495,1.265 3.893,1.268 h 18.412 c 3.632,0 6.576,-2.958 6.576,-6.606 0,-3.648 -2.944,-6.605 -6.576,-6.605 h -16.255 l -12.52,-9.222 c -2.735,-3.774 -7.27,-5.79 -11.889,-5.284 -6.806,0.85 -11.878,6.719 -11.758,13.607 v 37.89 c 0,7.296 5.888,13.211 13.152,13.211 h 12.967 v 0 h 15.782 v 33.61 c 0,3.648 2.944,6.605 6.576,6.605 3.631,0 6.576,-2.957 6.576,-6.605 v -40.295 c 0,-3.648 -2.945,-6.605 -6.576,-6.605 h -22.358 v -27.955 z"
         fill-rule="evenodd"
         id="path8136"
         style="fill:#00a338;fill-opacity:1" />
      <path
         d="m 481.30275,133.59376 c -4.624,-0.505 -9.163,1.508 -11.9,5.277 l -12.532,9.342 h -16.269 c -3.635,0 -6.582,2.954 -6.582,6.598 0,3.643 2.947,6.597 6.582,6.597 h 18.428 c 1.399,-0.003 2.762,-0.446 3.897,-1.267 l 4.001,-2.982 v 27.999 h -22.298 c -3.635,0 -6.582,2.954 -6.582,6.597 v 40.165 c 0,3.643 2.947,6.597 6.582,6.597 3.635,0 6.581,-2.954 6.581,-6.597 v -33.567 h 15.796 v 0 h 12.848 c 7.269,0 13.163,-5.908 13.163,-13.195 v -37.974 c 0.123,-6.862 -4.925,-12.717 -11.715,-13.59 z"
         fill-rule="evenodd"
         id="path8138"
         style="fill:#00a338;fill-opacity:1" />
      <path
         d="m 453.75675,167.51676 h -89.474 c -2.907,0 -5.263,2.334 -5.263,5.214 0,2.88 2.356,5.215 5.263,5.215 h 39.474 v 52.143 h -15.79 v 10.428 h 42.106 v -10.428 h -15.79 v -52.143 h 39.474 c 2.907,0 5.263,-2.335 5.263,-5.215 0,-2.88 -2.356,-5.214 -5.263,-5.214 z"
         fill-rule="evenodd"
         id="path8140"
         style="fill:#002060;fill-opacity:1" />
      <path
         d="m 503.71975,147.51676 c -2.927,0 -5.3,2.346 -5.3,5.239 v 51.085 h -37.1 c -2.927,0 -5.3,2.346 -5.3,5.239 0,2.894 2.373,5.24 5.3,5.24 h 15.9 v 15.718 h -10.6 v 10.479 h 31.8 v -10.479 h -10.6 v -15.718 h 15.9 c 2.927,0 5.3,-2.346 5.3,-5.24 v -56.324 c 0,-2.893 -2.373,-5.239 -5.3,-5.239 z"
         fill-rule="evenodd"
         id="path8142"
         style="fill:#002060;fill-opacity:1" />
      <path
         d="m 355.81975,203.57276 h -36.4 v -52.778 c 0,-2.915 -2.328,-5.278 -5.2,-5.278 -2.872,0 -5.2,2.363 -5.2,5.278 v 58.055 c 0,2.915 2.328,5.278 5.2,5.278 h 15.6 v 15.833 h -10.4 v 10.556 h 31.2 v -10.556 h -10.4 v -15.833 h 15.6 c 2.872,0 5.2,-2.363 5.2,-5.278 0,-2.915 -2.328,-5.277 -5.2,-5.277 z"
         fill-rule="evenodd"
         id="path8144"
         style="fill:#002060;fill-opacity:1" />
      <path
         d="m 408.01975,127.51676 0.857,3 -0.482,0.551 -2.625,-0.98 c 0,0 0,0 -0.053,-0.061 -0.59,-0.673 -0.59,-1.775 0.053,-2.449 0.643,-0.673 1.607,-0.734 2.25,-0.061 z m -18,-13.469 15.107,17.265 5.893,2.204 -1.929,-6.673 -15.107,-17.327 z"
         fill-rule="evenodd"
         id="path8146"
         style="fill:#002060;fill-opacity:1" />
      <path
         d="m 387.28975,108.36676 c -0.398,0.526 -0.348,1.344 0.1,1.812 l 1.993,2.338 3.637,-4.267 -1.993,-2.338 c 0,0 0,0 0,0 -0.448,-0.527 -1.196,-0.527 -1.594,0 l -2.043,2.396 c -0.05,0 -0.05,0.059 -0.1,0.059 z"
         fill-rule="evenodd"
         id="path8148"
         style="fill:#002060;fill-opacity:1" />
      <path
         d="m 421.01975,130.51676 h -9 l 0.733,3 h 8.267 z"
         fill-rule="evenodd"
         id="path8150"
         style="fill:#002060;fill-opacity:1" />
      <path
         d="m 421.01975,116.51676 h -19 l 2.147,2 h 16.853 z"
         fill-rule="evenodd"
         id="path8152"
         style="fill:#002060;fill-opacity:1" />
      <path
         d="m 394.01975,121.07676 v 23.04 c 0,1.32 0.958,2.4 2.129,2.4 h 28.742 c 1.171,0 2.129,-1.08 2.129,-2.4 v -39.6 c 0,-1.32 -0.958,-2.4 -2.129,-2.4 h -9.048 v -1.2 c 0,-1.320002 -0.958,-2.400002 -2.129,-2.400002 h -6.387 c -1.172,0 -2.13,1.08 -2.13,2.400002 v 1.2 h -9.048 c -1.171,0 -2.129,1.08 -2.129,2.4 v 2.64 l 0.585,0.66 0.107,0.12 v 0 l 2.502,2.82 v -5.04 h 5.854 v 3.6 h 14.904 v -3.6 h 5.855 v 37.2 h -26.613 v -18.24 z m 18.097,-18.36 c 0,1.02 -0.692,1.8 -1.597,1.8 -0.905,0 -1.597,-0.78 -1.597,-1.8 0,-1.02 0.692,-1.8 1.597,-1.8 0.426,0 0.852,0.18 1.118,0.54 0.319,0.3 0.479,0.78 0.479,1.26 z"
         fill-rule="evenodd"
         id="path8154"
         style="fill:#002060;fill-opacity:1" />
      <path
         d="m 421.01975,123.51676 h -13 l 2.222,2 h 10.778 z"
         fill-rule="evenodd"
         id="path8156"
         style="fill:#002060;fill-opacity:1" />
      <path
         d="m 478.93775,34.516758 h -130.836 c -4.463,0 -8.082,2.4873 -8.082,5.5556 v 30.5555 c 0,3.0683 3.619,5.5556 8.082,5.5556 h 29.805 v 8.3333 l 12.73,-8.3333 h 13.74 l 7.88,8.3333 7.274,-8.3333 h 14.347 l 12.73,8.3333 v -8.3333 h 32.33 c 4.463,0 8.082,-2.4873 8.082,-5.5556 v -30.5555 c 0,-3.0683 -3.619,-5.5556 -8.082,-5.5556 z m -118.712,12.5 h 94.464 v 2.7778 h -94.464 z m 74.258,16.6667 h -74.258 v -2.7778 h 74.258 z m 32.33,-6.9445 h -106.588 v -2.7778 h 106.588 z"
         fill-rule="evenodd"
         id="path8158"
         style="fill:#00a338;fill-opacity:1" />
      <g
         transform="matrix(0.92744818,0,0,1.0606698,334.45933,3.60887)"
         id="g10533">
        <g
           id="g10511"
           style="fill:#00a338;fill-opacity:1"
           transform="matrix(1.0495655,0,0,1.0169545,-11.821378,-3.9818626)"
           inkscape:export-filename="ben4.svg"
           inkscape:export-xdpi="68.52832"
           inkscape:export-ydpi="68.52832">
          <g
             id="g10509"
             style="fill:#00a338;fill-opacity:1">
            <g
               id="g10507"
               style="fill:#00a338;fill-opacity:1">
              <path
                 d="m 319.25,56.25 h -76.5 c -2.375,0 -4.25,2 -4.25,4.25 v 51.625 c 0,2.375 1.875,4.25 4.25,4.25 h 46.75 l 17,17.375 V 116.5 h 12.75 c 2.375,0 4.25,-2 4.25,-4.25 V 60.625 c 0,-2.375 -1.875,-4.375 -4.25,-4.375 z"
                 id="path10505"
                 style="fill:#00a338;fill-opacity:1" />
            </g>
          </g>
        </g>
        <g
           clip-path="url(#clip0-7)"
           id="g10523">
          <g
             clip-path="url(#clip1)"
             id="g10521"
             transform="matrix(1.0495655,0,0,1.0169545,-11.821378,-3.9818626)">
            <g
               clip-path="url(#clip2)"
               id="g10519">
              <path
                 d="m 357.107,220.112 -40.339,-12.001 21.167,-71.71 40.464,11.988 z m -0.77,-88.021 8.955,2.71 c 1.295,0.368 1.935,1.683 1.555,2.854 -0.368,1.295 -1.683,1.935 -2.854,1.555 l -8.955,-2.71 c -1.295,-0.367 -1.935,-1.683 -1.555,-2.854 0.257,-1.158 1.559,-1.922 2.854,-1.555 z m 30.467,4.109 -49.281,-14.586 c -1.296,-0.368 -2.474,0.383 -2.854,1.554 l -27.874,94.154 c -0.367,1.295 0.384,2.473 1.555,2.854 l 49.281,14.586 c 1.295,0.368 2.474,-0.384 2.854,-1.555 l 27.749,-94.14 c 0.505,-1.184 -0.259,-2.487 -1.43,-2.867 z"
                 id="path10513" />
              <path
                 d="m 379.157,211.023 -3.3,-3.928 5.205,-4.314 -2.473,-8.037 6.469,-5.451 -2.473,-8.036 6.482,-5.327 -2.056,-6.447 4.745,-1.501 3.015,9.614 -6.469,5.452 2.473,8.036 -6.482,5.327 2.61,8.148 z"
                 id="path10515" />
              <path
                 d="m 303.299,188.655 -2.903,-9.751 6.482,-5.327 -2.597,-8.024 6.469,-5.451 -2.473,-8.037 7.745,-6.464 3.288,3.804 -5.205,4.314 2.473,8.037 -6.469,5.451 2.473,8.036 -6.469,5.452 2.056,6.446 z"
                 id="path10517" />
            </g>
          </g>
        </g>
        <g
           id="g10531"
           transform="matrix(1.0495655,0,0,1.0169545,-11.821378,-3.9818626)">
          <g
             id="g10529">
            <g
               id="g10527">
              <path
                 d="m 42.7125,37.4 c -1.9656,-4.3562 -6.8,-5.8969 -7.1187,-18.8062 v 0.0531 C 35.4344,14.9281 33.2562,11.7938 30.175,10.2 c 0.1062,-0.37188 0.1594,-0.74375 0.1594,-1.11562 0,-2.65625 -2.125,-4.78125 -4.7813,-4.78125 -2.6562,0 -4.7812,2.125 -4.7812,4.78125 0,0.37187 0.0531,0.79687 0.1594,1.11562 -3.0813,1.5938 -5.2594,4.7813 -5.4188,8.4469 v -0.0531 c -0.3187,12.9093 -5.1531,14.45 -7.11875,18.8062 -0.53125,0.6906 -0.85,1.3812 -0.85,2.1781 C 7.4375,43.5625 15.5125,46.75 25.5,46.75 c 9.9875,0 18.0625,-3.1875 18.0625,-7.1719 0,-0.7437 -0.2656,-1.4875 -0.85,-2.1781 z M 25.5,6.375 c 1.4875,0 2.6562,1.16875 2.6562,2.65625 0,0.10625 0,0.2125 -0.0531,0.37188 -0.7968,-0.26563 -1.7,-0.37188 -2.6031,-0.37188 -0.9031,0 -1.8063,0.10625 -2.6031,0.37188 0,-0.10625 -0.0531,-0.21251 -0.0531,-0.37188 0,-1.4875 1.1687,-2.65625 2.6562,-2.65625 z m 0,37.1875 c -9.2969,0 -14.3438,-2.8156 -14.875,-3.9844 0.425,-1.0094 4.5156,-3.4 12.0062,-3.8781 -0.2124,0.425 -0.3718,0.9562 -0.3718,1.4875 0,1.7531 1.4343,3.1875 3.2406,3.1875 1.8063,0 3.2406,-1.4344 3.2406,-3.1875 0,-0.5313 -0.1594,-1.0625 -0.3718,-1.4875 7.4906,0.4781 11.5812,2.8687 12.0062,3.8781 -0.5312,1.1688 -5.5781,3.9844 -14.875,3.9844 z"
                 fill="#ffffff"
                 transform="matrix(1,0,0,1.01961,255,57)"
                 id="path10525" />
            </g>
          </g>
        </g>
      </g>
    </g>
  </g>
</svg>
