<?xml version="1.0" encoding="UTF-8" standalone="no"?>
<!-- Created with Inkscape (http://www.inkscape.org/) -->

<svg
   width="69.818779mm"
   height="88.214539mm"
   viewBox="0 0 69.818779 88.214539"
   version="1.1"
   id="svg5"
   xmlns="http://www.w3.org/2000/svg"
   xmlns:svg="http://www.w3.org/2000/svg">
  <defs
     id="defs2">
    <clipPath
       id="clip0-08">
      <rect
         x="550"
         y="57"
         width="200"
         height="206"
         id="rect8127" />
    </clipPath>
    <clipPath
       id="clip0-7">
      <path
         d="M 281.677,124.805 401.028,112.344 413.49,231.695 294.138,244.156 Z"
         fill-rule="evenodd"
         clip-rule="evenodd"
         id="path10494" />
    </clipPath>
  </defs>
  <g
     id="layer1"
     transform="translate(-84.592478,-164.97482)">
    <g
       clip-path="url(#clip0-08)"
       transform="matrix(0.56564678,0,0,0.46004413,-252.60136,134.18211)"
       id="g8160"
       style="fill:#002060;fill-opacity:1">
      <path
         d="m 337.51975,130.51676 c 7.456,0 13.5,-5.82 13.5,-13 0,-7.18 -6.044,-13 -13.5,-13 -7.456,0 -13.5,5.82 -13.5,13 0,7.18 6.044,13 13.5,13 z"
         fill-rule="evenodd"
         id="path8132"
         style="fill:#00a338;fill-opacity:1" />
      <path
         d="m 355.13875,160.04276 c 1.134,0.821 2.495,1.265 3.893,1.268 h 18.412 c 3.632,0 6.576,-2.958 6.576,-6.606 0,-3.648 -2.944,-6.605 -6.576,-6.605 h -16.255 l -12.52,-9.222 c -2.735,-3.774 -7.27,-5.79 -11.889,-5.284 -6.806,0.85 -11.878,6.719 -11.758,13.607 v 37.89 c 0,7.296 5.888,13.211 13.152,13.211 h 12.967 v 0 h 15.782 v 33.61 c 0,3.648 2.944,6.605 6.576,6.605 3.631,0 6.576,-2.957 6.576,-6.605 v -40.295 c 0,-3.648 -2.945,-6.605 -6.576,-6.605 h -22.358 v -27.955 z"
         fill-rule="evenodd"
         id="path8136"
         style="fill:#00a338;fill-opacity:1" />
      <path
         d="m 453.75675,167.51676 h -89.474 c -2.907,0 -5.263,2.334 -5.263,5.214 0,2.88 2.356,5.215 5.263,5.215 h 39.474 v 52.143 h -15.79 v 10.428 h 42.106 v -10.428 h -15.79 v -52.143 h 39.474 c 2.907,0 5.263,-2.335 5.263,-5.215 0,-2.88 -2.356,-5.214 -5.263,-5.214 z"
         fill-rule="evenodd"
         id="path8140"
         style="fill:#002060;fill-opacity:1" />
      <path
         d="m 355.81975,203.57276 h -36.4 v -52.778 c 0,-2.915 -2.328,-5.278 -5.2,-5.278 -2.872,0 -5.2,2.363 -5.2,5.278 v 58.055 c 0,2.915 2.328,5.278 5.2,5.278 h 15.6 v 15.833 h -10.4 v 10.556 h 31.2 v -10.556 h -10.4 v -15.833 h 15.6 c 2.872,0 5.2,-2.363 5.2,-5.278 0,-2.915 -2.328,-5.277 -5.2,-5.277 z"
         fill-rule="evenodd"
         id="path8144"
         style="fill:#002060;fill-opacity:1" />
      <path
         d="m 408.01975,127.51676 0.857,3 -0.482,0.551 -2.625,-0.98 c 0,0 0,0 -0.053,-0.061 -0.59,-0.673 -0.59,-1.775 0.053,-2.449 0.643,-0.673 1.607,-0.734 2.25,-0.061 z m -18,-13.469 15.107,17.265 5.893,2.204 -1.929,-6.673 -15.107,-17.327 z"
         fill-rule="evenodd"
         id="path8146"
         style="fill:#002060;fill-opacity:1" />
      <path
         d="m 387.28975,108.36676 c -0.398,0.526 -0.348,1.344 0.1,1.812 l 1.993,2.338 3.637,-4.267 -1.993,-2.338 c 0,0 0,0 0,0 -0.448,-0.527 -1.196,-0.527 -1.594,0 l -2.043,2.396 c -0.05,0 -0.05,0.059 -0.1,0.059 z"
         fill-rule="evenodd"
         id="path8148"
         style="fill:#002060;fill-opacity:1" />
      <path
         d="m 421.01975,116.51676 h -19 l 2.147,2 h 16.853 z"
         fill-rule="evenodd"
         id="path8152"
         style="fill:#002060;fill-opacity:1" />
      <path
         d="m 394.01975,121.07676 v 23.04 c 0,1.32 0.958,2.4 2.129,2.4 h 28.742 c 1.171,0 2.129,-1.08 2.129,-2.4 v -39.6 c 0,-1.32 -0.958,-2.4 -2.129,-2.4 h -9.048 v -1.2 c 0,-1.320002 -0.958,-2.400002 -2.129,-2.400002 h -6.387 c -1.172,0 -2.13,1.08 -2.13,2.400002 v 1.2 h -9.048 c -1.171,0 -2.129,1.08 -2.129,2.4 v 2.64 l 0.585,0.66 0.107,0.12 v 0 l 2.502,2.82 v -5.04 h 5.854 v 3.6 h 14.904 v -3.6 h 5.855 v 37.2 h -26.613 v -18.24 z m 18.097,-18.36 c 0,1.02 -0.692,1.8 -1.597,1.8 -0.905,0 -1.597,-0.78 -1.597,-1.8 0,-1.02 0.692,-1.8 1.597,-1.8 0.426,0 0.852,0.18 1.118,0.54 0.319,0.3 0.479,0.78 0.479,1.26 z"
         fill-rule="evenodd"
         id="path8154"
         style="fill:#002060;fill-opacity:1" />
      <path
         d="m 478.93775,34.516758 h -130.836 c -4.463,0 -8.082,2.4873 -8.082,5.5556 v 30.5555 c 0,3.0683 3.619,5.5556 8.082,5.5556 h 29.805 v 8.3333 l 12.73,-8.3333 h 13.74 l 7.88,8.3333 7.274,-8.3333 h 14.347 l 12.73,8.3333 v -8.3333 h 32.33 c 4.463,0 8.082,-2.4873 8.082,-5.5556 v -30.5555 c 0,-3.0683 -3.619,-5.5556 -8.082,-5.5556 z m -118.712,12.5 h 94.464 v 2.7778 h -94.464 z m 74.258,16.6667 h -74.258 v -2.7778 h 74.258 z m 32.33,-6.9445 h -106.588 v -2.7778 h 106.588 z"
         fill-rule="evenodd"
         id="path8158"
         style="fill:#00a338;fill-opacity:1" />
      <g
         transform="matrix(0.92744818,0,0,1.0606698,334.45933,3.60887)"
         id="g10533">
        <g
           clip-path="url(#clip0-7)"
           id="g10523" />
        <g
           transform="matrix(1.3247006,0,0,1.6000708,47.503133,-125.30847)"
           id="g11944">
          <g
             transform="matrix(0.6393176,0,0,0.59154504,92.088125,-58.878595)"
             id="g12944">
            <g
               id="g12938"
               transform="matrix(0.9327455,0,0,0.78671344,17.370067,85.261277)">
              <g
                 id="g12936">
                <g
                   id="g12934">
                  <path
                     d="m 63.5875,11.625 c 8.9687,9.822 21.3314,15.8738 34.59,16.9325 2.4635,0.2309 4.3405,2.3074 4.3225,4.7812 v 12.0675 c 0,26.2313 -16.6837,50.2288 -39.8488,65.0778 -1.5914,1.021 -3.6322,1.021 -5.2237,0 C 34.2625,95.635 17.5788,71.6375 17.5788,45.4062 V 33.3387 c -0.0179,-2.4738 1.8593,-4.5503 4.3224,-4.7812 13.2587,-1.0587 25.6213,-7.1105 34.59,-16.9325 1.6908,-1.95958 4.6499,-2.17752 6.6095,-0.4868 0.1739,0.1501 0.3367,0.3128 0.4868,0.4868 z"
                     transform="matrix(1.20833,0,0,1,136,341)"
                     id="path12932"
                     style="fill:#002060;fill-opacity:1" />
                </g>
              </g>
            </g>
            <path
               d="M 274.93774,471.675 H 148.20811 V 323.65 h 27.88064 v 14.325 h 70.96834 V 323.65 h 27.88065 z M 211.57292,304.55 c 4.30877,0 7.60352,3.104 7.60352,7.163 0,4.058 -3.29475,7.162 -7.60352,7.162 -4.30877,0 -7.60352,-3.104 -7.60352,-7.162 0,-1.911 0.76024,-3.821 2.28074,-5.014 1.26778,-1.433 3.29475,-2.149 5.32278,-2.149 z m 68.43489,4.775 h -43.08875 v -4.775 c 0,-5.253 -4.56254,-9.55 -10.13803,-9.55 h -30.41622 c -5.57549,0 -10.13803,4.297 -10.13803,9.55 v 4.775 H 143.13803 C 137.56254,309.325 133,313.623 133,318.875 V 476.45 c 0,5.253 4.56254,9.55 10.13803,9.55 h 136.86978 c 5.57549,0 10.13803,-4.297 10.13803,-9.55 V 318.875 c 0,-5.252 -4.56254,-9.55 -10.13803,-9.55 z"
               fill-rule="evenodd"
               id="path12940"
               style="fill:#00a338;fill-opacity:1;stroke-width:1.03043" />
            <path
               d="m 212.61773,398.11726 -11.99231,0.61679 V 388.5878 c 0,-4.65183 5.35675,-8.4076 11.99231,-8.4076 6.63555,0 11.99231,3.75577 11.99231,8.4076 v 3.3632 h 4.79711 v -3.3632 c 0,-6.5014 -7.51513,-11.7708 -16.78942,-11.7708 -9.27429,0 -16.78942,5.2694 -16.78942,11.7708 v 10.37046 l -5.59647,0.28007 v 21.30027 l 22.38589,1.12106 22.38589,-1.12106 v -21.30027 z m 1.59872,14.96644 v 2.97063 H 211.019 v -2.97063 c -1.83938,-0.44843 -3.19838,-1.68199 -3.19838,-3.19484 0,-1.85035 2.15836,-3.3632 4.79711,-3.3632 2.63873,0 4.79711,1.51285 4.79711,3.3632 0,1.45699 -1.35902,2.68977 -3.19839,3.19484 z"
               fill="#ffffff"
               fill-rule="evenodd"
               id="path12942"
               style="stroke-width:0.856623" />
          </g>
        </g>
      </g>
    </g>
  </g>
</svg>
