<?xml version="1.0" encoding="UTF-8" standalone="no"?>
<!-- Created with Inkscape (http://www.inkscape.org/) -->

<svg
   width="56.35463mm"
   height="88.792755mm"
   viewBox="0 0 56.35463 88.792755"
   version="1.1"
   id="svg5"
   xmlns="http://www.w3.org/2000/svg"
   xmlns:svg="http://www.w3.org/2000/svg">
  <defs
     id="defs2">
    <clipPath
       id="clip0-08">
      <rect
         x="550"
         y="57"
         width="200"
         height="206"
         id="rect8127" />
    </clipPath>
    <clipPath
       id="clip0-7">
      <path
         d="M 281.677,124.805 401.028,112.344 413.49,231.695 294.138,244.156 Z"
         fill-rule="evenodd"
         clip-rule="evenodd"
         id="path10494" />
    </clipPath>
  </defs>
  <g
     id="layer1"
     transform="translate(-95.94208,-164.68571)">
    <g
       clip-path="url(#clip0-08)"
       transform="matrix(0.56564678,0,0,0.46004413,-252.60136,134.18211)"
       id="g8160"
       style="fill:#002060;fill-opacity:1">
      <path
         d="m 337.51975,130.51676 c 7.456,0 13.5,-5.82 13.5,-13 0,-7.18 -6.044,-13 -13.5,-13 -7.456,0 -13.5,5.82 -13.5,13 0,7.18 6.044,13 13.5,13 z"
         fill-rule="evenodd"
         id="path8132"
         style="fill:#00a338;fill-opacity:1" />
      <path
         d="m 355.13875,160.04276 c 1.134,0.821 2.495,1.265 3.893,1.268 h 18.412 c 3.632,0 6.576,-2.958 6.576,-6.606 0,-3.648 -2.944,-6.605 -6.576,-6.605 h -16.255 l -12.52,-9.222 c -2.735,-3.774 -7.27,-5.79 -11.889,-5.284 -6.806,0.85 -11.878,6.719 -11.758,13.607 v 37.89 c 0,7.296 5.888,13.211 13.152,13.211 h 12.967 v 0 h 15.782 v 33.61 c 0,3.648 2.944,6.605 6.576,6.605 3.631,0 6.576,-2.957 6.576,-6.605 v -40.295 c 0,-3.648 -2.945,-6.605 -6.576,-6.605 h -22.358 v -27.955 z"
         fill-rule="evenodd"
         id="path8136"
         style="fill:#00a338;fill-opacity:1" />
      <path
         d="m 453.75675,167.51676 h -89.474 c -2.907,0 -5.263,2.334 -5.263,5.214 0,2.88 2.356,5.215 5.263,5.215 h 39.474 v 52.143 h -15.79 v 10.428 h 42.106 v -10.428 h -15.79 v -52.143 h 39.474 c 2.907,0 5.263,-2.335 5.263,-5.215 0,-2.88 -2.356,-5.214 -5.263,-5.214 z"
         fill-rule="evenodd"
         id="path8140"
         style="fill:#002060;fill-opacity:1" />
      <path
         d="m 355.81975,203.57276 h -36.4 v -52.778 c 0,-2.915 -2.328,-5.278 -5.2,-5.278 -2.872,0 -5.2,2.363 -5.2,5.278 v 58.055 c 0,2.915 2.328,5.278 5.2,5.278 h 15.6 v 15.833 h -10.4 v 10.556 h 31.2 v -10.556 h -10.4 v -15.833 h 15.6 c 2.872,0 5.2,-2.363 5.2,-5.278 0,-2.915 -2.328,-5.277 -5.2,-5.277 z"
         fill-rule="evenodd"
         id="path8144"
         style="fill:#002060;fill-opacity:1" />
      <path
         d="m 408.01975,127.51676 0.857,3 -0.482,0.551 -2.625,-0.98 c 0,0 0,0 -0.053,-0.061 -0.59,-0.673 -0.59,-1.775 0.053,-2.449 0.643,-0.673 1.607,-0.734 2.25,-0.061 z m -18,-13.469 15.107,17.265 5.893,2.204 -1.929,-6.673 -15.107,-17.327 z"
         fill-rule="evenodd"
         id="path8146"
         style="fill:#002060;fill-opacity:1" />
      <path
         d="m 387.28975,108.36676 c -0.398,0.526 -0.348,1.344 0.1,1.812 l 1.993,2.338 3.637,-4.267 -1.993,-2.338 c 0,0 0,0 0,0 -0.448,-0.527 -1.196,-0.527 -1.594,0 l -2.043,2.396 c -0.05,0 -0.05,0.059 -0.1,0.059 z"
         fill-rule="evenodd"
         id="path8148"
         style="fill:#002060;fill-opacity:1" />
      <path
         d="m 421.01975,116.51676 h -19 l 2.147,2 h 16.853 z"
         fill-rule="evenodd"
         id="path8152"
         style="fill:#002060;fill-opacity:1" />
      <path
         d="m 394.01975,121.07676 v 23.04 c 0,1.32 0.958,2.4 2.129,2.4 h 28.742 c 1.171,0 2.129,-1.08 2.129,-2.4 v -39.6 c 0,-1.32 -0.958,-2.4 -2.129,-2.4 h -9.048 v -1.2 c 0,-1.320002 -0.958,-2.400002 -2.129,-2.400002 h -6.387 c -1.172,0 -2.13,1.08 -2.13,2.400002 v 1.2 h -9.048 c -1.171,0 -2.129,1.08 -2.129,2.4 v 2.64 l 0.585,0.66 0.107,0.12 v 0 l 2.502,2.82 v -5.04 h 5.854 v 3.6 h 14.904 v -3.6 h 5.855 v 37.2 h -26.613 v -18.24 z m 18.097,-18.36 c 0,1.02 -0.692,1.8 -1.597,1.8 -0.905,0 -1.597,-0.78 -1.597,-1.8 0,-1.02 0.692,-1.8 1.597,-1.8 0.426,0 0.852,0.18 1.118,0.54 0.319,0.3 0.479,0.78 0.479,1.26 z"
         fill-rule="evenodd"
         id="path8154"
         style="fill:#002060;fill-opacity:1" />
      <path
         d="m 478.93775,34.516758 h -130.836 c -4.463,0 -8.082,2.4873 -8.082,5.5556 v 30.5555 c 0,3.0683 3.619,5.5556 8.082,5.5556 h 29.805 v 8.3333 l 12.73,-8.3333 h 13.74 l 7.88,8.3333 7.274,-8.3333 h 14.347 l 12.73,8.3333 v -8.3333 h 32.33 c 4.463,0 8.082,-2.4873 8.082,-5.5556 v -30.5555 c 0,-3.0683 -3.619,-5.5556 -8.082,-5.5556 z m -118.712,12.5 h 94.464 v 2.7778 h -94.464 z m 74.258,16.6667 h -74.258 v -2.7778 h 74.258 z m 32.33,-6.9445 h -106.588 v -2.7778 h 106.588 z"
         fill-rule="evenodd"
         id="path8158"
         style="fill:#00a338;fill-opacity:1" />
      <g
         transform="matrix(0.92744818,0,0,1.0606698,334.45933,3.60887)"
         id="g10533">
        <g
           clip-path="url(#clip0-7)"
           id="g10523" />
        <g
           transform="matrix(1.3247006,0,0,1.6000708,47.503133,-125.30847)"
           id="g11944">
          <g
             transform="matrix(0.6393176,0,0,0.59154504,92.088125,-58.878595)"
             id="g12944">
            <g
               transform="matrix(1.2264258,0,0,1.2259057,-941.64292,-310.51635)"
               id="g17602">
              <g
                 transform="matrix(1.1217884,0,0,1.0232904,-105.81011,16.830894)"
                 id="g19106">
                <g
                   id="g19100"
                   transform="matrix(1.4183868,0,0,1.3326528,-374.03779,-205.91206)">
                  <g
                     id="g19098">
                    <g
                       id="g19096">
                      <path
                         d="m 9.5625,23.375 c 0,1.3692 -1.10996,2.4792 -2.47917,2.4792 -1.3692,0 -2.47916,-1.11 -2.47916,-2.4792 0,-1.3692 1.10996,-2.4792 2.47916,-2.4792 1.36921,0 2.47917,1.11 2.47917,2.4792 z"
                         transform="matrix(-1,0,0,1,942,565)"
                         id="path19086" />
                      <path
                         d="m 30.1042,23.375 c 0,1.3692 -1.11,2.4792 -2.4792,2.4792 -1.3692,0 -2.4792,-1.11 -2.4792,-2.4792 0,-1.3692 1.11,-2.4792 2.4792,-2.4792 1.3692,0 2.4792,1.11 2.4792,2.4792 z"
                         transform="matrix(-1,0,0,1,942,565)"
                         id="path19088" />
                      <path
                         d="M 1.41667,8.5 H 21.25 V 17 H 1.41667 Z"
                         transform="matrix(-1,0,0,1,942,565)"
                         id="path19090" />
                      <path
                         d="m 24.0833,12.0417 h 2.125 c 0.6375,0 1.2042,0.425 1.3459,1.0271 l 0.7083,2.4437 c 0,0.0354 0.0354,0.0354 0.0354,0.0708 h -4.2146 z m 2.125,-1.4167 h -3.5416 v 4.9583 2.125 5.6667 h 1.4166 c 0,-1.9479 1.5938,-3.5417 3.5417,-3.5417 1.9479,0 3.5417,1.5938 3.5417,3.5417 0.7791,0 1.4166,-0.6375 1.4166,-1.4167 v -3.5416 c 0,-0.4605 -0.2125,-0.85 -0.5666,-1.1334 l -1.8771,-1.4166 c -0.2479,-0.1771 -0.425,-0.4605 -0.4959,-0.7438 L 28.9354,12.6792 C 28.5812,11.475 27.4479,10.625 26.2083,10.625 Z"
                         transform="matrix(-1,0,0,1,942,565)"
                         id="path19092"
                         style="fill:#00a338;fill-opacity:1" />
                      <path
                         d="M 21.25,23.375 H 10.625 c 0,-1.9479 -1.59375,-3.5417 -3.54167,-3.5417 -1.94791,0 -3.54166,1.5938 -3.54166,3.5417 h -2.125 V 18.4167 H 21.25 Z"
                         transform="matrix(-1,0,0,1,942,565)"
                         id="path19094"
                         style="fill:#00a338;fill-opacity:1" />
                    </g>
                  </g>
                </g>
                <path
                   d="m 940.81102,520.97806 c -3.35874,0 -6.08204,-2.76526 -6.08204,-6.17552 0,-3.41025 2.7233,-6.17551 6.08204,-6.17551 3.36016,0 6.08346,2.76526 6.08346,6.17551 0,3.41026 -2.7233,6.17552 -6.08346,6.17552 z m 0,-20.58416 c -7.83801,0.003 -14.19097,6.45538 -14.18811,14.41398 0,1.79374 0.33188,3.57284 0.97584,5.24399 l 6.44798,14.40864 5.54164,11.80197 c 0.32481,0.68232 1.13329,0.96751 1.8056,0.63701 0.27375,-0.1346 0.49503,-0.35982 0.62694,-0.63701 l 5.54305,-11.80197 6.44799,-14.40864 c 2.85521,-7.41089 -0.74749,-15.76928 -8.04793,-18.6678 -1.6425,-0.65167 -3.38853,-0.9875 -5.153,-0.99017 z"
                   fill-rule="evenodd"
                   id="path19102"
                   style="fill:#00a338;fill-opacity:1;stroke-width:1.37484" />
                <path
                   d="m 979.10321,465.74493 h -78.01128 c -3.91191,0.0107 -7.08059,2.98781 -7.09193,6.66327 v 139.92853 c 0.0114,3.67546 3.18002,6.6526 7.09193,6.66327 h 78.01128 c 3.91191,-0.0107 7.08057,-2.98781 7.09194,-6.66327 V 472.4082 c -0.0114,-3.67546 -3.18003,-6.65261 -7.09194,-6.66327 z m -45.21108,6.66327 h 12.41088 c 1.46945,0 2.65948,1.11942 2.65948,2.49872 0,1.37929 -1.19003,2.49872 -2.65948,2.49872 h -12.41088 c -1.46945,0 -2.65948,-1.11943 -2.65948,-2.49872 0,-1.3793 1.19003,-2.49872 2.65948,-2.49872 z m 45.21108,128.26782 H 901.09193 V 484.06891 h 78.01128 z"
                   fill-rule="evenodd"
                   id="path19104"
                   style="stroke-width:1.37484" />
              </g>
            </g>
          </g>
        </g>
      </g>
    </g>
  </g>
</svg>
