<?xml version="1.0" encoding="UTF-8" standalone="no"?>
<!-- Created with Inkscape (http://www.inkscape.org/) -->

<svg
   width="110.13736mm"
   height="78.564911mm"
   viewBox="0 0 110.13736 78.564911"
   version="1.1"
   id="svg5"
   xmlns="http://www.w3.org/2000/svg"
   xmlns:svg="http://www.w3.org/2000/svg">
  <defs
     id="defs2">
    <clipPath
       id="clip0-08">
      <rect
         x="550"
         y="57"
         width="200"
         height="206"
         id="rect8127" />
    </clipPath>
    <clipPath
       id="clip0-7">
      <path
         d="M 281.677,124.805 401.028,112.344 413.49,231.695 294.138,244.156 Z"
         fill-rule="evenodd"
         clip-rule="evenodd"
         id="path10494" />
    </clipPath>
  </defs>
  <g
     id="layer1"
     transform="translate(-60.956014,-170.1726)">
    <g
       clip-path="url(#clip0-08)"
       transform="matrix(0.56564678,0,0,0.46004413,-252.60136,134.18211)"
       id="g8160"
       style="fill:#002060;fill-opacity:1">
      <path
         d="m 337.51975,130.51676 c 7.456,0 13.5,-5.82 13.5,-13 0,-7.18 -6.044,-13 -13.5,-13 -7.456,0 -13.5,5.82 -13.5,13 0,7.18 6.044,13 13.5,13 z"
         fill-rule="evenodd"
         id="path8132"
         style="fill:#00a338;fill-opacity:1" />
      <path
         d="m 355.13875,160.04276 c 1.134,0.821 2.495,1.265 3.893,1.268 h 18.412 c 3.632,0 6.576,-2.958 6.576,-6.606 0,-3.648 -2.944,-6.605 -6.576,-6.605 h -16.255 l -12.52,-9.222 c -2.735,-3.774 -7.27,-5.79 -11.889,-5.284 -6.806,0.85 -11.878,6.719 -11.758,13.607 v 37.89 c 0,7.296 5.888,13.211 13.152,13.211 h 12.967 v 0 h 15.782 v 33.61 c 0,3.648 2.944,6.605 6.576,6.605 3.631,0 6.576,-2.957 6.576,-6.605 v -40.295 c 0,-3.648 -2.945,-6.605 -6.576,-6.605 h -22.358 v -27.955 z"
         fill-rule="evenodd"
         id="path8136"
         style="fill:#00a338;fill-opacity:1" />
      <path
         d="m 453.75675,167.51676 h -89.474 c -2.907,0 -5.263,2.334 -5.263,5.214 0,2.88 2.356,5.215 5.263,5.215 h 39.474 v 52.143 h -15.79 v 10.428 h 42.106 v -10.428 h -15.79 v -52.143 h 39.474 c 2.907,0 5.263,-2.335 5.263,-5.215 0,-2.88 -2.356,-5.214 -5.263,-5.214 z"
         fill-rule="evenodd"
         id="path8140"
         style="fill:#002060;fill-opacity:1" />
      <path
         d="m 355.81975,203.57276 h -36.4 v -52.778 c 0,-2.915 -2.328,-5.278 -5.2,-5.278 -2.872,0 -5.2,2.363 -5.2,5.278 v 58.055 c 0,2.915 2.328,5.278 5.2,5.278 h 15.6 v 15.833 h -10.4 v 10.556 h 31.2 v -10.556 h -10.4 v -15.833 h 15.6 c 2.872,0 5.2,-2.363 5.2,-5.278 0,-2.915 -2.328,-5.277 -5.2,-5.277 z"
         fill-rule="evenodd"
         id="path8144"
         style="fill:#002060;fill-opacity:1" />
      <path
         d="m 408.01975,127.51676 0.857,3 -0.482,0.551 -2.625,-0.98 c 0,0 0,0 -0.053,-0.061 -0.59,-0.673 -0.59,-1.775 0.053,-2.449 0.643,-0.673 1.607,-0.734 2.25,-0.061 z m -18,-13.469 15.107,17.265 5.893,2.204 -1.929,-6.673 -15.107,-17.327 z"
         fill-rule="evenodd"
         id="path8146"
         style="fill:#002060;fill-opacity:1" />
      <path
         d="m 387.28975,108.36676 c -0.398,0.526 -0.348,1.344 0.1,1.812 l 1.993,2.338 3.637,-4.267 -1.993,-2.338 c 0,0 0,0 0,0 -0.448,-0.527 -1.196,-0.527 -1.594,0 l -2.043,2.396 c -0.05,0 -0.05,0.059 -0.1,0.059 z"
         fill-rule="evenodd"
         id="path8148"
         style="fill:#002060;fill-opacity:1" />
      <path
         d="m 421.01975,116.51676 h -19 l 2.147,2 h 16.853 z"
         fill-rule="evenodd"
         id="path8152"
         style="fill:#002060;fill-opacity:1" />
      <path
         d="m 394.01975,121.07676 v 23.04 c 0,1.32 0.958,2.4 2.129,2.4 h 28.742 c 1.171,0 2.129,-1.08 2.129,-2.4 v -39.6 c 0,-1.32 -0.958,-2.4 -2.129,-2.4 h -9.048 v -1.2 c 0,-1.320002 -0.958,-2.400002 -2.129,-2.400002 h -6.387 c -1.172,0 -2.13,1.08 -2.13,2.400002 v 1.2 h -9.048 c -1.171,0 -2.129,1.08 -2.129,2.4 v 2.64 l 0.585,0.66 0.107,0.12 v 0 l 2.502,2.82 v -5.04 h 5.854 v 3.6 h 14.904 v -3.6 h 5.855 v 37.2 h -26.613 v -18.24 z m 18.097,-18.36 c 0,1.02 -0.692,1.8 -1.597,1.8 -0.905,0 -1.597,-0.78 -1.597,-1.8 0,-1.02 0.692,-1.8 1.597,-1.8 0.426,0 0.852,0.18 1.118,0.54 0.319,0.3 0.479,0.78 0.479,1.26 z"
         fill-rule="evenodd"
         id="path8154"
         style="fill:#002060;fill-opacity:1" />
      <path
         d="m 478.93775,34.516758 h -130.836 c -4.463,0 -8.082,2.4873 -8.082,5.5556 v 30.5555 c 0,3.0683 3.619,5.5556 8.082,5.5556 h 29.805 v 8.3333 l 12.73,-8.3333 h 13.74 l 7.88,8.3333 7.274,-8.3333 h 14.347 l 12.73,8.3333 v -8.3333 h 32.33 c 4.463,0 8.082,-2.4873 8.082,-5.5556 v -30.5555 c 0,-3.0683 -3.619,-5.5556 -8.082,-5.5556 z m -118.712,12.5 h 94.464 v 2.7778 h -94.464 z m 74.258,16.6667 h -74.258 v -2.7778 h 74.258 z m 32.33,-6.9445 h -106.588 v -2.7778 h 106.588 z"
         fill-rule="evenodd"
         id="path8158"
         style="fill:#00a338;fill-opacity:1" />
      <g
         transform="matrix(0.92744818,0,0,1.0606698,334.45933,3.60887)"
         id="g10533">
        <g
           clip-path="url(#clip0-7)"
           id="g10523" />
        <g
           transform="matrix(1.3247006,0,0,1.6000708,47.503133,-125.30847)"
           id="g11944">
          <g
             transform="matrix(0.6393176,0,0,0.59154504,92.088125,-58.878595)"
             id="g12944">
            <g
               transform="matrix(1.2264258,0,0,1.2259057,-941.64292,-310.51635)"
               id="g17602">
              <g
                 transform="matrix(1.1217884,0,0,1.0232904,-105.81011,16.830894)"
                 id="g19106">
                <g
                   transform="matrix(1.0365514,0,0,1.2224259,744.50828,-486.31006)"
                   id="g19781">
                  <path
                     d="m 238.287,847.794 c -0.618,0 -1.443,0 -2.062,0 0,0 0,0 0,0 0,-10.106 -4.95,-19.388 -12.994,-25.163 -8.25,-5.775 -18.769,-7.219 -28.256,-3.918 -7.837,-15.263 -25.163,-23.101 -41.663,-19.182 -16.5,3.919 -28.462,18.769 -28.462,35.888 0,0 0,0.206 0,0.412 -11.344,-1.856 -22.688,2.888 -29.7,11.963 -6.8062,9.281 -8.0438,21.45 -3.3,31.762 4.95,10.313 15.263,17.119 26.606,17.738 v 0.206 h 119.625 c 13.613,0 24.75,-11.138 24.75,-24.75 0,-13.612 -10.931,-24.956 -24.544,-24.956 z"
                     id="path19773" />
                  <text
                     fill="#ffffff"
                     font-family="'Cabin SemiBold', 'Cabin SemiBold_MSFontService', sans-serif"
                     font-weight="600"
                     font-size="37px"
                     transform="translate(145.083,871)"
                     id="text19775">CO</text>
                  <text
                     fill="#ffffff"
                     font-family="'Cabin SemiBold', 'Cabin SemiBold_MSFontService', sans-serif"
                     font-weight="600"
                     font-size="24px"
                     transform="translate(195.5,879)"
                     id="text19777">2</text>
                  <path
                     d="m 249.9969,825.79018 -13.77117,-15.50888 -9.61376,3.46191 -11.381,-12.81717 -9.61376,3.46189 -15.81951,-17.8165 -6.72929,2.42405 20.59883,23.19909 9.61375,-3.4619 11.38101,12.81716 9.61376,-3.46189 8.99084,10.12544 -9.45331,3.40475 21.92279,5.63734 3.71421,-14.86909 z"
                     fill-rule="evenodd"
                     id="path19779"
                     style="fill:#00a338;fill-opacity:1;stroke-width:0.937553" />
                </g>
              </g>
            </g>
          </g>
        </g>
      </g>
    </g>
  </g>
</svg>
