<svg id="Capa_1" data-name="Capa 1" xmlns="http://www.w3.org/2000/svg" xmlns:xlink="http://www.w3.org/1999/xlink" viewBox="0 0 2283 1040"><defs><style>.cls-1{fill:none;}.cls-2{fill:#badce8;}.cls-3{fill:#00a338;}.cls-4{fill:#fff;}.cls-5{fill:#002060;}.cls-6{fill:#f26674;}.cls-7{fill:#c4455e;}.cls-8{fill:#b3b3b3;}.cls-9{fill:#898989;}.cls-10{clip-path:url(#clip-path);}.cls-11{clip-path:url(#clip-path-2);}.cls-12{fill:#ccc;}.cls-13{fill:#1a1a1a;}.cls-14{fill:#afafaf;}.cls-15{fill:#f23652;}</style><clipPath id="clip-path"><path class="cls-1" d="M1691.27,811.43H1616.9l-12.09,11.45L1580.1,933.23c-2.29,9.29-.16,25.94,8.9,25.94h93.68Z"/></clipPath><clipPath id="clip-path-2"><path id="SVGID" class="cls-2" d="M1579.76,881.08h77.71c6.47,0,11.71-4.51,11.71-10.08V839.66c0-5.56-5.24-10.07-11.71-10.07h-56.88a9.38,9.38,0,0,0-8.15,4.33l-20.83,35.82C1568.58,875,1573,881.08,1579.76,881.08Z"/></clipPath></defs><path class="cls-3" d="M409.06,412.54c72.19-.27,132.83,58.68,132.35,132.94-.23,36.21-13.22,67.47-38.86,93-26.28,26.21-58.38,39.15-95.52,38.74-72.24-.79-131-60-130.62-133.17S336.69,412.17,409.06,412.54ZM379.48,567.71c-.41-.36-.7-.59-1-.85l-9.13-8.79q-9.66-9.33-19.33-18.65a6.6,6.6,0,0,0-1.57-1.24,18.64,18.64,0,0,0-11.2-1.73c-8,1.19-15.29,8.44-16,16.57a13.19,13.19,0,0,0,3.88,11.07c4.64,4.5,9.38,8.89,14.08,13.33q12.53,11.82,25.06,23.65a39.3,39.3,0,0,0,8.32,6.17,15.64,15.64,0,0,0,15.83,0,38.13,38.13,0,0,0,8.94-6.81c4.62-4.58,9.16-9.23,13.75-13.85L447.54,550Q466.77,530.7,486,511.42a21.55,21.55,0,0,0,4.33-6.19,18.14,18.14,0,0,0,1.82-10.93,16.26,16.26,0,0,0-19.1-13.16,19.49,19.49,0,0,0-10.24,5.44L439.56,509.2l-57.44,56Z"/><path class="cls-4" d="M379.48,567.71l2.64-2.55,57.44-56,23.25-22.62a19.49,19.49,0,0,1,10.24-5.44,16.26,16.26,0,0,1,19.1,13.16,18.14,18.14,0,0,1-1.82,10.93,21.55,21.55,0,0,1-4.33,6.19Q466.74,530.68,447.54,550l-36.36,36.55c-4.59,4.62-9.13,9.27-13.75,13.85a38.13,38.13,0,0,1-8.94,6.81,15.64,15.64,0,0,1-15.83,0,39.3,39.3,0,0,1-8.32-6.17q-12.55-11.8-25.06-23.65c-4.7-4.44-9.44-8.83-14.08-13.33A13.19,13.19,0,0,1,321.32,553c.67-8.13,7.93-15.38,16-16.57a18.64,18.64,0,0,1,11.2,1.73,6.6,6.6,0,0,1,1.57,1.24q9.68,9.32,19.33,18.65l9.13,8.79C378.78,567.12,379.07,567.35,379.48,567.71Z"/><rect class="cls-3" x="1495.73" y="437.53" width="600.74" height="27.83" rx="3.29"/><rect class="cls-3" x="1495.73" y="373.36" width="600.74" height="27.83" rx="3.29"/><rect class="cls-3" x="1496.17" y="567.71" width="600.74" height="27.83" rx="3.29"/><rect class="cls-3" x="1495.74" y="505.37" width="600.74" height="27.83" rx="3.29"/><rect class="cls-5" x="1495.36" y="193.36" width="602.64" height="124.92"/><path class="cls-4" d="M1630.82,282V223h-20V212h51.65v11h-20v59Z"/><path class="cls-4" d="M1680.77,283q-7.05,0-11.5-2.82a16.45,16.45,0,0,1-6.53-8,33.15,33.15,0,0,1-2.07-12.33v-27.5h11.15v26.6q0,7.26,2.47,10.88c1.65,2.42,4.31,3.62,8,3.62a12.88,12.88,0,0,0,7.25-2,13.11,13.11,0,0,0,4.75-5.85l-1.9,5.75v-39h11.15V282h-10.25l-1-9,2.6,2.85a15.87,15.87,0,0,1-5.8,5.15A16.88,16.88,0,0,1,1680.77,283Z"/><path class="cls-4" d="M1760.82,283q-8.5,0-14.25-3.47a22.51,22.51,0,0,1-8.68-9.3,28.29,28.29,0,0,1-2.92-12.88,29.48,29.48,0,0,1,2.87-13.1,22.13,22.13,0,0,1,8.73-9.4q5.85-3.5,14.75-3.5a30.26,30.26,0,0,1,7.5.88,26.14,26.14,0,0,1,5.9,2.22l-1.15,9.25a27.59,27.59,0,0,0-5.4-2,24,24,0,0,0-6.15-.78q-7.5,0-11.58,4.43t-4.07,11.87a17.31,17.31,0,0,0,4.05,11.8q4,4.65,11.45,4.65a21.82,21.82,0,0,0,6.1-.85,28.08,28.08,0,0,0,5.7-2.35l1.15,9.3a25.36,25.36,0,0,1-6.13,2.3A31.43,31.43,0,0,1,1760.82,283Z"/><path class="cls-4" d="M1794.37,283a15.69,15.69,0,0,1-7.55-1.8,13.22,13.22,0,0,1-5.28-5.1,15.24,15.24,0,0,1-1.92-7.8,13.19,13.19,0,0,1,1.92-7.22,16.12,16.12,0,0,1,5.1-5,29.31,29.31,0,0,1,6.95-3.17,49.9,49.9,0,0,1,7.6-1.73,58.27,58.27,0,0,1,7-.6q-.15-5.3-2.43-7.32t-7.17-2a22.84,22.84,0,0,0-6.3.9,33.91,33.91,0,0,0-7.15,3.15l-1.15-9.1a38.13,38.13,0,0,1,8.42-3.42,34.44,34.44,0,0,1,9.18-1.23,21.22,21.22,0,0,1,9.8,2,13.12,13.12,0,0,1,6,6.75q2,4.71,2,12.55V265a32.11,32.11,0,0,0,.35,5.55,3.8,3.8,0,0,0,1.37,2.6,5.58,5.58,0,0,0,3.13.7h1.35l-1.2,9.1h-3.1a17.76,17.76,0,0,1-5.65-.77,9.6,9.6,0,0,1-3.68-2.18,12.68,12.68,0,0,1-2.42-3.35,17.75,17.75,0,0,1-6.58,4.6A21.67,21.67,0,0,1,1794.37,283Zm3.9-8.65a12.93,12.93,0,0,0,5.15-1.22,13.85,13.85,0,0,0,4.8-3.48v-11.5a36.2,36.2,0,0,0-8.65,1.23,14.5,14.5,0,0,0-6.08,3.15,6.89,6.89,0,0,0-2.22,5.27,6.33,6.33,0,0,0,1.77,4.95A7.56,7.56,0,0,0,1798.27,274.31Z"/><path class="cls-4" d="M1832.46,282V232.31h10.1l.55,6.35a26.26,26.26,0,0,1,6.05-5.2,13.88,13.88,0,0,1,7.45-2.15,10.07,10.07,0,0,1,2.25.25l-.9,11.35a11.26,11.26,0,0,0-1.9-.32c-.63-.05-1.28-.08-2-.08a12.92,12.92,0,0,0-6.25,1.55,9.83,9.83,0,0,0-4,3.6V282Z"/><path class="cls-4" d="M1884.17,307.11a39,39,0,0,1-12.13-1.7,18.53,18.53,0,0,1-8.17-4.92,11.75,11.75,0,0,1-.81-14.55,16.91,16.91,0,0,1,6.11-4.93,10.14,10.14,0,0,1-3.33-2.92,6.51,6.51,0,0,1-1.22-3.88,6.64,6.64,0,0,1,1.37-4.15,9.6,9.6,0,0,1,3.93-2.9,17.16,17.16,0,0,1-6-6.9,21.31,21.31,0,0,1-2-9.35,20.55,20.55,0,0,1,2.37-9.8,18,18,0,0,1,6.9-7.12,23.52,23.52,0,0,1,17.35-1.78,18.54,18.54,0,0,1,5.27,2.55,18.06,18.06,0,0,1,4.73-1.77,27.32,27.32,0,0,1,6.52-.73h2.36l-1,7.15h-3.7l-1.57.05a18.55,18.55,0,0,0-2.23.25,17.37,17.37,0,0,1,2.58,5.25,20.66,20.66,0,0,1,.88,5.95,21.09,21.09,0,0,1-2.36,10,17.74,17.74,0,0,1-6.87,7.15,21.27,21.27,0,0,1-11,2.67,20.38,20.38,0,0,1-3-.2,24.63,24.63,0,0,1-2.82-.55,2,2,0,0,0-1.5,2,2.25,2.25,0,0,0,1.5,2,17.06,17.06,0,0,0,4.79,1.25l10.25,1.5q8,1.11,12.48,4.55t4.48,9.8a13.24,13.24,0,0,1-2.91,8.6,18.29,18.29,0,0,1-8.34,5.55A38.72,38.72,0,0,1,1884.17,307.11Zm.59-8.9q6.56,0,10-1.65t3.41-4.9a4.66,4.66,0,0,0-2.28-4.22,20.11,20.11,0,0,0-7-2.23l-12-1.85a13.1,13.1,0,0,0-4.34,2.85,6.07,6.07,0,0,0-1.8,4.5,6,6,0,0,0,3.8,5.68Q1878.22,298.21,1884.76,298.21Zm-2.55-35.95q4.9,0,7.43-3.1a12.59,12.59,0,0,0,2.53-8.2,12.33,12.33,0,0,0-2.53-8.07q-2.52-3.07-7.43-3.08c-3.29,0-5.79,1-7.47,3.08a12.33,12.33,0,0,0-2.53,8.07,12.59,12.59,0,0,0,2.53,8.2C1876.42,261.23,1878.92,262.26,1882.21,262.26Z"/><path class="cls-4" d="M1925.42,283a15.69,15.69,0,0,1-7.55-1.8,13.22,13.22,0,0,1-5.28-5.1,15.24,15.24,0,0,1-1.92-7.8,13.19,13.19,0,0,1,1.92-7.22,16.12,16.12,0,0,1,5.1-5,29.31,29.31,0,0,1,7-3.17,49.9,49.9,0,0,1,7.6-1.73,58.29,58.29,0,0,1,7-.6q-.14-5.3-2.42-7.32t-7.17-2a22.91,22.91,0,0,0-6.31.9,33.86,33.86,0,0,0-7.14,3.15l-1.16-9.1a38.4,38.4,0,0,1,8.43-3.42,34.44,34.44,0,0,1,9.18-1.23,21.25,21.25,0,0,1,9.8,2,13.12,13.12,0,0,1,6,6.75q2,4.71,2,12.55V265a33.38,33.38,0,0,0,.34,5.55,3.84,3.84,0,0,0,1.38,2.6,5.56,5.56,0,0,0,3.12.7h1.36l-1.2,9.1h-3.11a17.73,17.73,0,0,1-5.64-.77A9.6,9.6,0,0,1,1943,280a12.94,12.94,0,0,1-2.43-3.35,17.63,17.63,0,0,1-6.57,4.6A21.67,21.67,0,0,1,1925.42,283Zm3.89-8.65a12.85,12.85,0,0,0,5.15-1.22,13.67,13.67,0,0,0,4.8-3.48v-11.5a36.11,36.11,0,0,0-8.64,1.23,14.5,14.5,0,0,0-6.08,3.15,6.9,6.9,0,0,0-2.23,5.27,6.34,6.34,0,0,0,1.78,4.95A7.53,7.53,0,0,0,1929.31,274.31Z"/><g id="camion2"><rect class="cls-6" x="1708.65" y="697.6" width="375.42" height="200.39" transform="translate(3792.72 1595.59) rotate(180)"/><g id="camion2-2" data-name="camion2"><rect class="cls-7" x="2010.97" y="728.11" width="23.11" height="123.45" transform="translate(4045.05 1579.68) rotate(180)"/><rect class="cls-7" x="1960.8" y="728.11" width="23.11" height="123.45" transform="translate(3944.71 1579.68) rotate(-180)"/><rect class="cls-7" x="1910.63" y="727.55" width="23.11" height="123.45" transform="translate(3844.37 1578.55) rotate(-180)"/><rect class="cls-7" x="1861.02" y="727.55" width="23.11" height="123.45" transform="translate(3745.16 1578.55) rotate(-180)"/><rect class="cls-7" x="1810.29" y="727.55" width="23.11" height="123.45" transform="translate(3643.69 1578.55) rotate(-180)"/><rect class="cls-7" x="1760.12" y="726.99" width="23.11" height="123.45" transform="translate(3543.36 1577.42) rotate(-180)"/></g></g><rect class="cls-8" x="1683.95" y="826.28" width="20.3" height="80.23" rx="3" transform="translate(3388.2 1732.79) rotate(180)"/><path class="cls-8" d="M1707.1,961.89c9.91,1.75,323.85.26,370.69,0,3.22,0,5.82-3.4,5.82-7.58V942.07c0-3-1.87-5.41-4.18-5.41h-385.6S1693.32,961.89,1707.1,961.89Z"/><path class="cls-9" d="M1707.44,962.33c10.69.49,375.66,0,375.66,0v-6.54H1694.21S1693.7,962.33,1707.44,962.33Z"/><g class="cls-10"><path class="cls-5" d="M1691.27,811.81H1616.9l-12.09,11.43L1580.1,933.35c-2.29,9.28-.16,25.89,8.9,25.89h93.68Z"/><path id="SVGID-2" data-name="SVGID" class="cls-2" d="M1579.76,881.08h77.71c6.47,0,11.71-4.51,11.71-10.08V839.66c0-5.56-5.24-10.07-11.71-10.07h-56.88a9.38,9.38,0,0,0-8.15,4.33l-20.83,35.82C1568.58,875,1573,881.08,1579.76,881.08Z"/><g class="cls-11"><path class="cls-2" d="M1580.41,881.64h77.71c6.47,0,11.72-4.51,11.72-10.08V840.22c0-5.56-5.25-10.07-11.72-10.07h-56.87a9.39,9.39,0,0,0-8.16,4.33l-20.83,35.82C1569.23,875.51,1573.63,881.64,1580.41,881.64Z"/></g></g><rect class="cls-12" x="1708.21" y="898.62" width="375.84" height="38.04" transform="translate(3792.26 1835.28) rotate(180)"/><path class="cls-5" d="M1623.87,876h139.22a0,0,0,0,1,0,0v18.82a0,0,0,0,1,0,0H1615.87a0,0,0,0,1,0,0V884A8,8,0,0,1,1623.87,876Z" transform="translate(2574.9 -804.06) rotate(90)"/><circle class="cls-13" cx="2006.06" cy="958.49" r="42.37"/><ellipse class="cls-14" cx="2006.06" cy="958.49" rx="18.97" ry="18.8" transform="translate(534.92 2625.44) rotate(-74.11)"/><rect class="cls-5" x="1584.93" y="811.81" width="95.14" height="12.03" rx="4" transform="translate(3265 1635.66) rotate(180)"/><circle class="cls-13" cx="1643.25" cy="958.76" r="42.37"/><ellipse class="cls-14" cx="1643.25" cy="958.76" rx="18.97" ry="18.8" transform="matrix(0.27, -0.96, 0.96, 0.27, 271.19, 2276.69)"/><circle class="cls-13" cx="1914.63" cy="958.93" r="42.37"/><ellipse class="cls-14" cx="1914.63" cy="958.93" rx="18.97" ry="18.8" transform="translate(468.1 2537.83) rotate(-74.11)"/><path class="cls-5" d="M178.73,264.66V266a24.48,24.48,0,0,1-1.5,8.94,26.76,26.76,0,0,1-4,6.91,68,68,0,0,1-5.27,5.89,100.85,100.85,0,0,0-7.76,8.55,13.74,13.74,0,0,0-2.85,8.74,9.71,9.71,0,0,0,1.44,5.38,9.15,9.15,0,0,0,4.06,3.4A14.85,14.85,0,0,0,169,315a32.78,32.78,0,0,0,9.82-1.41,67.26,67.26,0,0,0,9-3.57l1.84,15.46a62.59,62.59,0,0,1-10.84,4.06,52.61,52.61,0,0,1-13.79,1.57,30,30,0,0,1-14-3,22,22,0,0,1-9-8.25A22.79,22.79,0,0,1,139,307.89a21.92,21.92,0,0,1,1.57-8.42A30.92,30.92,0,0,1,145,292.1a82.91,82.91,0,0,1,6.51-7.27,66.34,66.34,0,0,0,7.05-8.22,16.42,16.42,0,0,0,3-9.86v-2.09Zm0-27.12v17.82h-17V237.54Z"/><path class="cls-5" d="M227.73,304.87a63.57,63.57,0,0,1-11.47-1.08,96.93,96.93,0,0,1-10.93-2.62,55.49,55.49,0,0,1-8-3l2-17.81q4.57,2.22,9.56,4.12a73.38,73.38,0,0,0,10.22,3.08,47.93,47.93,0,0,0,10.61,1.18q6.67,0,10.74-2.62t4.06-8a9.5,9.5,0,0,0-2.29-6.65,19.79,19.79,0,0,0-7-4.52q-4.71-2-12.05-4.55a83.27,83.27,0,0,1-13.16-5.8,26.58,26.58,0,0,1-9.24-8.22q-3.41-5-3.41-12.7a23.91,23.91,0,0,1,14.91-22.83q7.42-3.37,18.5-3.37a67,67,0,0,1,16,1.86,98.16,98.16,0,0,1,13,4L258,232.56a96.24,96.24,0,0,0-14.51-5.27,53.54,53.54,0,0,0-13.79-1.8q-7.33,0-11.33,2.42a8,8,0,0,0-4,7.27,8.7,8.7,0,0,0,2.23,6.22,17.68,17.68,0,0,0,6.35,4c2.76,1.12,6.05,2.28,9.89,3.51a91,91,0,0,1,16.74,6.91,27.88,27.88,0,0,1,10.22,9.1,23.92,23.92,0,0,1,3.44,13.2A33,33,0,0,1,262,286.7a21.67,21.67,0,0,1-4.91,8.74q-3.67,4.13-10.71,6.78T227.73,304.87Z"/><path class="cls-5" d="M304.36,304.35q-10.68,0-18.21-4.65a30.88,30.88,0,0,1-11.49-12.38,36.37,36.37,0,0,1-4-16.9,36.94,36.94,0,0,1,4-17,31,31,0,0,1,11.49-12.48q7.53-4.68,18.21-4.68t18.21,4.68a31,31,0,0,1,11.49,12.48,36.94,36.94,0,0,1,4,17,36.37,36.37,0,0,1-4,16.9,30.88,30.88,0,0,1-11.49,12.38Q315,304.35,304.36,304.35Zm0-13.36q8.19,0,12.61-5.73t4.42-14.84q0-9.24-4.42-15t-12.61-5.8q-8.13,0-12.58,5.8t-4.45,15q0,9.1,4.45,14.84T304.36,291Z"/><path class="cls-5" d="M366.06,304.35a17.65,17.65,0,0,1-9.53-2.33,14,14,0,0,1-5.47-6.22,20.59,20.59,0,0,1-1.77-8.61v-82.4h16.25v75.72a30.41,30.41,0,0,0,.62,7.43,3.3,3.3,0,0,0,2.32,2.62,21.17,21.17,0,0,0,4.92.43L372,304.35Z"/><path class="cls-5" d="M383.74,227.58V211.34H400v16.24Zm0,75.46v-65.5H400V303Z"/><path class="cls-5" d="M445.57,304.35q-11.26,0-18.89-4.62a30.06,30.06,0,0,1-11.53-12.31,37.07,37.07,0,0,1-3.9-17,37.88,37.88,0,0,1,3.87-17.13,29.75,29.75,0,0,1,11.59-12.41q7.73-4.65,19.39-4.65a37.83,37.83,0,0,1,9.95,1.21,33.55,33.55,0,0,1,7.6,3l-1.31,13.1a34.81,34.81,0,0,0-6.78-2.62,29.24,29.24,0,0,0-7.89-1.05q-9.44,0-14.61,5.7t-5.17,14.87a21.17,21.17,0,0,0,5.3,14.64Q438.5,291,447.54,291a25.91,25.91,0,0,0,7.63-1.15,35.24,35.24,0,0,0,7.3-3.17l1.44,13.75a34,34,0,0,1-8.22,2.85A46.1,46.1,0,0,1,445.57,304.35Z"/><path class="cls-5" d="M474.78,227.58V211.34H491v16.24Zm0,75.46v-65.5H491V303Z"/><path class="cls-5" d="M527.58,304.35a18.08,18.08,0,0,1-10-2.52,15.39,15.39,0,0,1-5.69-6.45,19,19,0,0,1-1.84-8.19V250.9h-9.3l1.44-13.36H510V223.13l16.25-1.7v16.11h14.41V250.9H526.27v29.61a30.28,30.28,0,0,0,.59,7.17,3.59,3.59,0,0,0,2.68,2.75,28.71,28.71,0,0,0,6.68.56h4.46l-1.44,13.36Z"/><path class="cls-5" d="M565.43,304.35a19.86,19.86,0,0,1-9.56-2.33,17.33,17.33,0,0,1-6.88-6.71,20.76,20.76,0,0,1-2.55-10.61,17,17,0,0,1,2.59-9.53,21.88,21.88,0,0,1,6.81-6.62,39.4,39.4,0,0,1,9.17-4.19,66.22,66.22,0,0,1,9.76-2.26,77.22,77.22,0,0,1,8.48-.85c-.17-3.75-1.14-6.48-2.88-8.19s-4.72-2.55-8.91-2.55a30.35,30.35,0,0,0-8.55,1.21,60.43,60.43,0,0,0-9.4,3.77l-1.44-13.23a57.58,57.58,0,0,1,11.83-4.33,50.65,50.65,0,0,1,12-1.44,28.41,28.41,0,0,1,12.65,2.62,17.94,17.94,0,0,1,8.18,8.42q2.88,5.79,2.89,15.29v17.69a39.4,39.4,0,0,0,.45,7.1,3.66,3.66,0,0,0,1.71,2.79,8.72,8.72,0,0,0,3.6.59h2.1L606,304.35h-5.89a20.67,20.67,0,0,1-6.52-1,14.86,14.86,0,0,1-4.88-2.65,13.82,13.82,0,0,1-3.27-4,21,21,0,0,1-8.68,5.6A33,33,0,0,1,565.43,304.35Zm6.82-12.44a16.74,16.74,0,0,0,5.37-1.15,16.08,16.08,0,0,0,5.76-3.57V272.25a40.1,40.1,0,0,0-9.17,1.51,20.7,20.7,0,0,0-7.66,3.87,8,8,0,0,0-3.08,6.41q0,4,2.1,5.93T572.25,291.91Z"/><path class="cls-5" d="M616.52,303v-65.5h15.2l.39,6.94a31.66,31.66,0,0,1,7-5.5,18.69,18.69,0,0,1,9.89-2.75,15,15,0,0,1,2.88.26l-1.18,16a17.12,17.12,0,0,0-2.85-.52c-.94-.09-1.86-.13-2.78-.13a15.15,15.15,0,0,0-7.53,1.9,11.19,11.19,0,0,0-4.78,4.65V303Z"/><path class="cls-5" d="M719,304.35q-10.68,0-18.21-4.65a30.88,30.88,0,0,1-11.49-12.38,36.5,36.5,0,0,1-4-16.9,37.06,37.06,0,0,1,4-17,31,31,0,0,1,11.49-12.48q7.53-4.68,18.21-4.68t18.21,4.68a31.11,31.11,0,0,1,11.5,12.48,37.05,37.05,0,0,1,4,17,36.49,36.49,0,0,1-4,16.9,31,31,0,0,1-11.5,12.38Q729.64,304.35,719,304.35ZM719,291q8.19,0,12.61-5.73T736,270.42q0-9.24-4.42-15T719,249.59q-8.12,0-12.57,5.8t-4.46,15q0,9.1,4.46,14.84T719,291Z"/><path class="cls-5" d="M767,303V250.9h-9.3l1.44-13.36H767V223.65q0-8.64,5.14-13.75T787,204.79a47.16,47.16,0,0,1,5.8.33,43.24,43.24,0,0,1,4.81.85l-1.44,13.1a12.23,12.23,0,0,0-2.16-.49,21.82,21.82,0,0,0-3-.17,8.08,8.08,0,0,0-5.63,1.9c-1.4,1.27-2.1,3.34-2.1,6.23v11h14.41V250.9H783.28V303Z"/><path class="cls-5" d="M837.91,304.35q-11.86,0-19.75-4.75A30.44,30.44,0,0,1,806.34,287a39.13,39.13,0,0,1-.23-33.7A29.89,29.89,0,0,1,817,241.11q7.14-4.62,17.42-4.62,9.43,0,15.72,3.87a24.46,24.46,0,0,1,9.43,10.31,32,32,0,0,1,3.15,14.25,37.6,37.6,0,0,1-.26,4.35c-.18,1.47-.44,3-.79,4.56H819.31a20.91,20.91,0,0,0,3.83,9.85,17.33,17.33,0,0,0,7.14,5.54,23.21,23.21,0,0,0,9.07,1.77A36.47,36.47,0,0,0,850,289.51a41.09,41.09,0,0,0,9-3.89l.79,13.75a45.67,45.67,0,0,1-9.3,3.47A48,48,0,0,1,837.91,304.35ZM819.7,262.82h26.46a16.84,16.84,0,0,0-1.11-5.92,11.37,11.37,0,0,0-3.7-5,11,11,0,0,0-7-2q-6.29,0-9.89,3.67A18.35,18.35,0,0,0,819.7,262.82Z"/><path class="cls-5" d="M873.8,303v-65.5H889l.39,6.94a31.66,31.66,0,0,1,7-5.5,18.69,18.69,0,0,1,9.89-2.75,15,15,0,0,1,2.88.26l-1.18,16a17.12,17.12,0,0,0-2.85-.52c-.93-.09-1.86-.13-2.78-.13a15.15,15.15,0,0,0-7.53,1.9,11.19,11.19,0,0,0-4.78,4.65V303Z"/><path class="cls-5" d="M938.38,304.35a18.07,18.07,0,0,1-10-2.52,15.39,15.39,0,0,1-5.69-6.45,19,19,0,0,1-1.84-8.19V250.9h-9.3L913,237.54h7.86V223.13l16.24-1.7v16.11h14.41V250.9H937.07v29.61a30.84,30.84,0,0,0,.59,7.17,3.62,3.62,0,0,0,2.69,2.75A28.65,28.65,0,0,0,947,291h4.45L950,304.35Z"/><path class="cls-5" d="M976.24,304.35a19.86,19.86,0,0,1-9.56-2.33,17.33,17.33,0,0,1-6.88-6.71,20.76,20.76,0,0,1-2.55-10.61,17.08,17.08,0,0,1,2.58-9.53,22,22,0,0,1,6.82-6.62,39.21,39.21,0,0,1,9.17-4.19,65.93,65.93,0,0,1,9.76-2.26,77.22,77.22,0,0,1,8.48-.85q-.27-5.62-2.88-8.19t-8.91-2.55a30.3,30.3,0,0,0-8.55,1.21,60.43,60.43,0,0,0-9.4,3.77l-1.44-13.23a57.71,57.71,0,0,1,11.82-4.33,50.8,50.8,0,0,1,12-1.44,28.34,28.34,0,0,1,12.64,2.62,17.91,17.91,0,0,1,8.19,8.42q2.88,5.79,2.88,15.29v17.69a39.17,39.17,0,0,0,.46,7.1,3.66,3.66,0,0,0,1.71,2.79,8.69,8.69,0,0,0,3.6.59h2.09l-1.44,13.36H1011a20.67,20.67,0,0,1-6.52-1,14.76,14.76,0,0,1-4.88-2.65,13.82,13.82,0,0,1-3.27-4,21,21,0,0,1-8.68,5.6A33,33,0,0,1,976.24,304.35Zm6.81-12.44a16.74,16.74,0,0,0,5.38-1.15,16.08,16.08,0,0,0,5.76-3.57V272.25a40.1,40.1,0,0,0-9.17,1.51,20.7,20.7,0,0,0-7.66,3.87,8,8,0,0,0-3.08,6.41q0,4,2.09,5.93T983.05,291.91Z"/><path class="cls-5" d="M1045.93,304.35a51,51,0,0,1-11.69-1.24,58.39,58.39,0,0,1-10.45-3.61l1.44-13.88a63.36,63.36,0,0,0,9.93,4.75,29.37,29.37,0,0,0,10.25,1.8c3.23,0,5.7-.53,7.4-1.57a5.42,5.42,0,0,0,2.55-5,6.39,6.39,0,0,0-1.34-4.2,11.75,11.75,0,0,0-4-2.94c-1.79-.88-4-1.81-6.68-2.82a56.51,56.51,0,0,1-10.25-4.85,18.78,18.78,0,0,1-6.42-6.32,17.63,17.63,0,0,1-2.19-9.13,17.21,17.21,0,0,1,3-10,19.44,19.44,0,0,1,8.38-6.75,31.59,31.59,0,0,1,12.9-2.42,41.6,41.6,0,0,1,11.17,1.38,40.74,40.74,0,0,1,9.14,3.73l-1.44,13.89a53.57,53.57,0,0,0-8.84-5.08,23.63,23.63,0,0,0-9.76-2,10.76,10.76,0,0,0-6.49,1.7,5.68,5.68,0,0,0-2.29,4.85,6.21,6.21,0,0,0,3.21,5.7,75.15,75.15,0,0,0,10.28,4.65,60.71,60.71,0,0,1,8,3.67,24.14,24.14,0,0,1,5.6,4.19,14.82,14.82,0,0,1,3.31,5.21,19.24,19.24,0,0,1,1.08,6.71,18.33,18.33,0,0,1-3,10.58,18.58,18.58,0,0,1-8.71,6.65A37.77,37.77,0,0,1,1045.93,304.35Z"/><path class="cls-5" d="M1087.2,275.92v-1.31a24.48,24.48,0,0,1,1.5-8.94,26.76,26.76,0,0,1,4-6.91,69.54,69.54,0,0,1,5.27-5.89,100.85,100.85,0,0,0,7.76-8.55,13.74,13.74,0,0,0,2.85-8.74,9.71,9.71,0,0,0-1.44-5.38,9.2,9.2,0,0,0-4.06-3.4,14.85,14.85,0,0,0-6.16-1.18,32.78,32.78,0,0,0-9.82,1.41,67.26,67.26,0,0,0-9,3.57l-1.84-15.46a62.59,62.59,0,0,1,10.84-4.06,52.61,52.61,0,0,1,13.79-1.57,30,30,0,0,1,14,3,22,22,0,0,1,9,8.25,22.79,22.79,0,0,1,3.14,11.92,21.92,21.92,0,0,1-1.57,8.42,30.92,30.92,0,0,1-4.36,7.37,82.91,82.91,0,0,1-6.51,7.27,66.34,66.34,0,0,0-7,8.22,16.42,16.42,0,0,0-3,9.86v2.09Zm0,27.12V285.22h17V303Z"/><path class="cls-5" d="M1515.8,679.23a31.35,31.35,0,0,1-5.69-.54,46.38,46.38,0,0,1-5.42-1.3,29.2,29.2,0,0,1-4-1.47l1-8.85q2.27,1.11,4.74,2a37,37,0,0,0,5.07,1.53,23.91,23.91,0,0,0,5.27.58,9.78,9.78,0,0,0,5.33-1.29,4.41,4.41,0,0,0,2-4,4.71,4.71,0,0,0-1.14-3.3,9.86,9.86,0,0,0-3.47-2.24c-1.56-.66-3.56-1.42-6-2.26a41.33,41.33,0,0,1-6.54-2.88,13.17,13.17,0,0,1-4.58-4.08,10.87,10.87,0,0,1-1.69-6.3,11.86,11.86,0,0,1,7.39-11.33,22.33,22.33,0,0,1,9.19-1.67,33.06,33.06,0,0,1,7.93.93,48.29,48.29,0,0,1,6.43,2l-.84,8.52a48,48,0,0,0-7.2-2.62,26.86,26.86,0,0,0-6.84-.89,10.93,10.93,0,0,0-5.63,1.2,4,4,0,0,0-2,3.61,4.3,4.3,0,0,0,1.11,3.09,8.81,8.81,0,0,0,3.15,2q2,.82,4.91,1.73a45.74,45.74,0,0,1,8.3,3.43,14,14,0,0,1,5.07,4.52,11.85,11.85,0,0,1,1.71,6.55,16.46,16.46,0,0,1-.62,4.24,10.72,10.72,0,0,1-2.44,4.34,13,13,0,0,1-5.31,3.36A26.72,26.72,0,0,1,1515.8,679.23Zm-.32-44.66-.65-11.11h6.37l-.65,11.11Zm-.65,53.11.65-11.57h5.07l.65,11.57Z"/><path class="cls-5" d="M1552.78,678.32l6.31-45.5h6.82L1577,653.55l11-20.73h6.82l6.31,45.5h-8.65l-4.35-34.19,2.27.45L1577,668.76l-13.52-24.11,2.27-.46-4.35,34.13Z"/><path class="cls-5" d="M1603.94,678.32,1619.86,655l-15.14-22.16H1614l10.46,15.47,10.47-15.47h9.23L1629,655l15.93,23.34h-9.23l-11.25-16.58-11.24,16.58Z"/><rect class="cls-5" x="313.68" y="783.68" width="684" height="191.2" rx="28.08"/><path class="cls-4" d="M344.36,905.61V848.89h20.17a27.66,27.66,0,0,1,11,1.94,14.09,14.09,0,0,1,6.83,6,20.65,20.65,0,0,1,2.33,10.37,21.56,21.56,0,0,1-2.31,10.56,14.14,14.14,0,0,1-6.77,6.15,26.31,26.31,0,0,1-10.85,2h-10v19.69Zm10.37-28.36h8.83q5.31,0,8-2.39c1.77-1.6,2.66-4.09,2.66-7.5s-.9-5.89-2.7-7.45-4.52-2.35-8.16-2.35h-8.59Z"/><path class="cls-4" d="M390.46,905.61V865.09h9.41l.24,4.3a19.43,19.43,0,0,1,4.33-3.41,11.62,11.62,0,0,1,6.12-1.7,8.89,8.89,0,0,1,1.78.17l-.72,9.88a10.32,10.32,0,0,0-1.77-.32,16.63,16.63,0,0,0-1.72-.08,9.46,9.46,0,0,0-4.66,1.17,7,7,0,0,0-3,2.88v27.63Z"/><path class="cls-4" d="M435.68,906.42a23.29,23.29,0,0,1-12.21-2.94,18.78,18.78,0,0,1-7.32-7.77,24.21,24.21,0,0,1-.14-20.85,18.55,18.55,0,0,1,6.71-7.56,19.44,19.44,0,0,1,10.78-2.85,18.21,18.21,0,0,1,9.72,2.39,15.12,15.12,0,0,1,5.83,6.38A19.8,19.8,0,0,1,451,882a24.41,24.41,0,0,1-.16,2.69,27.84,27.84,0,0,1-.49,2.82H424.18a12.78,12.78,0,0,0,2.37,6.1,10.79,10.79,0,0,0,4.41,3.42,14.43,14.43,0,0,0,5.61,1.1,22.73,22.73,0,0,0,6.57-.92,25.09,25.09,0,0,0,5.59-2.41l.49,8.51a28.3,28.3,0,0,1-5.76,2.15A29.85,29.85,0,0,1,435.68,906.42Zm-11.26-25.69h16.37a10.39,10.39,0,0,0-.69-3.66,6.93,6.93,0,0,0-2.29-3.1,6.8,6.8,0,0,0-4.31-1.26,8.18,8.18,0,0,0-6.12,2.27A11.29,11.29,0,0,0,424.42,880.73Z"/><path class="cls-4" d="M476.69,906.42A22.25,22.25,0,0,1,465,903.57a18.59,18.59,0,0,1-7.13-7.62,22.93,22.93,0,0,1-2.41-10.52,23.34,23.34,0,0,1,2.39-10.59,18.39,18.39,0,0,1,7.17-7.68,22.89,22.89,0,0,1,12-2.88,23.47,23.47,0,0,1,6.16.75,20.65,20.65,0,0,1,4.7,1.85l-.81,8.1a21.25,21.25,0,0,0-4.19-1.62,18.27,18.27,0,0,0-4.89-.65q-5.84,0-9,3.53a14.47,14.47,0,0,0,.08,18.25,11.34,11.34,0,0,0,8.87,3.67,16.17,16.17,0,0,0,4.72-.71,21.44,21.44,0,0,0,4.52-2L488,904a20.77,20.77,0,0,1-5.08,1.76A28.27,28.27,0,0,1,476.69,906.42Z"/><path class="cls-4" d="M494.76,858.93v-10h10.05v10Zm0,46.68V865.09h10.05v40.52Z"/><path class="cls-4" d="M532.6,906.42a21.08,21.08,0,0,1-11.26-2.87,19,19,0,0,1-7.11-7.66,22.52,22.52,0,0,1-2.46-10.46,22.83,22.83,0,0,1,2.46-10.53,19.08,19.08,0,0,1,7.11-7.72,23.33,23.33,0,0,1,22.53,0A19.22,19.22,0,0,1,551,874.9a23,23,0,0,1,2.45,10.53A22.64,22.64,0,0,1,551,895.89a19.19,19.19,0,0,1-7.11,7.66A21.14,21.14,0,0,1,532.6,906.42Zm0-8.26a9.25,9.25,0,0,0,7.8-3.55,14.61,14.61,0,0,0,2.74-9.18,15,15,0,0,0-2.74-9.3,10.27,10.27,0,0,0-15.58,0,14.85,14.85,0,0,0-2.75,9.3,14.5,14.5,0,0,0,2.75,9.18A9.27,9.27,0,0,0,532.6,898.16Z"/><path class="cls-4" d="M598.16,906.42a23.35,23.35,0,0,1-12.22-2.94,18.82,18.82,0,0,1-7.31-7.77,23.3,23.3,0,0,1-2.43-10.6,23,23,0,0,1,2.29-10.25,18.52,18.52,0,0,1,6.7-7.56A19.49,19.49,0,0,1,596,864.45a18.25,18.25,0,0,1,9.73,2.39,15.19,15.19,0,0,1,5.83,6.38,19.8,19.8,0,0,1,1.94,8.81,22.18,22.18,0,0,1-.16,2.69q-.16,1.37-.48,2.82H586.65a13,13,0,0,0,2.37,6.1,10.82,10.82,0,0,0,4.42,3.42,14.36,14.36,0,0,0,5.61,1.1,22.61,22.61,0,0,0,6.56-.92,25.17,25.17,0,0,0,5.6-2.41l.48,8.51a28.42,28.42,0,0,1-5.75,2.15A29.9,29.9,0,0,1,598.16,906.42Zm-11.27-25.69h16.37a10.61,10.61,0,0,0-.68-3.66,7,7,0,0,0-2.29-3.1,6.81,6.81,0,0,0-4.32-1.26,8.21,8.21,0,0,0-6.12,2.27A11.37,11.37,0,0,0,586.89,880.73Z"/><path class="cls-4" d="M631.87,906.42a30.84,30.84,0,0,1-7.23-.77,35.73,35.73,0,0,1-6.47-2.23l.9-8.59a38,38,0,0,0,6.14,2.94,18.2,18.2,0,0,0,6.34,1.12,8.83,8.83,0,0,0,4.58-1,3.34,3.34,0,0,0,1.58-3.08,3.93,3.93,0,0,0-.84-2.59,7.3,7.3,0,0,0-2.49-1.82c-1.11-.54-2.48-1.12-4.13-1.74a35.17,35.17,0,0,1-6.34-3,11.61,11.61,0,0,1-4-3.91,10.88,10.88,0,0,1-1.36-5.66A10.68,10.68,0,0,1,620.4,870a12,12,0,0,1,5.19-4.18,19.46,19.46,0,0,1,8-1.5,26.09,26.09,0,0,1,6.91.85,25.56,25.56,0,0,1,5.65,2.31l-.89,8.59a33.5,33.5,0,0,0-5.47-3.14,14.66,14.66,0,0,0-6-1.23,6.64,6.64,0,0,0-4,1.05,3.52,3.52,0,0,0-1.42,3,3.83,3.83,0,0,0,2,3.52,45.09,45.09,0,0,0,6.36,2.88,38.31,38.31,0,0,1,4.92,2.27A15.09,15.09,0,0,1,645,887a9.08,9.08,0,0,1,2,3.22,11.86,11.86,0,0,1,.67,4.16,11.29,11.29,0,0,1-1.84,6.54,11.42,11.42,0,0,1-5.39,4.11A23.24,23.24,0,0,1,631.87,906.42Z"/><path class="cls-4" d="M667.85,906.42a11.15,11.15,0,0,1-6.2-1.56,9.5,9.5,0,0,1-3.52-4,11.79,11.79,0,0,1-1.14-5.06V873.36h-5.75l.89-8.27H657v-8.91l10-1v10H676v8.27H667v18.31a19.2,19.2,0,0,0,.36,4.44,2.23,2.23,0,0,0,1.67,1.7,17.57,17.57,0,0,0,4.13.35H676l-.89,8.26Z"/><path class="cls-4" d="M691.27,906.42a12.32,12.32,0,0,1-5.92-1.44,10.66,10.66,0,0,1-4.25-4.15,12.77,12.77,0,0,1-1.58-6.56,10.54,10.54,0,0,1,1.6-5.9,13.6,13.6,0,0,1,4.21-4.09,24.13,24.13,0,0,1,5.67-2.59,40.39,40.39,0,0,1,6-1.4,48.49,48.49,0,0,1,5.25-.53q-.16-3.48-1.78-5.06c-1.08-1.06-2.92-1.58-5.51-1.58a18.79,18.79,0,0,0-5.29.75,36.63,36.63,0,0,0-5.82,2.33L683,868a35.57,35.57,0,0,1,7.32-2.67,31,31,0,0,1,7.43-.89,17.49,17.49,0,0,1,7.82,1.62,11.08,11.08,0,0,1,5.07,5.2,21.5,21.5,0,0,1,1.78,9.46v10.94a24,24,0,0,0,.28,4.4,2.23,2.23,0,0,0,1.06,1.72,5.36,5.36,0,0,0,2.22.37h1.3l-.89,8.26h-3.65a12.52,12.52,0,0,1-4-.59,9,9,0,0,1-3-1.64,8.44,8.44,0,0,1-2-2.47,13.1,13.1,0,0,1-5.37,3.47A20.44,20.44,0,0,1,691.27,906.42Zm4.21-7.7a10.06,10.06,0,0,0,3.32-.71,9.91,9.91,0,0,0,3.57-2.2v-9.24a24.33,24.33,0,0,0-5.67.93,12.9,12.9,0,0,0-4.74,2.39,5,5,0,0,0-1.91,4,4.74,4.74,0,0,0,1.3,3.67A5.94,5.94,0,0,0,695.48,898.72Z"/><path class="cls-4" d="M743.94,906.42a19.46,19.46,0,0,1-8-1.5,24.28,24.28,0,0,1-6.28-4.09l3-2.11-.49,6.89h-9.4V844.83h10.05v27l-2.43-1.54a20.15,20.15,0,0,1,6-4.3,17.85,17.85,0,0,1,7.56-1.53,16.84,16.84,0,0,1,10,2.87,18,18,0,0,1,6.14,7.66,27.32,27.32,0,0,1,0,20.91,18,18,0,0,1-6.14,7.66A16.91,16.91,0,0,1,743.94,906.42Zm-1.46-8.26a8.15,8.15,0,0,0,5.11-1.62,10.07,10.07,0,0,0,3.2-4.48,20.68,20.68,0,0,0,0-13.25,10,10,0,0,0-3.2-4.48,8.15,8.15,0,0,0-5.11-1.62,9.52,9.52,0,0,0-5.75,1.62,9.42,9.42,0,0,0-3.3,4.48,20.86,20.86,0,0,0,0,13.25,8.89,8.89,0,0,0,9.05,6.1Z"/><path class="cls-4" d="M779.52,906.42a10.92,10.92,0,0,1-5.9-1.44,8.63,8.63,0,0,1-3.38-3.85,12.69,12.69,0,0,1-1.1-5.32v-51h10.05v46.84a18.73,18.73,0,0,0,.39,4.6,2,2,0,0,0,1.44,1.62,12.92,12.92,0,0,0,3,.27l-.89,8.26Z"/><path class="cls-4" d="M809.58,906.42a23.35,23.35,0,0,1-12.22-2.94,18.82,18.82,0,0,1-7.31-7.77,23.3,23.3,0,0,1-2.43-10.6,23,23,0,0,1,2.29-10.25,18.52,18.52,0,0,1,6.7-7.56,19.49,19.49,0,0,1,10.78-2.85,18.25,18.25,0,0,1,9.73,2.39,15.12,15.12,0,0,1,5.83,6.38A19.8,19.8,0,0,1,824.9,882a22.21,22.21,0,0,1-.17,2.69,27.73,27.73,0,0,1-.48,2.82H798.07a13,13,0,0,0,2.37,6.1,10.88,10.88,0,0,0,4.42,3.42,14.36,14.36,0,0,0,5.61,1.1,22.73,22.73,0,0,0,6.57-.92,25.09,25.09,0,0,0,5.59-2.41l.48,8.51a28.19,28.19,0,0,1-5.75,2.15A29.9,29.9,0,0,1,809.58,906.42Zm-11.26-25.69h16.37a10.39,10.39,0,0,0-.69-3.66,7,7,0,0,0-2.29-3.1,6.81,6.81,0,0,0-4.32-1.26,8.21,8.21,0,0,0-6.12,2.27A11.28,11.28,0,0,0,798.32,880.73Z"/><path class="cls-4" d="M850.59,906.42a22.23,22.23,0,0,1-11.69-2.85,18.68,18.68,0,0,1-7.14-7.62,23.06,23.06,0,0,1-2.41-10.52,23.47,23.47,0,0,1,2.39-10.59,18.48,18.48,0,0,1,7.18-7.68,22.87,22.87,0,0,1,12-2.88,23.47,23.47,0,0,1,6.16.75,20.65,20.65,0,0,1,4.7,1.85L861,875a21.11,21.11,0,0,0-4.2-1.62,18.19,18.19,0,0,0-4.88-.65q-5.83,0-9,3.53a14.47,14.47,0,0,0,.08,18.25,11.32,11.32,0,0,0,8.87,3.67,16.22,16.22,0,0,0,4.72-.71,21.67,21.67,0,0,0,4.52-2l.89,8.51a20.77,20.77,0,0,1-5.08,1.76A28.33,28.33,0,0,1,850.59,906.42Z"/><path class="cls-4" d="M868.66,858.93v-10h10v10Zm0,46.68V865.09h10v40.52Z"/><path class="cls-4" d="M904.47,906.42a17.2,17.2,0,0,1-16.67-10.53,26.72,26.72,0,0,1,0-20.91,17.2,17.2,0,0,1,16.67-10.53,17.42,17.42,0,0,1,7.54,1.47,20.27,20.27,0,0,1,5.43,3.79L915,871.82v-27h10v60.78h-9.48l-.49-6.89,2.92,2.11a25.28,25.28,0,0,1-5.88,4.09A17.28,17.28,0,0,1,904.47,906.42Zm1.46-8.26a8.64,8.64,0,0,0,5.43-1.62,9.43,9.43,0,0,0,3.12-4.48,22.23,22.23,0,0,0,0-13.25,9.38,9.38,0,0,0-3.12-4.48,8.64,8.64,0,0,0-5.43-1.62,8.92,8.92,0,0,0-5.39,1.62,10.14,10.14,0,0,0-3.4,4.48,19.19,19.19,0,0,0,0,13.25,10.2,10.2,0,0,0,3.4,4.48A8.92,8.92,0,0,0,905.93,898.16Z"/><path class="cls-4" d="M952.77,906.42a21.08,21.08,0,0,1-11.26-2.87,19,19,0,0,1-7.11-7.66,22.52,22.52,0,0,1-2.46-10.46,22.83,22.83,0,0,1,2.46-10.53,19.08,19.08,0,0,1,7.11-7.72,23.31,23.31,0,0,1,22.52,0,19.17,19.17,0,0,1,7.12,7.72,23,23,0,0,1,2.45,10.53,22.64,22.64,0,0,1-2.45,10.46,19.14,19.14,0,0,1-7.12,7.66A21.08,21.08,0,0,1,952.77,906.42Zm0-8.26a9.25,9.25,0,0,0,7.8-3.55,14.61,14.61,0,0,0,2.73-9.18,15,15,0,0,0-2.73-9.3,10.27,10.27,0,0,0-15.58,0,14.85,14.85,0,0,0-2.75,9.3,14.5,14.5,0,0,0,2.75,9.18A9.27,9.27,0,0,0,952.77,898.16Z"/><path class="cls-15" d="M899.19,410c72.2-.28,132.83,58.68,132.36,132.94-.24,36.21-13.22,67.47-38.86,93-26.29,26.22-58.38,39.16-95.52,38.75-72.24-.79-131-60-130.63-133.18S826.82,409.6,899.19,410Z"/><rect class="cls-4" x="883.98" y="462.8" width="34.45" height="173.69" rx="15.66" transform="translate(1927.12 301.06) rotate(135)"/><rect class="cls-4" x="881.93" y="463.29" width="34.45" height="173.69" rx="15.66" transform="translate(652.37 -474.67) rotate(45)"/></svg>