<svg xmlns="http://www.w3.org/2000/svg" viewBox="0 0 2283 1040"><defs><style>.cls-1{fill:#00a338;}.cls-2{fill:#002060;}.cls-3{fill:#4c214c;}.cls-4{fill:#fff;}.cls-5{fill:#e28f8a;}.cls-6{fill:#e2988f;}</style></defs><g id="Capa_1" data-name="Capa 1"><rect class="cls-1" x="1229.99" y="392.36" width="904.33" height="36" rx="8.84"/><rect class="cls-1" x="1229.99" y="309.36" width="904.33" height="36" rx="8.84"/><rect class="cls-1" x="1786.32" y="560.76" width="348.67" height="36" rx="8.84"/><rect class="cls-1" x="1230.01" y="480.12" width="904.33" height="36" rx="8.84"/><rect class="cls-1" x="553.33" y="249.08" width="362.03" height="34.46" rx="8.84"/><rect class="cls-1" x="552.08" y="194.78" width="496.52" height="34.46" rx="8.84"/><rect class="cls-2" x="100.7" y="755.74" width="904.33" height="36" rx="8.84"/><rect class="cls-2" x="100.7" y="672.74" width="904.33" height="36" rx="8.84"/><rect class="cls-2" x="101.37" y="924.14" width="525.99" height="36" rx="8.84"/><rect class="cls-2" x="100.72" y="843.5" width="904.33" height="36" rx="8.84"/></g><g id="Capa_3" data-name="Capa 3"><ellipse class="cls-1" cx="304.56" cy="318.04" rx="196.18" ry="196.09"/><path class="cls-3" d="M219.35,237.94c-1.16-36,4.4-67.26,22.33-89.62,46-40.16,87.18-37.77,124.41-1.47,22,19,26.93,51.57,24.88,89.62l-10.84,40.4-149.29,2.21Z"/><path class="cls-2" d="M137.48,420.92c44.49-15.6,86-28.36,115.05-30.2l103.35-.63c41.59,6.55,81.51,14.36,115,32.22-21.58,41.34-58.78,66.36-102.82,84.53-44.36,9-80.39,9.36-127-1.28C202.49,493,166.4,464.73,137.48,420.92Z"/><path class="cls-4" d="M242.11,391.84l10.68-1.75,103.84-.16,10.52,1.91.8,115c-39.27,10.47-81.93,11.91-126.27-1.29Z"/><path class="cls-5" d="M253.17,343.55l-.64,46.54c34.52,27.83,69.18,30.26,104-.64V342.24Z"/><path class="cls-6" d="M230.84,259.3c.71-17.25-3.22-28.24-10.21-35.09-15.1.24-17.79,7-18.5,15.31,1.24,19.74,4.8,34.71,12.12,48.49,4.75,7.75,10.15,10.44,16.59,5.1l6.38,35.09c13.77,18.68,29.1,36.05,47.21,51,13.78,5.63,26.74,6.57,38.28-.64,20.68-15.16,38-31.84,51-50.4l5.1-34.45c7.8,1.89,15.39,2.34,21.69-6.38,4.49-9.07,6.44-28.92,8.3-49.13-2.11-13.59-8.1-17.08-18.5-15.31-7.66,6.79-9,20.52-8.94,35.73-4,2.88-7-1.91-7.65-10.21l-3.83-53.59c-.33-7.41-7.12-11.13-19.78-11.48l-87.4-.64c-12.33-.73-19,3.84-21.06,12.76-1.08,20.06-4.45,39.79-3.19,51.68C237.85,256.75,234.62,261.19,230.84,259.3Z"/><rect class="cls-2" x="1373.6" y="760" width="656.08" height="191.2" rx="28.08"/><path class="cls-4" d="M1482,889.46a41.21,41.21,0,0,1-20.44-4.94,34.9,34.9,0,0,1-13.76-13.84q-4.93-8.91-4.93-20.9t5.1-20.9A35.76,35.76,0,0,1,1462,815a41.58,41.58,0,0,1,20.44-4.94,44.84,44.84,0,0,1,11.06,1.28,40.9,40.9,0,0,1,8.67,3.19l-1.53,13.3a56.21,56.21,0,0,0-8.53-3.13,36.15,36.15,0,0,0-9.78-1.23q-8,0-13.38,3.38a21.2,21.2,0,0,0-8.1,9.32,32.3,32.3,0,0,0-2.72,13.57,32.77,32.77,0,0,0,2.67,13.57,21,21,0,0,0,8,9.32,24.22,24.22,0,0,0,13.22,3.38,37.27,37.27,0,0,0,9.87-1.2,62.2,62.2,0,0,0,8.77-3.16l1.53,13.3a49.59,49.59,0,0,1-9.46,3.24A45.91,45.91,0,0,1,1482,889.46Z"/><path class="cls-4" d="M1511.74,887.93v-54.5h12.64l.33,5.78a26.17,26.17,0,0,1,5.83-4.58,15.5,15.5,0,0,1,8.23-2.29,12,12,0,0,1,2.4.22l-1,13.3a13.49,13.49,0,0,0-2.37-.44c-.79-.07-1.56-.11-2.32-.11a12.7,12.7,0,0,0-6.27,1.58,9.42,9.42,0,0,0-4,3.87v37.17Z"/><path class="cls-4" d="M1572.56,889q-9.87,0-16.43-3.95a25.26,25.26,0,0,1-9.84-10.47,32.55,32.55,0,0,1-.19-28,24.85,24.85,0,0,1,9-10.16,26.14,26.14,0,0,1,14.5-3.84q7.85,0,13.08,3.21a20.47,20.47,0,0,1,7.84,8.59,26.61,26.61,0,0,1,2.62,11.85,29.71,29.71,0,0,1-.22,3.63,37.47,37.47,0,0,1-.65,3.78h-35.21a17.42,17.42,0,0,0,3.19,8.21,14.52,14.52,0,0,0,5.94,4.6,19.36,19.36,0,0,0,7.55,1.47,30.89,30.89,0,0,0,8.83-1.22,34.16,34.16,0,0,0,7.52-3.25l.65,11.45a38.37,38.37,0,0,1-7.74,2.89A40.27,40.27,0,0,1,1572.56,889Zm-15.15-34.55h22a13.92,13.92,0,0,0-.93-4.93,9.32,9.32,0,0,0-3.08-4.17,9.12,9.12,0,0,0-5.8-1.69c-3.49,0-6.24,1-8.23,3.05A15.13,15.13,0,0,0,1557.41,854.47Z"/><path class="cls-4" d="M1614.2,889a16.64,16.64,0,0,1-8-1.93,14.43,14.43,0,0,1-5.72-5.59,17.24,17.24,0,0,1-2.13-8.83,14.23,14.23,0,0,1,2.15-7.93,18.29,18.29,0,0,1,5.67-5.5,32.06,32.06,0,0,1,7.63-3.49,53.91,53.91,0,0,1,8.12-1.88,63.23,63.23,0,0,1,7.06-.71q-.21-4.7-2.4-6.81t-7.41-2.13a25.4,25.4,0,0,0-7.11,1,50.38,50.38,0,0,0-7.82,3.13l-1.2-11a49,49,0,0,1,9.84-3.59,42.15,42.15,0,0,1,10-1.2,23.6,23.6,0,0,1,10.52,2.18,14.93,14.93,0,0,1,6.81,7q2.4,4.83,2.4,12.73v14.71a31.84,31.84,0,0,0,.38,5.92,3,3,0,0,0,1.42,2.31,7.1,7.1,0,0,0,3,.49h1.75L1648,889h-4.91a17,17,0,0,1-5.42-.79,12.29,12.29,0,0,1-4.06-2.21,11.12,11.12,0,0,1-2.72-3.32,17.53,17.53,0,0,1-7.23,4.66A27.25,27.25,0,0,1,1614.2,889Zm5.67-10.35a13.74,13.74,0,0,0,4.46-1,13.4,13.4,0,0,0,4.8-3V862.31a32.7,32.7,0,0,0-7.63,1.26,17.49,17.49,0,0,0-6.38,3.21,6.69,6.69,0,0,0-2.56,5.35,6.37,6.37,0,0,0,1.75,4.93Q1616.05,878.67,1619.87,878.67Z"/><path class="cls-4" d="M1656.71,887.93v-54.5h12.64l.33,5.78a26.17,26.17,0,0,1,5.83-4.58,15.5,15.5,0,0,1,8.23-2.29,12,12,0,0,1,2.4.22l-1,13.3a13.6,13.6,0,0,0-2.38-.44c-.78-.07-1.55-.11-2.31-.11a12.7,12.7,0,0,0-6.27,1.58,9.36,9.36,0,0,0-4,3.87v37.17Z"/><path class="cls-4" d="M1717.2,914.31V833.43h10.9l2.61,9.05-4-1.42a32.46,32.46,0,0,1,8.18-6.19,23,23,0,0,1,10.79-2.31,22.65,22.65,0,0,1,13.46,3.87,24.31,24.31,0,0,1,8.26,10.3,36.7,36.7,0,0,1,0,28.12,24.31,24.31,0,0,1-8.26,10.3,22.65,22.65,0,0,1-13.46,3.87,26.12,26.12,0,0,1-10.36-1.74,29.46,29.46,0,0,1-8.06-5.56l3.48-2.73v35.32Zm26.38-36.41a10.84,10.84,0,0,0,9.4-4.77q3.35-4.77,3.35-12.34T1753,848.42a10.86,10.86,0,0,0-9.4-4.74,12.71,12.71,0,0,0-7.69,2.18,12.56,12.56,0,0,0-4.41,6,28.66,28.66,0,0,0,0,17.82,12.56,12.56,0,0,0,4.41,6A12.71,12.71,0,0,0,1743.58,877.9Z"/><path class="cls-4" d="M1805.81,889q-9.86,0-16.43-3.95a25.24,25.24,0,0,1-9.83-10.47,32.6,32.6,0,0,1-.2-28,24.88,24.88,0,0,1,9-10.16,26.11,26.11,0,0,1,14.49-3.84q7.85,0,13.08,3.21a20.42,20.42,0,0,1,7.85,8.59,26.75,26.75,0,0,1,2.62,11.85,31.85,31.85,0,0,1-.22,3.63q-.23,1.81-.66,3.78h-35.2a17.42,17.42,0,0,0,3.18,8.21,14.48,14.48,0,0,0,6,4.6,19.31,19.31,0,0,0,7.54,1.47,30.84,30.84,0,0,0,8.83-1.22,34,34,0,0,0,7.52-3.25l.66,11.45a38.37,38.37,0,0,1-7.74,2.89A40.4,40.4,0,0,1,1805.81,889Zm-15.15-34.55h22a13.92,13.92,0,0,0-.93-4.93,9.3,9.3,0,0,0-3.07-4.17,9.15,9.15,0,0,0-5.81-1.69,11,11,0,0,0-8.23,3.05A15.2,15.2,0,0,0,1790.66,854.47Z"/><path class="cls-4" d="M1835.68,887.93v-54.5h12.64l.33,5.78a26.4,26.4,0,0,1,5.83-4.58,15.5,15.5,0,0,1,8.23-2.29,12,12,0,0,1,2.4.22l-1,13.3a13.49,13.49,0,0,0-2.37-.44c-.78-.07-1.55-.11-2.32-.11a12.7,12.7,0,0,0-6.27,1.58,9.39,9.39,0,0,0-4,3.87v37.17Z"/><path class="cls-4" d="M1874.92,887.93V844.55h-7.74l1.2-11.12h6.54V821.88q0-7.2,4.28-11.45t12.29-4.25a39.85,39.85,0,0,1,4.82.27,35.53,35.53,0,0,1,4,.71l-1.2,10.9a10.34,10.34,0,0,0-1.8-.41,18.53,18.53,0,0,0-2.45-.13,6.67,6.67,0,0,0-4.69,1.58c-1.16,1-1.74,2.78-1.74,5.17v9.16h12v11.12h-12v43.38Z"/><path class="cls-4" d="M1908.71,825.15V811.63h13.51v13.52Zm0,62.78v-54.5h13.51v54.5Z"/><path class="cls-4" d="M1948.82,889a14.78,14.78,0,0,1-7.93-1.93,11.76,11.76,0,0,1-4.55-5.18,17.15,17.15,0,0,1-1.47-7.17V806.18h13.51v63a25.81,25.81,0,0,0,.52,6.19,2.77,2.77,0,0,0,1.94,2.18,18.22,18.22,0,0,0,4.08.35l-1.2,11.12Z"/></g></svg>