<svg xmlns="http://www.w3.org/2000/svg" xmlns:xlink="http://www.w3.org/1999/xlink" viewBox="0 0 2283 1040"><defs><style>.cls-1,.cls-16{fill:none;}.cls-2{fill:#badce8;}.cls-3{fill:#00a338;}.cls-4{fill:#002060;}.cls-5{fill:#fff;}.cls-6{fill:#f26674;}.cls-7{fill:#c4455e;}.cls-8{fill:#b3b3b3;}.cls-9{fill:#898989;}.cls-10{clip-path:url(#clip-path);}.cls-11{clip-path:url(#clip-path-2);}.cls-12{fill:#ccc;}.cls-13{fill:#1a1a1a;}.cls-14{fill:#afafaf;}.cls-15{fill:#c6c6c6;}.cls-16{stroke:#adadad;stroke-miterlimit:10;stroke-width:20px;}.cls-17{fill:#a3a3a3;}.cls-18{fill:#6d6d6d;}.cls-19{fill:#94e3ff;opacity:0.5;}</style><clipPath id="clip-path"><path class="cls-1" d="M604.54,727.31h74.37L691,738.76l24.7,110.35c2.3,9.29.17,25.94-8.89,25.94H613.12Z"/></clipPath><clipPath id="clip-path-2"><path id="SVGID" class="cls-2" d="M716.05,797H638.34c-6.47,0-11.72-4.51-11.72-10.07V755.54c0-5.56,5.25-10.07,11.72-10.07h56.87a9.37,9.37,0,0,1,8.15,4.33l20.84,35.82C727.23,790.83,722.82,797,716.05,797Z"/></clipPath></defs><g id="diseñ_4" data-name="diseñ 4"><rect class="cls-3" x="211.61" y="353.41" width="600.74" height="27.83" rx="3.29"/><rect class="cls-3" x="211.61" y="289.24" width="600.74" height="27.83" rx="3.29"/><rect class="cls-3" x="212.05" y="483.59" width="600.74" height="27.83" rx="3.29"/><rect class="cls-3" x="211.62" y="421.25" width="600.74" height="27.83" rx="3.29"/><rect class="cls-4" x="211.24" y="109.24" width="602.64" height="124.92"/><path class="cls-5" d="M346.7,197.84v-59h-20v-11h51.65v11H358.3v59Z"/><path class="cls-5" d="M396.65,198.84q-7,0-11.5-2.82a16.42,16.42,0,0,1-6.52-8,32.94,32.94,0,0,1-2.08-12.33v-27.5H387.7v26.6q0,7.26,2.48,10.88c1.65,2.41,4.3,3.62,8,3.62a12.86,12.86,0,0,0,7.25-2,13,13,0,0,0,4.75-5.85l-1.9,5.75v-39H419.4v49.65H409.15l-1-9.05,2.6,2.85a16,16,0,0,1-5.8,5.15A16.88,16.88,0,0,1,396.65,198.84Z"/><path class="cls-5" d="M476.7,198.84q-8.51,0-14.25-3.47a22.57,22.57,0,0,1-8.68-9.3,28.32,28.32,0,0,1-2.92-12.88,29.61,29.61,0,0,1,2.87-13.1,22.13,22.13,0,0,1,8.73-9.4q5.85-3.49,14.75-3.5a29.8,29.8,0,0,1,7.5.88,26.14,26.14,0,0,1,5.9,2.22l-1.15,9.25a26.74,26.74,0,0,0-5.4-2,24,24,0,0,0-6.15-.78q-7.5,0-11.58,4.43T462.25,173a17.31,17.31,0,0,0,4.05,11.8q4.05,4.65,11.45,4.65a21.82,21.82,0,0,0,6.1-.85,27.85,27.85,0,0,0,5.7-2.35l1.15,9.3a25.2,25.2,0,0,1-6.13,2.3A31.9,31.9,0,0,1,476.7,198.84Z"/><path class="cls-5" d="M510.25,198.84a15.69,15.69,0,0,1-7.55-1.8,13.28,13.28,0,0,1-5.28-5.1,15.24,15.24,0,0,1-1.92-7.8,13.17,13.17,0,0,1,1.92-7.22,16.33,16.33,0,0,1,5.1-5,29.49,29.49,0,0,1,7-3.17,48.74,48.74,0,0,1,7.6-1.73,56.27,56.27,0,0,1,7-.6q-.15-5.29-2.43-7.32c-1.51-1.35-3.91-2-7.17-2a22.84,22.84,0,0,0-6.3.9,34.13,34.13,0,0,0-7.15,3.15l-1.15-9.1a37.65,37.65,0,0,1,8.42-3.42,34.55,34.55,0,0,1,9.18-1.23,21.19,21.19,0,0,1,9.8,2,13.12,13.12,0,0,1,6,6.75q2,4.71,2,12.55v12.2a33.24,33.24,0,0,0,.35,5.55A3.8,3.8,0,0,0,537,189a5.6,5.6,0,0,0,3.13.7h1.35l-1.2,9.1h-3.1a17.76,17.76,0,0,1-5.65-.77,9.6,9.6,0,0,1-3.68-2.18,12.91,12.91,0,0,1-2.42-3.35,17.67,17.67,0,0,1-6.58,4.6A21.85,21.85,0,0,1,510.25,198.84Zm3.9-8.65A13.1,13.1,0,0,0,519.3,189a13.67,13.67,0,0,0,4.8-3.48V174a36.28,36.28,0,0,0-8.65,1.23,14.34,14.34,0,0,0-6.08,3.15,6.89,6.89,0,0,0-2.22,5.27,6.33,6.33,0,0,0,1.77,5A7.58,7.58,0,0,0,514.15,190.19Z"/><path class="cls-5" d="M548.35,197.84V148.19h10.1l.55,6.35a26.06,26.06,0,0,1,6-5.2,13.85,13.85,0,0,1,7.45-2.15,10.07,10.07,0,0,1,2.25.25l-.9,11.35a11.6,11.6,0,0,0-1.9-.32c-.64-.05-1.29-.08-2-.08a12.9,12.9,0,0,0-6.25,1.55,9.7,9.7,0,0,0-4,3.6v34.3Z"/><path class="cls-5" d="M600.05,223a39.39,39.39,0,0,1-12.13-1.7,18.53,18.53,0,0,1-8.17-4.92,11.17,11.17,0,0,1-3-7.83,11,11,0,0,1,2.15-6.72,16.69,16.69,0,0,1,6.1-4.93,10.24,10.24,0,0,1-3.33-2.92,6.58,6.58,0,0,1-1.22-3.88,6.7,6.7,0,0,1,1.37-4.15,9.67,9.67,0,0,1,3.93-2.9,17.14,17.14,0,0,1-5.95-6.9,21.18,21.18,0,0,1-2.05-9.35,20.55,20.55,0,0,1,2.37-9.8,18.14,18.14,0,0,1,6.9-7.12,23.52,23.52,0,0,1,17.35-1.78,18.73,18.73,0,0,1,5.28,2.55,18,18,0,0,1,4.72-1.77,26.85,26.85,0,0,1,6.53-.73h2.35l-.95,7.15h-3.7l-1.58.05a18.16,18.16,0,0,0-2.22.25,17.58,17.58,0,0,1,2.57,5.25,20.32,20.32,0,0,1,.88,5.95,21.23,21.23,0,0,1-2.35,10,17.9,17.9,0,0,1-6.88,7.15,21.2,21.2,0,0,1-11,2.67,20.43,20.43,0,0,1-3-.2,24.63,24.63,0,0,1-2.82-.55,2,2,0,0,0-1.5,1.95,2.25,2.25,0,0,0,1.5,2,17.15,17.15,0,0,0,4.8,1.25l10.25,1.5q8,1.11,12.47,4.55t4.48,9.8a13.31,13.31,0,0,1-2.9,8.6,18.38,18.38,0,0,1-8.35,5.55A38.72,38.72,0,0,1,600.05,223Zm.6-8.9q6.54,0,10-1.65c2.26-1.1,3.4-2.73,3.4-4.9a4.65,4.65,0,0,0-2.28-4.22,19.84,19.84,0,0,0-7-2.23l-12.05-1.85a13.15,13.15,0,0,0-4.35,2.85,6.11,6.11,0,0,0-1.8,4.5,6,6,0,0,0,3.8,5.68Q594.1,214.08,600.65,214.09Zm-2.55-36c3.26,0,5.74-1,7.42-3.1a12.54,12.54,0,0,0,2.53-8.2,12.28,12.28,0,0,0-2.53-8.07c-1.68-2.05-4.16-3.08-7.42-3.08s-5.79,1-7.48,3.08a12.33,12.33,0,0,0-2.52,8.07,12.59,12.59,0,0,0,2.52,8.2Q593.16,178.15,598.1,178.14Z"/><path class="cls-5" d="M641.3,198.84a15.69,15.69,0,0,1-7.55-1.8,13.28,13.28,0,0,1-5.28-5.1,15.24,15.24,0,0,1-1.92-7.8,13.17,13.17,0,0,1,1.92-7.22,16.33,16.33,0,0,1,5.1-5,29.49,29.49,0,0,1,6.95-3.17,48.74,48.74,0,0,1,7.6-1.73,56.27,56.27,0,0,1,7-.6q-.15-5.29-2.43-7.32c-1.51-1.35-3.91-2-7.17-2a22.84,22.84,0,0,0-6.3.9,33.91,33.91,0,0,0-7.15,3.15L630.9,152a37.65,37.65,0,0,1,8.42-3.42,34.5,34.5,0,0,1,9.18-1.23,21.22,21.22,0,0,1,9.8,2,13.12,13.12,0,0,1,6,6.75q2,4.71,2,12.55v12.2a32.18,32.18,0,0,0,.35,5.55A3.8,3.8,0,0,0,668,189a5.6,5.6,0,0,0,3.13.7h1.35l-1.2,9.1h-3.1a17.76,17.76,0,0,1-5.65-.77,9.6,9.6,0,0,1-3.68-2.18,12.68,12.68,0,0,1-2.42-3.35,17.67,17.67,0,0,1-6.58,4.6A21.85,21.85,0,0,1,641.3,198.84Zm3.9-8.65a13.1,13.1,0,0,0,5.15-1.22,13.85,13.85,0,0,0,4.8-3.48V174a36.2,36.2,0,0,0-8.65,1.23,14.34,14.34,0,0,0-6.08,3.15,6.89,6.89,0,0,0-2.22,5.27,6.33,6.33,0,0,0,1.77,5A7.58,7.58,0,0,0,645.2,190.19Z"/><g id="camion2"><rect class="cls-6" x="211.73" y="613.48" width="375.42" height="200.39"/><g id="camion2-2" data-name="camion2"><rect class="cls-7" x="261.73" y="643.99" width="23.11" height="123.45"/><rect class="cls-7" x="311.9" y="643.99" width="23.11" height="123.45"/><rect class="cls-7" x="362.06" y="643.43" width="23.11" height="123.45"/><rect class="cls-7" x="411.67" y="643.43" width="23.11" height="123.45"/><rect class="cls-7" x="462.4" y="643.43" width="23.11" height="123.45"/><rect class="cls-7" x="512.57" y="642.86" width="23.11" height="123.45"/></g></g><rect class="cls-8" x="591.55" y="742.16" width="20.3" height="80.23" rx="3"/><path class="cls-8" d="M588.71,877.77c-9.91,1.75-323.86.26-370.69,0-3.23,0-5.82-3.41-5.82-7.58V858c0-3,1.87-5.41,4.17-5.41H602S602.49,877.77,588.71,877.77Z"/><path class="cls-9" d="M588.36,878.2c-10.69.5-375.66,0-375.66,0v-6.53H601.6S602.11,878.2,588.36,878.2Z"/><g class="cls-10"><path class="cls-4" d="M604.54,727.69h74.37L691,739.12l24.7,110.11c2.3,9.27.17,25.89-8.89,25.89H613.12Z"/><path id="SVGID-2" data-name="SVGID" class="cls-2" d="M716.05,797H638.34c-6.47,0-11.72-4.51-11.72-10.07V755.54c0-5.56,5.25-10.07,11.72-10.07h56.87a9.37,9.37,0,0,1,8.15,4.33l20.84,35.82C727.23,790.83,722.82,797,716.05,797Z"/><g class="cls-11"><path class="cls-2" d="M715.4,797.51H637.69c-6.47,0-11.72-4.51-11.72-10.07V756.1c0-5.56,5.25-10.07,11.72-10.07h56.87a9.37,9.37,0,0,1,8.15,4.33l20.84,35.82C726.58,791.39,722.17,797.51,715.4,797.51Z"/></g></g><rect class="cls-12" x="211.76" y="814.5" width="375.84" height="38.04"/><path class="cls-4" d="M532.72,791.89H679.94a0,0,0,0,1,0,0v18.82a0,0,0,0,1,0,0H540.72a8,8,0,0,1-8-8V791.89A0,0,0,0,1,532.72,791.89Z" transform="translate(1407.63 194.97) rotate(90)"/><circle class="cls-13" cx="289.75" cy="874.37" r="42.37"/><ellipse class="cls-14" cx="289.75" cy="874.37" rx="18.8" ry="18.97" transform="translate(-228.34 112.75) rotate(-15.89)"/><rect class="cls-4" x="615.74" y="727.69" width="95.14" height="12.03" rx="4"/><circle class="cls-13" cx="652.55" cy="874.64" r="42.37"/><ellipse class="cls-14" cx="652.55" cy="874.64" rx="18.8" ry="18.97" transform="translate(-214.55 212.1) rotate(-15.89)"/><circle class="cls-13" cx="381.18" cy="874.81" r="42.37"/><ellipse class="cls-14" cx="381.18" cy="874.81" rx="18.8" ry="18.97" transform="translate(-224.97 137.8) rotate(-15.89)"/><path class="cls-4" d="M738.36,629.36a69.94,69.94,0,0,1-12.52-1.18,108.31,108.31,0,0,1-11.93-2.86,61.34,61.34,0,0,1-8.73-3.26l2.15-19.44q5,2.43,10.44,4.5a81.89,81.89,0,0,0,11.15,3.36,52.43,52.43,0,0,0,11.58,1.29q7.29,0,11.73-2.86t4.43-8.72a10.41,10.41,0,0,0-2.5-7.26,21.7,21.7,0,0,0-7.65-4.93q-5.14-2.19-13.16-5A91.25,91.25,0,0,1,719,576.7a29.12,29.12,0,0,1-10.08-9q-3.72-5.43-3.72-13.87a26.11,26.11,0,0,1,16.27-24.92q8.12-3.68,20.2-3.68a72.77,72.77,0,0,1,17.44,2,105.63,105.63,0,0,1,14.16,4.4l-1.86,18.73a104.3,104.3,0,0,0-15.84-5.76,58.37,58.37,0,0,0-15-2q-8,0-12.37,2.64a8.7,8.7,0,0,0-4.36,7.94,9.49,9.49,0,0,0,2.43,6.79,19.52,19.52,0,0,0,6.94,4.4q4.5,1.82,10.79,3.82a99.77,99.77,0,0,1,18.27,7.54,30.52,30.52,0,0,1,11.15,9.94q3.75,5.84,3.76,14.41a36.27,36.27,0,0,1-1.36,9.33,23.74,23.74,0,0,1-5.36,9.54q-4,4.5-11.69,7.4T738.36,629.36Zm-.72-98.23-1.43-24.46h14l-1.43,24.46Zm-1.43,116.81,1.43-25.45h11.15l1.43,25.45Z"/><path class="cls-4" d="M819.71,627.35l13.87-100.09h15l24.45,45.62,24.3-45.62h15l13.87,100.09h-19l-9.58-75.21,5,1-29.59,53.2L843.3,553.29l5-1-9.58,75.06Z"/><path class="cls-4" d="M932.24,627.35l35-51.33L934,527.26h20.3l23,34,23-34h20.31L987.29,576l35,51.33H1002l-24.74-36.46-24.74,36.46Z"/><rect class="cls-15" x="982.53" y="695.34" width="50.64" height="69.41" transform="translate(-229.83 860) rotate(-41.91)"/><ellipse class="cls-16" cx="864.56" cy="564.94" rx="178.48" ry="177.78"/><rect class="cls-17" x="1049.2" y="712.68" width="79.08" height="216.39" rx="7.9" transform="translate(-269.8 937.27) rotate(-41.91)"/><rect class="cls-18" x="1049.01" y="744.21" width="79.19" height="153.26" transform="translate(-269.82 937.17) rotate(-41.91)"/><ellipse class="cls-19" cx="864.86" cy="563.84" rx="171.31" ry="169.12"/><rect class="cls-3" x="1686.56" y="343" width="72.3" height="211.55" rx="8.88"/><rect class="cls-3" x="1679.2" y="510.37" width="87.03" height="87.03" rx="8.88" transform="translate(112.92 1380.37) rotate(-45)"/><rect class="cls-4" x="1425.79" y="111.22" width="590.63" height="206.28" rx="28.08"/><path class="cls-5" d="M1531.77,254.85a41.27,41.27,0,0,1-20.43-4.93,35,35,0,0,1-13.76-13.84q-4.93-8.91-4.93-20.9t5.1-20.89a35.7,35.7,0,0,1,14-13.84,41.51,41.51,0,0,1,20.43-4.93,44.36,44.36,0,0,1,11.06,1.28,40.07,40.07,0,0,1,8.66,3.18l-1.52,13.3a57.76,57.76,0,0,0-8.53-3.14,36.56,36.56,0,0,0-9.78-1.22q-8,0-13.38,3.38a21.21,21.21,0,0,0-8.09,9.31,32.33,32.33,0,0,0-2.72,13.57,32.77,32.77,0,0,0,2.67,13.57,20.92,20.92,0,0,0,8,9.31q5.31,3.39,13.21,3.38a37.14,37.14,0,0,0,9.86-1.2,61.08,61.08,0,0,0,8.78-3.16l1.52,13.3a49.48,49.48,0,0,1-9.45,3.24A45.91,45.91,0,0,1,1531.77,254.85Z"/><path class="cls-5" d="M1585.17,254.41a28.29,28.29,0,0,1-15.15-3.87,25.67,25.67,0,0,1-9.56-10.3,30.3,30.3,0,0,1-3.3-14.05,30.79,30.79,0,0,1,3.3-14.17,25.81,25.81,0,0,1,9.56-10.38,31.43,31.43,0,0,1,30.29,0,25.84,25.84,0,0,1,9.57,10.38,30.91,30.91,0,0,1,3.29,14.17,30.41,30.41,0,0,1-3.29,14.05,25.69,25.69,0,0,1-9.57,10.3A28.23,28.23,0,0,1,1585.17,254.41Zm0-11.12q6.81,0,10.49-4.76t3.67-12.34q0-7.68-3.67-12.51t-10.49-4.82q-6.76,0-10.46,4.82T1571,226.19q0,7.58,3.71,12.34T1585.17,243.29Z"/><path class="cls-5" d="M1622.54,253.32V198.83h12.64l.55,10.14-3.16-4.14a36,36,0,0,1,7.41-4.74,22.33,22.33,0,0,1,10-2.13q10.47,0,15.53,6.95t5.07,18v30.4h-13.51V224q0-7.63-2.54-11.28c-1.68-2.43-4.44-3.65-8.25-3.65a12,12,0,0,0-7.57,2.26,20.85,20.85,0,0,0-5.18,6l2.51-6.65v42.61Z"/><path class="cls-5" d="M1685.42,253.32V210h-7.74l1.2-11.12h6.54V187.28q0-7.18,4.28-11.44t12.28-4.25a37.71,37.71,0,0,1,4.82.28,35.24,35.24,0,0,1,4,.7l-1.2,10.9a9.94,9.94,0,0,0-1.8-.41,18.53,18.53,0,0,0-2.45-.13,6.71,6.71,0,0,0-4.69,1.58q-1.74,1.58-1.74,5.17v9.15h12V210h-12v43.37Z"/><path class="cls-5" d="M1719.2,190.55V177h13.51v13.51Zm0,62.77V198.83h13.51v54.49Z"/><path class="cls-5" d="M1745.35,253.32V198.83H1758l.33,5.78a26.17,26.17,0,0,1,5.83-4.58,15.58,15.58,0,0,1,8.23-2.28,12.58,12.58,0,0,1,2.39.21l-1,13.3a14.48,14.48,0,0,0-2.37-.44c-.78-.07-1.55-.11-2.31-.11a12.7,12.7,0,0,0-6.27,1.58,9.42,9.42,0,0,0-4,3.87v37.16Z"/><path class="cls-5" d="M1781.31,253.32V198.83h11.55l.87,8-2-2.4a37,37,0,0,1,7.44-4.44,24.08,24.08,0,0,1,10.1-2,21.56,21.56,0,0,1,7.71,1.28,16.43,16.43,0,0,1,5.75,3.65,18.49,18.49,0,0,1,3.87,5.64l-3.27-.76a17.8,17.8,0,0,1,7.66-7.25,24.91,24.91,0,0,1,11.41-2.56q7.51,0,12.26,3.11a18,18,0,0,1,7,8.74,35.78,35.78,0,0,1,2.24,13.22v30.29H1850.4V224q0-7.63-2.37-11.28t-7.88-3.65a11.23,11.23,0,0,0-4.76.95,8.62,8.62,0,0,0-3.38,2.78,12.76,12.76,0,0,0-2,4.41,23.58,23.58,0,0,0-.65,5.81v30.29h-13.52V224a27.92,27.92,0,0,0-1.06-8.39,9.09,9.09,0,0,0-3.38-4.93,10.27,10.27,0,0,0-6-1.61,12.76,12.76,0,0,0-7.76,2.21,20.23,20.23,0,0,0-5.31,6l2.5-7.3v43.37Z"/><path class="cls-5" d="M1887.77,254.41a16.6,16.6,0,0,1-8-1.93,14.36,14.36,0,0,1-5.72-5.59,17.21,17.21,0,0,1-2.13-8.83,14.19,14.19,0,0,1,2.15-7.92,18.43,18.43,0,0,1,5.67-5.51,32.24,32.24,0,0,1,7.63-3.48,53.63,53.63,0,0,1,8.12-1.88,63.07,63.07,0,0,1,7-.71q-.21-4.68-2.39-6.81t-7.41-2.13a25.42,25.42,0,0,0-7.12,1,50.7,50.7,0,0,0-7.81,3.13l-1.2-11a48.31,48.31,0,0,1,9.83-3.6,42.15,42.15,0,0,1,10-1.2,23.6,23.6,0,0,1,10.52,2.18,15,15,0,0,1,6.81,7q2.39,4.83,2.39,12.73v14.71a31.57,31.57,0,0,0,.39,5.91,3,3,0,0,0,1.41,2.31,7.18,7.18,0,0,0,3,.49h1.74l-1.2,11.12h-4.9a17,17,0,0,1-5.42-.79,12.19,12.19,0,0,1-4.06-2.21,11.12,11.12,0,0,1-2.72-3.32,17.49,17.49,0,0,1-7.22,4.66A27.35,27.35,0,0,1,1887.77,254.41Zm5.67-10.35a13.74,13.74,0,0,0,4.47-1,13.27,13.27,0,0,0,4.79-3V227.71a32.79,32.79,0,0,0-7.63,1.26,17.14,17.14,0,0,0-6.37,3.21,6.65,6.65,0,0,0-2.56,5.34,6.39,6.39,0,0,0,1.74,4.93C1889,243.52,1890.9,244.06,1893.44,244.06Z"/><path class="cls-5" d="M1930.27,253.32V198.83h12.64l.33,5.78a26.17,26.17,0,0,1,5.83-4.58,15.55,15.55,0,0,1,8.22-2.28,12.69,12.69,0,0,1,2.4.21l-1,13.3a14.48,14.48,0,0,0-2.37-.44c-.78-.07-1.55-.11-2.31-.11a12.7,12.7,0,0,0-6.27,1.58,9.36,9.36,0,0,0-4,3.87v37.16Z"/><rect class="cls-4" x="1430.47" y="623.26" width="590.63" height="206.28" rx="28.08"/><path class="cls-5" d="M1480.91,761.36V685.08h28.55a40.53,40.53,0,0,1,19.4,4.55,33,33,0,0,1,13.34,13.08q4.86,8.52,4.85,20.51t-4.85,20.51a33,33,0,0,1-13.34,13.08,40.53,40.53,0,0,1-19.4,4.55Zm13.95-12.42h14.6a22.91,22.91,0,0,0,12.37-3.11,19.18,19.18,0,0,0,7.46-8.88,38.81,38.81,0,0,0,0-27.46,19.18,19.18,0,0,0-7.46-8.88,22.91,22.91,0,0,0-12.37-3.11h-14.6Z"/><path class="cls-5" d="M1556.42,698.59V685.08h13.52v13.51Zm0,62.77V706.88h13.52v54.48Z"/><path class="cls-5" d="M1598.05,762.45a42.53,42.53,0,0,1-9.73-1,49,49,0,0,1-8.69-3l1.2-11.55a52.83,52.83,0,0,0,8.26,4,24.33,24.33,0,0,0,8.52,1.5,11.88,11.88,0,0,0,6.16-1.31,4.49,4.49,0,0,0,2.12-4.14,5.35,5.35,0,0,0-1.11-3.49,9.9,9.9,0,0,0-3.35-2.45c-1.49-.73-3.35-1.51-5.56-2.34a47.62,47.62,0,0,1-8.53-4,15.62,15.62,0,0,1-5.34-5.25,14.77,14.77,0,0,1-1.82-7.6,14.4,14.4,0,0,1,2.45-8.29,16.22,16.22,0,0,1,7-5.61,26.32,26.32,0,0,1,10.74-2,34.86,34.86,0,0,1,9.29,1.14,34,34,0,0,1,7.6,3.11l-1.2,11.55a45,45,0,0,0-7.36-4.23,19.7,19.7,0,0,0-8.11-1.66,8.88,8.88,0,0,0-5.4,1.42,4.72,4.72,0,0,0-1.91,4,5.15,5.15,0,0,0,2.67,4.74,64.36,64.36,0,0,0,8.56,3.87,51.37,51.37,0,0,1,6.62,3,20.46,20.46,0,0,1,4.66,3.49,12.32,12.32,0,0,1,2.75,4.33,16,16,0,0,1,.9,5.58,15.2,15.2,0,0,1-2.48,8.8,15.41,15.41,0,0,1-7.25,5.53A31.39,31.39,0,0,1,1598.05,762.45Z"/><path class="cls-5" d="M1628.67,787.73V706.88h10.9l2.61,9-4-1.42a32.32,32.32,0,0,1,8.17-6.18,23,23,0,0,1,10.79-2.32,22.65,22.65,0,0,1,13.46,3.87,24.22,24.22,0,0,1,8.25,10.3,36.56,36.56,0,0,1,0,28.11,24.22,24.22,0,0,1-8.25,10.3,22.65,22.65,0,0,1-13.46,3.87,26.07,26.07,0,0,1-10.35-1.74,29.65,29.65,0,0,1-8.07-5.56l3.49-2.73v35.31Zm26.37-36.4a10.83,10.83,0,0,0,9.4-4.76q3.35-4.77,3.35-12.34t-3.35-12.37a10.86,10.86,0,0,0-9.4-4.74,11.91,11.91,0,0,0-12.1,8.2,28.83,28.83,0,0,0,0,17.81,11.88,11.88,0,0,0,12.1,8.2Z"/><path class="cls-5" d="M1715.74,762.45a28.25,28.25,0,0,1-15.15-3.87,25.6,25.6,0,0,1-9.56-10.3,30.3,30.3,0,0,1-3.3-14,30.79,30.79,0,0,1,3.3-14.17,25.74,25.74,0,0,1,9.56-10.38,31.43,31.43,0,0,1,30.29,0,25.74,25.74,0,0,1,9.56,10.38,30.79,30.79,0,0,1,3.3,14.17,30.3,30.3,0,0,1-3.3,14,25.6,25.6,0,0,1-9.56,10.3A28.23,28.23,0,0,1,1715.74,762.45Zm0-11.12q6.81,0,10.48-4.76t3.68-12.34q0-7.68-3.68-12.51t-10.48-4.82q-6.77,0-10.47,4.82t-3.7,12.51q0,7.57,3.7,12.34T1715.74,751.33Z"/><path class="cls-5" d="M1753.11,761.36V706.88h12.64l.55,10.13-3.16-4.14a36.44,36.44,0,0,1,7.41-4.74,22.33,22.33,0,0,1,10-2.13q10.47,0,15.53,7t5.07,18v30.4h-13.51V732.05q0-7.63-2.54-11.28t-8.25-3.65a12.07,12.07,0,0,0-7.58,2.26,21,21,0,0,0-5.17,6l2.5-6.65v42.61Z"/><path class="cls-5" d="M1813.26,698.59V685.08h13.51v13.51Zm0,62.77V706.88h13.51v54.48Z"/><path class="cls-5" d="M1867.75,762.45a26.12,26.12,0,0,1-10.74-2,32.47,32.47,0,0,1-8.44-5.5l4-2.83-.66,9.26H1839.3V679.63h13.52v36.29l-3.27-2.07a27.2,27.2,0,0,1,8-5.78,23.81,23.81,0,0,1,10.17-2.07,22.64,22.64,0,0,1,13.45,3.87,24.24,24.24,0,0,1,8.26,10.3,36.68,36.68,0,0,1,0,28.11,24.24,24.24,0,0,1-8.26,10.3A22.64,22.64,0,0,1,1867.75,762.45Zm-2-11.12a11,11,0,0,0,6.87-2.17,13.44,13.44,0,0,0,4.3-6,27.71,27.71,0,0,0,0-17.81,13.41,13.41,0,0,0-4.3-6,11,11,0,0,0-6.87-2.18,12,12,0,0,0-12.17,8.2,28.07,28.07,0,0,0,0,17.81,11.93,11.93,0,0,0,12.17,8.2Z"/><path class="cls-5" d="M1915.58,762.45a14.75,14.75,0,0,1-7.92-1.93,11.7,11.7,0,0,1-4.55-5.18,17.16,17.16,0,0,1-1.48-7.17V679.63h13.52v63a25.25,25.25,0,0,0,.52,6.18,2.73,2.73,0,0,0,1.93,2.18,17.73,17.73,0,0,0,4.09.35l-1.2,11.12Z"/><path class="cls-5" d="M1956,762.45q-9.87,0-16.43-4a25.34,25.34,0,0,1-9.83-10.46,31.29,31.29,0,0,1-3.27-14.25,30.91,30.91,0,0,1,3.08-13.78,24.93,24.93,0,0,1,9-10.17,26.14,26.14,0,0,1,14.5-3.84q7.85,0,13.07,3.22a20.34,20.34,0,0,1,7.85,8.58,26.75,26.75,0,0,1,2.62,11.85,31.54,31.54,0,0,1-.22,3.62c-.15,1.22-.37,2.48-.66,3.79h-35.19a17.38,17.38,0,0,0,3.18,8.2,14.52,14.52,0,0,0,5.94,4.6,19.36,19.36,0,0,0,7.55,1.47,30.55,30.55,0,0,0,8.83-1.22,34.32,34.32,0,0,0,7.51-3.24l.66,11.44a38.37,38.37,0,0,1-7.74,2.89A40.32,40.32,0,0,1,1956,762.45Zm-15.15-34.54h22A13.92,13.92,0,0,0,1962,723a9.39,9.39,0,0,0-3.08-4.17,9.14,9.14,0,0,0-5.8-1.69,11,11,0,0,0-8.23,3A15.2,15.2,0,0,0,1940.86,727.91Z"/></g></svg>