<svg id="Capa_1" data-name="Capa 1" xmlns="http://www.w3.org/2000/svg" viewBox="0 0 2283 1040"><defs><style>.cls-1{fill:#002060;}.cls-2{fill:#fdfffe;}.cls-3{fill:#00a338;}</style></defs><rect class="cls-1" x="-1.44" y="73" width="2285.44" height="297"/><path class="cls-2" d="M538.43,270.28V170.18h34.68q11,0,18.84,3.36a24.78,24.78,0,0,1,12,10.51q4.14,7.15,4.14,18.52T604,221.2A25.24,25.24,0,0,1,592.06,232q-7.8,3.49-18.66,3.5H555.31v34.82Zm16.88-49h16q9.95,0,14.91-4.5t5-14q0-9.5-4.93-14T571,184.34H555.31Z"/><path class="cls-2" d="M646.9,271.71q-10.08,0-16.45-4a23.52,23.52,0,0,1-9.33-11.44,47.44,47.44,0,0,1-3-17.62V199.28H634.1v38q0,10.37,3.54,15.55t11.4,5.18a17.65,17.65,0,0,0,17.16-11.22l-2.71,8.22V199.28h15.94v71H664.77l-1.5-12.94,3.72,4.07a22.71,22.71,0,0,1-8.29,7.37A24.26,24.26,0,0,1,646.9,271.71Z"/><path class="cls-2" d="M732.56,271.71a32.54,32.54,0,0,1-14.13-3,29.14,29.14,0,0,1-10.54-8.4l4.5-3.22L711,270.28H696.23V163h15.95v48.84l-3.72-2.51a33.12,33.12,0,0,1,10.47-8.22,29.92,29.92,0,0,1,13.63-3.07q10.29,0,17.41,5.07a32.26,32.26,0,0,1,10.83,13.48,44.61,44.61,0,0,1,3.72,18.27,43.35,43.35,0,0,1-3.87,18.44,32.63,32.63,0,0,1-11,13.38A29.05,29.05,0,0,1,732.56,271.71Zm-2.22-13.44a15.48,15.48,0,0,0,9.65-3,19,19,0,0,0,6.11-8.33,35.55,35.55,0,0,0,0-24.13,18.68,18.68,0,0,0-6.11-8.26,15.64,15.64,0,0,0-9.65-3,17.82,17.82,0,0,0-10.15,2.82,18.08,18.08,0,0,0-6.51,8,31,31,0,0,0-2.29,12.51,31.32,31.32,0,0,0,2.29,12.65,17.66,17.66,0,0,0,6.51,8A18.19,18.19,0,0,0,730.34,258.27Z"/><path class="cls-2" d="M795.4,271.71q-6.51,0-10.55-2.5a14.87,14.87,0,0,1-5.89-6.62,21.5,21.5,0,0,1-1.86-9V163h16v83.3a34.85,34.85,0,0,0,.72,8.4,4.32,4.32,0,0,0,2.75,3.29,20.71,20.71,0,0,0,6.11.68l-1.71,13Z"/><path class="cls-2" d="M813.35,186.7V170.18h15.94V186.7Zm0,83.58v-71h15.94v71Z"/><path class="cls-2" d="M879.05,271.71q-12.15,0-20.37-5a32.09,32.09,0,0,1-12.41-13.3A40.41,40.41,0,0,1,842.09,235a42.19,42.19,0,0,1,4.11-18.73,31.43,31.43,0,0,1,12.48-13.44q8.36-5,21.09-5a43.15,43.15,0,0,1,10.72,1.25,37.76,37.76,0,0,1,8.44,3.18l-1.64,13.23a38.59,38.59,0,0,0-7.73-2.89,34.38,34.38,0,0,0-8.79-1.11q-10.72,0-16.55,6.32t-5.83,17q0,10.22,5.79,16.87t16.38,6.65a31,31,0,0,0,8.72-1.22,40.24,40.24,0,0,0,8.15-3.36l1.64,13.3a35.77,35.77,0,0,1-8.75,3.29A45.31,45.31,0,0,1,879.05,271.71Z"/><path class="cls-2" d="M927,271.71a22.55,22.55,0,0,1-10.8-2.57,19,19,0,0,1-7.54-7.3,21.77,21.77,0,0,1-2.75-11.15,18.87,18.87,0,0,1,2.75-10.33,23.18,23.18,0,0,1,7.29-7.19,42.23,42.23,0,0,1,9.94-4.54,69.55,69.55,0,0,1,10.87-2.46,77.08,77.08,0,0,1,10-.86q-.22-7.59-3.47-10.48T933,211.94a32.9,32.9,0,0,0-9,1.28,48.62,48.62,0,0,0-10.23,4.51l-1.64-13a54.18,54.18,0,0,1,12.05-4.89,49.35,49.35,0,0,1,13.12-1.75q8.35,0,14,2.93a18.73,18.73,0,0,1,8.55,9.65q2.9,6.72,2.89,17.95V246a47.49,47.49,0,0,0,.5,7.94,5.46,5.46,0,0,0,2,3.72,8,8,0,0,0,4.47,1h1.93l-1.72,13H965.5a25.08,25.08,0,0,1-8.08-1.11,13.69,13.69,0,0,1-5.26-3.11,18.22,18.22,0,0,1-3.46-4.79,25.49,25.49,0,0,1-9.41,6.58A31.16,31.16,0,0,1,927,271.71Zm5.58-12.37a18.48,18.48,0,0,0,7.36-1.75,19.69,19.69,0,0,0,6.87-5V236.17a52.14,52.14,0,0,0-12.37,1.76,20.59,20.59,0,0,0-8.69,4.5A9.86,9.86,0,0,0,922.6,250c0,3.2.84,5.56,2.54,7.08S929.32,259.34,932.61,259.34Z"/><path class="cls-2" d="M981.51,270.28v-71H996l.79,9.08a37.22,37.22,0,0,1,8.65-7.44,19.86,19.86,0,0,1,10.66-3.07,13.73,13.73,0,0,1,3.21.36L1018,214.44a16.31,16.31,0,0,0-2.72-.47c-.91-.07-1.84-.1-2.79-.1a18.5,18.5,0,0,0-8.94,2.21,14,14,0,0,0-5.72,5.15v49Z"/><path class="cls-2" d="M1060.16,270.28v-71h14.23l1.36,13.37-4.44-4.22a37.34,37.34,0,0,1,11.19-7.72,32.62,32.62,0,0,1,13.2-2.64q14.29,0,21,9t6.64,23.81v39.4h-15.94V231.74q0-10.44-3.65-15.33t-12-4.9a18.73,18.73,0,0,0-18.23,11.65l2.64-8.44v55.56Z"/><path class="cls-2" d="M1167.12,271.71q-10.08,0-16.44-4a23.52,23.52,0,0,1-9.33-11.44,47.23,47.23,0,0,1-3-17.62V199.28h15.95v38q0,10.37,3.53,15.55t11.41,5.18a18.47,18.47,0,0,0,10.37-2.86,18.7,18.7,0,0,0,6.79-8.36l-2.72,8.22V199.28h16v71H1185l-1.5-12.94,3.72,4.07a22.75,22.75,0,0,1-8.3,7.37A24.23,24.23,0,0,1,1167.12,271.71Z"/><path class="cls-2" d="M1250.78,271.71q-12.73,0-21.27-5.15a33.41,33.41,0,0,1-12.87-13.62,42.29,42.29,0,0,1-.29-36.68,32.35,32.35,0,0,1,11.8-13.23q7.75-5,18.84-5,9.72,0,16.59,3.93a26.37,26.37,0,0,1,10.47,10.83,33.48,33.48,0,0,1,3.61,15.77,36,36,0,0,1-.25,4.18c-.17,1.45-.39,2.94-.68,4.47h-47.9q1,7.78,4.36,12.37a19.29,19.29,0,0,0,8.36,6.61,28.36,28.36,0,0,0,10.8,2,43.46,43.46,0,0,0,11.05-1.4,45.71,45.71,0,0,0,9.9-3.82l1.22,13.23a61.51,61.51,0,0,1-10.09,3.71A49.46,49.46,0,0,1,1250.78,271.71Zm-21.24-45.33h31.82a18.12,18.12,0,0,0-1.47-7.26,12.31,12.31,0,0,0-4.64-5.5,14.8,14.8,0,0,0-8.33-2.11q-7.51,0-11.69,4.07A21.07,21.07,0,0,0,1229.54,226.38Z"/><path class="cls-2" d="M1309.05,270.28l-27.24-71h16.3l18.38,51.84,18.23-51.84h16.37l-27.17,71Z"/><path class="cls-2" d="M1375.19,271.71a22.5,22.5,0,0,1-10.8-2.57,19,19,0,0,1-7.54-7.3,21.67,21.67,0,0,1-2.76-11.15,18.79,18.79,0,0,1,2.76-10.33,23,23,0,0,1,7.29-7.19,42.23,42.23,0,0,1,9.94-4.54,69.55,69.55,0,0,1,10.87-2.46,76.94,76.94,0,0,1,10-.86q-.21-7.59-3.47-10.48t-10.26-2.89a33,33,0,0,0-9,1.28,48.57,48.57,0,0,0-10.22,4.51l-1.65-13a54.57,54.57,0,0,1,12-4.89,49.4,49.4,0,0,1,13.12-1.75q8.37,0,14,2.93a18.71,18.71,0,0,1,8.54,9.65q2.89,6.72,2.9,17.95V246a46.43,46.43,0,0,0,.5,7.94,5.5,5.5,0,0,0,2,3.72,8.08,8.08,0,0,0,4.47,1h1.93l-1.71,13h-4.44a25.12,25.12,0,0,1-8.08-1.11,13.73,13.73,0,0,1-5.25-3.11,18.25,18.25,0,0,1-3.47-4.79,25.37,25.37,0,0,1-9.4,6.58A31.23,31.23,0,0,1,1375.19,271.71Zm5.57-12.37a18.52,18.52,0,0,0,7.37-1.75,19.66,19.66,0,0,0,6.86-5V236.17a52.22,52.22,0,0,0-12.37,1.76,20.54,20.54,0,0,0-8.68,4.5,9.84,9.84,0,0,0-3.19,7.54q0,4.8,2.54,7.08T1380.76,259.34Z"/><path class="cls-2" d="M1494.66,271.71q-12.15,0-20.38-5a32.13,32.13,0,0,1-12.4-13.3,40.42,40.42,0,0,1-4.19-18.41,42.06,42.06,0,0,1,4.12-18.73,31.47,31.47,0,0,1,12.47-13.44q8.37-5,21.1-5a43.2,43.2,0,0,1,10.72,1.25,38.14,38.14,0,0,1,8.44,3.18l-1.65,13.23a38.49,38.49,0,0,0-7.72-2.89,34.38,34.38,0,0,0-8.79-1.11q-10.73,0-16.56,6.32t-5.82,17q0,10.22,5.79,16.87t16.37,6.65a31,31,0,0,0,8.72-1.22,40.33,40.33,0,0,0,8.16-3.36l1.64,13.3a36,36,0,0,1-8.76,3.29A45.17,45.17,0,0,1,1494.66,271.71Z"/><path class="cls-2" d="M1542.64,271.71a22.5,22.5,0,0,1-10.8-2.57,19,19,0,0,1-7.54-7.3,21.67,21.67,0,0,1-2.76-11.15,18.79,18.79,0,0,1,2.76-10.33,23,23,0,0,1,7.29-7.19,42.23,42.23,0,0,1,9.94-4.54,69.55,69.55,0,0,1,10.87-2.46,76.94,76.94,0,0,1,10-.86q-.21-7.59-3.47-10.48t-10.26-2.89a33,33,0,0,0-9,1.28,48.57,48.57,0,0,0-10.22,4.51l-1.65-13a54.57,54.57,0,0,1,12-4.89,49.4,49.4,0,0,1,13.12-1.75q8.37,0,14,2.93a18.71,18.71,0,0,1,8.54,9.65q2.9,6.72,2.9,17.95V246a46.43,46.43,0,0,0,.5,7.94,5.5,5.5,0,0,0,2,3.72,8.08,8.08,0,0,0,4.47,1h1.93l-1.71,13h-4.44a25.12,25.12,0,0,1-8.08-1.11,13.73,13.73,0,0,1-5.25-3.11,18.25,18.25,0,0,1-3.47-4.79,25.45,25.45,0,0,1-9.4,6.58A31.23,31.23,0,0,1,1542.64,271.71Zm5.57-12.37a18.52,18.52,0,0,0,7.37-1.75,19.66,19.66,0,0,0,6.86-5V236.17a52.22,52.22,0,0,0-12.37,1.76,20.65,20.65,0,0,0-8.69,4.5,9.86,9.86,0,0,0-3.18,7.54q0,4.8,2.54,7.08T1548.21,259.34Z"/><path class="cls-2" d="M1597.12,270.28v-71h14.44l.79,9.08a37,37,0,0,1,8.65-7.44,19.85,19.85,0,0,1,10.65-3.07,13.81,13.81,0,0,1,3.22.36l-1.29,16.23a16,16,0,0,0-2.72-.47c-.9-.07-1.83-.1-2.78-.1a18.48,18.48,0,0,0-8.94,2.21,13.88,13.88,0,0,0-5.72,5.15v49Z"/><path class="cls-2" d="M1671.05,306.25a56.1,56.1,0,0,1-17.34-2.44,26.54,26.54,0,0,1-11.69-7,16.77,16.77,0,0,1-1.14-20.81,24,24,0,0,1,8.72-7,14.64,14.64,0,0,1-4.76-4.18,9.33,9.33,0,0,1-1.75-5.54,9.54,9.54,0,0,1,2-5.94,13.73,13.73,0,0,1,5.61-4.14,24.78,24.78,0,0,1-8.51-9.87,30.43,30.43,0,0,1-2.93-13.37,29.21,29.21,0,0,1,3.4-14,25.73,25.73,0,0,1,9.86-10.19q6.48-3.83,15.77-3.83a30.48,30.48,0,0,1,9,1.29,26.82,26.82,0,0,1,7.55,3.64,25.92,25.92,0,0,1,6.75-2.53,38.89,38.89,0,0,1,9.33-1h3.36l-1.35,10.22h-5.29c-.43,0-1.18,0-2.26.07a24.18,24.18,0,0,0-3.18.36,25,25,0,0,1,3.68,7.51,29.13,29.13,0,0,1,1.26,8.51,30.3,30.3,0,0,1-3.36,14.26,25.52,25.52,0,0,1-9.84,10.23q-6.46,3.82-15.69,3.82a30.79,30.79,0,0,1-4.26-.28,39.83,39.83,0,0,1-4-.79,2.85,2.85,0,0,0-2.15,2.79c0,1.19.72,2.14,2.15,2.86a24.9,24.9,0,0,0,6.86,1.79l14.66,2.14q11.43,1.57,17.84,6.51t6.4,14a19,19,0,0,1-4.15,12.3,26.3,26.3,0,0,1-11.94,7.94A55.29,55.29,0,0,1,1671.05,306.25Zm.86-12.73q9.36,0,14.22-2.36c3.25-1.58,4.87-3.91,4.87-7a6.68,6.68,0,0,0-3.26-6q-3.26-2-10-3.18l-17.23-2.65a18.68,18.68,0,0,0-6.22,4.08,8.71,8.71,0,0,0-2.58,6.43q0,5.5,5.44,8.12T1671.91,293.52Zm-3.65-51.41q7,0,10.62-4.43t3.61-11.73q0-7.15-3.61-11.55T1668.26,210q-7.08,0-10.69,4.39T1654,226q0,7.29,3.61,11.73T1668.26,242.11Z"/><path class="cls-2" d="M1730,271.71a22.5,22.5,0,0,1-10.8-2.57,18.91,18.91,0,0,1-7.54-7.3,21.67,21.67,0,0,1-2.76-11.15,18.79,18.79,0,0,1,2.76-10.33,23,23,0,0,1,7.29-7.19,42,42,0,0,1,9.94-4.54,69.69,69.69,0,0,1,10.86-2.46,77.23,77.23,0,0,1,10-.86q-.21-7.59-3.47-10.48T1736,211.94a33,33,0,0,0-9,1.28,48.57,48.57,0,0,0-10.22,4.51l-1.65-13a54.37,54.37,0,0,1,12-4.89,49.4,49.4,0,0,1,13.12-1.75q8.37,0,14,2.93a18.71,18.71,0,0,1,8.54,9.65q2.89,6.72,2.9,17.95V246a46.43,46.43,0,0,0,.5,7.94,5.46,5.46,0,0,0,2,3.72,8.08,8.08,0,0,0,4.47,1h1.93l-1.71,13h-4.44a25.12,25.12,0,0,1-8.08-1.11,13.73,13.73,0,0,1-5.25-3.11,18.25,18.25,0,0,1-3.47-4.79,25.45,25.45,0,0,1-9.4,6.58A31.23,31.23,0,0,1,1730,271.71Zm5.57-12.37a18.52,18.52,0,0,0,7.37-1.75,19.66,19.66,0,0,0,6.86-5V236.17a52.14,52.14,0,0,0-12.37,1.76,20.59,20.59,0,0,0-8.69,4.5,9.86,9.86,0,0,0-3.18,7.54q0,4.8,2.54,7.08T1735.61,259.34Z"/><rect class="cls-3" x="1073" y="653" width="1113" height="36" rx="8.84"/><rect class="cls-3" x="1073" y="570" width="1113" height="36" rx="8.84"/><rect class="cls-3" x="1073.82" y="821.4" width="1113" height="36" rx="8.84"/><rect class="cls-3" x="1073.02" y="740.76" width="1113" height="36" rx="8.84"/><path class="cls-1" d="M99.35,667.44v-88.2h55.5V593.1H114.22v21.36H146v13.86H114.22v25.26h41.83v13.86Z"/><path class="cls-1" d="M185.4,668.7a44,44,0,0,1-12.09-1.48,55.58,55.58,0,0,1-9.14-3.43l1.39-12.54a48.66,48.66,0,0,0,8.63,4.38,28.83,28.83,0,0,0,10.71,1.92q5.16,0,7.88-1.67a5.61,5.61,0,0,0,2.7-5.13,6.37,6.37,0,0,0-1.57-4.45,13.08,13.08,0,0,0-4.25-3,64.3,64.3,0,0,0-6-2.36,63.77,63.77,0,0,1-9.45-4,18.85,18.85,0,0,1-6.71-5.76,15.52,15.52,0,0,1-2.49-9.14,17.15,17.15,0,0,1,2.65-9.36,18.17,18.17,0,0,1,7.81-6.64,29.81,29.81,0,0,1,12.85-2.46,37,37,0,0,1,10.49,1.32,42.21,42.21,0,0,1,8,3.28l-1.38,12.29a42.46,42.46,0,0,0-7.75-4.51,22.19,22.19,0,0,0-9.14-1.79A12.63,12.63,0,0,0,181.4,616a5.91,5.91,0,0,0-2.61,5.23,6.1,6.1,0,0,0,3.28,5.73,74.79,74.79,0,0,0,10.2,4.35,63.07,63.07,0,0,1,6.81,2.9,25.4,25.4,0,0,1,5.54,3.71,15,15,0,0,1,3.72,5.11,17.19,17.19,0,0,1,1.32,7,18.23,18.23,0,0,1-2.52,9.52,17.1,17.1,0,0,1-7.88,6.67Q193.91,668.7,185.4,668.7Z"/><path class="cls-1" d="M220.5,697.93v-93h11.21l2.71,11.78-4.16-1.83a34.61,34.61,0,0,1,9.54-8,26.26,26.26,0,0,1,13-3q9,0,15.22,4.41A27.68,27.68,0,0,1,277.45,620a40.3,40.3,0,0,1,3.21,16.26,40.92,40.92,0,0,1-3.15,16.25,27.39,27.39,0,0,1-9.32,11.78q-6.18,4.41-15.38,4.41a29.11,29.11,0,0,1-12.44-2.39,25.38,25.38,0,0,1-9-7.44l3.21-2.83v41.89Zm30.05-41.07a13.58,13.58,0,0,0,11.59-5.64q4.16-5.64,4.16-15t-4.16-15a13.61,13.61,0,0,0-11.59-5.61,15.94,15.94,0,0,0-9,2.49,15.63,15.63,0,0,0-5.71,7.09,28.18,28.18,0,0,0-2,11,28.57,28.57,0,0,0,2,11.15,15.23,15.23,0,0,0,5.71,7A16.23,16.23,0,0,0,250.55,656.86Z"/><path class="cls-1" d="M322,668.7q-11.22,0-18.74-4.54a29.44,29.44,0,0,1-11.34-12,35.41,35.41,0,0,1-3.82-16.41,35.8,35.8,0,0,1,3.56-15.91,28.47,28.47,0,0,1,10.4-11.65q6.82-4.38,16.6-4.38a29,29,0,0,1,14.62,3.47,23.2,23.2,0,0,1,9.22,9.54,29.51,29.51,0,0,1,3.19,13.89,34.05,34.05,0,0,1-.22,3.69q-.22,1.92-.6,3.93H302.65c.58,4.58,1.87,8.22,3.84,10.9a17,17,0,0,0,7.37,5.83,24.92,24.92,0,0,0,9.51,1.8,38.29,38.29,0,0,0,9.74-1.23,40.17,40.17,0,0,0,8.72-3.37l1.07,11.65a53.63,53.63,0,0,1-8.88,3.28A43.78,43.78,0,0,1,322,668.7Zm-18.71-39.94h28a16,16,0,0,0-1.29-6.4,11,11,0,0,0-4.09-4.85,13.07,13.07,0,0,0-7.34-1.86q-6.61,0-10.3,3.6A18.49,18.49,0,0,0,303.28,628.76Z"/><path class="cls-1" d="M385.55,668.7q-10.71,0-17.95-4.38a28.34,28.34,0,0,1-10.93-11.72A35.59,35.59,0,0,1,353,636.38a37.19,37.19,0,0,1,3.62-16.5,27.77,27.77,0,0,1,11-11.85q7.36-4.41,18.58-4.41a38.06,38.06,0,0,1,9.45,1.1,32.83,32.83,0,0,1,7.44,2.81l-1.45,11.65a33.85,33.85,0,0,0-6.81-2.55,30.35,30.35,0,0,0-7.74-1q-9.45,0-14.59,5.58t-5.13,15q0,9,5.1,14.87t14.43,5.86a27.77,27.77,0,0,0,7.68-1.07,35.75,35.75,0,0,0,7.18-3l1.45,11.72a31.83,31.83,0,0,1-7.71,2.89A40,40,0,0,1,385.55,668.7Z"/><path class="cls-1" d="M413.9,593.79V579.24H428v14.55Zm0,73.65V604.88H428v62.56Z"/><path class="cls-1" d="M446.85,667.44V616.28h-9.57l1.45-11.4h8.12v-13.8q0-8.31,4.76-13.23t13.76-4.91a40.2,40.2,0,0,1,5.55.35,29.79,29.79,0,0,1,4.53,1l-1.51,11.47a17,17,0,0,0-2.42-.57,21,21,0,0,0-3-.19,7.88,7.88,0,0,0-5.57,1.89q-2.06,1.89-2.05,6.24v11.78h14.87v11.4H460.9v51.16Z"/><path class="cls-1" d="M485.28,593.79V579.24h14.05v14.55Zm0,73.65V604.88h14.05v62.56Z"/><path class="cls-1" d="M543.18,668.7q-10.71,0-18-4.38a28.34,28.34,0,0,1-10.93-11.72,35.58,35.58,0,0,1-3.68-16.22,37.06,37.06,0,0,1,3.62-16.5,27.75,27.75,0,0,1,11-11.85q7.38-4.41,18.59-4.41a38.18,38.18,0,0,1,9.45,1.1,32.92,32.92,0,0,1,7.43,2.81l-1.45,11.65a33.75,33.75,0,0,0-6.8-2.55,30.43,30.43,0,0,0-7.75-1q-9.45,0-14.59,5.58t-5.13,15q0,9,5.1,14.87t14.43,5.86a27.79,27.79,0,0,0,7.69-1.07,36,36,0,0,0,7.18-3l1.45,11.72a31.92,31.92,0,0,1-7.72,2.89A39.94,39.94,0,0,1,543.18,668.7Z"/><path class="cls-1" d="M585.45,668.7a19.77,19.77,0,0,1-9.51-2.27,16.69,16.69,0,0,1-6.65-6.42,19.16,19.16,0,0,1-2.43-9.83,16.56,16.56,0,0,1,2.43-9.1,20.29,20.29,0,0,1,6.43-6.34,36.9,36.9,0,0,1,8.75-4,62.43,62.43,0,0,1,9.58-2.17,71.91,71.91,0,0,1,8.79-.76q-.2-6.67-3.06-9.23t-9-2.55a28.7,28.7,0,0,0-7.94,1.14,42.75,42.75,0,0,0-9,4l-1.44-11.47A47.25,47.25,0,0,1,583,605.35a44,44,0,0,1,11.56-1.54,26.63,26.63,0,0,1,12.35,2.58,16.51,16.51,0,0,1,7.53,8.51q2.55,5.93,2.55,15.81v15.37a42,42,0,0,0,.44,7,4.81,4.81,0,0,0,1.73,3.27,7.05,7.05,0,0,0,3.94.88h1.7l-1.51,11.47h-3.91a21.91,21.91,0,0,1-7.12-1,12.08,12.08,0,0,1-4.63-2.74,16.26,16.26,0,0,1-3.05-4.22,22.45,22.45,0,0,1-8.29,5.8A27.43,27.43,0,0,1,585.45,668.7Zm4.91-10.9a16.28,16.28,0,0,0,6.49-1.54,17.27,17.27,0,0,0,6-4.38V637.39a46.34,46.34,0,0,0-10.9,1.54,18.33,18.33,0,0,0-7.65,4,8.71,8.71,0,0,0-2.81,6.65q0,4.22,2.24,6.24C585.27,657.13,587.47,657.8,590.36,657.8Z"/><path class="cls-1" d="M662.37,668.7q-10.71,0-18-4.38a28.3,28.3,0,0,1-10.94-11.72,35.71,35.71,0,0,1-3.68-16.22,37.19,37.19,0,0,1,3.62-16.5,27.77,27.77,0,0,1,11-11.85q7.37-4.41,18.58-4.41a38.18,38.18,0,0,1,9.45,1.1,32.74,32.74,0,0,1,7.43,2.81l-1.44,11.65a33.85,33.85,0,0,0-6.81-2.55,30.43,30.43,0,0,0-7.75-1q-9.45,0-14.58,5.58t-5.14,15q0,9,5.11,14.87t14.42,5.86a27.79,27.79,0,0,0,7.69-1.07,35.75,35.75,0,0,0,7.18-3L680,664.61a31.92,31.92,0,0,1-7.72,2.89A39.88,39.88,0,0,1,662.37,668.7Z"/><path class="cls-1" d="M690.72,593.79V579.24h14v14.55Zm0,73.65V604.88h14v62.56Z"/><path class="cls-1" d="M747.74,668.7q-10.1,0-17.17-4.41a29.27,29.27,0,0,1-10.84-11.78A35.3,35.3,0,0,1,716,636.26a35.68,35.68,0,0,1,3.75-16.32,29.34,29.34,0,0,1,10.84-11.88q7.08-4.44,17.17-4.44t17.13,4.44a29.28,29.28,0,0,1,10.87,11.88,35.68,35.68,0,0,1,3.75,16.32,35.3,35.3,0,0,1-3.75,16.25,29.21,29.21,0,0,1-10.87,11.78Q757.75,668.7,747.74,668.7Zm0-11.84q8.31,0,12.82-5.64t4.5-15q0-9.45-4.5-15.12t-12.82-5.67q-8.32,0-12.86,5.67t-4.53,15.12q0,9.32,4.53,15T747.74,656.86Z"/><path class="cls-1" d="M790.58,667.44V604.88h12.53l1.2,11.78L800.4,613a32.77,32.77,0,0,1,9.86-6.81,28.76,28.76,0,0,1,11.63-2.33q12.6,0,18.46,7.94t5.85,21v34.71h-14v-34q0-9.19-3.22-13.51t-10.58-4.32a16.53,16.53,0,0,0-16.07,10.27l2.33-7.43v49Z"/><path class="cls-1" d="M890.55,668.7q-11.2,0-18.74-4.54a29.44,29.44,0,0,1-11.34-12,37.29,37.29,0,0,1-.25-32.32,28.4,28.4,0,0,1,10.4-11.65q6.82-4.38,16.6-4.38a28.93,28.93,0,0,1,14.61,3.47,23.23,23.23,0,0,1,9.23,9.54,29.51,29.51,0,0,1,3.18,13.89,31.69,31.69,0,0,1-.22,3.69c-.15,1.28-.34,2.59-.6,3.93H871.21q.88,6.87,3.85,10.9a17,17,0,0,0,7.37,5.83,24.92,24.92,0,0,0,9.51,1.8,38.22,38.22,0,0,0,9.73-1.23,40.25,40.25,0,0,0,8.73-3.37l1.07,11.65a53.63,53.63,0,0,1-8.88,3.28A43.81,43.81,0,0,1,890.55,668.7Zm-18.71-39.94h28a16,16,0,0,0-1.29-6.4,10.94,10.94,0,0,0-4.1-4.85,13.05,13.05,0,0,0-7.34-1.86q-6.61,0-10.3,3.6A18.64,18.64,0,0,0,871.84,628.76Z"/><path class="cls-1" d="M943,668.7a44.07,44.07,0,0,1-12.1-1.48,55.45,55.45,0,0,1-9.13-3.43l1.38-12.54a48.42,48.42,0,0,0,8.64,4.38,28.83,28.83,0,0,0,10.71,1.92q5.16,0,7.87-1.67a5.59,5.59,0,0,0,2.71-5.13,6.37,6.37,0,0,0-1.58-4.45,13,13,0,0,0-4.25-3,64,64,0,0,0-6-2.36,63.77,63.77,0,0,1-9.45-4,18.68,18.68,0,0,1-6.71-5.76,15.52,15.52,0,0,1-2.49-9.14,17.23,17.23,0,0,1,2.64-9.36,18.2,18.2,0,0,1,7.82-6.64,29.77,29.77,0,0,1,12.85-2.46,37,37,0,0,1,10.49,1.32,42.21,42.21,0,0,1,8,3.28L963,620.51a42.46,42.46,0,0,0-7.75-4.51,22.14,22.14,0,0,0-9.13-1.79A12.61,12.61,0,0,0,939,616a5.91,5.91,0,0,0-2.62,5.23,6.12,6.12,0,0,0,3.28,5.73,75,75,0,0,0,10.21,4.35,63.75,63.75,0,0,1,6.8,2.9,25.16,25.16,0,0,1,5.54,3.71A14.87,14.87,0,0,1,965.9,643a17.19,17.19,0,0,1,1.32,7,18.23,18.23,0,0,1-2.52,9.52,17.08,17.08,0,0,1-7.87,6.67Q951.47,668.7,943,668.7Z"/></svg>